<?xml version="1.0" encoding="UTF-8"?>
<svg xmlns="http://www.w3.org/2000/svg" viewBox="0 0 719.24 157.1">
  <defs>
    <style>
      .cls-1, .cls-2 {
        fill: #fff;
      }

      .cls-3 {
        fill: #a8a9a9;
        mix-blend-mode: multiply;
      }

      .cls-4 {
        isolation: isolate;
      }

      .cls-5, .cls-2 {
        stroke: #231815;
      }

      .cls-5, .cls-2, .cls-6 {
        stroke-width: .5px;
      }

      .cls-5, .cls-2, .cls-6, .cls-7 {
        stroke-miterlimit: 10;
      }

      .cls-5, .cls-8 {
        fill: #fedf7b;
      }

      .cls-6 {
        fill: #ee8592;
      }

      .cls-6, .cls-7 {
        stroke: #000;
      }

      .cls-7 {
        fill: #9f77ad;
        stroke-width: .31px;
      }
    </style>
  </defs>
  <g class="cls-4">
    <g id="_レイヤー_2" data-name="レイヤー_2">
      <g id="_レイヤー_1-2" data-name="レイヤー_1">
        <rect class="cls-6" x="35.46" y=".25" width="683.52" height="135.74"/>
        <polygon class="cls-2" points="35.46 135.99 .91 156.66 718.99 156.66 718.99 135.99 35.46 135.99"/>
        <g>
          <polygon class="cls-5" points="35.46 135.99 35.46 .25 .91 .25 .91 156.66 35.46 135.99"/>
          <g>
            <path class="cls-7" d="M18.18,51.15h0c-6.07,3.61-10.99,17.63-10.99,31.32v70.33l21.98-13.06v-70.33c0-13.69-4.92-21.87-10.99-18.26Z"/>
            <path class="cls-7" d="M8.16,82.47c0-6.47,1.12-13.22,3.14-18.99,1.96-5.58,4.62-9.69,7.31-11.29.82-.49,1.62-.73,2.38-.73,1.36,0,3.34.8,5,4.62,1.43,3.27,2.22,8.01,2.22,13.33v69.61l-20.05,11.92v-68.46Z"/>
            <path class="cls-7" d="M9.12,82.47c0-6.32,1.09-12.91,3.07-18.54,1.87-5.33,4.37-9.23,6.85-10.7.68-.41,1.34-.61,1.95-.61,1.57,0,3.01,1.38,4.15,4,1.36,3.11,2.11,7.66,2.11,12.79v68.89l-18.13,10.77v-66.6Z"/>
            <g>
              <path class="cls-3" d="M11.12,101.34c0,1.25.45,1.99,1,1.66s1-1.61,1-2.85-.45-1.99-1-1.66-1,1.61-1,2.85Z"/>
              <path class="cls-8" d="M10.88,100.94c0,1.25.45,1.99,1,1.66s1-1.61,1-2.85-.45-1.99-1-1.66-1,1.61-1,2.85Z"/>
              <path class="cls-1" d="M11.36,99.5c0,.22.08.35.18.29s.18-.28.18-.5-.08-.35-.18-.29-.18.28-.18.5Z"/>
            </g>
          </g>
        </g>
      </g>
    </g>
  </g>
</svg>