<?xml version="1.0" encoding="UTF-8"?>
<svg id="_レイヤー_2" data-name="レイヤー_2" xmlns="http://www.w3.org/2000/svg" xmlns:xlink="http://www.w3.org/1999/xlink" viewBox="0 0 570.02 517.26">
  <defs>
    <style>
      .cls-1 {
        fill: #ec6d7b;
      }

      .cls-2, .cls-3, .cls-4, .cls-5, .cls-6 {
        stroke-miterlimit: 10;
      }

      .cls-2, .cls-3, .cls-6 {
        stroke: #000;
      }

      .cls-2, .cls-7, .cls-4, .cls-8, .cls-5 {
        fill: none;
      }

      .cls-9 {
        fill: #231815;
      }

      .cls-10 {
        fill: url(#_新規パターンスウォッチ_7);
      }

      .cls-11 {
        fill: #fff;
      }

      .cls-3, .cls-6 {
        stroke-width: .53px;
      }

      .cls-7 {
        stroke: #231815;
        stroke-linecap: round;
        stroke-linejoin: round;
        stroke-width: 3.42px;
      }

      .cls-4 {
        stroke: #fff;
        stroke-width: 3.21px;
      }

      .cls-5 {
        stroke: #ef857d;
      }

      .cls-12 {
        fill: #8bd1f4;
      }

      .cls-13 {
        opacity: .2;
      }

      .cls-6 {
        fill: #dfdfdf;
      }

      .cls-14 {
        fill: #fedf7b;
      }

      .cls-15 {
        fill: #e95037;
      }

      .cls-16 {
        fill: url(#_新規パターンスウォッチ_9);
      }

      .cls-17 {
        fill: #fcd03e;
      }
    </style>
    <pattern id="_新規パターンスウォッチ_7" data-name="新規パターンスウォッチ 7" x="0" y="0" width="36.08" height="36.08" patternTransform="translate(8538.91 9959.41) scale(2.13)" patternUnits="userSpaceOnUse" viewBox="0 0 36.08 36.08">
      <g>
        <rect class="cls-8" x="0" width="36.08" height="36.08"/>
        <g>
          <line class="cls-5" x1="-38.66" y1="33.5" x2="38.43" y2="-43.58"/>
          <line class="cls-5" x1="-36.08" y1="36.08" x2="41.01" y2="-41.01"/>
          <line class="cls-5" x1="-33.5" y1="38.66" x2="43.58" y2="-38.43"/>
          <line class="cls-5" x1="-30.93" y1="41.23" x2="46.16" y2="-35.85"/>
          <line class="cls-5" x1="-28.35" y1="43.81" x2="48.74" y2="-33.27"/>
          <line class="cls-5" x1="-25.77" y1="46.39" x2="51.32" y2="-30.7"/>
          <line class="cls-5" x1="-23.19" y1="48.97" x2="53.89" y2="-28.12"/>
          <line class="cls-5" x1="-20.62" y1="51.54" x2="56.47" y2="-25.54"/>
          <line class="cls-5" x1="-18.04" y1="54.12" x2="59.05" y2="-22.97"/>
          <line class="cls-5" x1="-15.46" y1="56.7" x2="61.62" y2="-20.39"/>
          <line class="cls-5" x1="-12.89" y1="59.27" x2="64.2" y2="-17.81"/>
          <line class="cls-5" x1="-10.31" y1="61.85" x2="66.78" y2="-15.23"/>
          <line class="cls-5" x1="-7.73" y1="64.43" x2="69.36" y2="-12.66"/>
          <line class="cls-5" x1="-5.15" y1="67.01" x2="71.93" y2="-10.08"/>
          <line class="cls-5" x1="-2.58" y1="69.58" x2="74.51" y2="-7.5"/>
          <line class="cls-5" y1="72.16" x2="77.09" y2="-4.93"/>
          <line class="cls-5" x1="2.58" y1="74.74" x2="79.66" y2="-2.35"/>
        </g>
      </g>
    </pattern>
    <pattern id="_新規パターンスウォッチ_9" data-name="新規パターンスウォッチ 9" x="0" y="0" width="5.64" height="5.64" patternTransform="translate(9658.04 11066.84) scale(2.27)" patternUnits="userSpaceOnUse" viewBox="0 0 5.64 5.64">
      <g>
        <rect class="cls-8" y="0" width="5.64" height="5.64"/>
        <rect class="cls-8" y="0" width="5.64" height="5.64"/>
        <g>
          <path class="cls-11" d="M.74,0c0,.41-.33.74-.74.74s-.74-.33-.74-.74.33-.74.74-.74.74.33.74.74Z"/>
          <path class="cls-11" d="M6.37,0c0,.41-.33.74-.74.74s-.74-.33-.74-.74.33-.74.74-.74.74.33.74.74Z"/>
          <path class="cls-11" d="M.74,5.64c0,.41-.33.74-.74.74s-.74-.33-.74-.74.33-.74.74-.74.74.33.74.74Z"/>
          <path class="cls-11" d="M3.55,2.82c0,.41-.33.74-.74.74s-.74-.33-.74-.74.33-.74.74-.74.74.33.74.74Z"/>
          <path class="cls-11" d="M6.37,5.64c0,.41-.33.74-.74.74s-.74-.33-.74-.74.33-.74.74-.74.74.33.74.74Z"/>
        </g>
      </g>
    </pattern>
  </defs>
  <g id="_レイヤー_1-2" data-name="レイヤー_1">
    <g>
      <rect class="cls-11" x=".5" y=".5" width="569.02" height="516.26" rx="30" ry="30"/>
      <rect class="cls-2" x=".5" y=".5" width="569.02" height="516.26" rx="30" ry="30"/>
    </g>
    <circle class="cls-10" cx="284.09" cy="243.65" r="169.58"/>
    <g>
      <g>
        <g>
          <path class="cls-6" d="M273.88,232.66l-32.12,165.25c91.27,17.74,179.64-41.86,197.38-133.13,17.74-91.27-41.86-179.64-133.13-197.38-10.31-2-21.62-3.09-32.12-3.09v168.35Z"/>
          <path class="cls-4" d="M273.88,232.66l-32.12,165.25c91.27,17.74,179.64-41.86,197.38-133.13,17.74-91.27-41.86-179.64-133.13-197.38-10.31-2-21.62-3.09-32.12-3.09v168.35Z"/>
          <path class="cls-14" d="M273.88,232.66l-32.12,165.25c91.27,17.74,179.64-41.86,197.38-133.13,17.74-91.27-41.86-179.64-133.13-197.38-10.31-2-21.62-3.09-32.12-3.09v168.35Z"/>
          <g class="cls-13">
            <path class="cls-16" d="M273.88,232.66l-32.12,165.25c91.27,17.74,179.64-41.86,197.38-133.13,17.74-91.27-41.86-179.64-133.13-197.38-10.31-2-21.62-3.09-32.12-3.09v168.35Z"/>
          </g>
        </g>
        <g>
          <path class="cls-3" d="M273.88,232.66V64.31c-92.98,0-168.35,75.37-168.35,168.35,0,82.38,55.36,149.54,136.23,165.25l32.12-165.25Z"/>
          <path class="cls-4" d="M273.88,232.66V64.31c-92.98,0-168.35,75.37-168.35,168.35,0,82.38,55.36,149.54,136.23,165.25l32.12-165.25Z"/>
          <path class="cls-1" d="M273.88,232.66V64.31c-92.98,0-168.35,75.37-168.35,168.35,0,82.38,55.36,149.54,136.23,165.25l32.12-165.25Z"/>
        </g>
        <g>
          <g>
            <path d="M181.59,156.01h-7.59c-.84,4.82-2,8.81-3.49,11.99-.61,1.18-1.3,2.32-2.14,3.32.19.09.33.18.47.23,4,2.04,7.82,4.36,11.46,7l-2.52,3.73c-3.54-2.73-7.27-5.04-11.13-7.13-.42-.18-.84-.41-1.21-.68-1.21,1.04-2.51,2-3.96,2.82-4.15,2.32-9.64,4.18-16.44,5.54-.23-1.64-.79-3-1.68-4.09,7.27-1.23,12.48-2.86,15.65-4.86.75-.46,1.49-.95,2.14-1.5-2.42-1.09-5.08-2.18-8.01-3.36-.56,1.09-1.07,2.09-1.58,3l-4.38-1.95c2.47-4.72,4.7-9.4,6.66-14.04h-10.99v-3.91h12.58c1.26-3.23,2.38-6.41,3.4-9.59l4.56,1.41c-.89,2.82-1.82,5.54-2.79,8.18h21.01v3.91ZM166.41,166.18c1.49-2.5,2.56-5.91,3.21-10.18h-10.57c-1.35,3.36-2.75,6.54-4.19,9.59,3.59,1.36,6.71,2.59,9.41,3.77.84-1,1.54-2.04,2.14-3.18Z"/>
            <path d="M191.85,151.24c-.47,4-1.17,7.72-2,11.18l-3.45-1.09c.84-3.27,1.54-6.81,2-10.63l3.45.54ZM196.92,142.51v40.66h-4.19v-40.66h4.19ZM203.26,154.87s.05-.09.05-.09c.89-2.45,1.72-5.68,2.56-9.59l3.82,1.04c-.51,2.45-1.02,4.68-1.54,6.59h5.54v-10.13h4.15v10.13h9.83v3.73h-9.83v8.13h8.38v3.77h-8.38v9.72h11.13v3.73h-28.6v-3.73h13.32v-9.72h-8.38v-3.77h8.38v-8.13h-6.61c-.05.14-.09.23-.09.27-.65,2-1.63,4.27-2.93,6.81-1.02-1-2.19-1.91-3.49-2.68,1.03-1.82,1.91-3.77,2.66-5.95l-3.17,1.36c-.79-2.36-1.58-4.5-2.38-6.41l3.07-1.04c.84,1.82,1.68,3.77,2.52,5.95Z"/>
            <path d="M129.99,196.55c1.98,0,4.13,1.61,4.13,4.03l.17,49.27c0,1.69-1.4,3.06-3.14,3.06s-3.14-1.37-3.14-3.06v-46.53c0-.4-.33-.64-.66-.64h-3.14c-1.73,0-3.14-1.37-3.14-3.06s1.4-3.06,3.14-3.06h5.78Z"/>
            <path d="M193.3,224.72c0,18.6-7.76,28.42-22.37,28.42-12.46,0-22.04-9.02-22.45-29.39-.33-18.28,9.08-27.94,22.7-28.26,4.79,0,9.08,1.13,12.55,3.54,1.57,1.13,2.06,3.14,1.16,4.75-.83,1.29-2.56,1.69-3.88.8-2.81-2.01-6.27-3.22-9.82-3.06-6.93,0-16.51,4.27-16.34,22.46.17,14.17,6.03,22.95,15.93,22.95,12.38,0,16.42-10.79,16.09-22.46-.08-4.43-.5-7.25-2.06-11.92-.58-1.53.58-3.14,2.23-3.3,2.06-.08,3.63,1.29,4.29,3.22,1.07,2.98,1.98,7.17,1.98,12.24Z"/>
            <path d="M249.87,224.72c0,18.6-7.76,28.42-22.37,28.42-12.46,0-22.04-9.02-22.45-29.39-.33-18.28,9.08-27.94,22.7-28.26,4.79,0,9.08,1.13,12.55,3.54,1.57,1.13,2.06,3.14,1.16,4.75-.83,1.29-2.56,1.69-3.88.8-2.81-2.01-6.27-3.22-9.82-3.06-6.93,0-16.51,4.27-16.34,22.46.17,14.17,6.03,22.95,15.93,22.95,12.38,0,16.42-10.79,16.09-22.46-.08-4.43-.5-7.25-2.06-11.92-.58-1.53.58-3.14,2.23-3.3,2.06-.08,3.63,1.29,4.29,3.22,1.07,2.98,1.98,7.17,1.98,12.24Z"/>
          </g>
          <g>
            <path class="cls-7" d="M181.59,156.01h-7.59c-.84,4.82-2,8.81-3.49,11.99-.61,1.18-1.3,2.32-2.14,3.32.19.09.33.18.47.23,4,2.04,7.82,4.36,11.46,7l-2.52,3.73c-3.54-2.73-7.27-5.04-11.13-7.13-.42-.18-.84-.41-1.21-.68-1.21,1.04-2.51,2-3.96,2.82-4.15,2.32-9.64,4.18-16.44,5.54-.23-1.64-.79-3-1.68-4.09,7.27-1.23,12.48-2.86,15.65-4.86.75-.46,1.49-.95,2.14-1.5-2.42-1.09-5.08-2.18-8.01-3.36-.56,1.09-1.07,2.09-1.58,3l-4.38-1.95c2.47-4.72,4.7-9.4,6.66-14.04h-10.99v-3.91h12.58c1.26-3.23,2.38-6.41,3.4-9.59l4.56,1.41c-.89,2.82-1.82,5.54-2.79,8.18h21.01v3.91ZM166.41,166.18c1.49-2.5,2.56-5.91,3.21-10.18h-10.57c-1.35,3.36-2.75,6.54-4.19,9.59,3.59,1.36,6.71,2.59,9.41,3.77.84-1,1.54-2.04,2.14-3.18Z"/>
            <path class="cls-7" d="M191.85,151.24c-.47,4-1.17,7.72-2,11.18l-3.45-1.09c.84-3.27,1.54-6.81,2-10.63l3.45.54ZM196.92,142.51v40.66h-4.19v-40.66h4.19ZM203.26,154.87s.05-.09.05-.09c.89-2.45,1.72-5.68,2.56-9.59l3.82,1.04c-.51,2.45-1.02,4.68-1.54,6.59h5.54v-10.13h4.15v10.13h9.83v3.73h-9.83v8.13h8.38v3.77h-8.38v9.72h11.13v3.73h-28.6v-3.73h13.32v-9.72h-8.38v-3.77h8.38v-8.13h-6.61c-.05.14-.09.23-.09.27-.65,2-1.63,4.27-2.93,6.81-1.02-1-2.19-1.91-3.49-2.68,1.03-1.82,1.91-3.77,2.66-5.95l-3.17,1.36c-.79-2.36-1.58-4.5-2.38-6.41l3.07-1.04c.84,1.82,1.68,3.77,2.52,5.95Z"/>
            <path class="cls-7" d="M129.99,196.55c1.98,0,4.13,1.61,4.13,4.03l.17,49.27c0,1.69-1.4,3.06-3.14,3.06s-3.14-1.37-3.14-3.06v-46.53c0-.4-.33-.64-.66-.64h-3.14c-1.73,0-3.14-1.37-3.14-3.06s1.4-3.06,3.14-3.06h5.78Z"/>
            <path class="cls-7" d="M193.3,224.72c0,18.6-7.76,28.42-22.37,28.42-12.46,0-22.04-9.02-22.45-29.39-.33-18.28,9.08-27.94,22.7-28.26,4.79,0,9.08,1.13,12.55,3.54,1.57,1.13,2.06,3.14,1.16,4.75-.83,1.29-2.56,1.69-3.88.8-2.81-2.01-6.27-3.22-9.82-3.06-6.93,0-16.51,4.27-16.34,22.46.17,14.17,6.03,22.95,15.93,22.95,12.38,0,16.42-10.79,16.09-22.46-.08-4.43-.5-7.25-2.06-11.92-.58-1.53.58-3.14,2.23-3.3,2.06-.08,3.63,1.29,4.29,3.22,1.07,2.98,1.98,7.17,1.98,12.24Z"/>
            <path class="cls-7" d="M249.87,224.72c0,18.6-7.76,28.42-22.37,28.42-12.46,0-22.04-9.02-22.45-29.39-.33-18.28,9.08-27.94,22.7-28.26,4.79,0,9.08,1.13,12.55,3.54,1.57,1.13,2.06,3.14,1.16,4.75-.83,1.29-2.56,1.69-3.88.8-2.81-2.01-6.27-3.22-9.82-3.06-6.93,0-16.51,4.27-16.34,22.46.17,14.17,6.03,22.95,15.93,22.95,12.38,0,16.42-10.79,16.09-22.46-.08-4.43-.5-7.25-2.06-11.92-.58-1.53.58-3.14,2.23-3.3,2.06-.08,3.63,1.29,4.29,3.22,1.07,2.98,1.98,7.17,1.98,12.24Z"/>
          </g>
          <g>
            <path class="cls-11" d="M181.59,156.01h-7.59c-.84,4.82-2,8.81-3.49,11.99-.61,1.18-1.3,2.32-2.14,3.32.19.09.33.18.47.23,4,2.04,7.82,4.36,11.46,7l-2.52,3.73c-3.54-2.73-7.27-5.04-11.13-7.13-.42-.18-.84-.41-1.21-.68-1.21,1.04-2.51,2-3.96,2.82-4.15,2.32-9.64,4.18-16.44,5.54-.23-1.64-.79-3-1.68-4.09,7.27-1.23,12.48-2.86,15.65-4.86.75-.46,1.49-.95,2.14-1.5-2.42-1.09-5.08-2.18-8.01-3.36-.56,1.09-1.07,2.09-1.58,3l-4.38-1.95c2.47-4.72,4.7-9.4,6.66-14.04h-10.99v-3.91h12.58c1.26-3.23,2.38-6.41,3.4-9.59l4.56,1.41c-.89,2.82-1.82,5.54-2.79,8.18h21.01v3.91ZM166.41,166.18c1.49-2.5,2.56-5.91,3.21-10.18h-10.57c-1.35,3.36-2.75,6.54-4.19,9.59,3.59,1.36,6.71,2.59,9.41,3.77.84-1,1.54-2.04,2.14-3.18Z"/>
            <path class="cls-11" d="M191.85,151.24c-.47,4-1.17,7.72-2,11.18l-3.45-1.09c.84-3.27,1.54-6.81,2-10.63l3.45.54ZM196.92,142.51v40.66h-4.19v-40.66h4.19ZM203.26,154.87s.05-.09.05-.09c.89-2.45,1.72-5.68,2.56-9.59l3.82,1.04c-.51,2.45-1.02,4.68-1.54,6.59h5.54v-10.13h4.15v10.13h9.83v3.73h-9.83v8.13h8.38v3.77h-8.38v9.72h11.13v3.73h-28.6v-3.73h13.32v-9.72h-8.38v-3.77h8.38v-8.13h-6.61c-.05.14-.09.23-.09.27-.65,2-1.63,4.27-2.93,6.81-1.02-1-2.19-1.91-3.49-2.68,1.03-1.82,1.91-3.77,2.66-5.95l-3.17,1.36c-.79-2.36-1.58-4.5-2.38-6.41l3.07-1.04c.84,1.82,1.68,3.77,2.52,5.95Z"/>
            <path class="cls-11" d="M129.99,196.55c1.98,0,4.13,1.61,4.13,4.03l.17,49.27c0,1.69-1.4,3.06-3.14,3.06s-3.14-1.37-3.14-3.06v-46.53c0-.4-.33-.64-.66-.64h-3.14c-1.73,0-3.14-1.37-3.14-3.06s1.4-3.06,3.14-3.06h5.78Z"/>
            <path class="cls-11" d="M193.3,224.72c0,18.6-7.76,28.42-22.37,28.42-12.46,0-22.04-9.02-22.45-29.39-.33-18.28,9.08-27.94,22.7-28.26,4.79,0,9.08,1.13,12.55,3.54,1.57,1.13,2.06,3.14,1.16,4.75-.83,1.29-2.56,1.69-3.88.8-2.81-2.01-6.27-3.22-9.82-3.06-6.93,0-16.51,4.27-16.34,22.46.17,14.17,6.03,22.95,15.93,22.95,12.38,0,16.42-10.79,16.09-22.46-.08-4.43-.5-7.25-2.06-11.92-.58-1.53.58-3.14,2.23-3.3,2.06-.08,3.63,1.29,4.29,3.22,1.07,2.98,1.98,7.17,1.98,12.24Z"/>
            <path class="cls-11" d="M249.87,224.72c0,18.6-7.76,28.42-22.37,28.42-12.46,0-22.04-9.02-22.45-29.39-.33-18.28,9.08-27.94,22.7-28.26,4.79,0,9.08,1.13,12.55,3.54,1.57,1.13,2.06,3.14,1.16,4.75-.83,1.29-2.56,1.69-3.88.8-2.81-2.01-6.27-3.22-9.82-3.06-6.93,0-16.51,4.27-16.34,22.46.17,14.17,6.03,22.95,15.93,22.95,12.38,0,16.42-10.79,16.09-22.46-.08-4.43-.5-7.25-2.06-11.92-.58-1.53.58-3.14,2.23-3.3,2.06-.08,3.63,1.29,4.29,3.22,1.07,2.98,1.98,7.17,1.98,12.24Z"/>
          </g>
        </g>
        <g>
          <path d="M276.88,221.83h-5.88l-1.33-1.3v-5.05l1.33-1.23h5.88l1.26,1.23v5.05l-1.26,1.3ZM276.88,241.75h-5.88l-1.33-1.3v-5.05l1.33-1.23h5.88l1.26,1.23v5.05l-1.26,1.3Z"/>
          <path class="cls-7" d="M276.88,221.83h-5.88l-1.33-1.3v-5.05l1.33-1.23h5.88l1.26,1.23v5.05l-1.26,1.3ZM276.88,241.75h-5.88l-1.33-1.3v-5.05l1.33-1.23h5.88l1.26,1.23v5.05l-1.26,1.3Z"/>
          <path class="cls-11" d="M276.88,221.83h-5.88l-1.33-1.3v-5.05l1.33-1.23h5.88l1.26,1.23v5.05l-1.26,1.3ZM276.88,241.75h-5.88l-1.33-1.3v-5.05l1.33-1.23h5.88l1.26,1.23v5.05l-1.26,1.3Z"/>
        </g>
        <g>
          <g>
            <path d="M340.7,144.1v18.81h-14.62c-.23,1.45-.51,2.73-.79,3.91h17.61c-.75,8.63-1.63,13.31-2.65,14.17-.88.91-3.68,1.54-8.43,2-.23-1.23-.75-2.63-1.49-4.27h5.82c.47-.09.75-.54.93-1.41l1.07-6.95h-13.93c-.19.59-.42,1.09-.61,1.54-1.4,2.86-3.54,5.22-6.43,7.04-2.98,1.77-6.89,3.18-11.78,4.22-.23-1.5-.79-2.73-1.63-3.72,5.03-.91,8.62-2.14,10.85-3.59,2.19-1.45,3.87-3.27,4.98-5.5h-13.83v-3.54h15.28c.37-1.18.65-2.45.88-3.91h-13.23v-18.81h32ZM322.35,151.92v-4.41h-9.32v4.41h9.32ZM322.35,155.14h-9.32v4.41h9.32v-4.41ZM326.31,151.92h10.01v-4.41h-10.01v4.41ZM336.32,155.14h-10.01v4.41h10.01v-4.41Z"/>
            <path d="M353.44,151.24c-.47,4-1.17,7.72-2,11.18l-3.45-1.09c.84-3.27,1.54-6.81,2-10.63l3.45.54ZM358.52,142.51v40.66h-4.19v-40.66h4.19ZM364.86,154.87s.05-.09.05-.09c.89-2.45,1.72-5.68,2.56-9.59l3.82,1.04c-.51,2.45-1.02,4.68-1.54,6.59h5.54v-10.13h4.15v10.13h9.83v3.73h-9.83v8.13h8.38v3.77h-8.38v9.72h11.13v3.73h-28.6v-3.73h13.32v-9.72h-8.38v-3.77h8.38v-8.13h-6.61c-.05.14-.09.23-.09.27-.65,2-1.63,4.27-2.93,6.81-1.02-1-2.19-1.91-3.49-2.68,1.03-1.82,1.91-3.77,2.66-5.95l-3.17,1.36c-.79-2.36-1.58-4.5-2.38-6.41l3.07-1.04c.84,1.82,1.68,3.77,2.52,5.95Z"/>
            <path d="M311.16,196.55c1.98,0,4.13,1.61,4.13,4.03l.17,49.27c0,1.69-1.4,3.06-3.14,3.06s-3.14-1.37-3.14-3.06v-46.53c0-.4-.33-.64-.66-.64h-3.14c-1.73,0-3.14-1.37-3.14-3.06s1.4-3.06,3.14-3.06h5.78Z"/>
            <path d="M338.57,196.55c1.98,0,4.13,1.61,4.13,4.03l.17,49.27c0,1.69-1.4,3.06-3.14,3.06s-3.14-1.37-3.14-3.06v-46.53c0-.4-.33-.64-.66-.64h-3.14c-1.73,0-3.14-1.37-3.14-3.06s1.4-3.06,3.14-3.06h5.78Z"/>
            <path d="M378.17,233.1c-5.78,3.54-10.4,8.13-12.55,12.16-.17.24.08.56.33.56h21.54c1.73,0,3.14,1.37,3.14,3.06s-1.4,3.14-3.14,3.14h-26.17c-2.06,0-3.71-1.61-3.71-3.62,0-6.12,6.77-13.12,17-20.13,8.83-6.04,11.39-9.34,11.72-15.78.17-5.15-3.96-10.63-10.98-10.63-6.52.32-9.82,2.33-11.06,6.28-.58,1.69-2.23,2.74-4.13,2.74-1.73,0-3.05-1.93-2.64-3.62,1.9-6.76,8.09-11.35,17.66-11.11,10.57,0,17.66,7,17.42,16.42-.41,8.86-4.13,14.25-14.44,20.53Z"/>
          </g>
          <g>
            <path class="cls-7" d="M340.7,144.1v18.81h-14.62c-.23,1.45-.51,2.73-.79,3.91h17.61c-.75,8.63-1.63,13.31-2.65,14.17-.88.91-3.68,1.54-8.43,2-.23-1.23-.75-2.63-1.49-4.27h5.82c.47-.09.75-.54.93-1.41l1.07-6.95h-13.93c-.19.59-.42,1.09-.61,1.54-1.4,2.86-3.54,5.22-6.43,7.04-2.98,1.77-6.89,3.18-11.78,4.22-.23-1.5-.79-2.73-1.63-3.72,5.03-.91,8.62-2.14,10.85-3.59,2.19-1.45,3.87-3.27,4.98-5.5h-13.83v-3.54h15.28c.37-1.18.65-2.45.88-3.91h-13.23v-18.81h32ZM322.35,151.92v-4.41h-9.32v4.41h9.32ZM322.35,155.14h-9.32v4.41h9.32v-4.41ZM326.31,151.92h10.01v-4.41h-10.01v4.41ZM336.32,155.14h-10.01v4.41h10.01v-4.41Z"/>
            <path class="cls-7" d="M353.44,151.24c-.47,4-1.17,7.72-2,11.18l-3.45-1.09c.84-3.27,1.54-6.81,2-10.63l3.45.54ZM358.52,142.51v40.66h-4.19v-40.66h4.19ZM364.86,154.87s.05-.09.05-.09c.89-2.45,1.72-5.68,2.56-9.59l3.82,1.04c-.51,2.45-1.02,4.68-1.54,6.59h5.54v-10.13h4.15v10.13h9.83v3.73h-9.83v8.13h8.38v3.77h-8.38v9.72h11.13v3.73h-28.6v-3.73h13.32v-9.72h-8.38v-3.77h8.38v-8.13h-6.61c-.05.14-.09.23-.09.27-.65,2-1.63,4.27-2.93,6.81-1.02-1-2.19-1.91-3.49-2.68,1.03-1.82,1.91-3.77,2.66-5.95l-3.17,1.36c-.79-2.36-1.58-4.5-2.38-6.41l3.07-1.04c.84,1.82,1.68,3.77,2.52,5.95Z"/>
            <path class="cls-7" d="M311.16,196.55c1.98,0,4.13,1.61,4.13,4.03l.17,49.27c0,1.69-1.4,3.06-3.14,3.06s-3.14-1.37-3.14-3.06v-46.53c0-.4-.33-.64-.66-.64h-3.14c-1.73,0-3.14-1.37-3.14-3.06s1.4-3.06,3.14-3.06h5.78Z"/>
            <path class="cls-7" d="M338.57,196.55c1.98,0,4.13,1.61,4.13,4.03l.17,49.27c0,1.69-1.4,3.06-3.14,3.06s-3.14-1.37-3.14-3.06v-46.53c0-.4-.33-.64-.66-.64h-3.14c-1.73,0-3.14-1.37-3.14-3.06s1.4-3.06,3.14-3.06h5.78Z"/>
            <path class="cls-7" d="M378.17,233.1c-5.78,3.54-10.4,8.13-12.55,12.16-.17.24.08.56.33.56h21.54c1.73,0,3.14,1.37,3.14,3.06s-1.4,3.14-3.14,3.14h-26.17c-2.06,0-3.71-1.61-3.71-3.62,0-6.12,6.77-13.12,17-20.13,8.83-6.04,11.39-9.34,11.72-15.78.17-5.15-3.96-10.63-10.98-10.63-6.52.32-9.82,2.33-11.06,6.28-.58,1.69-2.23,2.74-4.13,2.74-1.73,0-3.05-1.93-2.64-3.62,1.9-6.76,8.09-11.35,17.66-11.11,10.57,0,17.66,7,17.42,16.42-.41,8.86-4.13,14.25-14.44,20.53Z"/>
          </g>
          <g>
            <path class="cls-11" d="M340.7,144.1v18.81h-14.62c-.23,1.45-.51,2.73-.79,3.91h17.61c-.75,8.63-1.63,13.31-2.65,14.17-.88.91-3.68,1.54-8.43,2-.23-1.23-.75-2.63-1.49-4.27h5.82c.47-.09.75-.54.93-1.41l1.07-6.95h-13.93c-.19.59-.42,1.09-.61,1.54-1.4,2.86-3.54,5.22-6.43,7.04-2.98,1.77-6.89,3.18-11.78,4.22-.23-1.5-.79-2.73-1.63-3.72,5.03-.91,8.62-2.14,10.85-3.59,2.19-1.45,3.87-3.27,4.98-5.5h-13.83v-3.54h15.28c.37-1.18.65-2.45.88-3.91h-13.23v-18.81h32ZM322.35,151.92v-4.41h-9.32v4.41h9.32ZM322.35,155.14h-9.32v4.41h9.32v-4.41ZM326.31,151.92h10.01v-4.41h-10.01v4.41ZM336.32,155.14h-10.01v4.41h10.01v-4.41Z"/>
            <path class="cls-11" d="M353.44,151.24c-.47,4-1.17,7.72-2,11.18l-3.45-1.09c.84-3.27,1.54-6.81,2-10.63l3.45.54ZM358.52,142.51v40.66h-4.19v-40.66h4.19ZM364.86,154.87s.05-.09.05-.09c.89-2.45,1.72-5.68,2.56-9.59l3.82,1.04c-.51,2.45-1.02,4.68-1.54,6.59h5.54v-10.13h4.15v10.13h9.83v3.73h-9.83v8.13h8.38v3.77h-8.38v9.72h11.13v3.73h-28.6v-3.73h13.32v-9.72h-8.38v-3.77h8.38v-8.13h-6.61c-.05.14-.09.23-.09.27-.65,2-1.63,4.27-2.93,6.81-1.02-1-2.19-1.91-3.49-2.68,1.03-1.82,1.91-3.77,2.66-5.95l-3.17,1.36c-.79-2.36-1.58-4.5-2.38-6.41l3.07-1.04c.84,1.82,1.68,3.77,2.52,5.95Z"/>
            <path class="cls-11" d="M311.16,196.55c1.98,0,4.13,1.61,4.13,4.03l.17,49.27c0,1.69-1.4,3.06-3.14,3.06s-3.14-1.37-3.14-3.06v-46.53c0-.4-.33-.64-.66-.64h-3.14c-1.73,0-3.14-1.37-3.14-3.06s1.4-3.06,3.14-3.06h5.78Z"/>
            <path class="cls-11" d="M338.57,196.55c1.98,0,4.13,1.61,4.13,4.03l.17,49.27c0,1.69-1.4,3.06-3.14,3.06s-3.14-1.37-3.14-3.06v-46.53c0-.4-.33-.64-.66-.64h-3.14c-1.73,0-3.14-1.37-3.14-3.06s1.4-3.06,3.14-3.06h5.78Z"/>
            <path class="cls-11" d="M378.17,233.1c-5.78,3.54-10.4,8.13-12.55,12.16-.17.24.08.56.33.56h21.54c1.73,0,3.14,1.37,3.14,3.06s-1.4,3.14-3.14,3.14h-26.17c-2.06,0-3.71-1.61-3.71-3.62,0-6.12,6.77-13.12,17-20.13,8.83-6.04,11.39-9.34,11.72-15.78.17-5.15-3.96-10.63-10.98-10.63-6.52.32-9.82,2.33-11.06,6.28-.58,1.69-2.23,2.74-4.13,2.74-1.73,0-3.05-1.93-2.64-3.62,1.9-6.76,8.09-11.35,17.66-11.11,10.57,0,17.66,7,17.42,16.42-.41,8.86-4.13,14.25-14.44,20.53Z"/>
          </g>
        </g>
      </g>
      <g>
        <g>
          <path d="M159.7,449.02c.87-10.4,1.24-20.74,3.55-30.91.68-2.99.16-6.3.53-9.45.35-2.94.52-5.9,1.21-8.78.29-1.22-.08-1.56-1.26-1.76-2.28-.38-4.58-.83-6.79-1.51-3.89-1.2-4.98-3.22-4.31-7.2.49-2.88,1.56-5.55,2.77-8.17,1.77-3.83,3.61-7.63,5.45-11.43.68-1.39,1.28-3.01,2.61-3.78,2.26-1.3,2.26-3.21,1.9-5.27-.46-2.63-1.05-5.24-1.62-7.86-.16-.75-.5-1.37-1.15-1.93-1.71-1.46-1.98-3.03-.77-4.83.57-.85.59-1.59.52-2.54-.5-7.01-.15-13.84,4.63-19.62,3.54-4.28,7.94-6.89,13.63-6.95.63,0,1.43-.11,1.85.22,2.18,1.68,4.89,1.51,7.31,2.29,6.16,1.99,9.46,6.82,11.63,12.54.67,1.76.97,3.67,1.32,5.53.3,1.58.54,3.1,1.47,4.53,1.16,1.79.89,3.73-.21,5.59-2.68,4.53-3.09,9.53-2.83,14.63.07,1.26.59,2.31,2.08,2.5.34.04.65.26.99.37,5.36,1.74,8.28,5.4,8.54,11.05.58,12.45.26,24.88-3.75,36.79-1.7,5.05-2.11,10.11-2.5,15.28-.63,8.36-1.54,16.69-2.91,24.97-.32,1.95-.95,3.36-3.26,3.26-.97-.04-1.36.56-1.37,1.49-.02,4.23-.03,8.46-.07,12.69,0,.89.25,1.01,1.11.81,2.73-.62,5.46-.47,8.14.35,1.78.55,2.61,1.67,2.29,3.68-.44,2.77-1.64,4.85-4.28,6.07-4.89,2.26-10.15,2.03-15.33,2.4-1.08.08-1.46-.77-1.54-1.66-.08-.98-.15-2,.03-2.95,1.26-6.78-.25-13.62.48-20.41.03-.27.05-.75-.07-.8-1.48-.61-3.04-.2-4.56-.28-1-.06-1.04.78-1.15,1.46-.8,5.22-1.85,10.42-2.26,15.67-.17,2.18.16,4.45-.19,6.68-.28,1.78-1.2,3.08-2.92,3.51-4.23,1.06-8.46,2.19-12.86,2.18-3.49,0-5.76-1.45-6.17-3.71-.49-2.67,1.19-4.86,4.68-6.1,2.25-.8,4.66-1.08,6.87-2.03,1.04-.45,1.46-1.03,1.54-2.19.31-4.71.7-9.41,1.16-14.11.11-1.15-.19-1.47-1.31-1.45-3.38.05-6.76,0-10.14,0-2.54-.01-2.7-.18-2.7-2.8,0-2.04,0-4.09,0-6.05ZM192.41,432.48c-1.19.19-2.46.96-3.33-.37-.82-1.26.18-2.18.89-2.96,1.95-2.13,2.89-4.53,2.73-7.46-.09-1.59,1-3.77.29-4.68-.92-1.17-3.14-.28-4.77-.14-1.73.15-2.37-.38-2.03-2.1.27-1.36,1.08-3.25.5-3.98-.75-.93-2.61.03-3.98.14-1.35.11-3.1-1.13-3.88.05-.65.99-.15,2.73-.15,4.13,0,2.6-.48,3.12-3.08,2.95-2.6-.17-5.2-.4-7.77-.77-2.24-.33-3.22.44-3.66,2.73-2.24,11.59-3.05,23.29-3.17,35.06-.02,1.5.75,1.51,1.84,1.51,6.12,0,12.25.06,18.37.04,6.24-.02,12.5.34,18.68-1.23,1.62-.41,2.19-1.07,2.43-2.51,1.64-9.79,2.57-19.66,3.27-29.73-.93.95-1.05,1.95-1.17,3.02-.42,3.51-1.35,6.9-3,10.05-.55,1.04-1.08,1.91-2.77,1.48-1.14-.29-2.42.35-2.94-1.37-.21-.69-.83-.13-1.25,0-1.93.62-2.57.04-2.2-1.99.1-.54.44-1.04.16-1.86ZM166.98,339.22c.69,7.57,2.4,14.75,4.35,21.88.21.76.66,1.23,1.32,1.54,6.68,3.11,13.45,3.96,20.38.81,1.17-.53,1.79-1.37,2.14-2.65,1.61-5.86,2.52-11.83,3.23-17.85.18-1.54-.23-2.2-1.65-2.78-6.66-2.69-12.08-6.85-15.49-13.36-1.5-2.87-2.77-3.42-5.53-1.67-5.16,3.27-8.66,7.76-8.76,14.08ZM202.6,392.16c2.05.34,4.06.6,6.03,1.04,1.48.33,1.93,1.72.69,2.39-2.12,1.15-1.43,2.99-1.4,4.48.06,2.51-.25,3.26-2.72,3.59-2.34.31-4.63-.18-6.91-.64-1.26-.25-1.75.06-1.92,1.38-.76,5.86-1.59,11.72-2.45,17.57-.27,1.82.05,2.89,2.22,3.08,1.75.15,3.5.28,5.25.38,1.18.07,1.71-.45,2.19-1.48,7.03-14.93,8.69-30.75,7.95-47-.25-5.42-2.79-8.99-8.04-10.59-2.02-.61-4.01-1.32-5.97-2.1-1.02-.41-1.51-.29-1.82.83-2.06,7.47-3.26,15.13-4.83,22.7-.15.75-.14,1.37.87,1.55,2.58.47,5.09,1.55,7.69-.27,1.04-.73,2.65-1.76,3.87-.64,1.28,1.17-.49,2.37-.7,3.72ZM153.71,391.13c-.09,1.81.73,2.88,2.05,3.61,1.37.76,2.89,1.08,4.41,1.39,8.77,1.76,17.64,2.76,26.51,3.77,4.81.55,4.91.58,7.11-3.9,2.65-5.41,2.57-4.4-2.57-5.38-5.19-.99-10.42-1.71-14.93-4.76-1.14-.77-2.55-1.3-2.75-2.96-.7-6.01-2.59-11.82-3-17.88-.05-.77-.23-1.33-1.1-.91-2.7,1.31-5.5,2.38-7,5.41-2.21,4.48-4.41,8.96-6.45,13.51-1.18,2.64-2.04,5.39-2.28,8.09ZM171.93,363.8c-.03.7-.1,1.12-.06,1.53.51,5.83,2.2,11.46,3.01,17.23.13.89.84,1.43,1.59,1.87,3.53,2.08,7.16,3.82,11.35,4.24,1.36.14,1.64-.21,1.86-1.42.75-4.29,1.59-8.57,2.48-12.84.68-3.28,1.49-6.52,2.36-10.31-7.78,3.96-15.09,3-22.59-.3ZM165.81,340.3c-.48-6.07,3.79-13.68,9.22-16.38,1.14-.57,2.35-.96,3.65-.9,1.34.06,2.44.49,3.05,1.85,3.6,8.04,10.46,12.25,18.21,15.37.74.3,1.96.63,1.74-1.03-.62-4.59-1.86-8.96-4.7-12.72-2.17-2.87-4.79-5.26-8.44-5.93-2.18-.4-4.44-.24-6.21-1.97-.32-.31-1.07-.26-1.62-.26-5.05.02-9.04,2.27-12.31,5.97-4.83,5.47-5.2,12.09-4.83,18.89.04.76.19,1.3,1.27,1.02.86-.22,1.45-.27,1.2-1.39-.18-.82-.15-1.68-.22-2.52ZM177.37,411.01c.12-3.08-.46-6.48-.83-9.9-.1-.92-.43-1.15-1.26-1.26-2.5-.32-5.01-.68-7.5-1.1-1.04-.17-1.34.27-1.51,1.19-.92,4.91-1.41,9.87-1.65,14.85-.03.68,0,1.25.94,1.23,3.38-.06,6.72.47,10.07.78,1.19.11,1.86-.24,1.76-1.62-.1-1.26-.02-2.53-.02-4.17ZM173.86,472.78c0,1.09.07,1.94-.01,2.77-.16,1.68.18,2.94,2.14,3.17,2.11.24,3.9-.8,4.18-2.62.65-4.23,1.3-8.46,1.77-12.7.2-1.79,1.69-4.15.33-5.21-1.19-.93-3.64-.18-5.53-.3-1.19-.07-1.54.36-1.63,1.51-.37,4.55-.84,9.08-1.25,13.39ZM194.75,482.57c3.49-.29,7.01-.39,10.32-1.8,2.42-1.04,3.83-2.75,4.06-5.4.06-.65.07-1.2-.52-1.69-2.07-1.72-8.6-1.44-10.46.52-1.49,1.57-3.28,2.49-5.44,2.24-1.55-.18-1.85.47-2.01,1.82-.55,4.78-.6,4.77,4.06,4.31ZM180.47,478.71c-.34.19-.64.35-.95.51-3.07,1.63-5.08,1.08-6.9-1.94-.24-.4-.42-.68-.96-.45-2.71,1.17-5.77,1.32-8.4,2.7-1.5.78-2.67,1.97-2.38,3.85.27,1.75,1.69,2.3,3.21,2.57.89.16,1.82.28,2.72.24,3.03-.13,5.97-.91,8.92-1.49,4.3-.85,4.67-1.4,4.75-5.99ZM208.31,394.42c-2.05-.34-4.12-.63-6.17-1.03-.7-.14-1.69-.01-1.93-.97-.2-.81.75-.9,1.12-1.36.34-.43.81-.78.82-1.57-1.93.52-4.24.84-5.07,2.55-1.41,2.89-2.77,5.79-4.58,8.77,3.76.57,7.27,1.28,10.83,1.61,3.43.32,4.62-1.17,3.03-4.1-1-1.83-.29-2.11.93-2.75.4-.21.94-.38,1.02-1.14ZM197.61,465.3s.01,0,.02,0c0-1.05,0-2.11,0-3.16,0-4.79,0-4.73-4.8-4.35-1.27.1-1.68.51-1.74,1.72-.25,4.71-.31,9.41.16,14.11.07.66.15,1.23.88,1.5,2.26.83,5.44-1.29,5.48-3.7.03-2.04,0-4.08,0-6.12ZM203.13,426.71c-2.99.07-5.79-.04-8.54-.66-.36-.08-.76-.14-.98.17-1.18,1.67-2.32,3.36-3.54,5.16,1.17.27,1.79-.23,2.46-.57.43-.22.86-.62,1.35-.27.56.4.37,1.02.27,1.56-.17.94-.41,1.87-.64,2.87,1.22.15,2.37-1.1,3.33.45.93,1.5,2.95,1.27,3.72-.34,1.25-2.6,1.91-5.39,2.56-8.37ZM178.17,403.57c.1,1.04.3,2.58.36,4.12.04,1.01.36,1.44,1.41,1.66,2.13.44,4.2.17,6.28-.21.6-.11,1.19-.28,1.3-1.13.22-1.74.55-3.47.86-5.2.2-1.11-.26-1.5-1.33-1.59-2.03-.17-4.05-.43-6.07-.71-3.01-.41-3.01-.43-2.82,3.06ZM190.23,415.4c3.28-.19,3.26-.19,3.66-3.45.22-1.81.53-3.61.81-5.41.59-3.87.57-3.82-3.26-4.81-1.22-.32-1.61-.04-1.8,1.16-.59,3.67-1.19,7.33-1.96,10.96-.33,1.56.13,1.88,1.5,1.62.34-.06.7-.05,1.05-.07ZM201.1,350.62c-1.29.87-2.56.91-2.85,2.44-.5,2.68-1.18,5.33-1.83,7.98-.25,1.02,0,1.61,1.06,1.83.77.16,1.45.78,2.45.55-.69-4.24.21-8.28,1.17-12.79ZM166.8,363.55c.67.19,1.04-.25,1.5-.35,1.76-.4,2.16-1.33,1.47-3.01-.55-1.35-.97-2.8-1.12-4.24-.22-2.16-1.6-2.86-3.54-3.38.65,3.77,1.83,7.31,1.69,10.98ZM198.83,350.2c1.99-.8,3.3-1.95,4.21-3.46.88-1.45.72-2.97-.22-4.38-.45-.67-1.09-.85-1.85-.66-.63.16-1.2.37-1.29,1.17-.25,2.35-.54,4.7-.85,7.33ZM167.66,351.95c-.38-1.97-.72-3.81-1.09-5.64-.1-.5-.34-.97-.96-.9-1.32.14-2.45.67-2.98,1.96-.5,1.22,0,2.19,1.07,2.85,1.18.72,2.42,1.3,3.96,1.74Z"/>
          <path class="cls-17" d="M192.41,432.48c.28.82-.06,1.32-.16,1.86-.37,2.03.27,2.61,2.2,1.99.42-.13,1.04-.7,1.25,0,.51,1.72,1.8,1.08,2.94,1.37,1.69.43,2.22-.44,2.77-1.48,1.65-3.15,2.57-6.53,3-10.05.13-1.06.25-2.07,1.17-3.02-.7,10.08-1.63,19.94-3.27,29.73-.24,1.44-.81,2.1-2.43,2.51-6.18,1.57-12.43,1.2-18.68,1.23-6.12.02-12.25-.05-18.37-.04-1.1,0-1.86-.01-1.84-1.51.12-11.77.93-23.48,3.17-35.06.44-2.29,1.42-3.05,3.66-2.73,2.57.38,5.17.6,7.77.77,2.6.17,3.08-.35,3.08-2.95,0-1.41-.5-3.15.15-4.13.77-1.18,2.52.06,3.88-.05,1.37-.11,3.24-1.07,3.98-.14.58.72-.23,2.62-.5,3.98-.34,1.72.3,2.25,2.03,2.1,1.63-.14,3.85-1.03,4.77.14.72.91-.37,3.08-.29,4.68.16,2.93-.78,5.32-2.73,7.46-.72.78-1.72,1.7-.89,2.96.87,1.33,2.14.57,3.33.37Z"/>
          <path class="cls-11" d="M166.98,339.22c.1-6.33,3.6-10.81,8.76-14.08,2.76-1.75,4.03-1.2,5.53,1.67,3.41,6.51,8.83,10.68,15.49,13.36,1.42.57,1.83,1.23,1.65,2.78-.71,6.02-1.61,11.99-3.23,17.85-.35,1.28-.97,2.12-2.14,2.65-6.93,3.15-13.7,2.3-20.38-.81-.66-.31-1.11-.77-1.32-1.54-1.96-7.13-3.67-14.31-4.35-21.88ZM178.46,346.53c1.07-1.34,1.95-2.43,2.82-3.53.23-.28.43-.63.08-.9-.17-.14-.53-.15-.76-.08-.55.16-3.85,4.39-3.67,4.76.86,1.69,2.77,1.32,4.15,2.02.06.03.14.04.2.05.35.04.74.07.88-.35.14-.43-.19-.69-.5-.81-.97-.38-1.97-.71-3.21-1.14ZM181.23,355.39c1.5.09,3.44-.79,4.43-2.05.33-.42.92-.93.4-1.45-.61-.59-.93.17-1.31.52-2.27,2.12-4.11,2.26-6.77.46-.36-.24-.67-.62-1.07-.23-.49.49-.06.93.25,1.27,1.08,1.21,2.63,1.2,4.06,1.47ZM186.44,339.9c-.55.06-.93.36-.97.91-.04.63.3,1.16.95,1.11.55-.04,1.08-.4.99-1.11-.07-.53-.41-.87-.98-.92ZM175.23,342.33c.75.01.96-.51,1.02-1.09.05-.54-.18-.96-.81-.98-.71-.02-1,.38-1.02,1.04-.02.57.25.92.81,1.03Z"/>
          <path class="cls-17" d="M202.6,392.16c.21-1.35,1.98-2.54.7-3.72-1.22-1.12-2.83-.09-3.87.64-2.6,1.82-5.11.74-7.69.27-1-.18-1.02-.8-.87-1.55,1.56-7.58,2.77-15.23,4.83-22.7.31-1.11.8-1.24,1.82-.83,1.96.78,3.95,1.49,5.97,2.1,5.25,1.6,7.8,5.18,8.04,10.59.74,16.24-.92,32.07-7.95,47-.48,1.03-1.01,1.55-2.19,1.48-1.75-.11-3.5-.23-5.25-.38-2.16-.19-2.48-1.26-2.22-3.08.86-5.85,1.69-11.7,2.45-17.57.17-1.32.67-1.63,1.92-1.38,2.27.46,4.57.95,6.91.64,2.48-.33,2.79-1.08,2.72-3.59-.04-1.49-.72-3.33,1.4-4.48,1.24-.67.8-2.06-.69-2.39-1.97-.44-3.98-.69-6.03-1.04Z"/>
          <path class="cls-17" d="M153.71,391.13c.25-2.7,1.1-5.45,2.28-8.09,2.04-4.56,4.23-9.04,6.45-13.51,1.5-3.03,4.3-4.1,7-5.41.87-.42,1.05.14,1.1.91.41,6.06,2.29,11.87,3,17.88.19,1.66,1.61,2.19,2.75,2.96,4.51,3.06,9.74,3.77,14.93,4.76,5.15.98,5.22-.03,2.57,5.38-2.19,4.48-2.29,4.45-7.11,3.9-8.87-1.02-17.75-2.01-26.51-3.77-1.52-.3-3.04-.63-4.41-1.39-1.32-.73-2.14-1.8-2.05-3.61Z"/>
          <path class="cls-11" d="M171.93,363.8c7.5,3.3,14.81,4.26,22.59.3-.87,3.79-1.68,7.04-2.36,10.31-.89,4.27-1.73,8.54-2.48,12.84-.21,1.22-.5,1.56-1.86,1.42-4.18-.42-7.81-2.16-11.35-4.24-.75-.44-1.46-.98-1.59-1.87-.82-5.78-2.5-11.4-3.01-17.23-.04-.41.03-.83.06-1.53Z"/>
          <path class="cls-15" d="M165.81,340.3c.06.84.03,1.71.21,2.52.25,1.12-.34,1.17-1.2,1.39-1.08.27-1.23-.26-1.27-1.02-.37-6.8,0-13.42,4.83-18.89,3.27-3.7,7.26-5.95,12.31-5.97.55,0,1.3-.05,1.62.26,1.77,1.73,4.03,1.57,6.21,1.97,3.66.67,6.27,3.05,8.44,5.93,2.84,3.76,4.08,8.13,4.7,12.72.22,1.66-1,1.33-1.74,1.03-7.74-3.12-14.61-7.33-18.21-15.37-.61-1.36-1.7-1.79-3.05-1.85-1.3-.06-2.51.33-3.65.9-5.43,2.69-9.71,10.31-9.22,16.38Z"/>
          <path class="cls-17" d="M177.37,411.01c0,1.64-.08,2.91.02,4.17.11,1.38-.57,1.73-1.76,1.62-3.35-.31-6.69-.84-10.07-.78-.95.02-.98-.54-.94-1.23.24-4.98.74-9.94,1.65-14.85.17-.92.47-1.36,1.51-1.19,2.49.42,4.99.78,7.5,1.1.82.1,1.16.34,1.26,1.26.37,3.42.95,6.82.83,9.9Z"/>
          <path class="cls-11" d="M173.86,472.78c.41-4.3.88-8.84,1.25-13.39.09-1.15.44-1.59,1.63-1.51,1.89.12,4.34-.63,5.53.3,1.35,1.06-.14,3.42-.33,5.21-.47,4.25-1.12,8.48-1.77,12.7-.28,1.82-2.07,2.86-4.18,2.62-1.96-.23-2.31-1.49-2.14-3.17.08-.83.01-1.68.01-2.77Z"/>
          <path class="cls-15" d="M194.75,482.57c-4.66.46-4.61.46-4.06-4.32.16-1.35.46-2,2.01-1.82,2.16.24,3.95-.67,5.44-2.24,1.86-1.96,8.39-2.24,10.46-.52.59.49.58,1.04.52,1.69-.23,2.66-1.64,4.37-4.06,5.4-3.31,1.42-6.82,1.52-10.32,1.81Z"/>
          <path class="cls-15" d="M180.47,478.71c-.07,4.59-.44,5.14-4.75,5.99-2.96.59-5.89,1.36-8.92,1.49-.9.04-1.82-.08-2.72-.24-1.52-.27-2.94-.82-3.21-2.57-.29-1.88.88-3.07,2.38-3.85,2.64-1.38,5.69-1.52,8.4-2.7.54-.23.71.05.96.45,1.82,3.02,3.84,3.57,6.9,1.94.3-.16.6-.33.95-.51Z"/>
          <path class="cls-11" d="M208.31,394.42c-.08.76-.62.94-1.02,1.14-1.23.63-1.93.92-.93,2.75,1.6,2.92.4,4.41-3.03,4.1-3.55-.33-7.07-1.03-10.83-1.61,1.81-2.97,3.17-5.88,4.58-8.77.83-1.71,3.14-2.03,5.07-2.55,0,.79-.47,1.14-.82,1.57-.37.46-1.32.55-1.12,1.36.24.96,1.22.83,1.93.97,2.05.4,4.11.7,6.17,1.03Z"/>
          <path class="cls-11" d="M197.61,465.3c0,2.04.02,4.08,0,6.12-.04,2.41-3.22,4.53-5.48,3.7-.74-.27-.82-.83-.88-1.5-.47-4.7-.42-9.4-.16-14.11.07-1.21.48-1.62,1.74-1.72,4.81-.38,4.81-.44,4.8,4.35,0,1.05,0,2.11,0,3.16,0,0-.01,0-.02,0Z"/>
          <path class="cls-11" d="M203.13,426.71c-.65,2.98-1.31,5.77-2.56,8.37-.77,1.61-2.79,1.83-3.72.34-.97-1.56-2.11-.31-3.33-.45.23-1,.47-1.93.64-2.87.1-.53.28-1.16-.27-1.56-.49-.35-.92.05-1.35.27-.67.34-1.3.84-2.46.57,1.23-1.8,2.37-3.49,3.54-5.16.22-.31.61-.25.98-.17,2.75.62,5.55.73,8.54.66Z"/>
          <path class="cls-11" d="M178.17,403.57c-.19-3.49-.19-3.47,2.82-3.06,2.02.28,4.04.53,6.07.71,1.07.09,1.53.48,1.33,1.59-.32,1.73-.64,3.46-.86,5.2-.11.85-.69,1.02-1.3,1.13-2.08.38-4.15.65-6.28.21-1.05-.22-1.37-.65-1.41-1.66-.06-1.54-.27-3.08-.36-4.12Z"/>
          <path class="cls-17" d="M190.23,415.4c-.35.02-.71.01-1.05.07-1.37.26-1.84-.06-1.5-1.62.77-3.63,1.37-7.3,1.96-10.96.19-1.2.58-1.48,1.8-1.16,3.83,1,3.85.94,3.26,4.81-.27,1.8-.58,3.6-.81,5.41-.4,3.26-.38,3.26-3.66,3.45Z"/>
          <path class="cls-15" d="M201.1,350.62c-.96,4.52-1.86,8.55-1.17,12.79-1,.23-1.67-.39-2.45-.55-1.06-.22-1.32-.8-1.06-1.83.66-2.65,1.33-5.3,1.83-7.98.29-1.53,1.56-1.57,2.85-2.44Z"/>
          <path class="cls-15" d="M166.8,363.55c.14-3.68-1.04-7.21-1.69-10.98,1.94.52,3.31,1.22,3.54,3.38.15,1.44.57,2.89,1.12,4.24.69,1.69.29,2.61-1.47,3.01-.46.11-.83.55-1.5.35Z"/>
          <path class="cls-11" d="M198.83,350.2c.31-2.63.6-4.98.85-7.33.09-.81.65-1.01,1.29-1.17.76-.19,1.4-.01,1.85.66.94,1.41,1.1,2.94.22,4.38-.91,1.51-2.22,2.66-4.21,3.46Z"/>
          <path class="cls-11" d="M167.66,351.95c-1.53-.43-2.78-1.02-3.96-1.74-1.08-.66-1.58-1.63-1.07-2.85.53-1.28,1.66-1.82,2.98-1.96.62-.06.86.41.96.9.37,1.83.71,3.66,1.09,5.64Z"/>
          <path d="M178.46,346.53c1.24.44,2.24.76,3.21,1.14.31.12.64.38.5.81-.14.42-.52.39-.88.35-.07,0-.14-.02-.2-.05-1.38-.7-3.29-.32-4.15-2.02-.19-.36,3.12-4.6,3.67-4.76.23-.07.59-.05.76.08.35.28.15.62-.08.9-.87,1.1-1.75,2.19-2.82,3.53Z"/>
          <path d="M181.23,355.4c-1.43-.27-2.98-.26-4.06-1.47-.3-.34-.74-.79-.25-1.27.4-.39.7-.02,1.07.23,2.66,1.8,4.5,1.66,6.77-.46.38-.36.7-1.12,1.31-.52.52.52-.07,1.02-.4,1.45-1,1.26-2.94,2.15-4.44,2.06Z"/>
          <path d="M186.45,339.9c.56.05.9.38.97.92.09.71-.44,1.07-.99,1.11-.66.05-.99-.48-.95-1.11.03-.55.41-.85.97-.91Z"/>
          <path d="M175.23,342.33c-.57-.11-.83-.46-.81-1.03.02-.66.31-1.06,1.02-1.04.63.02.86.44.81.98-.05.58-.27,1.1-1.02,1.09Z"/>
        </g>
        <g>
          <path d="M134.39,400.87c-1,.8-1.35,2.54-3.08,2.78-.14.02-.24.74-.27,1.15-.23,3.16-.42,6.33-.66,9.49-.06.81.1,1.48.5,2.2,1.42,2.53,1.21,5.03-.48,7.33-2,2.72-4.07,5.39-6.15,8.05-1.15,1.46-2.55,2.62-4.35,3.23-3.03,1.04-5.58-.86-5.46-4.07.07-1.91.95-3.53,1.95-5.06,1.16-1.77,1.96-3.79,3.19-5.45,3.86-5.18,3.01-11.2,3.62-17.66-2.19,3.01-3.83,1.43-5.42.09-.88-.74-1.64-.69-2.67-.25-5.49,2.35-6.07,2.06-6.11-3.87-.07-9.86-.02-19.73,1.36-29.52.26-1.87.41-3.6.1-5.53-1.61-10-1.78-20.04-.27-30.08.11-.75-.03-1.37-.24-2.05-.76-2.41-1.57-4.82-2.22-7.26-1.5-5.65.19-9.38,5.38-12.07.43-.22.88-.42,1.64-.78-3.53-2.09-5.55-5.3-7.55-8.53-5.12-8.25-6.7-19.94,2.59-29.73,4.57-4.82,9.64-8.44,16.46-8.86,3.2-.2,6.34.14,9.02,2.21.26.2.6.35.93.41,6.37,1.17,10.57,5.63,10.74,12.38.22,8.16.47,16.34-.45,24.49-.09.82-.16,1.54.48,2.14,7.39,6.88,6.45,15.48,4.51,23.99-.8,3.49-1.16,6.81-.89,10.32.36,4.65.1,9.29-.52,13.91-.11.84-.28,1.67,0,2.51,2.42,7.41,2.28,15.14,2.95,22.77.46,5.2.84,10.38.51,15.61-.13,2.04-.83,2.2-2.47,1.64-2.95-1.02-2.48-.63-4.26,1.81-3.06,4.2-1.72,8.96-2.58,13.41-.4,2.06-.35,4.21-.68,6.3-.17,1.04.04,1.54,1.02,1.91,3.86,1.44,6.43,4.5,8.95,7.52,1.96,2.34.97,4.97-1.98,5.88-1.6.49-3.22.39-4.8-.03-3.75-.99-7.37-2.32-10.7-4.37-3.55-2.19-4.57-5.5-2.52-9.18.7-1.25.91-2.45.91-3.8-.01-5.13,0-10.26,0-15.38ZM138.36,360.4c-.24.84.14,1.24.34,1.67,1.08,2.34,1.09,2.34-1.27,3.06-.17.05-.32.18-.45.31-2.3,2.29-4.16,2.36-6.35.09-.82-.85-1.5-1.86-2.14-2.87-.43-.68-.81-.99-1.68-.76-3.54.92-7.06,1.96-10.65,2.58-3.06.52-4.14,2.3-4.62,5.09-.81,4.68-.7,9.41-1,14.12-.36,5.77-.33,11.55-.26,17.33.02,1.64.71,1.74,1.93,1.37.4-.12.85-.18,1.19-.41,2.25-1.51,4.26-1.28,6.17.65.45.45,1.21,1.11,1.75.15,1.44-2.57,3.56-2.32,5.82-1.51,2.92,1.05,5.39,1,7.01-2.23.68-1.36,1.76-1.86,2.84-.2.83,1.27,1.57,1.2,2.58.03,2.42-2.8,2.47-2.76,5.49-.36.05.04.13.04.31.09.95-1.18.79-3.18,2.1-3.97,1.53-.92,2.94.99,4.98.82-.52-12.95-.56-25.92-3.6-38.76-2.26,1.01-4.49,1.51-6,2.84-1.48,1.31-2.65,1.88-4.49.86ZM142.72,352.11c1.12-5.85,3.79-11.15,5.8-16.68,2-5.49,3.24-11.04,2.8-16.94-.3-4.09-1.37-7.7-4.4-10.65-1.04-1.01-1.48-1.02-2.33.12-3.42,4.63-8.06,6.55-13.79,6.15-2.95-.21-5.75-1.06-8.81-1.69.12.86.25,1.54.3,2.23.6,8.61-.45,16.92-5.11,24.38-1.3,2.09-1.71,3.79-.53,5.98,1.84,3.41,3.54,6.88,6.18,9.79,1.35,1.49,2.65,1.69,4.31.34,1.93-1.56,3.63-3.32,5.3-5.14.57-.63.6-1.06.11-1.8-2.32-3.54-4.16-7.35-6.01-11.14-1.05-2.15-1.86-4.41-2.28-6.78-.1-.54-.47-1.43.48-1.55.74-.09.65.73.77,1.26,1.47,6.34,4.79,11.83,8.05,17.34.04.06.23.03.46.05.13-.61.27-1.22.4-1.83,1.23-5.71,2.45-11.42,3.69-17.13.11-.5.04-1.3.9-1.06.62.17.44.81.36,1.28-.16.97-.34,1.94-.55,2.91-1.16,5.29-2.35,10.58-3.46,15.88-.11.52-.88,1.66.34,1.64,2.84-.05,4.57,2.2,7,3.06ZM113.84,341.61c.46-.6.94-1.19,1.37-1.81,4.93-7.17,6.15-15.29,5.93-23.74-.03-1.31-.16-2.82-.81-3.89-1.91-3.16-2.48-6.69-3.26-10.17-.25-1.12-.7-1.91-1.68-2.51-1.56-.95-3.09-1.95-4.24-3.44-1.13-1.45-1.34-2.9-.27-4.45,1.04-1.5,2.5-1.88,4.08-1.2,1.35.58,2.38.19,3.56-.41,7.07-3.62,13.29-8.21,17.5-15.11.96-1.57,1.93-1.65,3.44-.71,2.48,1.55,4.45,3.57,6.18,6.32-.15-7.02-3.83-11.33-9.99-12.1-.45-.06-.77-.2-1.09-.52-1.54-1.54-3.55-1.95-5.59-2.11-10.21-.83-22.21,8.72-24.18,19.2-1.79,9.5,3.01,20.48,11.27,25.76.75.48,1.44.8.72,1.93-1.83,2.87-2.29,6.17-2.68,9.46-.77,6.45-.05,12.94-.27,19.53ZM145.77,292.1c-.09-1.9-.25-3.79-.24-5.69.03-4.94-2.5-8.31-6.41-10.91-.93-.62-1.57-.67-2.22.38-4.4,7.13-10.89,11.83-18.26,15.45-1.31.64-1.63,1.55-1.48,2.89.54,4.98,1.5,9.86,2.94,14.65.35,1.16,1.06,1.77,2.11,2.11,3.9,1.27,7.86,2.13,12.01,1.76,6.02-.55,10.75-5.37,11.22-11.36.24-3.09.34-6.18.33-9.28ZM111.22,335.5c-.75,3.29-.58,6.47-.64,9.63-.11,5.99-.07,11.98,1.02,17.9.1.56-.12,1.76,1.04,1.3,4.34-1.74,9.04-2.06,13.44-3.54.38-.13,1.22-.08.97-.79-.29-.82-.32-2.18-1.19-2.31-3.71-.56-5.27-3.42-7.01-6.12-1.7-2.62-3.17-5.38-4.34-8.28-.99.43-1.42,1.85-2.42,1.28-1.04-.59-.05-1.66-.05-2.52,0-.77.24-1.53.26-2.3.03-1.43.52-2.99-1.07-4.25ZM136.15,400c-.18,6.59-.27,12.62-.57,18.64-.1,1.98.65,2.88,2.45,3.13,2.03.28,3.74-.84,4.03-2.67.97-6.05,1.13-12.18,1.71-18.27.11-1.19-.08-2.17-1.19-2.63-1.1-.46-1.35.74-1.83,1.29-1.23,1.4-2.35,2.83-4.61.5ZM148.71,432.64c1.27-.05,2.33-.09,3.26-.67,1.2-.75,1.72-1.86.79-3.01-2.41-3.01-4.91-5.98-8.62-7.51-.46-.19-.86-.55-1.5-.01-2.26,1.92-4.74,2.24-7.36.64-.36-.22-.76-.77-1.2-.05-.5.81-.15,4.22.58,4.74,4.29,3.07,9.07,4.95,14.04,5.87ZM122.17,417.72c-1.51,3.95-3.63,7.26-5.64,10.64-.51.85-.78,1.8-.8,2.81-.03,2.19,1.55,3.36,3.63,2.7,1.83-.58,3.16-1.81,4.26-3.31,1.75-2.38,3.4-4.83,5.36-7.05.85-.96,1.39-2.13,1.52-3.42.05-.46.02-1.1-.25-1.39-.46-.49-.84.19-1.23.4-2.98,1.59-4.48,1.35-6.85-1.39ZM137.72,363.44c-.41-1.22-.83-2.32-1.14-3.44-.14-.51-.28-1.16.33-1.53.5-.31.92.08,1.36.28.74.35,1.37,1.11,2.63.75-1.85-1.69-3.53-3.19-4.81-5.04-.79-1.14-1.62-2.29.79-2.42.43-.02.79-.32.91-.77.08-.31-.09-.61-.38-.63-1.46-.1-3.02-1.01-4.29.52-1.49,1.79-3.15,3.41-5.01,4.82-.37.28-.96.47-.72,1.12,1.1,2.98,2.24,5.94,4.78,8.06.22.18.74.59.82.08.26-1.75,1.53-.32,2.16-.64-.07-1-1.31-2.01-.37-2.6,1.23-.76,1.57,1.33,2.95,1.43ZM123.75,413.47c0,.76.03,1.67,0,2.59-.06,1.54.42,2.66,2.15,2.75,1.72.08,2.96-1.02,3.06-2.64.2-3.02.31-6.04.6-9.05.4-4.01.45-3.94-3.52-4.77-1.11-.23-1.49-.05-1.56,1.08-.21,3.3-.48,6.59-.74,10.05ZM143.4,357.5c1.97-.76,4.27-.89,5.25-3.02.96-2.09.96-13.71.23-16.24-2.51,6.23-5.18,12.31-5.48,19.26ZM112.23,333.41c.03-6.85.21-13.61,2.6-20.3-4.28,1.58-6.75,4.76-6.34,8.27.49,4.2,2.23,8.06,3.74,12.03ZM116.13,298.36c.31-1.81-.33-3.35-.3-4.92.02-.96-.23-1.63-1.25-1.84-.92-.2-1.8-.32-2.47.57-.64.86-.86,1.7-.19,2.69,1.05,1.55,2.52,2.52,4.21,3.5ZM141.69,358.14c.27-1.36.6-2.44.67-3.54.09-1.5-1.32-1.87-2.28-2.42-1.25-.72-1.97.68-2.57,1.26-.69.67.54,1.33,1.02,1.89.85,1,1.71,2.04,3.17,2.81Z"/>
          <path class="cls-17" d="M138.36,360.4c1.84,1.02,3,.45,4.49-.86,1.5-1.33,3.74-1.82,6-2.84,3.04,12.84,3.08,25.81,3.6,38.76-2.04.16-3.45-1.74-4.98-.82-1.31.78-1.14,2.78-2.1,3.97-.18-.05-.26-.06-.31-.09-3.02-2.4-3.07-2.44-5.49.36-1.01,1.17-1.75,1.24-2.58-.03-1.09-1.65-2.17-1.15-2.84.2-1.62,3.23-4.09,3.28-7.01,2.23-2.26-.81-4.38-1.07-5.82,1.51-.54.96-1.3.3-1.75-.15-1.91-1.93-3.92-2.15-6.17-.65-.34.23-.79.29-1.19.41-1.22.37-1.91.27-1.93-1.37-.08-5.78-.1-11.56.26-17.33.29-4.71.19-9.43,1-14.12.48-2.79,1.56-4.56,4.62-5.09,3.59-.62,7.12-1.66,10.65-2.58.87-.23,1.25.08,1.68.76.63,1.01,1.31,2.02,2.14,2.87,2.19,2.27,4.05,2.2,6.35-.09.13-.13.28-.26.45-.31,2.36-.73,2.35-.72,1.27-3.06-.2-.43-.58-.82-.34-1.67ZM145.52,389.66c-.51-6.29-1.02-12.74-1.55-19.2-.17-2.04-.36-4.07-.56-6.1-.04-.42-.1-.93-.67-.87-.51.06-.6.52-.57.97.02.35.09.7.11,1.05.49,9.21,1.88,18.36,1.91,27.6,0,.42.03.84.08,1.26.04.36.19.74.59.77.59.04.63-.46.64-.87.02-1.48,0-2.96,0-4.61ZM118.36,381.04c0-2.46,0-6.54,0-10.62,0-.51.19-1.3-.67-1.25-.6.03-.59.7-.59,1.19-.02,8.16-.24,16.32-.82,24.46-.04.54-.17,1.31.6,1.34.8.04.65-.76.68-1.28.25-4.07.48-8.15.81-13.84ZM131.44,385.62c-.07,0-.14,0-.22,0-.22-5.28-.43-10.56-.68-15.84-.03-.6.42-1.66-.7-1.6-.84.05-.53,1.02-.54,1.59-.07,7.9,1,15.76.86,23.66,0,.51.04,1.14.64,1.14.61,0,.64-.62.64-1.13,0-2.61,0-5.22,0-7.82ZM124.34,382.24s-.04,0-.06,0c0-4.09,0-8.17-.01-12.26,0-.5.3-1.32-.49-1.39-.95-.08-.78.83-.78,1.4,0,8.03.03,16.06.07,24.09,0,.59-.16,1.53.7,1.51.92-.02.56-.96.56-1.52.02-3.94.01-7.89.01-11.83ZM138.32,381.2c-.27,0-.54,0-.8,0,0-3.59.02-7.18-.02-10.77,0-.57.24-1.55-.54-1.6-1.05-.06-.76.97-.73,1.6.26,7.18.54,14.36.81,21.53.02.56-.02,1.33.69,1.33.8,0,.59-.81.59-1.33.02-3.59,0-7.18,0-10.77Z"/>
          <path class="cls-12" d="M142.72,352.11c-2.43-.86-4.16-3.11-7-3.06-1.22.02-.45-1.13-.34-1.64,1.11-5.3,2.3-10.59,3.46-15.88.21-.96.39-1.93.55-2.91.08-.47.25-1.11-.36-1.28-.86-.23-.79.56-.9,1.06-1.24,5.71-2.46,11.42-3.69,17.13-.13.61-.27,1.22-.4,1.83-.23-.02-.42,0-.46-.05-3.27-5.51-6.58-10.99-8.05-17.34-.12-.53-.04-1.35-.77-1.26-.95.11-.57,1-.48,1.55.41,2.37,1.23,4.63,2.28,6.78,1.85,3.8,3.69,7.6,6.01,11.14.49.74.46,1.17-.11,1.8-1.67,1.82-3.37,3.58-5.3,5.14-1.67,1.35-2.96,1.15-4.31-.34-2.63-2.9-4.34-6.38-6.18-9.79-1.18-2.19-.77-3.89.53-5.98,4.65-7.46,5.71-15.77,5.11-24.38-.05-.69-.18-1.37-.3-2.23,3.06.63,5.86,1.48,8.81,1.69,5.74.41,10.37-1.52,13.79-6.15.85-1.14,1.29-1.13,2.33-.12,3.03,2.95,4.09,6.56,4.4,10.65.44,5.9-.8,11.45-2.8,16.94-2.01,5.53-4.68,10.83-5.8,16.68Z"/>
          <path class="cls-15" d="M113.84,341.61c.21-6.58-.51-13.08.27-19.53.39-3.28.85-6.59,2.68-9.46.72-1.13.03-1.46-.72-1.93-8.26-5.29-13.06-16.26-11.27-25.76,1.97-10.48,13.98-20.03,24.18-19.2,2.05.17,4.05.58,5.59,2.11.32.32.64.47,1.09.52,6.16.78,9.84,5.09,9.99,12.1-1.73-2.75-3.7-4.77-6.18-6.32-1.51-.94-2.48-.86-3.44.71-4.21,6.91-10.43,11.5-17.5,15.11-1.18.6-2.21.99-3.56.41-1.58-.68-3.04-.29-4.08,1.2-1.07,1.55-.86,3,.27,4.45,1.15,1.49,2.68,2.48,4.24,3.44.98.6,1.43,1.39,1.68,2.51.78,3.48,1.34,7.01,3.26,10.17.65,1.07.78,2.58.81,3.89.22,8.45-1,16.57-5.93,23.74-.43.62-.91,1.21-1.37,1.81Z"/>
          <path class="cls-11" d="M145.77,292.1c.01,3.1-.09,6.19-.33,9.28-.47,5.99-5.2,10.81-11.22,11.36-4.15.38-8.1-.49-12.01-1.76-1.05-.34-1.76-.95-2.11-2.11-1.44-4.79-2.4-9.68-2.94-14.65-.14-1.34.17-2.24,1.48-2.89,7.36-3.63,13.86-8.32,18.26-15.45.65-1.05,1.28-1,2.22-.38,3.91,2.61,6.44,5.98,6.41,10.91-.01,1.9.15,3.79.24,5.69ZM132.72,303.86c1.59-.05,3-.61,4.25-1.56.42-.32,1.04-.77.61-1.37-.51-.73-.93.01-1.36.29-1.49.95-2.98,1.87-4.85.97-.48-.23-.9-1.33-1.48-.49-.61.89.42,1.29,1.01,1.72.53.38,1.16.46,1.81.44ZM133.25,297.57c2.07-.1,2.74-1.09,2.02-2.98-.15-.39-.27-.8-.46-1.18-.26-.51-.25-1.5-1.09-1.25-.91.27-.33,1.07-.15,1.61.38,1.14,1.3,2.38-.88,2.7-.36.05-.56.46-.37.84.19.37.58.32.93.27ZM127.2,292.86c.77.03.95-.42,1.04-.91.09-.56-.18-.99-.74-1-.55-.01-.84.44-.91.94-.09.55.17.91.62.97ZM139.32,288.03c-.59.15-.74.58-.69,1.12.04.49.29.81.8.73.59-.09.78-.55.73-1.08-.04-.48-.35-.74-.84-.77Z"/>
          <path class="cls-12" d="M111.22,335.5c1.59,1.26,1.1,2.82,1.07,4.25-.02.77-.26,1.54-.26,2.3,0,.86-.98,1.93.05,2.52,1,.57,1.43-.84,2.42-1.28,1.17,2.9,2.64,5.65,4.34,8.28,1.75,2.69,3.3,5.56,7.01,6.12.87.13.9,1.49,1.19,2.31.25.71-.59.66-.97.79-4.4,1.48-9.1,1.8-13.44,3.54-1.16.47-.93-.74-1.04-1.3-1.09-5.92-1.14-11.91-1.02-17.9.06-3.16-.11-6.34.64-9.63Z"/>
          <path class="cls-11" d="M136.15,400c2.26,2.33,3.38.9,4.61-.5.48-.55.73-1.75,1.83-1.29,1.11.46,1.3,1.45,1.19,2.63-.58,6.09-.74,12.22-1.71,18.27-.29,1.84-2.01,2.95-4.03,2.67-1.8-.25-2.55-1.16-2.45-3.13.3-6.02.38-12.06.57-18.64Z"/>
          <path class="cls-17" d="M148.71,432.64c-4.97-.92-9.75-2.81-14.04-5.87-.73-.52-1.08-3.92-.58-4.74.45-.72.84-.17,1.2.05,2.62,1.6,5.09,1.28,7.36-.64.63-.54,1.04-.18,1.5.01,3.71,1.53,6.21,4.5,8.62,7.51.92,1.15.4,2.26-.79,3.01-.93.58-1.99.62-3.26.67Z"/>
          <path class="cls-17" d="M122.17,417.72c2.37,2.74,3.87,2.98,6.85,1.39.38-.21.77-.89,1.23-.4.27.29.3.93.25,1.39-.13,1.29-.67,2.45-1.52,3.42-1.96,2.22-3.61,4.67-5.36,7.05-1.1,1.5-2.44,2.73-4.26,3.31-2.07.66-3.65-.52-3.63-2.7.01-1.01.29-1.96.8-2.81,2-3.38,4.13-6.69,5.64-10.64Z"/>
          <path class="cls-11" d="M137.72,363.44c-1.39-.1-1.72-2.19-2.95-1.43-.94.58.3,1.6.37,2.6-.63.32-1.9-1.12-2.16.64-.07.5-.6.1-.82-.08-2.53-2.13-3.68-5.09-4.78-8.06-.24-.65.36-.85.72-1.12,1.87-1.4,3.52-3.02,5.01-4.82,1.27-1.53,2.83-.63,4.29-.52.3.02.47.33.38.63-.12.45-.48.75-.91.77-2.41.13-1.57,1.28-.79,2.42,1.28,1.86,2.96,3.35,4.81,5.04-1.26.36-1.89-.4-2.63-.75-.44-.21-.86-.59-1.36-.28-.61.37-.47,1.02-.33,1.53.31,1.13.73,2.22,1.14,3.44Z"/>
          <path class="cls-11" d="M123.75,413.47c.26-3.46.53-6.75.74-10.05.07-1.13.45-1.31,1.56-1.08,3.97.83,3.92.77,3.52,4.77-.3,3.01-.41,6.03-.6,9.05-.11,1.62-1.35,2.72-3.06,2.64-1.74-.08-2.21-1.21-2.15-2.75.03-.91,0-1.83,0-2.59Z"/>
          <path class="cls-12" d="M143.4,357.5c.3-6.95,2.97-13.03,5.48-19.26.73,2.53.73,14.15-.23,16.24-.98,2.13-3.29,2.27-5.25,3.02Z"/>
          <path class="cls-12" d="M112.23,333.41c-1.51-3.97-3.25-7.82-3.74-12.03-.41-3.51,2.06-6.69,6.34-8.27-2.39,6.68-2.57,13.45-2.6,20.3Z"/>
          <path class="cls-11" d="M116.13,298.36c-1.68-.99-3.16-1.95-4.21-3.5-.67-.99-.45-1.83.19-2.69.67-.9,1.55-.77,2.47-.57,1.02.22,1.27.88,1.25,1.84-.04,1.57.61,3.11.3,4.92Z"/>
          <path class="cls-11" d="M141.69,358.14c-1.46-.77-2.32-1.81-3.17-2.81-.48-.56-1.7-1.23-1.02-1.89.6-.58,1.33-1.98,2.57-1.26.96.55,2.38.92,2.28,2.42-.07,1.1-.4,2.18-.67,3.54Z"/>
          <path d="M145.52,389.66c0,1.66.01,3.14,0,4.61,0,.41-.05.92-.64.87-.4-.03-.54-.41-.59-.77-.05-.42-.08-.84-.08-1.26-.04-9.24-1.42-18.39-1.91-27.6-.02-.35-.08-.7-.11-1.05-.03-.45.06-.91.57-.97.57-.06.63.45.67.87.2,2.03.39,4.07.56,6.1.53,6.45,1.04,12.91,1.55,19.2Z"/>
          <path d="M118.36,381.04c-.33,5.69-.57,9.77-.81,13.84-.03.53.13,1.32-.68,1.28-.77-.03-.64-.8-.6-1.34.58-8.14.8-16.3.82-24.46,0-.49-.01-1.16.59-1.19.86-.05.66.73.67,1.25.02,4.08,0,8.16,0,10.62Z"/>
          <path d="M131.44,385.62c0,2.61,0,5.22,0,7.82,0,.51-.03,1.14-.64,1.13-.6,0-.65-.63-.64-1.14.14-7.9-.94-15.76-.86-23.66,0-.57-.3-1.54.54-1.59,1.12-.06.67,1,.7,1.6.25,5.28.46,10.56.68,15.84.07,0,.14,0,.22,0Z"/>
          <path d="M124.34,382.24c0,3.94.01,7.89-.01,11.83,0,.56.36,1.5-.56,1.52-.85.02-.69-.92-.7-1.51-.04-8.03-.06-16.06-.07-24.09,0-.57-.18-1.48.78-1.4.79.07.49.88.49,1.39.02,4.09.01,8.17.01,12.26.02,0,.04,0,.06,0Z"/>
          <path d="M138.32,381.2c0,3.59,0,7.18,0,10.77,0,.52.21,1.33-.59,1.33-.71,0-.66-.77-.69-1.33-.28-7.18-.56-14.36-.81-21.53-.02-.63-.31-1.66.73-1.6.78.05.53,1.03.54,1.6.03,3.59.02,7.18.02,10.77.27,0,.54,0,.8,0Z"/>
          <path d="M132.72,303.86c-.65.02-1.28-.05-1.81-.44-.59-.43-1.62-.84-1.01-1.72.58-.84.99.26,1.48.49,1.87.9,3.36-.02,4.85-.97.43-.27.84-1.02,1.36-.29.42.6-.19,1.05-.61,1.37-1.25.95-2.66,1.51-4.25,1.56Z"/>
          <path d="M133.25,297.57c-.35.05-.74.1-.93-.27-.19-.38.01-.78.37-.84,2.18-.32,1.26-1.56.88-2.7-.18-.54-.76-1.33.15-1.61.84-.25.83.74,1.09,1.25.19.37.31.78.46,1.18.72,1.89.05,2.88-2.02,2.98Z"/>
          <path d="M127.2,292.86c-.45-.05-.71-.42-.62-.97.08-.5.37-.95.91-.94.57.01.84.44.74,1-.08.49-.26.94-1.04.91Z"/>
          <path d="M139.32,288.03c.49.03.8.29.84.77.05.53-.14,1-.73,1.08-.51.08-.77-.25-.8-.73-.04-.54.1-.97.69-1.12Z"/>
        </g>
      </g>
      <g>
        <g>
          <path d="M327.48,322.21c3.21-.26,6.21-.11,9.16.64,4.11,1.04,5.74,2.94,5.78,7.12.08,8.76-2.58,16.75-6.98,24.22-1.16,1.97-1.04,4.19-1.43,6.31-.56,3.05-.9,6.13-1.96,9.06-.18.5-.11.96-.11,1.45.2,14.73.53,29.46.51,44.19,0,6.76-.31,13.53-.14,20.3.03,1.27.24,2.44.88,3.62,1.59,2.94.49,6.64-2.34,8.42-2.86,1.8-5.64,3.73-8.76,5.07-1.9.82-3.86,1.35-5.95,1.09-3.12-.39-4.5-2.65-3.45-5.63.94-2.68,2.8-4.72,4.89-6.52,1.02-.88,1.11-1.59.75-2.84-2.41-8.35-3.78-16.89-4.59-25.53-.04-.41-.11-.82-.29-1.23-.98,5.58-1.45,11.21-1.91,16.84-.24,2.95-.4,5.91-.53,8.86-.14,3.22-1.42,6.13-2.39,9.12-.34,1.06-1.12,1.79-2.16,2.18-3.96,1.46-7.88,3.04-12.06,3.77-2.19.38-4.36.24-6.4-.76-2.4-1.18-3.02-3.08-1.71-5.41,1.25-2.23,3.18-3.78,5.48-4.79,1.18-.52,1.67-1.13,1.66-2.49-.09-11.85.37-23.68.75-35.52.29-8.88,1.12-17.72,2.28-26.52.04-.27.23-.61.13-.79-2.19-3.82-.39-7.73-.24-11.58.05-1.21.11-1.69-1.41-1.56-5.41.46-8.7-1.83-9.34-7.1-1.17-9.65.2-18.95,5.06-27.55,1.85-3.27,4.54-5.14,8.35-5.16,1.09,0,1.32-.32,1.02-1.35-.69-2.43-1.33-4.89-1.91-7.35-.16-.68-.51-1.03-1-1.47-2.01-1.8-3.64-3.92-4.72-6.42-.91-2.11-1.17-4.18.26-6.22.85-1.21.27-2.6.26-3.89-.05-11.22,6.98-20.52,17.69-23.84,12.98-4.02,23.86,6.1,25.3,16.64.27,1.98-.22,3.93-.5,5.88-.08.59-.41,1.11.19,1.73,2.48,2.58,2.76,4.98,1.05,8.13-1.17,2.15-2.87,3.85-4.77,5.31-1.38,1.06-2.09,2.33-2.45,3.99-.53,2.47-1.24,4.89-1.93,7.58ZM331.19,405.23c-.18,0-.36,0-.55,0,0-10.64-.02-21.28.02-31.92,0-1.44-.26-1.75-1.76-1.21-9.5,3.45-19.44,4.39-29.43,4.94-1.3.07-1.79.24-1.97,1.65-2.51,19.84-2.46,39.79-2.88,59.72-.04,1.78.68,2.2,2.21,2.18,3.03-.03,6.06.05,9.08.01,3.59-.04,3.63-.06,3.81-3.69.59-11.83,1.75-23.59,3.9-35.25.6-3.25,1.04-6.53,1.57-9.8.08-.47.15-1.07.88-.85.54.16.44.65.38,1.07-.16,1.11-.4,2.22-.51,3.34-.46,4.39-2,8.66-1.37,13.18.33,2.37.49,4.76.74,7.14.78,7.43,2.03,14.78,4.11,21.97.23.78.24,1.69,1.49,1.65,2.96-.09,5.9-.28,8.84-.7,1.15-.16,1.34-.8,1.3-1.73-.5-10.57.37-21.14.14-31.71ZM309.17,292.12c-3.6,2.22-6.71,4.82-9.88,7.35-.98.78-1.33,1.64-1.33,2.88.01,6.89,1.41,13.54,3.34,20.12.36,1.23,1.18,1.85,2.3,2.23,2.93.97,5.87,1.93,8.79,2.91.72.24,1.36.1,2.04-.2,3.42-1.47,6.83-2.97,10.29-4.34,1.03-.41,1.56-.99,1.81-2.05,1.13-4.72,2.3-9.42,3.48-14.12,1.25-5.01,1.3-9.86-1.89-14.39-.85.6-1.74,1.26-2.66,1.88-3.87,2.65-5.26,2.13-6.31-2.32-.01-.06-.09-.11-.19-.23-.45.31-.91.62-1.35.95-1.95,1.5-3.89,3.02-5.85,4.51-.62.47-1.33,1.01-2.11.66-.95-.43-.75-1.43-.73-2.25.03-1.12.16-2.23.26-3.59ZM310.22,296.7c2.86-1.6,4.95-3.71,7.33-5.42.72-.52,1.37-1.55,2.33-1.18,1.05.41.52,1.59.59,2.44.17,2.14,1.02,2.72,2.87,1.68,1.4-.78,2.72-1.76,3.96-2.79,1.05-.86,1.69-.83,2.18.48.52,1.38,1.02,2.77,1.65,4.11.25.52,0,1.7,1.08,1.4.8-.22,1.6-.56,1.91-1.69,3.2-11.71-7.05-21.2-14.66-22.27-13.77-1.94-26.43,10.35-25.32,24.41.03.39-.04,1.16.3,1.07,1.41-.39,2.83.9,4.33-.52,3.22-3.04,6.9-5.56,10.59-8.02.44-.29.92-.85,1.49-.37.5.42-.03.89-.15,1.33-.44,1.64-.69,3.29-.5,5.32ZM298.34,350.17c2.67-1.26,5.14-1.81,7.58-2.43.95-.24,1.22-.56.93-1.57-1.88-6.7-3.7-13.42-5.5-20.14-.27-.99-.79-1.35-1.79-1.37-3.11-.03-5.62,1.01-7.33,3.74-5.37,8.57-6.52,18.02-5.47,27.81.45,4.14,3.37,6.44,7.51,5.96,7.7-.89,14.63-3.94,20.81-8.59,1.74-1.31.69-3.09.06-4.62-.55-1.32-1.36-2.19-3.09-1.68-4.3,1.28-8.75,2.08-12.89,3.89-.76.33-1.99.75-1.96-.54.09-3.44.3-6.9,1.88-10.08.23-.46.6-.93,1.14-.59.63.4.05.86-.14,1.26-1.31,2.74-1.4,5.69-1.74,8.95ZM323.07,348.1c1.57-2.23,2.72-4.47,3.6-6.86.17-.47.27-1.08.92-.85.66.23.35.83.18,1.26-1.43,3.78-3.3,7.3-6.23,10.16-.76.74-1.65,1.42-2.69,1.6-3.28.56-5.23,3.31-8.44,4.54,2.53,1.69,5.03,2.2,7.49,2.53,6.68.89,12.35-.83,16.37-6.71,3.46-5.06,4.88-10.86,6.37-16.64.69-2.68.75-5.43.54-8.18-.18-2.4-1.46-3.94-3.69-4.62-2.98-.9-6.03-1.3-9.17-.95-.94.11-1.57.41-1.95,1.3-2.77,6.53-5.54,13.06-8.34,19.58-.36.85-.3,1.32.72,1.41,1.69.16,3.03,1.02,4.32,2.42ZM333.2,357.36c-1.24.86-2.05,1.52-2.95,2.04-6.58,3.82-13.2,3-19.78.04-.97-.44-1.69-.62-2.7-.09-2.55,1.35-5.27,2.33-8.08,2.97-1.37.31-2.02,1.06-2.16,2.41-.24,2.38-.57,4.75-.77,7.13-.27,3.27.49,4.15,3.73,3.99,3.15-.15,6.29-.59,9.44-.84,6.19-.51,12.19-1.96,18.09-3.81,1.25-.39,2.5-.82,3-2.36,1.17-3.63,1.59-7.39,2.17-11.47ZM317.44,452.47c.31-.04.95-.07,1.56-.23,4.72-1.25,8.57-4.13,12.5-6.82.98-.67,1.29-4.04.78-5.17-.28-.62-.7-.59-1.2-.5-3.12.56-6.26.8-9.43.91-.65.02-1.36.39-1.91.78-2.31,1.66-4.23,3.72-5.52,6.27-1.43,2.82-.23,4.71,3.22,4.76ZM301.54,441.87v-.02c-1.76,0-3.52-.08-5.27.02-3.96.2-6.85,2.23-8.93,5.5-.84,1.32-.44,2.43.87,3.2,1.92,1.14,4.01,1.19,6.14.84,3.35-.55,6.42-2.07,9.69-2.87,3.04-.74,3.84-2.94,4.46-5.48.24-.96-.09-1.23-1.04-1.21-1.97.06-3.94.02-5.91.02ZM310.65,344.42c-.25,1.47.13,2.19,1.77,1.61.46-.16.96-.21,1.45-.26,2.39-.21,4.09-2.32,3.57-4.61-.58-2.6-1.36-5.16-1.93-7.76-.27-1.23-1.1-1-1.91-1.06-.92-.07-1.44.21-1.56,1.21-.44,3.63-.92,7.25-1.38,10.87ZM311.02,332.46c-.02-.75-.03-1.8-1.13-2.2-.77-.28-5.46,1.6-5.48,2.1-.01.33.16.67.25,1.01,1,3.8,2,7.59,3,11.39.13.47.29.94.48,1.39.14.33.38.61.8.54.45-.08.44-.48.46-.82.25-4.42,1.01-8.78,1.62-13.4ZM330.7,310.02c1.77-1.44,3.19-2.75,4.31-4.37,1.11-1.61,1.71-3.38,1.38-5.35-.2-1.19-.79-2.17-2.13-2.21-1.39-.04-1.89.98-2.08,2.17-.48,3.1-.95,6.21-1.48,9.76ZM318.22,339.7c.16-.02.32-.05.48-.07.86-1.83,1.78-3.63,2.56-5.49,1.16-2.74,1.07-2.88-1.66-3.86-.13-.05-.27-.07-.4-.11-2.23-.72-2.96-.22-2.61,2.17.37,2.48,1.07,4.9,1.63,7.35ZM297.58,312.05c-.5-3.81-.88-7.15-.82-10.53.02-1.49-.9-1.67-1.96-1.11-1.73.91-2.19,2.52-1.83,4.32.57,2.85,2.32,4.98,4.61,7.32ZM318.01,346.78c-2.29-.03-2.38.12-1.55,2.08.36.84.59,1.72.64,2.64.02.44-.12,1.01.7,1,1.22-.01,3.95-2.03,3.93-3.1-.03-1.99-1.71-2.12-3.08-2.56-.26-.08-.56-.06-.64-.06ZM316.17,327.81c2.11.8,3.88,1.46,5.63,2.16.54.21.91.29,1.16-.36.66-1.72,1.66-3.31,2.09-5.43-3,1.23-5.71,2.34-8.88,3.63ZM302.42,325.61c.51,1.71.9,3.02,1.3,4.33.13.42.33.83.88.61,1.97-.78,4.14-1,6.41-2.25-2.96-.93-5.53-1.73-8.59-2.69ZM313.58,331.14c1.03.17,1.92-.03,2.1-1.3.11-.74-.54-.82-.97-.7-1.03.29-2.64-.39-2.94,1.1-.19.92,1,.89,1.81.9Z"/>
          <path class="cls-12" d="M331.19,405.23c.23,10.57-.64,21.14-.14,31.71.04.93-.15,1.57-1.3,1.73-2.93.42-5.88.6-8.84.7-1.25.04-1.27-.87-1.49-1.65-2.08-7.19-3.33-14.54-4.11-21.97-.25-2.38-.41-4.77-.74-7.14-.63-4.52.91-8.79,1.37-13.18.12-1.12.35-2.23.51-3.34.06-.41.15-.9-.38-1.07-.73-.22-.8.38-.88.85-.53,3.27-.97,6.55-1.57,9.8-2.15,11.66-3.31,23.42-3.9,35.25-.18,3.63-.22,3.65-3.81,3.69-3.03.03-6.06-.05-9.08-.01-1.53.02-2.25-.4-2.21-2.18.42-19.93.37-39.89,2.88-59.72.18-1.41.68-1.58,1.97-1.65,9.99-.55,19.93-1.49,29.43-4.94,1.5-.55,1.76-.24,1.76,1.21-.03,10.64-.02,21.28-.02,31.92.18,0,.36,0,.55,0Z"/>
          <path class="cls-11" d="M309.17,292.12c-.1,1.36-.23,2.47-.26,3.59-.02.82-.22,1.82.73,2.25.78.35,1.5-.19,2.11-.66,1.96-1.49,3.9-3.01,5.85-4.51.44-.34.91-.64,1.35-.95.1.12.17.17.19.23,1.05,4.45,2.44,4.97,6.31,2.32.91-.63,1.81-1.28,2.66-1.88,3.19,4.53,3.14,9.38,1.89,14.39-1.18,4.7-2.35,9.41-3.48,14.12-.25,1.06-.77,1.64-1.81,2.05-3.46,1.38-6.87,2.87-10.29,4.34-.68.29-1.32.44-2.04.2-2.93-.98-5.86-1.94-8.79-2.91-1.12-.37-1.94-1-2.3-2.23-1.93-6.57-3.33-13.22-3.34-20.12,0-1.24.35-2.1,1.33-2.88,3.17-2.52,6.28-5.13,9.88-7.35ZM312.66,318.68c2.05-.04,3.8-.13,4.88-1.89.23-.38.43-.77-.02-1.1-.37-.27-.61.07-.88.29-2.47,2.02-4.81,2.08-7.33.18-.32-.24-.59-.76-1.03-.35-.48.44-.13.91.21,1.28,1.19,1.29,2.8,1.47,4.16,1.61ZM310.57,309.77c.93-1.53,1.74-2.83,2.52-4.16.22-.38.83-.76.26-1.25-.56-.48-.92.07-1.16.46-1,1.6-1.96,3.24-2.93,4.86-.41.69-.33,1.31.53,1.39.92.09,1.95.5,2.77-.28.24-.22-.06-.55-.32-.64-.45-.15-.94-.23-1.66-.39ZM306.84,306.07c.72-.12.86-.66.88-1.25.02-.61-.11-1.2-.86-1.16-.68.03-.93.59-.92,1.2,0,.6.22,1.1.91,1.21ZM320.56,303.39c-.69.06-.86.6-.92,1.15-.05.55.26.93.8,1.01.64.09.85-.38.89-.89.04-.56-.05-1.11-.77-1.28Z"/>
          <path class="cls-15" d="M310.22,296.7c-.18-2.03.06-3.69.5-5.32.12-.44.65-.91.15-1.33-.57-.48-1.05.08-1.49.37-3.69,2.46-7.37,4.98-10.59,8.02-1.5,1.42-2.92.13-4.33.52-.33.09-.26-.68-.3-1.07-1.11-14.06,11.55-26.35,25.32-24.41,7.61,1.07,17.86,10.56,14.66,22.27-.31,1.13-1.1,1.46-1.91,1.69-1.09.3-.84-.88-1.08-1.4-.63-1.33-1.13-2.72-1.65-4.11-.49-1.31-1.14-1.35-2.18-.48-1.24,1.02-2.56,2-3.96,2.79-1.86,1.04-2.7.46-2.87-1.68-.07-.85.46-2.03-.59-2.44-.95-.37-1.61.66-2.33,1.18-2.38,1.71-4.47,3.82-7.33,5.42Z"/>
          <path class="cls-12" d="M298.34,350.17c.34-3.26.43-6.21,1.74-8.95.19-.4.78-.86.14-1.26-.54-.34-.91.13-1.14.59-1.58,3.18-1.79,6.64-1.88,10.08-.03,1.28,1.2.86,1.96.54,4.15-1.8,8.59-2.61,12.89-3.89,1.73-.51,2.54.36,3.09,1.68.63,1.52,1.68,3.31-.06,4.62-6.18,4.65-13.11,7.69-20.81,8.59-4.13.48-7.06-1.82-7.51-5.96-1.05-9.79.1-19.24,5.47-27.81,1.71-2.73,4.22-3.77,7.33-3.74,1,.01,1.53.38,1.79,1.37,1.81,6.72,3.63,13.44,5.5,20.14.28,1.01.01,1.33-.93,1.57-2.44.62-4.92,1.17-7.58,2.43Z"/>
          <path class="cls-12" d="M323.07,348.1c-1.29-1.4-2.62-2.27-4.32-2.42-1.03-.1-1.08-.56-.72-1.41,2.8-6.52,5.58-13.05,8.34-19.58.38-.89,1-1.2,1.95-1.3,3.13-.35,6.19.05,9.17.95,2.23.68,3.51,2.22,3.69,4.62.21,2.76.15,5.5-.54,8.18-1.49,5.78-2.91,11.57-6.37,16.64-4.03,5.89-9.69,7.6-16.37,6.71-2.46-.33-4.96-.84-7.49-2.53,3.21-1.23,5.16-3.99,8.44-4.54,1.04-.18,1.93-.85,2.69-1.6,2.93-2.86,4.8-6.38,6.23-10.16.16-.43.47-1.03-.18-1.26-.65-.23-.75.38-.92.85-.88,2.38-2.02,4.63-3.6,6.86Z"/>
          <path class="cls-12" d="M333.2,357.36c-.58,4.09-1,7.84-2.17,11.47-.49,1.53-1.75,1.97-3,2.36-5.91,1.85-11.9,3.3-18.09,3.81-3.15.26-6.29.69-9.44.84-3.23.16-3.99-.72-3.73-3.99.2-2.38.53-4.75.77-7.13.14-1.35.78-2.1,2.16-2.41,2.81-.64,5.53-1.61,8.08-2.97,1-.53,1.72-.35,2.7.09,6.58,2.96,13.2,3.78,19.78-.04.9-.52,1.71-1.18,2.95-2.04Z"/>
          <path class="cls-15" d="M317.44,452.47c-3.45-.04-4.64-1.94-3.22-4.76,1.29-2.55,3.21-4.61,5.52-6.27.55-.4,1.26-.76,1.91-.78,3.16-.11,6.31-.35,9.43-.91.5-.09.91-.12,1.2.5.52,1.13.2,4.51-.78,5.17-3.94,2.69-7.78,5.56-12.5,6.82-.6.16-1.24.19-1.56.23Z"/>
          <path class="cls-15" d="M301.54,441.87c1.97,0,3.94.04,5.91-.02.95-.03,1.28.25,1.04,1.21-.63,2.53-1.43,4.74-4.46,5.48-3.26.79-6.34,2.31-9.69,2.87-2.12.35-4.21.3-6.14-.84-1.3-.78-1.71-1.88-.87-3.2,2.08-3.26,4.98-5.29,8.93-5.5,1.75-.09,3.52-.02,5.27-.02v.02Z"/>
          <path class="cls-17" d="M310.65,344.42c.46-3.62.94-7.24,1.38-10.87.12-1,.64-1.28,1.56-1.21.81.07,1.64-.17,1.91,1.06.57,2.6,1.35,5.16,1.93,7.76.51,2.29-1.19,4.39-3.57,4.61-.49.04-.99.1-1.45.26-1.64.58-2.02-.14-1.77-1.61Z"/>
          <path class="cls-11" d="M311.02,332.46c-.61,4.62-1.37,8.98-1.62,13.4-.02.34,0,.74-.46.82-.41.07-.66-.21-.8-.54-.19-.45-.35-.92-.48-1.39-1.01-3.79-2-7.59-3-11.39-.09-.34-.26-.68-.25-1.01.02-.5,4.71-2.38,5.48-2.1,1.1.41,1.11,1.46,1.13,2.2Z"/>
          <path class="cls-11" d="M330.7,310.02c.54-3.55,1-6.65,1.48-9.76.19-1.19.68-2.21,2.08-2.17,1.34.04,1.94,1.02,2.13,2.21.32,1.97-.27,3.75-1.38,5.35-1.12,1.62-2.54,2.93-4.31,4.37Z"/>
          <path class="cls-11" d="M318.22,339.7c-.56-2.45-1.26-4.87-1.63-7.35-.36-2.39.37-2.89,2.61-2.17.13.04.27.06.4.11,2.73.97,2.82,1.11,1.66,3.86-.79,1.86-1.71,3.66-2.56,5.49-.16.02-.32.05-.48.07Z"/>
          <path class="cls-11" d="M297.58,312.05c-2.29-2.33-4.04-4.47-4.61-7.32-.36-1.8.09-3.41,1.83-4.32,1.07-.56,1.99-.38,1.96,1.11-.05,3.37.32,6.72.82,10.53Z"/>
          <path class="cls-11" d="M318.01,346.78c.09,0,.38-.02.64.06,1.37.44,3.06.57,3.08,2.56.01,1.08-2.71,3.09-3.93,3.1-.82,0-.67-.57-.7-1-.05-.93-.28-1.8-.64-2.64-.84-1.96-.74-2.11,1.55-2.08Z"/>
          <path class="cls-11" d="M316.17,327.81c3.17-1.3,5.88-2.41,8.88-3.63-.44,2.12-1.44,3.71-2.09,5.43-.25.65-.63.58-1.16.36-1.75-.7-3.52-1.35-5.63-2.16Z"/>
          <path class="cls-11" d="M302.42,325.61c3.06.96,5.63,1.76,8.59,2.69-2.27,1.25-4.44,1.48-6.41,2.25-.54.21-.75-.19-.88-.61-.4-1.31-.79-2.63-1.3-4.33Z"/>
          <path class="cls-17" d="M313.58,331.14c-.81-.01-2,.02-1.81-.9.31-1.5,1.91-.82,2.94-1.1.42-.12,1.07-.03.97.7-.18,1.27-1.07,1.47-2.1,1.3Z"/>
          <path d="M312.66,318.68c-1.36-.13-2.96-.31-4.16-1.61-.34-.36-.69-.83-.21-1.28.44-.41.71.12,1.03.35,2.52,1.9,4.86,1.84,7.33-.18.27-.22.5-.56.88-.29.45.33.25.72.02,1.1-1.08,1.76-2.84,1.86-4.88,1.89Z"/>
          <path d="M310.57,309.77c.73.17,1.21.24,1.66.39.26.09.55.41.32.64-.82.78-1.85.36-2.77.28-.86-.08-.94-.71-.53-1.39.97-1.62,1.93-3.26,2.93-4.86.24-.38.6-.94,1.16-.46.57.49-.03.87-.26,1.25-.78,1.32-1.59,2.63-2.52,4.16Z"/>
          <path d="M306.84,306.07c-.69-.11-.9-.62-.91-1.21,0-.61.24-1.16.92-1.2.75-.04.89.56.86,1.16-.02.59-.16,1.12-.88,1.25Z"/>
          <path d="M320.56,303.39c.72.16.81.72.77,1.28-.04.51-.25.98-.89.89-.55-.08-.86-.46-.8-1.01.06-.56.23-1.09.92-1.15Z"/>
        </g>
        <g>
          <path d="M469.91,385.86c.08,7.18-.35,13.83-.82,20.48-.68,9.48-.55,19.02-2.05,28.44-.2,1.27.48,1.41,1.36,1.56,3.36.56,6.29,1.99,8.78,4.31.76.71,1.49,1.52,2.05,2.4,1.32,2.08,1.05,2.87-1.12,3.97-2.19,1.1-4.54,1.53-6.95,1.48-5.21-.1-10.4-.5-15.58-1.11-1.53-.18-2.27-.82-2.16-2.44.13-1.89-.03-3.8.36-5.69.43-2.07-.66-3.96-.78-5.99-.53-9.21-1.01-18.43-2.97-27.61-.53,2.79-1.11,5.56-1.6,8.36-1.15,6.59-2.15,13.2-3.41,19.77-.75,3.93-1.88,7.78-2.79,11.68-.3,1.29-.97,2.03-2.26,2.49-4.71,1.66-9.35,3.54-14.43,3.8-2.06.11-4.08-.07-6-.9-2.67-1.16-3.33-2.95-1.76-5.4,2.08-3.26,5.08-5.46,8.76-6.59,1.52-.46,2.01-1.13,2.04-2.77.19-11.77.48-23.54.84-35.3.08-2.73.54-5.45.82-8.17-1.42-.24-2.57.06-3.79.79-2.36,1.41-3.83.56-3.8-2.22.13-15.89,1.98-31.58,5.68-47.05,1.23-5.16,3.76-9.54,7.59-13.15,1.01-.95,1.18-1.84.87-3.16-.62-2.67-1.07-5.38-1.48-8.09-.14-.92-.5-1.52-1.24-2.06-2.26-1.62-4.02-3.73-5.51-6.06-.91-1.41-.95-2.92.21-4.09,1-1.02,1.17-2.16,1.32-3.41.57-4.65,1.95-9.07,3.89-13.32,1.09-2.37,2.59-4.35,5.01-5.5.37-.18.79-.41,1-.73,2.42-3.68,6.21-4.33,10.15-4.63,3.75-.29,7.46.14,11.13.88,4.92.99,7.44,4.6,9.06,8.89,1.81,4.77,1.96,9.62-.2,14.4-.21.45-.64.89.17,1.36,2.25,1.33,2.34,3.55,2.02,5.77-.44,3.09-2.03,5.63-4.63,7.26-1.65,1.04-2.21,2.37-2.38,4.09-.14,1.52-1.39,3.3-.55,4.41.71.94,2.68.92,4.08,1.35,1.01.31,2,.67,3.01.98,2.63.8,4.49,2.39,5.74,4.91,2.93,5.89,5.04,12.07,6.88,18.35,1.03,3.53.02,6.98-1.22,10.32-1.7,4.57-4.2,8.75-6.47,13.04-1.31,2.49-1.31,4.79-.33,7.27.39.98.74,1.98,1.04,2.99.33,1.11.05,2.14-.82,2.89-.92.79-1.98.53-2.96.03-1.34-.69-2.35-1.78-3.77-3.26ZM437.52,331.37c-3.93,3.3-6.4,7.39-7.69,12.18-3.4,12.56-4.45,25.49-5.94,38.35-.19,1.68.89,1.65,2.02,1.47,2.64-.42,5.26-.98,7.91-1.3,1.66-.2,2.16-.96,2.35-2.55.74-6.36,1.04-12.78,2.62-19.02.15-.58,0-1.74.99-1.53,1.05.22.39,1.16.25,1.76-1.51,6.4-1.82,12.96-2.65,19.45-.1.82-.35,1.63,1.03,1.75,7.87.67,15.59-.18,23.22-2.08,1.04-.26,1.46-.74,1.47-1.89.01-2.61.15-5.36,1.48-7.59,1.28-2.15,1.6-4.26,1.4-6.61-.05-.63-.02-1.27,0-1.9.09-3.59.19-7.18.3-10.78.01-.48,0-1.09.58-1.22.63-.14.76.51.97.92.76,1.51,1.36,3.12,2.26,4.53,1.02,1.59,1.01,3.17.57,4.85-.63,2.4-1.64,4.65-2.84,6.8-.58,1.05-.62,1.95.05,2.93,1.69,2.47,3.8,4.51,6.12,6.37.67.54,1.05.46,1.4-.32,2.05-4.56,4.86-8.74,6.6-13.44,1.34-3.62,2.18-7.3.82-11.13-1.42-3.97-3-7.9-4.22-11.93-1.83-6.02-5.73-9.46-11.91-10.39-.07-.01-.14-.02-.21-.05-1.2-.52-1.91-.15-2.41,1.09-1.02,2.54-2.02,5.11-3.28,7.54-1.82,3.49-2.23,3.5-5.01.93-.09-.08-.25-.09-.43-.15-.68.92-.54,1.99-.5,3,.31,7.67.66,15.34.99,23.01.04.96.3,1.93-.26,2.88-1.98,3.31-4.69,6.17-6.14,9.82-.28.71-1.13.96-1.34.06-.74-3.06-2.55-5.87-2.24-9.16.63-6.66,1.36-13.31,1.92-19.97.26-3.02,1.14-6,1-9.1-.92.02-1.36.53-1.89.85-3.53,2.14-4.17,2-6.14-1.74-1.13-2.15-2.1-4.39-3.2-6.72ZM466.87,379.52c-.67,2.1-1.34,3.5-3.14,1.35-.36-.42-.78-.05-1.16.05-8.03,2.13-16.17,3.06-24.46,2.25-1.19-.12-1.53.13-1.63,1.37-.21,2.87-.86,5.61-3.8,7.05-.96.47-1.07,1.36-1.23,2.29-.76,4.39-.89,8.83-1,13.27-.23,9.72-.4,19.45-.67,29.17-.05,1.73.43,2.13,2.17,1.9,2.92-.38,5.9-.51,8.85-.53,1.51,0,2.2-.58,2.46-1.95.15-.76.38-1.5.51-2.26,1.41-8.11,2.77-16.23,4.21-24.34.48-2.7,1.11-5.37,1.74-8.04.13-.55.29-1.42,1.11-1.26.77.16.35.9.37,1.42.04,1.05.15,2.09.28,3.13.76,5.79,1.73,11.56,2.04,17.41.22,4.15.6,8.29.84,12.44.08,1.42.61,1.94,2.08,1.82,2.17-.17,4.38-.28,6.54-.09,1.96.18,2.89-.45,2.99-2.39.02-.42.13-.83.17-1.25.89-8.06,1.11-16.17,1.55-24.25.42-7.73,1.19-15.46.86-23.23-.08-1.81-.67-3.39-1.69-5.34ZM435.47,307.81c.35,7.21,1.21,13.33,2.42,19.41.34,1.7,1.06,2.73,2.8,3.22,3.45.97,6.86,2.08,10.25,3.22.95.32,1.61-.01,2.34-.46,2.89-1.75,5.77-3.5,8.69-5.2.83-.48,1.13-1.14,1.28-2.03.79-4.57,1.42-9.19,2.5-13.69,1.11-4.67.68-8.85-2.35-12.69-.6-.76-1.04-1.69-1.35-2.62-.48-1.42-1.26-1.89-2.8-1.79-4.64.3-9.31.3-13.9-.48-2.55-.43-4.08.17-5.06,2.57-.41,1.01-1.11,2.03-1.94,2.74-2.82,2.38-3.1,5.49-2.89,7.79ZM467.82,305.19c3.41-4.72,3.33-12.49-.04-17.85-1.88-2.98-4.28-5.2-8.03-5.47-1.33-.1-2.64-.54-3.96-.57-5.51-.13-11.28-1.01-15.15,4.48-.19.26-.56.41-.88.56-2.15,1.01-3.57,2.71-4.53,4.82-1.81,3.98-3.02,8.15-3.85,12.45-.35,1.78.43,1.89,1.77,2.11,1.8.3,1.11-1.06,1.21-1.71.14-.94.41-1.75,1.05-2.46,1.97-2.21,3.79-4.53,5.16-7.18.45-.87,1.05-1.45,2.17-1.26,5.86,1.01,11.77.95,17.68.76,1.13-.04,1.9.25,2.3,1.35,1.26,3.45,3.63,6.31,5.11,9.96ZM424.3,450.48c4.65-.06,8.17-1.59,11.85-2.46,3.95-.93,5.47-3.3,5.87-7.01.18-1.61-.02-2.22-1.84-2.13-3.45.18-6.87.69-10.3.79-3.94.12-9.52,3.28-11.19,6.77-.68,1.42-.45,2.39,1.04,3.06,1.71.77,3.5,1.01,4.56.97ZM468.14,447.05c3.1.19,6.16.29,9.11-1.04,1.46-.66,1.5-1.4.68-2.53-2.35-3.25-5.62-5.03-9.47-5.8-3.97-.8-7.99-.39-11.99-.36-.84,0-1.3.27-1.35,1.19-.11,1.89-.25,3.79-.45,5.67-.13,1.31.32,1.85,1.7,1.99,3.92.39,7.82.9,11.76.88ZM448.86,375.1c.78-1.3,1.21-2.49,2.03-3.31,3.3-3.32,3.94-7.19,3.5-11.73-.61-6.22-.64-12.5-.83-18.76-.04-1.44-.51-1.37-1.65-1.04-1.33.38-2.01,1.06-2.18,2.42-1.07,8.51-1.99,17.04-2.62,25.6-.18,2.36.89,4.45,1.76,6.82ZM464.56,379.93c.22.04.44.08.66.11.14-.38.31-.74.42-1.13.2-.69.41-1.45,1.25-1.47.86-.02,1.06.8,1.33,1.44.46,1.1.87,2.22,1.33,3.32.97,2.31,2.34,4.31,4.53,5.65.55.33,1.16.65,1.75.17.55-.45.54-1.1.32-1.75-.87-2.51-1.94-4.98-1.93-7.72,0-.29-.25-.68-.5-.87-2.86-2.14-5.38-4.62-7.53-7.98-1.5,3.58-2.1,6.83-1.63,10.23ZM423.91,390.49c.43.59-.76,2.72,1.29,1.96,1.84-.68,3.51-1.36,5.55-1.55,2.76-.26,4.92-4.13,4.52-6.98-.13-.95-.61-.7-1.16-.61-1.66.27-3.34.49-5,.79q-5.08.94-5.2,6.38ZM439.04,331.32c1.18,2.86,2.21,5.3,3.67,7.55.41.63.79,1.35,1.82.76,2.24-1.28,4.4-2.67,6.55-4.5-3.93-1.63-7.82-2.59-12.03-3.81ZM453.6,334.5c1.29,1.29,2.49,2.37,3.52,3.58.84.99,1.32.95,2-.14,1.71-2.74,2.64-5.79,4.06-9.26-3.47,2.11-6.45,3.92-9.58,5.82ZM466.14,317.79c3.55-1.88,5.6-5.99,4.77-9.34-.21-.85-.45-1.77-1.47-1.79-1.03-.01-1.7.76-1.87,1.72-.53,3.1-.95,6.22-1.43,9.41ZM434.77,316.62c-.21-2.76-.39-5.12-.56-7.47-.07-.99-.47-1.8-1.4-2.15-1.04-.39-1.91.15-2.65.84-.77.71-1.27,1.63-.74,2.62,1.26,2.35,3,4.29,5.34,6.16ZM467.49,353.89v10.69c1.88-3.83,3.39-7.11,0-10.69ZM454.19,337.06c-.15-.46-.6-.8-1.07-1.07-.94-.53-1.31.48-1.92.81-.87.47-1.54,1.3-1.03,2.19.44.78,1.28-.03,1.93-.18.93-.21,1.98-.34,2.09-1.76Z"/>
          <path class="cls-11" d="M437.52,331.37c1.1,2.32,2.07,4.57,3.2,6.72,1.97,3.74,2.61,3.88,6.14,1.74.53-.32.97-.83,1.89-.85.15,3.1-.74,6.07-1,9.1-.56,6.66-1.3,13.31-1.92,19.97-.31,3.29,1.5,6.1,2.24,9.16.22.9,1.06.65,1.34-.06,1.45-3.65,4.16-6.51,6.14-9.82.57-.95.3-1.92.26-2.88-.32-7.67-.68-15.34-.99-23.01-.04-1.01-.18-2.09.5-3,.18.06.34.07.43.15,2.78,2.57,3.19,2.56,5.01-.93,1.26-2.42,2.26-4.99,3.28-7.54.5-1.24,1.21-1.61,2.41-1.09.06.03.14.04.21.05,6.18.93,10.08,4.36,11.91,10.39,1.22,4.03,2.8,7.96,4.22,11.93,1.37,3.83.52,7.51-.82,11.13-1.74,4.7-4.55,8.89-6.6,13.44-.35.78-.73.85-1.4.32-2.32-1.86-4.44-3.91-6.12-6.37-.68-.99-.63-1.88-.05-2.93,1.19-2.15,2.21-4.4,2.84-6.8.44-1.68.46-3.26-.57-4.85-.91-1.41-1.5-3.02-2.26-4.53-.21-.41-.33-1.07-.97-.92-.58.13-.57.74-.58,1.22-.11,3.59-.21,7.18-.3,10.78-.02.63-.05,1.27,0,1.9.2,2.35-.12,4.46-1.4,6.61-1.33,2.23-1.47,4.98-1.48,7.59,0,1.15-.42,1.63-1.47,1.89-7.64,1.9-15.35,2.75-23.22,2.08-1.39-.12-1.14-.93-1.03-1.75.82-6.49,1.13-13.05,2.65-19.45.14-.6.8-1.54-.25-1.76-.99-.21-.84.95-.99,1.53-1.57,6.24-1.87,12.66-2.62,19.02-.19,1.59-.69,2.35-2.35,2.55-2.65.31-5.27.87-7.91,1.3-1.13.18-2.21.21-2.02-1.47,1.49-12.86,2.54-25.79,5.94-38.35,1.3-4.79,3.76-8.88,7.69-12.18Z"/>
          <path class="cls-12" d="M466.87,379.52c1.02,1.95,1.61,3.53,1.69,5.34.33,7.77-.44,15.49-.86,23.23-.44,8.09-.65,16.19-1.55,24.25-.05.42-.15.83-.17,1.25-.1,1.93-1.04,2.56-2.99,2.39-2.16-.2-4.37-.08-6.54.09-1.47.11-2-.41-2.08-1.82-.24-4.15-.61-8.29-.84-12.44-.31-5.85-1.28-11.62-2.04-17.41-.14-1.04-.24-2.09-.28-3.13-.02-.53.4-1.27-.37-1.42-.82-.16-.98.71-1.11,1.26-.63,2.67-1.26,5.34-1.74,8.04-1.44,8.11-2.8,16.23-4.21,24.34-.13.76-.37,1.5-.51,2.26-.26,1.37-.95,1.95-2.46,1.95-2.95.02-5.92.15-8.85.53-1.75.23-2.22-.18-2.17-1.9.27-9.72.43-19.44.67-29.17.11-4.44.23-8.87,1-13.27.16-.93.27-1.82,1.23-2.29,2.94-1.44,3.59-4.18,3.8-7.05.09-1.24.44-1.48,1.63-1.37,8.29.81,16.43-.12,24.46-2.25.39-.1.81-.47,1.16-.05,1.81,2.15,2.47.75,3.14-1.35Z"/>
          <path class="cls-11" d="M435.47,307.81c-.21-2.31.07-5.41,2.89-7.79.83-.7,1.53-1.72,1.94-2.74.98-2.4,2.51-3,5.06-2.57,4.59.78,9.26.78,13.9.48,1.54-.1,2.32.37,2.8,1.79.31.92.75,1.86,1.35,2.62,3.03,3.83,3.46,8.02,2.35,12.69-1.07,4.51-1.71,9.12-2.5,13.69-.15.89-.45,1.55-1.28,2.03-2.92,1.69-5.8,3.45-8.69,5.2-.73.44-1.39.77-2.34.46-3.4-1.14-6.8-2.25-10.25-3.22-1.74-.49-2.47-1.52-2.8-3.22-1.21-6.08-2.07-12.2-2.42-19.41ZM450.43,321.71c1.35-.11,2.64-.45,3.75-1.26.4-.29,1.15-.57.6-1.28-.45-.58-.89-.06-1.27.18-2.33,1.44-4.64,1.3-6.96-.01-.34-.19-.67-.66-1.06-.16-.39.51-.07.93.34,1.26,1.35,1.08,3.01,1.04,4.6,1.29ZM448.68,312.61c.46-1.06,1.48-1.64,2.21-2.46.31-.34.92-.66.47-1.2-.54-.66-1.01-.07-1.4.29-.82.77-1.63,1.56-2.38,2.4-.44.5-1.26.93-.97,1.73.28.78,1.19.8,1.83.72.99-.13,2.5,1.18,2.77,0,.31-1.37-1.74-.72-2.54-1.47ZM457.94,308.15c-.09-.61-.34-1.15-1.03-1.06-.66.08-1.18.51-1.1,1.27.06.56.24,1.15,1,1.09.77-.06.99-.66,1.13-1.3ZM443.05,309.35c.61-.1,1-.45,1.02-1.09.01-.69-.5-.98-1.07-1.03-.68-.06-.97.38-.98,1.03-.01.7.45.94,1.04,1.09Z"/>
          <path class="cls-15" d="M467.82,305.19c-1.48-3.65-3.85-6.52-5.11-9.96-.4-1.1-1.17-1.39-2.3-1.35-5.91.19-11.82.26-17.68-.76-1.12-.19-1.72.39-2.17,1.26-1.38,2.64-3.19,4.96-5.16,7.18-.63.71-.9,1.52-1.05,2.46-.1.65.59,2.02-1.21,1.71-1.34-.22-2.11-.33-1.77-2.11.84-4.3,2.04-8.47,3.85-12.45.96-2.11,2.39-3.81,4.53-4.82.31-.15.69-.3.88-.56,3.87-5.5,9.64-4.61,15.15-4.48,1.32.03,2.63.47,3.96.57,3.76.27,6.16,2.49,8.03,5.47,3.37,5.35,3.45,13.13.04,17.85Z"/>
          <path class="cls-15" d="M424.3,450.48c-1.06.04-2.85-.2-4.56-.97-1.49-.67-1.72-1.64-1.04-3.06,1.68-3.49,7.26-6.65,11.19-6.77,3.43-.1,6.86-.61,10.3-.79,1.82-.1,2.01.52,1.84,2.13-.41,3.71-1.93,6.08-5.87,7.01-3.68.87-7.2,2.4-11.85,2.46Z"/>
          <path class="cls-15" d="M468.15,447.04c-3.95.01-7.85-.49-11.77-.88-1.38-.14-1.83-.68-1.7-1.99.19-1.89.34-3.78.45-5.67.05-.92.52-1.19,1.35-1.19,4-.03,8.02-.44,11.99.36,3.84.77,7.12,2.55,9.47,5.8.82,1.14.78,1.88-.68,2.53-2.95,1.33-6.01,1.23-9.11,1.03Z"/>
          <path class="cls-15" d="M448.86,375.1c-.87-2.37-1.94-4.46-1.76-6.82.64-8.56,1.55-17.09,2.62-25.6.17-1.36.85-2.04,2.18-2.42,1.14-.33,1.61-.4,1.65,1.04.19,6.26.23,12.54.83,18.76.44,4.54-.2,8.42-3.5,11.73-.81.82-1.25,2.01-2.03,3.31Z"/>
          <path class="cls-11" d="M464.56,379.93c-.47-3.39.12-6.64,1.63-10.23,2.14,3.36,4.67,5.83,7.53,7.98.25.19.5.57.5.87,0,2.74,1.06,5.2,1.93,7.72.22.64.23,1.29-.32,1.75-.59.49-1.2.16-1.75-.17-2.19-1.33-3.55-3.34-4.53-5.65-.46-1.1-.87-2.22-1.33-3.32-.27-.64-.46-1.46-1.33-1.44-.84.02-1.06.78-1.25,1.47-.11.38-.28.75-.42,1.13-.22-.04-.44-.08-.66-.11Z"/>
          <path class="cls-11" d="M423.91,390.49q.13-5.42,5.2-6.38c1.66-.31,3.33-.52,5-.79.56-.09,1.03-.34,1.16.61.39,2.84-1.76,6.71-4.52,6.98-2.04.19-3.71.87-5.55,1.55-2.04.76-.86-1.37-1.29-1.96Z"/>
          <path class="cls-11" d="M439.04,331.32c4.21,1.22,8.1,2.18,12.03,3.81-2.15,1.83-4.3,3.22-6.55,4.5-1.03.59-1.41-.14-1.82-.76-1.45-2.24-2.49-4.69-3.67-7.55Z"/>
          <path class="cls-11" d="M453.6,334.5c3.13-1.9,6.11-3.71,9.58-5.82-1.42,3.47-2.35,6.52-4.06,9.26-.68,1.09-1.16,1.12-2,.14-1.03-1.21-2.23-2.29-3.52-3.58Z"/>
          <path class="cls-11" d="M466.14,317.79c.48-3.19.9-6.31,1.43-9.41.16-.96.84-1.73,1.87-1.72,1.02.01,1.27.94,1.47,1.79.83,3.35-1.22,7.46-4.77,9.34Z"/>
          <path class="cls-11" d="M434.77,316.62c-2.34-1.87-4.09-3.81-5.34-6.16-.53-1-.04-1.91.74-2.62.74-.69,1.61-1.23,2.65-.84.93.35,1.33,1.16,1.4,2.15.16,2.36.35,4.72.56,7.47Z"/>
          <path class="cls-15" d="M454.19,337.06c-.11,1.42-1.16,1.54-2.09,1.76-.65.15-1.49.96-1.93.18-.51-.89.17-1.73,1.03-2.19.61-.33.98-1.34,1.92-.81.47.26.93.61,1.07,1.07Z"/>
          <path d="M450.43,321.71c-1.59-.24-3.25-.2-4.6-1.29-.41-.33-.73-.75-.34-1.26.39-.5.72-.03,1.06.16,2.32,1.31,4.63,1.46,6.96.01.38-.24.82-.76,1.27-.18.55.72-.2.99-.6,1.28-1.11.81-2.39,1.15-3.75,1.26Z"/>
          <path d="M448.68,312.61c.8.75,2.85.1,2.54,1.47-.27,1.19-1.78-.12-2.77,0-.63.08-1.55.07-1.83-.72-.29-.8.53-1.23.97-1.73.75-.84,1.56-1.62,2.38-2.4.39-.36.85-.96,1.4-.29.45.54-.17.86-.47,1.2-.74.82-1.75,1.4-2.21,2.46Z"/>
          <path d="M457.94,308.15c-.13.65-.35,1.24-1.13,1.3-.76.06-.94-.53-1-1.09-.09-.76.44-1.19,1.1-1.27.69-.09.94.45,1.03,1.06Z"/>
          <path d="M443.05,309.35c-.59-.14-1.05-.38-1.04-1.09.01-.65.3-1.1.98-1.03.57.05,1.09.34,1.07,1.03-.01.64-.41.99-1.02,1.09Z"/>
        </g>
        <g>
          <path d="M378.68,462.84c.25,4.12.29,8.26.8,12.34.61,4.91-1.03,9.55-1.25,14.36-.07,1.44-1.42,1.98-2.66,2.4-5.18,1.76-10.56,2.37-15.96,2.87-2.6.24-5.2.41-7.76-.35-4.22-1.25-5.4-4.54-2.84-8.14,2.14-3.01,5.14-4.86,8.75-5.42,1.66-.26,1.76-.78,1.66-2.26-1.25-19.05-3.13-38.08-2.7-57.22.02-.79-.08-1.43-.69-2.09-5.59-6.04-8.42-13.41-9.8-21.36-1.65-9.51,1.3-18.25,4.98-26.79,1.42-3.29,3.36-6.34,5.1-9.48,1.2-2.17,1.8-4.69,2.56-7.09.14-.45-.22-1.07-.4-1.6-.38-1.14-.9-2.24-1.15-3.4-.69-3.22-1.76-6.06-4.81-7.94-2.58-1.59-2.13-4.75-2.87-7.23-1.56-5.22-.69-10.16,2.34-14.72,2.72-4.08,5.64-7.92,10.22-10.12,1.57-.75,2.5-2.26,3.64-3.49,2.97-3.24,6.46-3.67,10.4-2.22,1.74.64,3.33,1.55,4.76,2.69,4.29,3.4,7.97,7.44,10.84,12.05,2.88,4.63,3.45,9.4-.07,14.39-2.29,3.23-4.27,6.76-6.13,10.3-.69,1.31-.66,3-.93,4.53-.06.33-.06.79.49.64,1.92-.52,2.27,1.03,2.76,2.19.56,1.33,1.37,2.08,2.78,2.57,4.91,1.71,9.33,4.25,12.77,8.29,4.44,5.21,5.32,11.23,3.84,17.65-.56,2.42-2.55,4.17-4.21,6-.57.63-1.13,1.14-.89,2.18.93,3.91-.61,6.46-4.12,8.42-4.63,2.59-4.32,2.75-3.63,8.05.99,7.61,1.58,15.27,2.47,22.9,1.85,15.98,2.82,32.01,2.99,48.09.01,1.45.47,1.92,1.93,1.95,2.64.05,5.19.58,7.23,2.48,3.18,2.95,2.61,6.46-1.44,8.11-5.81,2.36-11.95,2.45-18.09,2.21-1.46-.06-2.31-.87-2.89-2.32-2.49-6.23-4.02-12.74-5.81-19.17-.5-1.79-1.14-3.55-1.71-5.32-.16.03-.32.06-.48.09ZM393.09,402.61c-.56.28-.96.36-1.14.61-3.18,4.18-8.24,5.75-12.23,8.82-.62.48-1.64,1.49-2.12.55-.81-1.56-1.8-.87-2.8-.73-1.81.24-3.65.31-5.45.51-1.84.21-3.59,1.07-5.54.9-.48-.04-.55.59-.6.98-.45,3.27-1.86,6.18-3.28,9.09-.26.54-.38,1.49-1.18,1.13-.74-.33-.15-1.09,0-1.67.11-.43.65-.85.14-1.33-.13-.13-.42-.26-.54-.19-.57.29-.26.87-.33,1.32-.05.27,0,.56,0,.84-.35,12.49.68,24.92,1.41,37.37.34,5.77.88,11.52,1.17,17.29.11,2.24,1,3.3,3.23,3.46,3.52.25,7.04.29,10.56.21,4.16-.09,4.26-.14,3.93-4.35-1.01-12.93-1.25-25.88-1.32-38.84-.02-2.82,0-5.64.04-8.46,0-.49-.23-1.32.64-1.27.77.04.6.81.62,1.35.02.63,0,1.27,0,1.9.06,7.12.11,14.23.18,21.35.02,1.55.09,3.1.58,4.59,2.01,6.15,4,12.31,5.45,18.62.33,1.43,1.08,1.72,2.39,1.66,3.25-.15,6.41-.89,9.63-1.19,1.87-.17,2.24-.84,2.21-2.62-.25-16.21-1.3-32.37-3.11-48.49-.87-7.69-1.66-15.4-2.52-23.42ZM356.25,337.39c.18,4.31,1.38,8,2.22,11.77.97,4.35,3.24,7.33,7.58,8.68,1.4.43,2.68,1.22,4.02,1.85,4.19,1.96,7.2.64,8.72-3.79.34-.98.47-2.09,1.41-2.76,2.64-1.89,3.28-4.7,3.62-7.69.19-1.68.48-3.34.74-5.01.84-5.41,1.52-10.52-2.26-15.56-2.57-3.42-5.17-6.22-9.14-7.67-3.25-1.19-4.59-.64-6.1,2.48-2.44,5.03-5.32,9.78-9.22,13.81-1.23,1.27-1.94,2.54-1.58,3.9ZM367.54,366.07c-.7,1.33-.88,2.59-1.04,3.84-.07.49-.05,1.07-.58,1.27-.7.27-.98-.37-1.29-.81-1.76-2.49-4.15-4.41-6.11-6.72-.81-.95-1.33-.95-1.97.19-1.84,3.25-3.79,6.46-5.12,9.94-3.48,9.11-6.07,18.37-3.06,28.2,1.78,5.82,3.84,11.59,8.22,15.97,3.42,3.42,3.34,3.21,4.77-1.34,1.22-3.87,1.18-4.11-2.52-5.63-2.71-1.11-3.55-2.92-3.79-5.62-.79-8.87-.44-17.75-.4-26.62,0-2.11,0-4.23.38-6.32.1-.53-.02-1.34.72-1.3.76.04.6.8.56,1.36-.02.21-.07.42-.08.63-.55,10.92-.67,21.83.17,32.74.07.97.07,2.32.89,2.72,2.56,1.25,4.82,3.22,7.85,3.39,1.29.07,1.85-.3,1.82-1.77-.28-14.66.63-29.31.6-44.11ZM391.39,330.79c1.25-1.16,1.51-2.68,1.48-4.23-.06-2.79-.69-5.47-2.38-7.76-2.8-3.81-5.86-7.4-9.44-10.51-1.61-1.39-3.41-2.48-5.41-3.22-3.26-1.2-6.16-.88-8.69,1.79-1.25,1.32-2.24,2.97-3.92,3.81-5.66,2.83-9.1,7.63-11.71,13.14-1.6,3.38-1.38,6.89-.37,10.54,1.26-.9,2.45-1.69,3.84-1.21,1.19.42,1.77-.12,2.48-.9,3.74-4.1,6.52-8.81,8.94-13.77,1.35-2.77,3.28-3.61,6.26-2.79,4.75,1.32,8.53,3.91,10.73,8.49.49,1.01,1.05,1.99,1.63,2.96.5.83.87,1.69,2.17.7.89-.68,2.06-.25,2.8.7.55.7,1.03,1.46,1.58,2.27ZM378.75,358.9c-2.95,3.77-6.16,3.43-9.72,1.78-.15,16.45-.97,32.55-.84,48.67.01,1.36.9,1.63,1.95,1.69,1.92.11,3.76-.44,5.64-.68,1.08-.14,1.36-.68,1.37-1.68.03-2.89.07-5.77.24-8.65.78-12.72.91-25.47,1.36-38.2.03-.76,0-1.52,0-2.91ZM389.05,391.05c1.55-.43,2.94-.71,4.24-1.2,9.73-3.7,16.03-10.94,12.51-21.56-2.61-7.86-9.05-11.46-16.26-14.1-.53-.19-.82.03-.98.48-1.24,3.52-2.47,7.05-3.82,10.92,2.96-1.6,5.5-3.1,8.15-4.37,3.98-1.89,4.62-1.53,5.35,2.78.35,2.08.04,4.46.97,6.2,1.13,2.12.07,2.9-1.13,3.97-2.62,2.36-5.38,4.54-8.3,6.51-.48.32-1.24.51-1.02,1.39.71,2.92.03,5.9.28,8.98ZM357.67,493.67c4.67-.35,9.69-.89,14.61-2.17,5.07-1.32,5.01-1.31,5.17-6.48.05-1.63-.32-2.14-2.06-2.06-4.63.23-9.29.43-13.87-.56-4.44-.96-9.88,1.47-11.96,5.49-1.19,2.31-.53,4.1,1.9,5.07,1.87.75,3.85.73,6.21.7ZM382.28,381.29c1.21-.33,2.25-1.39,3.4-1.14,2.52.55,4.08-.99,5.77-2.27,1.96-1.49,3.85-3.07,5.75-4.64.41-.34.98-.59.87-1.31-.45-2.99-.89-5.98-1.31-8.97-.19-1.32-.81-1.6-2.02-1.06-3.91,1.77-7.78,3.62-11.16,6.31-1.05.84-1.94,1.87-1.92,3.37.06,3.22-.04,6.46.63,9.71ZM385.59,479.64c.4,2.4,1.44,4.48,2.12,6.67.44,1.43,1.33,2.08,2.75,2.07,5.49-.01,10.96-.16,16.22-1.99,1.43-.5,2.81-1.12,3.04-2.85.23-1.77-.84-2.92-2.15-3.83-2.72-1.87-5.82-1.9-8.92-1.58-4.32.44-8.57,1.52-13.06,1.51ZM380.38,359.54c-.11.02-.23.04-.34.06,0,.67.02,1.35,0,2.02-.29,9.71-.37,19.44-.94,29.14-.37,6.26-.22,12.53-.69,18.78-.03.45-.25,1.05.26,1.34.44.24.73-.28,1.07-.48,4.19-2.52,8.41-4.98,11.92-8.5.86-.86,1.22-1.53.81-2.74-1.74.97-3.38,1.9-5.04,2.81-2.98,1.64-3.57,1.37-4.21-1.9-.11-.55-.18-1.11-.22-1.67-.03-.53-.1-.9-.75-1.06-1.64-.4-1.44-1.64-1.2-2.87.13-.67.81-1.57.34-1.96-1.55-1.3-1-2.58-.31-3.95.21-.41.31-.8-.05-1.15-1.27-1.25-.85-2.56-.11-3.84.31-.53.31-.99.17-1.58-.82-3.38-.66-6.85-.74-10.3-.04-1.57.7-2.83,1.72-3.96.38-.42,1.05-.68.7-1.55-.86-2.19-1.61-4.42-2.41-6.64ZM401.08,389.77c-.11-.65.32-1.59-.32-1.95-.69-.39-1.21.5-1.78.83-1.71,1-3.46,1.95-5.37,2.43-3.01.75-5.49,2.05-7.72,4.35-1.48,1.52-1.7,2.76-1.39,4.6.25,1.49.68,1.72,2.01.98,4.3-2.4,8.48-5,12.67-7.58,1.41-.87,2.17-1.96,1.89-3.66ZM387.82,387.59c0-1.06.06-2.12-.02-3.17-.08-1.1.06-2.5-1.22-2.91-1.38-.44-2.6.28-3.5,1.4-.44.55-.88,1.1-1.23,1.71-.33.57-.54,1.41.06,1.74,1.71.93.77,1.92.27,2.97-.34.73-1.29,1.72.69,1.65.74-.02.56.77.34,1.34-.28.72-.53,1.45-.77,2.18-.14.45-.49,1,.03,1.34.44.29.95-.05,1.36-.31,2.87-1.87,4.64-4.28,3.99-7.93ZM365.47,367.94c.32-1.22.87-3.08,1.3-4.97.84-3.69,1.23-2.72-1.95-4.3-1-.5-2.03-.95-3-1.51-2.16-1.24-2.21-1.28-2.91,1.24-.33,1.19-1.41,2.5-.09,3.69,2.23,2.03,4.52,3.98,6.65,5.85ZM383.35,364.13c.15.03.3.05.46.08,1.22-3.43,2.46-6.86,3.64-10.3.5-1.47-.41-2.74-1.26-3.58-.9-.89-1.7.45-2.39,1.03-.96.82-1.79,1.78-2.66,2.7-.44.47-.75.92-.49,1.68.95,2.78,1.81,5.59,2.71,8.4ZM385.99,339.85c1.27-1.92,2.31-3.33,3.18-4.84.9-1.57,1.4-3.25.19-4.94-.41-.57-.82-1.26-1.64-1.09-.8.17-.71,1.01-.77,1.57-.35,2.92-.61,5.85-.96,9.3ZM355.39,342.28c-.24-2.29-.63-4.36-.39-6.45.21-1.8-.8-1.7-1.91-1.27-1.01.39-1.47,1.23-1.47,2.34.02,2.58,1.62,4.02,3.77,5.38Z"/>
          <path class="cls-12" d="M393.09,402.61c.86,8.02,1.65,15.72,2.52,23.42,1.81,16.11,2.86,32.27,3.11,48.49.03,1.78-.34,2.45-2.21,2.62-3.22.3-6.38,1.04-9.63,1.19-1.31.06-2.06-.22-2.39-1.66-1.45-6.31-3.44-12.47-5.45-18.62-.49-1.49-.56-3.04-.58-4.59-.07-7.12-.13-14.23-.18-21.35,0-.63.02-1.27,0-1.9-.02-.54.15-1.31-.62-1.35-.87-.05-.63.78-.64,1.27-.04,2.82-.06,5.64-.04,8.46.07,12.96.31,25.91,1.32,38.84.33,4.21.23,4.25-3.93,4.35-3.52.08-7.04.04-10.56-.21-2.23-.16-3.12-1.22-3.23-3.46-.29-5.77-.83-11.52-1.17-17.29-.73-12.45-1.76-24.88-1.41-37.37,0-.28-.04-.57,0-.84.07-.45-.24-1.02.33-1.32.12-.06.41.07.54.19.51.48-.03.9-.14,1.33-.15.58-.75,1.33,0,1.67.81.36.92-.59,1.18-1.13,1.43-2.91,2.83-5.82,3.28-9.09.05-.39.12-1.03.6-.98,1.95.17,3.7-.69,5.54-.9,1.8-.2,3.63-.27,5.45-.51,1-.13,2-.83,2.8.73.48.93,1.5-.07,2.12-.55,3.98-3.07,9.04-4.64,12.23-8.82.19-.24.59-.32,1.14-.61ZM392.79,419.55c-.05-.19-.04-.35-.12-.46-1.68-2.52-3.04-5.21-4.26-7.98-.16-.36-.51-.53-.87-.3-.33.21-.37.59-.22.94,1.17,2.79,2.49,5.5,4.28,7.96.21.29.53.5.9.31.15-.08.21-.34.29-.48Z"/>
          <path class="cls-11" d="M356.25,337.39c-.36-1.36.36-2.63,1.58-3.9,3.91-4.03,6.78-8.78,9.22-13.81,1.52-3.12,2.86-3.66,6.1-2.48,3.97,1.45,6.57,4.25,9.14,7.67,3.78,5.04,3.11,10.15,2.26,15.56-.26,1.67-.55,3.33-.74,5.01-.34,2.98-.99,5.79-3.62,7.69-.94.67-1.07,1.78-1.41,2.76-1.52,4.43-4.54,5.75-8.72,3.79-1.34-.63-2.62-1.41-4.02-1.85-4.34-1.35-6.62-4.33-7.58-8.68-.84-3.77-2.04-7.46-2.22-11.77ZM373.36,334.31c.11-.48-.04-.71-.3-.84-.4-.19-.7.09-.9.35-1.07,1.38-2.12,2.78-3.14,4.2-.44.62-.38,1.24.41,1.51,1.12.38,2.28.68,3.43.98.37.1.75-.05.78-.46.02-.21-.21-.52-.41-.63-.42-.23-.89-.44-1.36-.52-1.56-.24-1.41-.9-.57-1.89.77-.9,1.45-1.88,2.08-2.7ZM371.95,347.19c1.37.06,2.79-.76,4.01-2,.31-.32.5-.73.15-1.11-.41-.45-.76-.07-1.05.21-2.27,2.22-4.6,1.96-6.97.2-.34-.26-.75-.53-1.08-.06-.27.39-.11.83.27,1.09,1.27.89,2.6,1.64,4.67,1.67ZM378.35,333.16c.66-.09,1.01-.53,1.06-1.11.04-.52-.27-.96-.88-.92-.57.03-.86.46-.91.97-.06.52.15.95.73,1.06ZM366.19,332.73c-.53.05-.91.32-.92.9-.01.61.23,1.16.91,1.17.61,0,.76-.53.79-1.04.03-.52-.08-.99-.78-1.03Z"/>
          <path class="cls-17" d="M367.54,366.07c.04,14.8-.88,29.45-.6,44.11.03,1.47-.54,1.84-1.82,1.77-3.03-.17-5.29-2.15-7.85-3.39-.82-.4-.81-1.75-.89-2.72-.83-10.91-.72-21.83-.17-32.74.01-.21.06-.42.08-.63.04-.56.2-1.32-.56-1.36-.74-.04-.63.77-.72,1.3-.38,2.09-.37,4.21-.38,6.32-.04,8.88-.39,17.75.4,26.62.24,2.7,1.08,4.51,3.79,5.62,3.71,1.52,3.74,1.76,2.52,5.63-1.43,4.55-1.35,4.77-4.77,1.34-4.38-4.39-6.44-10.15-8.22-15.97-3-9.83-.42-19.09,3.06-28.2,1.33-3.48,3.29-6.69,5.12-9.94.64-1.14,1.16-1.14,1.97-.19,1.96,2.31,4.35,4.22,6.11,6.72.31.45.59,1.08,1.29.81.53-.2.51-.78.58-1.27.17-1.25.34-2.51,1.04-3.84Z"/>
          <path class="cls-15" d="M391.39,330.79c-.56-.8-1.03-1.56-1.58-2.27-.74-.95-1.92-1.37-2.8-.7-1.3.99-1.67.13-2.17-.7-.58-.96-1.14-1.94-1.63-2.96-2.2-4.58-5.98-7.17-10.73-8.49-2.98-.83-4.91.02-6.26,2.79-2.42,4.96-5.19,9.67-8.94,13.77-.71.78-1.28,1.32-2.48.9-1.38-.48-2.58.31-3.84,1.21-1.01-3.65-1.23-7.16.37-10.54,2.6-5.51,6.04-10.31,11.71-13.14,1.67-.84,2.67-2.49,3.92-3.81,2.53-2.66,5.42-2.99,8.69-1.79,2,.74,3.81,1.83,5.41,3.22,3.58,3.11,6.63,6.71,9.44,10.51,1.68,2.28,2.31,4.96,2.38,7.76.04,1.55-.23,3.07-1.48,4.23Z"/>
          <path class="cls-11" d="M378.75,358.9c0,1.39.02,2.15,0,2.91-.45,12.73-.58,25.48-1.36,38.2-.18,2.88-.21,5.77-.24,8.65-.01,1-.29,1.54-1.37,1.68-1.88.24-3.72.79-5.64.68-1.05-.06-1.94-.32-1.95-1.69-.13-16.12.69-32.22.84-48.67,3.56,1.65,6.78,1.99,9.72-1.78Z"/>
          <path class="cls-17" d="M389.05,391.05c-.25-3.08.44-6.05-.28-8.98-.21-.88.55-1.07,1.02-1.39,2.92-1.97,5.68-4.16,8.3-6.51,1.2-1.07,2.26-1.86,1.13-3.97-.93-1.74-.62-4.12-.97-6.2-.73-4.31-1.37-4.67-5.35-2.78-2.65,1.26-5.19,2.77-8.15,4.37,1.35-3.87,2.58-7.4,3.82-10.92.16-.45.45-.67.98-.48,7.21,2.64,13.65,6.24,16.26,14.1,3.52,10.62-2.77,17.86-12.51,21.56-1.3.5-2.69.77-4.24,1.2Z"/>
          <path class="cls-11" d="M357.67,493.67c-2.36.04-4.33.05-6.21-.7-2.43-.97-3.09-2.76-1.9-5.07,2.08-4.02,7.51-6.45,11.96-5.49,4.58.99,9.24.78,13.87.56,1.73-.09,2.11.42,2.06,2.06-.16,5.17-.1,5.16-5.17,6.48-4.92,1.28-9.94,1.82-14.61,2.17Z"/>
          <path class="cls-15" d="M382.28,381.29c-.66-3.25-.56-6.49-.63-9.71-.03-1.5.86-2.53,1.92-3.37,3.39-2.68,7.25-4.53,11.16-6.31,1.21-.55,1.83-.26,2.02,1.06.42,2.99.86,5.98,1.31,8.97.11.73-.47.98-.87,1.31-1.9,1.57-3.79,3.15-5.75,4.64-1.69,1.28-3.25,2.82-5.77,2.27-1.14-.25-2.19.81-3.4,1.14Z"/>
          <path class="cls-11" d="M385.59,479.64c4.49.01,8.74-1.06,13.06-1.51,3.1-.32,6.2-.29,8.92,1.58,1.31.9,2.39,2.06,2.15,3.83-.23,1.73-1.61,2.35-3.04,2.85-5.26,1.84-10.74,1.98-16.22,1.99-1.42,0-2.31-.65-2.75-2.07-.68-2.19-1.72-4.27-2.12-6.67Z"/>
          <path class="cls-17" d="M380.38,359.54c.8,2.22,1.55,4.45,2.41,6.64.35.88-.32,1.13-.7,1.55-1.03,1.13-1.76,2.39-1.72,3.96.08,3.44-.08,6.91.74,10.3.14.6.14,1.05-.17,1.58-.75,1.29-1.17,2.59.11,3.84.36.35.26.74.05,1.15-.7,1.36-1.24,2.65.31,3.95.47.39-.21,1.29-.34,1.96-.24,1.23-.45,2.47,1.2,2.87.64.16.71.53.75,1.06.03.56.11,1.12.22,1.67.64,3.27,1.23,3.54,4.21,1.9,1.66-.91,3.3-1.84,5.04-2.81.4,1.21.05,1.88-.81,2.74-3.51,3.52-7.73,5.98-11.92,8.5-.34.21-.63.72-1.07.48-.51-.28-.3-.89-.26-1.34.47-6.25.32-12.52.69-18.78.57-9.7.66-19.42.94-29.14.02-.67,0-1.35,0-2.02.11-.02.23-.04.34-.06Z"/>
          <path class="cls-15" d="M401.08,389.77c.28,1.7-.48,2.79-1.89,3.66-4.19,2.59-8.37,5.18-12.67,7.58-1.33.74-1.76.5-2.01-.98-.31-1.84-.09-3.08,1.39-4.6,2.23-2.3,4.71-3.61,7.72-4.35,1.91-.47,3.66-1.42,5.37-2.43.57-.34,1.1-1.23,1.78-.83.63.36.2,1.3.32,1.95Z"/>
          <path class="cls-11" d="M387.82,387.59c.65,3.65-1.12,6.06-3.99,7.93-.41.27-.92.6-1.36.31-.52-.34-.17-.89-.03-1.34.23-.74.48-1.47.77-2.18.22-.56.4-1.36-.34-1.34-1.98.07-1.03-.92-.69-1.65.5-1.06,1.44-2.05-.27-2.97-.61-.33-.4-1.17-.06-1.74.35-.6.79-1.16,1.23-1.71.9-1.12,2.13-1.83,3.5-1.4,1.28.41,1.14,1.81,1.22,2.91.08,1.05.02,2.11.02,3.17Z"/>
          <path class="cls-17" d="M365.47,367.94c-2.13-1.87-4.43-3.82-6.65-5.85-1.31-1.2-.24-2.5.09-3.69.7-2.51.75-2.47,2.91-1.24.97.56,2,1.01,3,1.51,3.18,1.58,2.79.62,1.95,4.3-.43,1.89-.98,3.75-1.3,4.97Z"/>
          <path class="cls-17" d="M383.35,364.13c-.9-2.8-1.76-5.61-2.71-8.4-.26-.76.05-1.22.49-1.68.87-.92,1.7-1.88,2.66-2.7.68-.58,1.49-1.92,2.39-1.03.85.84,1.76,2.11,1.26,3.58-1.18,3.44-2.42,6.87-3.64,10.3-.15-.03-.3-.05-.46-.08Z"/>
          <path class="cls-11" d="M385.99,339.85c.35-3.45.61-6.38.96-9.3.07-.56-.03-1.4.77-1.57.82-.17,1.23.52,1.64,1.09,1.2,1.69.71,3.37-.19,4.94-.87,1.51-1.91,2.92-3.18,4.84Z"/>
          <path class="cls-11" d="M355.39,342.28c-2.15-1.35-3.75-2.79-3.77-5.38,0-1.11.46-1.95,1.47-2.34,1.12-.43,2.12-.53,1.91,1.27-.24,2.09.15,4.16.39,6.45Z"/>
          <path d="M392.79,419.55c-.08.14-.14.4-.29.48-.37.19-.69-.02-.9-.31-1.79-2.46-3.11-5.17-4.28-7.96-.15-.35-.1-.73.22-.94.35-.23.71-.06.87.3,1.22,2.77,2.58,5.46,4.26,7.98.07.11.07.27.12.46Z"/>
          <path d="M373.36,334.31c-.63.83-1.31,1.8-2.08,2.7-.83.98-.99,1.65.57,1.89.47.07.94.28,1.36.52.2.11.42.43.41.63-.03.41-.41.56-.78.46-1.15-.3-2.3-.6-3.43-.98-.79-.27-.85-.9-.41-1.51,1.02-1.42,2.07-2.82,3.14-4.2.2-.26.5-.54.9-.35.26.13.41.37.3.84Z"/>
          <path d="M371.95,347.19c-2.07-.02-3.4-.78-4.67-1.67-.38-.26-.55-.7-.27-1.09.33-.47.73-.2,1.08.06,2.38,1.77,4.7,2.02,6.97-.2.29-.28.64-.66,1.05-.21.35.38.16.8-.15,1.11-1.23,1.24-2.64,2.06-4.01,2Z"/>
          <path d="M378.35,333.16c-.59-.11-.79-.54-.73-1.06.06-.51.35-.94.91-.97.61-.04.92.4.88.92-.04.58-.39,1.02-1.06,1.11Z"/>
          <path d="M366.19,332.73c.7.04.81.51.78,1.03-.03.51-.18,1.05-.79,1.04-.69,0-.93-.55-.91-1.17.01-.59.4-.85.92-.9Z"/>
        </g>
      </g>
    </g>
    <g>
      <g>
        <path d="M44.44,35.52h11.71v9.95h-2.53v-.84h-6.78v.86h-2.4v-8.14l-1.03,1.41c-.37-.53-1.03-1.32-1.67-2.02v8.8h-2.57v-7.31c-.73.7-1.47,1.32-2.22,1.83-.22-.7-.81-2-1.21-2.49,2.18-1.34,4.29-3.65,5.59-6.16h-4.77v-2.35h2.62v-4.05h2.57v4.05h.9l.46-.11,1.43.92c-.55,1.58-1.34,3.1-2.24,4.51.59.46,1.54,1.28,2.16,1.83v-.68ZM56.21,25.88v2.2h-11.9v-2.2h11.9ZM55.18,29.03v5.5h-9.66v-5.5h9.66ZM46.84,37.61v1.45h2.18v-1.45h-2.18ZM46.84,42.51h2.18v-1.5h-2.18v1.5ZM52.76,30.98h-4.93v1.58h4.93v-1.58ZM53.62,37.61h-2.27v1.45h2.27v-1.45ZM53.62,42.51v-1.5h-2.27v1.5h2.27Z"/>
        <path d="M78.3,38.66h-4.58v6.89h-2.79v-6.89h-5.28c-.55,2.71-1.78,5.17-4.49,7.06-.51-.59-1.61-1.52-2.35-1.91,2.2-1.45,3.34-3.21,3.89-5.15h-4.16v-2.66h4.66c.07-.86.09-1.72.09-2.6v-1.61h-4.11v-2.64h4.11v-4.09h2.77v4.09h4.86v-4.14h2.79v4.14h4v2.64h-4v4.2h4.58v2.66ZM70.93,36v-4.2h-4.86v1.63c0,.86-.02,1.72-.07,2.57h4.93Z"/>
        <path d="M87.69,41.08c-1.41,1.61-3.48,3.28-5.28,4.29-.57-.55-1.54-1.34-2.13-1.76,1.76-.88,3.72-2.33,4.69-3.54l2.73,1.01ZM91.81,39.45v6.07h-2.75v-6.07h-4.91v.46h-2.64v-12.85h2.64v10.08h16.15v2.31h-8.49ZM97.97,36h-12.3v-10.25h12.3v10.25ZM95.39,27.53h-7.26v1.1h7.26v-1.1ZM95.39,30.3h-7.26v1.14h7.26v-1.14ZM95.39,33.1h-7.26v1.12h7.26v-1.12ZM95.44,39.89c1.63,1.1,3.96,2.75,5.13,3.87l-2.42,1.63c-1.03-1.08-3.28-2.88-4.95-4.09l2.24-1.41Z"/>
        <path d="M107.34,41.74c4.42-3.96,7.04-7.02,7.04-9.53,0-1.65-.9-2.64-2.44-2.64-1.19,0-2.18.77-2.99,1.67l-1.76-1.76c1.5-1.58,2.95-2.46,5.17-2.46,3.08,0,5.13,1.98,5.13,5.02s-2.44,6.12-5.41,9.02c.81-.09,1.89-.18,2.64-.18h3.54v2.73h-10.91v-1.87Z"/>
        <path d="M120.32,35.41c0-5.63,2.2-8.38,5.52-8.38s5.5,2.77,5.5,8.38-2.2,8.52-5.5,8.52-5.52-2.9-5.52-8.52ZM128.28,35.41c0-4.55-1.06-5.88-2.44-5.88s-2.46,1.32-2.46,5.88,1.06,5.98,2.46,5.98,2.44-1.41,2.44-5.98Z"/>
        <path d="M141.09,25.97c-.57,1.34-1.25,2.71-2.05,4.05v15.47h-2.73v-11.55c-.75.92-1.5,1.76-2.29,2.46-.24-.62-.99-2.02-1.45-2.66,2.38-2.02,4.69-5.26,6.01-8.58l2.51.81ZM147.12,33.93c.62,4.88,1.78,8.14,3.54,8.36.51.04.77-1.06.95-3.5.48.57,1.65,1.23,2.13,1.5-.55,4.25-1.74,5.26-2.97,5.19-3.72-.35-5.46-4.49-6.25-11.2l-4.33.59-.37-2.53,4.44-.59c-.15-1.98-.29-4.14-.35-6.45h2.66c.04,2.16.13,4.22.29,6.1l6.27-.81.37,2.46-6.38.88ZM151.05,30.04c-.55-1.03-1.87-2.57-3.01-3.7l1.96-1.21c1.17,1.06,2.53,2.51,3.17,3.54l-2.11,1.36Z"/>
        <path d="M171.47,25.48c-.02.35-.04.79-.07,1.25.18,3.04,1.28,12.52,9.48,16.37-.81.62-1.61,1.52-2.02,2.22-4.97-2.46-7.44-7-8.67-11.05-1.19,3.96-3.5,8.21-8.14,11.05-.46-.68-1.32-1.47-2.2-2.09,8.78-4.86,8.47-14.85,8.63-17.76h2.99Z"/>
        <path d="M200.97,27.13v17.91h-2.88v-1.74h-11.66v1.78h-2.75v-17.96h17.29ZM198.09,40.6v-10.8h-11.66v10.8h11.66Z"/>
        <path d="M227.94,36.97s-.04.7-.09,1.06c-.35,4-.79,5.81-1.5,6.51-.62.62-1.28.79-2.18.86-.77.07-2.11.04-3.5.02-.04-.75-.4-1.74-.86-2.4,1.36.11,2.75.13,3.34.13.44,0,.7-.02.97-.22.4-.33.73-1.43.97-3.61h-5.79c-1.1,2.84-3.43,4.97-8.98,6.18-.2-.68-.84-1.72-1.36-2.29,4.29-.84,6.34-2.13,7.37-3.89h-6.42v-2.35h7.28c.09-.48.18-.99.24-1.52h-6.05v-9.4h15.82v9.4h-7.02c-.07.53-.15,1.01-.24,1.52h7.99ZM214.02,29.73h3.87v-1.52h-3.87v1.52ZM214.02,33.29h3.87v-1.54h-3.87v1.54ZM224.47,28.21h-3.94v1.52h3.94v-1.52ZM224.47,31.75h-3.94v1.54h3.94v-1.54Z"/>
        <path d="M248.05,32.59c-.66,3.06-1.58,5.41-2.95,7.24,2.29,1.1,4.4,2.29,5.85,3.34l-2,2.46c-1.41-1.14-3.56-2.42-5.94-3.65-2.4,1.87-5.65,2.93-10.1,3.59-.24-.84-.84-1.91-1.39-2.62,3.7-.42,6.45-1.12,8.54-2.4-1.21-.55-2.4-1.06-3.56-1.52l-.37.81-2.64-.97c.84-1.72,1.83-3.94,2.79-6.29h-4.93v-2.66h6.01c.66-1.72,1.3-3.41,1.83-4.93l2.88.48c-.53,1.41-1.1,2.93-1.72,4.44h10.96v2.66h-3.26ZM239.27,32.59c-.57,1.43-1.17,2.82-1.72,4.11,1.5.53,3.15,1.17,4.8,1.89,1.25-1.5,2.11-3.45,2.71-6.01h-5.79Z"/>
        <path d="M258.57,41.32c1.52-.31,3.1-.66,4.62-.99l.24,2.57c-3.32.77-6.91,1.56-9.62,2.13l-.73-2.68c.81-.13,1.74-.31,2.75-.51v-16.63h2.73v6.27h4.36v2.55h-4.36v7.28ZM270.25,42.65c.81,0,.95-.75,1.1-3.74.62.46,1.72.97,2.44,1.14-.26,3.72-.95,5.15-3.3,5.15h-3.04c-2.55,0-3.26-.88-3.26-4v-15.97h2.71v7.08c1.69-.79,3.34-1.72,4.55-2.55l1.8,2.29c-1.91,1.03-4.22,1.98-6.36,2.79v6.38c0,1.25.11,1.43.95,1.43h2.4Z"/>
      </g>
      <g>
        <path class="cls-9" d="M44.44,35.52h11.71v9.95h-2.53v-.84h-6.78v.86h-2.4v-8.14l-1.03,1.41c-.37-.53-1.03-1.32-1.67-2.02v8.8h-2.57v-7.31c-.73.7-1.47,1.32-2.22,1.83-.22-.7-.81-2-1.21-2.49,2.18-1.34,4.29-3.65,5.59-6.16h-4.77v-2.35h2.62v-4.05h2.57v4.05h.9l.46-.11,1.43.92c-.55,1.58-1.34,3.1-2.24,4.51.59.46,1.54,1.28,2.16,1.83v-.68ZM56.21,25.88v2.2h-11.9v-2.2h11.9ZM55.18,29.03v5.5h-9.66v-5.5h9.66ZM46.84,37.61v1.45h2.18v-1.45h-2.18ZM46.84,42.51h2.18v-1.5h-2.18v1.5ZM52.76,30.98h-4.93v1.58h4.93v-1.58ZM53.62,37.61h-2.27v1.45h2.27v-1.45ZM53.62,42.51v-1.5h-2.27v1.5h2.27Z"/>
        <path class="cls-9" d="M78.3,38.66h-4.58v6.89h-2.79v-6.89h-5.28c-.55,2.71-1.78,5.17-4.49,7.06-.51-.59-1.61-1.52-2.35-1.91,2.2-1.45,3.34-3.21,3.89-5.15h-4.16v-2.66h4.66c.07-.86.09-1.72.09-2.6v-1.61h-4.11v-2.64h4.11v-4.09h2.77v4.09h4.86v-4.14h2.79v4.14h4v2.64h-4v4.2h4.58v2.66ZM70.93,36v-4.2h-4.86v1.63c0,.86-.02,1.72-.07,2.57h4.93Z"/>
        <path class="cls-9" d="M87.69,41.08c-1.41,1.61-3.48,3.28-5.28,4.29-.57-.55-1.54-1.34-2.13-1.76,1.76-.88,3.72-2.33,4.69-3.54l2.73,1.01ZM91.81,39.45v6.07h-2.75v-6.07h-4.91v.46h-2.64v-12.85h2.64v10.08h16.15v2.31h-8.49ZM97.97,36h-12.3v-10.25h12.3v10.25ZM95.39,27.53h-7.26v1.1h7.26v-1.1ZM95.39,30.3h-7.26v1.14h7.26v-1.14ZM95.39,33.1h-7.26v1.12h7.26v-1.12ZM95.44,39.89c1.63,1.1,3.96,2.75,5.13,3.87l-2.42,1.63c-1.03-1.08-3.28-2.88-4.95-4.09l2.24-1.41Z"/>
        <path class="cls-9" d="M107.34,41.74c4.42-3.96,7.04-7.02,7.04-9.53,0-1.65-.9-2.64-2.44-2.64-1.19,0-2.18.77-2.99,1.67l-1.76-1.76c1.5-1.58,2.95-2.46,5.17-2.46,3.08,0,5.13,1.98,5.13,5.02s-2.44,6.12-5.41,9.02c.81-.09,1.89-.18,2.64-.18h3.54v2.73h-10.91v-1.87Z"/>
        <path class="cls-9" d="M120.32,35.41c0-5.63,2.2-8.38,5.52-8.38s5.5,2.77,5.5,8.38-2.2,8.52-5.5,8.52-5.52-2.9-5.52-8.52ZM128.28,35.41c0-4.55-1.06-5.88-2.44-5.88s-2.46,1.32-2.46,5.88,1.06,5.98,2.46,5.98,2.44-1.41,2.44-5.98Z"/>
        <path class="cls-9" d="M141.09,25.97c-.57,1.34-1.25,2.71-2.05,4.05v15.47h-2.73v-11.55c-.75.92-1.5,1.76-2.29,2.46-.24-.62-.99-2.02-1.45-2.66,2.38-2.02,4.69-5.26,6.01-8.58l2.51.81ZM147.12,33.93c.62,4.88,1.78,8.14,3.54,8.36.51.04.77-1.06.95-3.5.48.57,1.65,1.23,2.13,1.5-.55,4.25-1.74,5.26-2.97,5.19-3.72-.35-5.46-4.49-6.25-11.2l-4.33.59-.37-2.53,4.44-.59c-.15-1.98-.29-4.14-.35-6.45h2.66c.04,2.16.13,4.22.29,6.1l6.27-.81.37,2.46-6.38.88ZM151.05,30.04c-.55-1.03-1.87-2.57-3.01-3.7l1.96-1.21c1.17,1.06,2.53,2.51,3.17,3.54l-2.11,1.36Z"/>
        <path class="cls-9" d="M171.47,25.48c-.02.35-.04.79-.07,1.25.18,3.04,1.28,12.52,9.48,16.37-.81.62-1.61,1.52-2.02,2.22-4.97-2.46-7.44-7-8.67-11.05-1.19,3.96-3.5,8.21-8.14,11.05-.46-.68-1.32-1.47-2.2-2.09,8.78-4.86,8.47-14.85,8.63-17.76h2.99Z"/>
        <path class="cls-9" d="M200.97,27.13v17.91h-2.88v-1.74h-11.66v1.78h-2.75v-17.96h17.29ZM198.09,40.6v-10.8h-11.66v10.8h11.66Z"/>
        <path class="cls-9" d="M227.94,36.97s-.04.7-.09,1.06c-.35,4-.79,5.81-1.5,6.51-.62.62-1.28.79-2.18.86-.77.07-2.11.04-3.5.02-.04-.75-.4-1.74-.86-2.4,1.36.11,2.75.13,3.34.13.44,0,.7-.02.97-.22.4-.33.73-1.43.97-3.61h-5.79c-1.1,2.84-3.43,4.97-8.98,6.18-.2-.68-.84-1.72-1.36-2.29,4.29-.84,6.34-2.13,7.37-3.89h-6.42v-2.35h7.28c.09-.48.18-.99.24-1.52h-6.05v-9.4h15.82v9.4h-7.02c-.07.53-.15,1.01-.24,1.52h7.99ZM214.02,29.73h3.87v-1.52h-3.87v1.52ZM214.02,33.29h3.87v-1.54h-3.87v1.54ZM224.47,28.21h-3.94v1.52h3.94v-1.52ZM224.47,31.75h-3.94v1.54h3.94v-1.54Z"/>
        <path class="cls-9" d="M248.05,32.59c-.66,3.06-1.58,5.41-2.95,7.24,2.29,1.1,4.4,2.29,5.85,3.34l-2,2.46c-1.41-1.14-3.56-2.42-5.94-3.65-2.4,1.87-5.65,2.93-10.1,3.59-.24-.84-.84-1.91-1.39-2.62,3.7-.42,6.45-1.12,8.54-2.4-1.21-.55-2.4-1.06-3.56-1.52l-.37.81-2.64-.97c.84-1.72,1.83-3.94,2.79-6.29h-4.93v-2.66h6.01c.66-1.72,1.3-3.41,1.83-4.93l2.88.48c-.53,1.41-1.1,2.93-1.72,4.44h10.96v2.66h-3.26ZM239.27,32.59c-.57,1.43-1.17,2.82-1.72,4.11,1.5.53,3.15,1.17,4.8,1.89,1.25-1.5,2.11-3.45,2.71-6.01h-5.79Z"/>
        <path class="cls-9" d="M258.57,41.32c1.52-.31,3.1-.66,4.62-.99l.24,2.57c-3.32.77-6.91,1.56-9.62,2.13l-.73-2.68c.81-.13,1.74-.31,2.75-.51v-16.63h2.73v6.27h4.36v2.55h-4.36v7.28ZM270.25,42.65c.81,0,.95-.75,1.1-3.74.62.46,1.72.97,2.44,1.14-.26,3.72-.95,5.15-3.3,5.15h-3.04c-2.55,0-3.26-.88-3.26-4v-15.97h2.71v7.08c1.69-.79,3.34-1.72,4.55-2.55l1.8,2.29c-1.91,1.03-4.22,1.98-6.36,2.79v6.38c0,1.25.11,1.43.95,1.43h2.4Z"/>
      </g>
    </g>
  </g>
</svg>