<?xml version="1.0" encoding="UTF-8"?>
<svg id="_レイヤー_2" data-name="レイヤー_2" xmlns="http://www.w3.org/2000/svg" viewBox="0 0 570.02 336.61">
  <defs>
    <style>
      .cls-1 {
        fill: #f8dbe9;
      }

      .cls-2 {
        fill: none;
        stroke: #000;
        stroke-miterlimit: 10;
      }

      .cls-3 {
        fill: #231815;
      }

      .cls-4 {
        fill: #fff;
      }

      .cls-5 {
        fill: #d3e8d8;
      }
    </style>
  </defs>
  <g id="_レイヤー_1-2" data-name="レイヤー_1">
    <rect class="cls-4" y="114.86" width="569.02" height="221.25"/>
    <g>
      <rect class="cls-1" x="338.29" y="261.41" width="230.08" height="74.2"/>
      <path d="M567.86,261.91v73.2h-229.08v-73.2h229.08M568.86,260.91h-231.08v75.2h231.08v-75.2h0Z"/>
    </g>
    <g>
      <path class="cls-3" d="M10.78,11.97h13.3v11.3h-2.87v-.95h-7.7v.98h-2.72v-9.25l-1.17,1.6c-.42-.6-1.17-1.5-1.9-2.3v10h-2.92v-8.3c-.83.8-1.67,1.5-2.52,2.07-.25-.8-.92-2.27-1.38-2.82,2.47-1.53,4.87-4.15,6.35-7H1.81v-2.67h2.97V.03h2.92v4.6h1.02l.53-.12,1.62,1.05c-.62,1.8-1.52,3.52-2.55,5.12.67.53,1.75,1.45,2.45,2.08v-.77ZM24.15,1.03v2.5h-13.52V1.03h13.52ZM22.98,4.6v6.25h-10.97v-6.25h10.97ZM13.5,14.35v1.65h2.47v-1.65h-2.47ZM13.5,19.92h2.47v-1.7h-2.47v1.7ZM20.23,6.82h-5.6v1.8h5.6v-1.8ZM21.2,14.35h-2.58v1.65h2.58v-1.65ZM21.2,19.92v-1.7h-2.58v1.7h2.58Z"/>
      <path class="cls-3" d="M52.52,15.55h-5.2v7.82h-3.17v-7.82h-6c-.62,3.07-2.02,5.87-5.1,8.02-.58-.67-1.83-1.72-2.67-2.17,2.5-1.65,3.8-3.65,4.42-5.85h-4.72v-3.03h5.3c.08-.97.1-1.95.1-2.95v-1.82h-4.67v-3h4.67V.1h3.15v4.65h5.52V.05h3.17v4.7h4.55v3h-4.55v4.77h5.2v3.03ZM44.15,12.52v-4.77h-5.52v1.85c0,.97-.03,1.95-.08,2.92h5.6Z"/>
      <path class="cls-3" d="M66.47,18.3c-1.6,1.82-3.95,3.72-6,4.87-.65-.62-1.75-1.53-2.42-2,2-1,4.22-2.65,5.32-4.02l3.1,1.15ZM71.14,16.45v6.9h-3.12v-6.9h-5.57v.52h-3V2.38h3v11.45h18.35v2.62h-9.65ZM78.14,12.52h-13.97V.88h13.97v11.65ZM75.21,2.9h-8.25v1.25h8.25v-1.25ZM75.21,6.05h-8.25v1.3h8.25v-1.3ZM75.21,9.22h-8.25v1.28h8.25v-1.28ZM75.26,16.95c1.85,1.25,4.5,3.12,5.82,4.4l-2.75,1.85c-1.17-1.22-3.72-3.27-5.62-4.65l2.55-1.6Z"/>
      <path class="cls-3" d="M97.06,19.27c.95-.12,1.65-.25,2.3-.4,3.17-.75,5.62-3.03,5.62-6.62s-1.85-5.97-5.17-6.55c-.35,2.1-.77,4.4-1.47,6.72-1.47,5-3.62,8.05-6.32,8.05s-5.05-3.03-5.05-7.2c0-5.7,4.97-10.6,11.4-10.6s10,4.27,10,9.67-3.2,8.9-9.45,9.85l-1.85-2.92ZM95.13,11.77c.58-1.83,1.02-3.95,1.32-6-4.1.85-6.27,4.45-6.27,7.17,0,2.5,1,3.72,1.92,3.72,1.02,0,2.02-1.55,3.02-4.9Z"/>
      <path class="cls-3" d="M110.61,19l1.7-2.35c1.05,1.02,2.35,1.87,4.07,1.87,1.92,0,3.27-1.22,3.27-3.4s-1.25-3.35-3.12-3.35c-1.1,0-1.7.27-2.77.97l-1.67-1.1.5-8.97h9.9v3.08h-6.72l-.35,3.92c.73-.35,1.38-.52,2.22-.52,3.1,0,5.7,1.85,5.7,5.87s-3.05,6.5-6.47,6.5c-2.92,0-4.87-1.15-6.25-2.52Z"/>
      <path class="cls-3" d="M147.38,12.57c-.77,2.32-1.87,4.4-3.22,6.17.67,1.27,1.32,2.02,1.85,2.02.48,0,.7-1,.8-3.22.58.5,1.45,1.05,2.12,1.3-.4,3.65-1.27,4.52-3.12,4.52-1.25,0-2.45-.97-3.45-2.57-1,.97-2.12,1.82-3.27,2.52-.42-.52-1.42-1.52-2-2,1.5-.8,2.85-1.8,4-3.02-.83-1.97-1.45-4.4-1.85-7h-9.17v1.97c0,3-.4,7.32-2.47,10.1-.45-.52-1.62-1.42-2.22-1.72,1.8-2.47,1.97-5.9,1.97-8.4v-4.27h11.6c-.05-.57-.1-1.15-.12-1.72h-12.72v-2.37h3.72V1.1h2.75v3.77h3.77V0h2.87v1.42h7.1v2.1h-7.1v1.35h9.15v2.37h-3.27c.75.55,1.53,1.17,1.97,1.65l-.1.07h1.3v2.32h-6.35c.28,1.65.67,3.17,1.08,4.52.72-1.17,1.32-2.45,1.75-3.85l2.65.6ZM133.36,16.15c-.47,1.7-1.25,3.5-2.07,4.62-.4-.32-1.33-.87-1.85-1.12.82-1.05,1.45-2.52,1.8-3.95l2.12.45ZM135.98,14.8v5.85c0,1.05-.12,1.65-.8,2-.62.4-1.47.42-2.57.42-.1-.7-.42-1.6-.72-2.22.65.03,1.25.03,1.42.03.25,0,.3-.08.3-.3v-5.77h-2.72v-2.17h7.85v2.17h-2.75ZM137.61,19.87c-.2-.92-.85-2.42-1.45-3.55l1.87-.67c.62,1.05,1.33,2.52,1.57,3.45l-2,.77ZM141.48,7.25c.03.58.08,1.15.12,1.72h2.35c-.45-.38-.92-.75-1.33-1.02l.95-.7h-2.1Z"/>
      <path class="cls-3" d="M162.55,2.07c-.65,2.12-1.45,4.82-2.15,6.77,1.5,1.92,1.77,3.62,1.77,5.05.03,1.57-.33,2.65-1.07,3.2-.38.28-.85.42-1.4.53-.42.05-1,.05-1.57.02-.03-.67-.25-1.77-.65-2.52.43.05.75.05,1.05.03.28,0,.5-.05.67-.17.28-.2.4-.73.4-1.45-.03-1.12-.33-2.7-1.67-4.35.47-1.58,1-3.75,1.38-5.45h-1.88v19.62h-2.57V1.07h5.32l.42-.12,1.95,1.12ZM169.25,9.47c-2.4.55-4.92,1.15-6.95,1.62l-.67-2.45c.45-.08.95-.18,1.5-.28V.33h2.67v2.62h3.15v2.32h-3.15v2.6l3.22-.62.22,2.22ZM169.9,12.4h6.12v10.8h-2.9v-.67h-6.87v.78h-2.75v-10.9h3.52c.2-.77.42-1.65.5-2.32l3.02.53-.65,1.8ZM173.12,14.87h-6.87v1.42h6.87v-1.42ZM173.12,20.07v-1.52h-6.87v1.52h6.87ZM174.32,8.32c.47,0,.57-.3.65-2.12.53.42,1.62.85,2.38,1.03-.3,2.77-.98,3.55-2.7,3.55h-2.15c-2.27,0-2.8-.77-2.8-3.25V.33h2.67v3c1.03-.53,2.02-1.12,2.67-1.67l1.92,1.95c-1.38.82-3.05,1.52-4.6,2.1v1.82c0,.72.08.8.58.8h1.38Z"/>
      <path class="cls-3" d="M185.44,15.05c-.25,2.35-.77,4.85-1.5,6.45-.53-.33-1.62-.85-2.27-1.08.72-1.47,1.12-3.7,1.32-5.8l2.45.43ZM188.37,13.15v10.22h-2.57v-10.05c-1.3.07-2.55.15-3.62.22l-.25-2.57,1.82-.08c.38-.5.75-1.02,1.15-1.6-.72-1.08-1.92-2.4-2.95-3.4l1.42-2.02c.17.15.38.33.58.5.7-1.38,1.4-3.02,1.82-4.35l2.57.95c-.9,1.7-1.9,3.65-2.8,5.02.3.35.6.68.85,1,.85-1.4,1.65-2.82,2.22-4.05l2.42,1.12c-1.37,2.17-3.1,4.7-4.67,6.72l2.7-.12c-.25-.62-.55-1.22-.85-1.77l1.95-.83c.97,1.7,1.95,3.87,2.22,5.3l-2.12.95c-.08-.37-.17-.82-.33-1.3l-1.57.12ZM205.19,8.22c-.75,4.1-2.1,7.42-3.92,10.02,1.22,1.17,2.67,2.1,4.42,2.72-.6.53-1.42,1.65-1.8,2.4-1.72-.75-3.17-1.75-4.4-2.97-1.15,1.2-2.42,2.15-3.8,2.9-.4-.65-1.38-1.75-2-2.2,1.5-.72,2.85-1.7,4.02-2.9-.92-1.4-1.65-2.97-2.25-4.7-.47,3.4-1.6,7-4.07,9.75-.5-.47-1.5-1.25-2.17-1.57.77-.85,1.4-1.77,1.9-2.75l-1.25.45c-.22-1.17-.8-2.95-1.35-4.32l2.1-.68c.42.93.85,2.1,1.15,3.1,1.3-3.3,1.47-6.9,1.47-9.57v-3.72h-2.08V1.45h8.3l.45-.12,1.97.25c-.25,1.85-.62,4-1.02,6.07h2.05l.5-.1,1.77.67ZM195.81,5.15c.62,4.25,1.7,8,3.62,10.87,1.07-1.6,1.92-3.52,2.5-5.72h-1.62l-.2.97-2.65-.3c.47-2.1.95-4.7,1.3-6.8h-2.95v.97Z"/>
      <path class="cls-3" d="M222.13,11.9s-.02.72-.02,1.07c-.25,6.02-.5,8.42-1.2,9.27-.5.6-1.07.83-1.87.93-.67.1-1.83.12-3.02.07-.03-.77-.33-1.85-.75-2.57,1,.12,2,.12,2.45.12.38,0,.6-.05.83-.32.38-.43.6-2.03.77-5.97h-2.77c-.57,3.42-1.75,6.62-4.4,8.87-.42-.75-1.27-1.67-1.97-2.17,3.27-2.7,3.77-7.2,3.97-11.35h-2.5V1.15h10.27v8.7h-4.87c-.05.67-.1,1.38-.15,2.05h5.25ZM214.33,7.2h4.7v-3.42h-4.7v3.42ZM226.68,17.1h-2.9V3.02h2.9v14.07ZM232.61.5v19.25c0,1.75-.35,2.57-1.37,3.05-1.03.47-2.7.57-4.97.57-.12-.88-.57-2.25-1.02-3.07,1.62.05,3.22.05,3.75.05.47,0,.67-.15.67-.6V.5h2.95Z"/>
      <path class="cls-3" d="M264.8,18.2h3.97V6.5h-3.35v-2.27c1.85-.35,3.12-.83,4.3-1.55h2.72v15.52h3.47v2.97h-11.12v-2.97Z"/>
      <path class="cls-3" d="M278.58,11.85c0-6.4,2.5-9.52,6.27-9.52s6.25,3.15,6.25,9.52-2.5,9.67-6.25,9.67-6.27-3.3-6.27-9.67ZM287.62,11.85c0-5.17-1.2-6.67-2.77-6.67s-2.8,1.5-2.8,6.67,1.2,6.8,2.8,6.8,2.77-1.6,2.77-6.8Z"/>
      <path class="cls-3" d="M302.17,1.12c-.65,1.52-1.42,3.07-2.32,4.6v17.57h-3.1v-13.12c-.85,1.05-1.7,2-2.6,2.8-.27-.7-1.12-2.3-1.65-3.02,2.7-2.3,5.32-5.97,6.82-9.75l2.85.92ZM309.02,10.17c.7,5.55,2.02,9.25,4.02,9.5.58.05.88-1.2,1.08-3.97.55.65,1.87,1.4,2.42,1.7-.62,4.82-1.97,5.97-3.37,5.9-4.22-.4-6.2-5.1-7.1-12.72l-4.92.67-.43-2.87,5.05-.67c-.17-2.25-.32-4.7-.4-7.32h3.02c.05,2.45.15,4.8.32,6.92l7.12-.93.42,2.8-7.25,1ZM313.5,5.75c-.62-1.17-2.12-2.92-3.42-4.2l2.22-1.38c1.33,1.2,2.88,2.85,3.6,4.02l-2.4,1.55Z"/>
      <path class="cls-3" d="M331.84,12.75c-1.07-1.12-1.97-1.8-3.72-1.8-1.6,0-3.02,1.22-3.97,3l-2.75-1.5c1.67-3.1,4.12-4.6,6.8-4.6,2.38,0,4.2.9,5.9,2.75,1.07,1.15,2,1.8,3.72,1.8,1.6,0,3.02-1.22,3.97-3l2.75,1.5c-1.67,3.1-4.12,4.6-6.8,4.6-2.37,0-4.2-.9-5.9-2.75Z"/>
      <path class="cls-3" d="M346.54,19.04c5.02-4.5,8-7.97,8-10.82,0-1.87-1.03-3-2.77-3-1.35,0-2.47.88-3.4,1.9l-2-2c1.7-1.8,3.35-2.8,5.87-2.8,3.5,0,5.82,2.25,5.82,5.7s-2.77,6.95-6.15,10.25c.92-.1,2.15-.2,3-.2h4.02v3.1h-12.4v-2.12Z"/>
      <path class="cls-3" d="M361.29,11.85c0-6.4,2.5-9.52,6.27-9.52s6.25,3.15,6.25,9.52-2.5,9.67-6.25,9.67-6.27-3.3-6.27-9.67ZM370.34,11.85c0-5.17-1.2-6.67-2.77-6.67s-2.8,1.5-2.8,6.67,1.2,6.8,2.8,6.8,2.77-1.6,2.77-6.8Z"/>
      <path class="cls-3" d="M384.89,1.12c-.65,1.52-1.42,3.07-2.32,4.6v17.57h-3.1v-13.12c-.85,1.05-1.7,2-2.6,2.8-.27-.7-1.12-2.3-1.65-3.02,2.7-2.3,5.32-5.97,6.82-9.75l2.85.92ZM391.74,10.17c.7,5.55,2.02,9.25,4.02,9.5.58.05.88-1.2,1.08-3.97.55.65,1.87,1.4,2.42,1.7-.62,4.82-1.97,5.97-3.37,5.9-4.22-.4-6.2-5.1-7.1-12.72l-4.92.67-.43-2.87,5.05-.67c-.17-2.25-.32-4.7-.4-7.32h3.02c.05,2.45.15,4.8.32,6.92l7.12-.93.42,2.8-7.25,1ZM396.21,5.75c-.62-1.17-2.12-2.92-3.42-4.2l2.22-1.38c1.33,1.2,2.88,2.85,3.6,4.02l-2.4,1.55Z"/>
      <path class="cls-3" d="M425.51,13.62s-.05.8-.1,1.2c-.4,4.55-.9,6.6-1.7,7.4-.7.7-1.45.9-2.47.97-.88.08-2.4.05-3.97.03-.05-.85-.45-1.97-.97-2.72,1.55.12,3.12.15,3.8.15.5,0,.8-.02,1.1-.25.45-.37.82-1.62,1.1-4.1h-6.57c-1.25,3.22-3.9,5.65-10.2,7.02-.22-.77-.95-1.95-1.55-2.6,4.87-.95,7.2-2.42,8.37-4.42h-7.3v-2.67h8.27c.1-.55.2-1.12.28-1.72h-6.87V1.22h17.97v10.67h-7.97c-.08.6-.17,1.15-.27,1.72h9.07ZM409.68,5.4h4.4v-1.72h-4.4v1.72ZM409.68,9.45h4.4v-1.75h-4.4v1.75ZM421.56,3.67h-4.47v1.72h4.47v-1.72ZM421.56,7.7h-4.47v1.75h4.47v-1.75Z"/>
      <path class="cls-3" d="M451.62,8.65c-.75,3.47-1.8,6.15-3.35,8.22,2.6,1.25,5,2.6,6.65,3.8l-2.27,2.8c-1.6-1.3-4.05-2.75-6.75-4.15-2.72,2.12-6.42,3.32-11.47,4.07-.28-.95-.95-2.17-1.58-2.97,4.2-.47,7.32-1.27,9.7-2.72-1.38-.62-2.72-1.2-4.05-1.72l-.42.93-3-1.1c.95-1.95,2.07-4.47,3.17-7.15h-5.6v-3.02h6.82c.75-1.95,1.47-3.87,2.07-5.6l3.27.55c-.6,1.6-1.25,3.32-1.95,5.05h12.45v3.02h-3.7ZM441.65,8.65c-.65,1.62-1.32,3.2-1.95,4.67,1.7.6,3.57,1.32,5.45,2.15,1.42-1.7,2.4-3.92,3.07-6.82h-6.57Z"/>
      <path class="cls-3" d="M472.37,11.9s-.02.72-.02,1.07c-.25,6.02-.5,8.42-1.2,9.27-.5.6-1.07.83-1.87.93-.67.1-1.83.12-3.02.07-.03-.77-.33-1.85-.75-2.57,1,.12,2,.12,2.45.12.38,0,.6-.05.83-.32.38-.43.6-2.03.77-5.97h-2.77c-.57,3.42-1.75,6.62-4.4,8.87-.42-.75-1.27-1.67-1.97-2.17,3.27-2.7,3.77-7.2,3.97-11.35h-2.5V1.15h10.27v8.7h-4.87c-.05.67-.1,1.38-.15,2.05h5.25ZM464.57,7.2h4.7v-3.42h-4.7v3.42ZM476.92,17.1h-2.9V3.02h2.9v14.07ZM482.84.5v19.25c0,1.75-.35,2.57-1.37,3.05-1.03.47-2.7.57-4.97.57-.12-.88-.57-2.25-1.02-3.07,1.62.05,3.22.05,3.75.05.47,0,.67-.15.67-.6V.5h2.95Z"/>
      <path class="cls-3" d="M501.81.58c-.02.4-.05.9-.07,1.42.2,3.45,1.45,14.22,10.77,18.59-.92.7-1.82,1.72-2.3,2.52-5.65-2.8-8.45-7.95-9.85-12.55-1.35,4.5-3.97,9.32-9.25,12.55-.52-.77-1.5-1.67-2.5-2.37,9.97-5.52,9.62-16.87,9.8-20.17h3.4Z"/>
      <path class="cls-3" d="M538.6,2.45v20.35h-3.27v-1.97h-13.25v2.02h-3.12V2.45h19.65ZM535.33,17.75V5.47h-13.25v12.27h13.25Z"/>
      <path class="cls-3" d="M567.27,7.25c-.52,3.7-1.37,6.8-2.72,9.32,1.15,1.77,2.6,3.2,4.42,4.15-.67.6-1.6,1.75-2.05,2.58-1.7-1.03-3.07-2.35-4.2-3.97-1.37,1.65-3.1,3-5.27,4.1-.17-.43-.55-1.1-.95-1.7l-1.12,1.15c-.67-.57-1.58-1.22-2.6-1.87-1.47,1.1-3.47,1.82-6.15,2.37-.17-.85-.7-1.85-1.17-2.47,2-.25,3.57-.67,4.75-1.32-.45-.25-.92-.47-1.4-.67l-.28.47-2.6-.8c.55-.88,1.17-2,1.8-3.2h-2.37v-2.4h3.62c.3-.62.6-1.22.85-1.77l.55.12v-2.4c-1.15,1.15-2.5,2.2-3.75,2.9-.33-.65-.95-1.62-1.5-2.15,1.52-.62,3.2-1.83,4.4-3.12h-3.9v-2.35h1.9c-.22-.85-.77-2-1.3-2.9l2.15-.9c.65.95,1.3,2.22,1.5,3.1l-1.6.7h2.1V0h2.72v4.2h1.97l-1.65-.72c.58-.9,1.28-2.22,1.67-3.17l2.5,1c-.78,1.08-1.55,2.12-2.15,2.9h2.38v2.35h-4.1c1.2.67,2.97,1.72,3.52,2.1l-1.57,2.05c-.55-.52-1.6-1.4-2.57-2.17v3.02h-1.6l1.07.23-.6,1.2h5.95c-.57-.58-1.47-1.35-2.02-1.72,2.12-2.55,3.32-6.8,3.92-11.25l3,.4c-.2,1.4-.48,2.77-.8,4.1h6.65v2.75h-1.4ZM550.02,16.7c.75.3,1.47.6,2.2.95.4-.62.72-1.37.95-2.27h-2.42l-.72,1.33ZM555.97,15.37c-.28,1.4-.7,2.57-1.33,3.55.78.45,1.5.9,2.08,1.33,1.85-.97,3.3-2.22,4.4-3.77-.7-1.47-1.25-3.12-1.7-4.92-.35.65-.75,1.25-1.15,1.8-.1-.1-.2-.22-.35-.38v2.4h-1.95ZM561.32,7.25c.35,2.1.85,4.07,1.52,5.87.62-1.7,1.08-3.67,1.35-5.87h-2.87Z"/>
      <path class="cls-3" d="M4.58,49.67c0-5.35,2.22-9.35,4.92-12l2.37,1.05c-2.5,2.7-4.47,6.15-4.47,10.95s1.97,8.25,4.47,10.95l-2.37,1.05c-2.7-2.65-4.92-6.65-4.92-12Z"/>
      <path class="cls-3" d="M14.08,57.04c5.02-4.5,8-7.97,8-10.82,0-1.87-1.03-3-2.77-3-1.35,0-2.47.88-3.4,1.9l-2-2c1.7-1.8,3.35-2.8,5.87-2.8,3.5,0,5.82,2.25,5.82,5.7s-2.77,6.95-6.15,10.25c.92-.1,2.15-.2,3-.2h4.02v3.1h-12.4v-2.12Z"/>
      <path class="cls-3" d="M28.83,49.85c0-6.4,2.5-9.52,6.27-9.52s6.25,3.15,6.25,9.52-2.5,9.67-6.25,9.67-6.27-3.3-6.27-9.67ZM37.88,49.85c0-5.17-1.2-6.67-2.77-6.67s-2.8,1.5-2.8,6.67,1.2,6.8,2.8,6.8,2.77-1.6,2.77-6.8Z"/>
      <path class="cls-3" d="M43.53,57.04c5.02-4.5,8-7.97,8-10.82,0-1.87-1.03-3-2.77-3-1.35,0-2.47.88-3.4,1.9l-2-2c1.7-1.8,3.35-2.8,5.87-2.8,3.5,0,5.82,2.25,5.82,5.7s-2.77,6.95-6.15,10.25c.92-.1,2.15-.2,3-.2h4.02v3.1h-12.4v-2.12Z"/>
      <path class="cls-3" d="M58.28,49.85c0-6.4,2.5-9.52,6.27-9.52s6.25,3.15,6.25,9.52-2.5,9.67-6.25,9.67-6.27-3.3-6.27-9.67ZM67.33,49.85c0-5.17-1.2-6.67-2.77-6.67s-2.8,1.5-2.8,6.67,1.2,6.8,2.8,6.8,2.77-1.6,2.77-6.8Z"/>
      <path class="cls-3" d="M95.85,56.02h-8.55v5.35h-3.07v-5.35h-11.25v-2.85h3.95v-6.55h7.3v-3h-5.35c-1.03,1.77-2.22,3.37-3.4,4.55-.58-.5-1.85-1.5-2.57-1.92,2.25-1.9,4.17-5.1,5.25-8.32l3.02.78c-.22.7-.5,1.37-.82,2.05h14.12v2.87h-7.17v3h6.6v2.75h-6.6v3.8h8.55v2.85ZM84.23,53.17v-3.8h-4.32v3.8h4.32Z"/>
      <path class="cls-3" d="M105.33,49.67c0,5.35-2.22,9.35-4.92,12l-2.37-1.05c2.5-2.7,4.47-6.15,4.47-10.95s-1.97-8.25-4.47-10.95l2.37-1.05c2.7,2.65,4.92,6.65,4.92,12Z"/>
    </g>
    <rect class="cls-5" y="114.86" width="105.04" height="221.25"/>
    <rect class="cls-5" y="114.86" width="569.02" height="36.51"/>
    <g>
      <path class="cls-3" d="M28.45,138.66h-7.97v5.04h-1.65v-5.04h-10.17v-1.58h3.61v-5.9h6.56v-3.34h-5.35c-.99,1.7-2.16,3.19-3.34,4.33-.31-.26-.99-.81-1.41-1.03,2.07-1.8,3.92-4.64,4.95-7.59l1.65.4c-.31.77-.66,1.56-1.01,2.31h13.11v1.58h-6.95v3.34h6.45v1.54h-6.45v4.36h7.97v1.58ZM18.84,137.08v-4.36h-4.93v4.36h4.93Z"/>
      <path class="cls-3" d="M38,124.34c-.64,1.54-1.45,3.01-2.35,4.44v14.87h-1.65v-12.52c-.95,1.23-1.94,2.31-2.95,3.23-.18-.4-.66-1.21-.95-1.58,2.51-2.13,4.93-5.48,6.36-8.93l1.54.48ZM43.8,131.77c.75,5.83,2.18,9.77,4.53,9.99.64.04.99-1.25,1.21-3.78.33.31,1.03.7,1.36.86-.48,3.76-1.36,4.91-2.51,4.84-3.61-.26-5.37-4.82-6.21-11.68l-5.28.66-.22-1.54,5.32-.66c-.18-2.05-.33-4.22-.42-6.51h1.63c.07,2.22.2,4.36.42,6.29l6.58-.84.22,1.54-6.65.84ZM48.76,128.47c-.7-.99-2.24-2.53-3.54-3.61l1.19-.79c1.32,1.03,2.88,2.53,3.63,3.52l-1.28.88Z"/>
      <path class="cls-3" d="M10.94,172.3c-.29,2.07-.79,4.16-1.5,5.57-.24-.2-.9-.48-1.23-.59.7-1.34,1.12-3.3,1.36-5.21l1.36.24ZM13.42,170.35v9.31h-1.43v-9.2c-1.25.11-2.44.2-3.45.29l-.24-1.45c.46-.02.97-.04,1.5-.09.46-.55.92-1.19,1.41-1.87-.66-.99-1.76-2.24-2.75-3.19l.88-1.03c.22.2.44.42.66.64.73-1.25,1.52-2.93,1.96-4.16l1.43.57c-.75,1.5-1.72,3.28-2.51,4.49.44.48.86.99,1.17,1.43.88-1.39,1.72-2.79,2.33-3.98l1.36.64c-1.25,2.02-2.93,4.53-4.42,6.38l3.37-.22c-.35-.62-.73-1.25-1.1-1.8l1.19-.51c.99,1.39,2.02,3.26,2.4,4.47l-1.28.62c-.13-.42-.33-.95-.57-1.5l-1.89.18ZM15.42,172c.57,1.28,1.14,2.93,1.36,4.03l-1.3.42c-.18-1.1-.73-2.77-1.28-4.05l1.21-.4ZM15.84,178.16c.9-1.08,1.52-2.97,1.8-4.67l1.32.24c-.26,1.76-.88,3.78-1.83,5.04l-1.3-.62ZM21.12,160.23c-.84,2.22-2.2,4.29-3.7,5.65-.29-.29-.92-.75-1.32-.97,1.5-1.23,2.77-3.06,3.45-5.04l1.56.35ZM17.14,168.3c.62-.02,1.34-.07,2.13-.11.68-1.45,1.45-3.5,1.89-4.95l1.63.42c-.59,1.41-1.32,3.1-2,4.44,1.3-.09,2.68-.18,4.11-.26-.44-.64-.9-1.25-1.34-1.8l1.23-.62c1.19,1.41,2.57,3.34,3.17,4.58l-1.34.77c-.2-.46-.51-1.03-.88-1.65-2.99.26-6.05.51-8.29.66l-.31-1.47ZM23.79,178.29c.53,0,.62-.29.68-2.31.29.24.92.46,1.34.57-.18,2.51-.57,3.1-1.83,3.1h-2.24c-1.58,0-1.96-.42-1.96-1.98v-4.75h1.5v4.75c0,.53.09.62.66.62h1.85ZM20.92,170.1c1.39.64,2.93,1.76,3.65,2.66l-1.06.99c-.73-.9-2.27-2.09-3.61-2.75l1.01-.9ZM24.86,159.81c.9,1.65,2.64,3.54,3.98,4.53-.33.26-.86.81-1.12,1.17-1.39-1.14-3.19-3.3-4.2-5.15l1.34-.55ZM26.27,173.19c1.19,1.54,2.27,3.56,2.57,4.95l-1.34.73c-.31-1.41-1.34-3.5-2.49-5.04l1.25-.64Z"/>
      <path class="cls-3" d="M49.26,165.15c-.55,3.56-1.39,6.47-2.73,8.82,1.1,1.89,2.49,3.39,4.25,4.31-.37.31-.9.95-1.12,1.39-1.69-.99-3.04-2.4-4.12-4.16-1.3,1.72-2.95,3.12-5.1,4.22-.13-.29-.42-.77-.7-1.14l-.51.53c-.68-.55-1.56-1.14-2.57-1.74-1.28,1.06-3.01,1.78-5.37,2.29-.11-.44-.44-1.03-.75-1.34,2.02-.35,3.56-.9,4.69-1.72-.7-.35-1.43-.7-2.16-1.01l-.35.62-1.41-.51c.48-.84,1.08-1.96,1.67-3.1h-2.49v-1.36h3.17c.33-.66.64-1.3.9-1.89l.57.13v-3.04c-1.1,1.3-2.51,2.51-3.85,3.23-.2-.37-.59-.95-.9-1.23,1.56-.7,3.23-2.07,4.31-3.5h-4.07v-1.34h4.51v-4.03h1.52v4.03h4.47v1.34h-4.47v.11c.95.55,3.32,2.05,3.92,2.49l-.9,1.17c-.57-.53-1.96-1.58-3.01-2.38v3.28h-.95l.37.09c-.24.48-.48,1.01-.75,1.54h5.88v1.36h-1.92c-.31,1.47-.81,2.68-1.56,3.67.97.53,1.85,1.1,2.53,1.61,1.87-1.03,3.32-2.35,4.4-4-.84-1.78-1.47-3.83-1.98-6.07-.46,1.03-1.01,1.96-1.61,2.75-.24-.31-.95-.86-1.32-1.12,1.85-2.31,2.99-5.98,3.59-9.86l1.67.24c-.22,1.3-.51,2.57-.81,3.79h6.38v1.54h-1.32ZM32.8,163.5c-.2-.77-.77-1.98-1.36-2.88l1.23-.51c.62.88,1.21,2.05,1.43,2.82l-1.3.57ZM34.65,172.61c-.31.62-.64,1.21-.92,1.78.88.35,1.76.75,2.62,1.17.66-.79,1.1-1.76,1.39-2.95h-3.08ZM40.61,160.62c-.64,1.01-1.39,2.11-1.96,2.84l-1.1-.53c.53-.77,1.28-2.05,1.63-2.9l1.43.59ZM43.72,165.22c.42,2.53,1.03,4.91,1.91,6.95.95-1.96,1.54-4.29,1.94-7.02h-3.83l-.02.07Z"/>
      <path class="cls-3" d="M26.87,207.71s-.02.51-.07.73c-.4,4.16-.81,5.87-1.52,6.53-.48.46-.97.59-1.72.64-.7.02-2.05,0-3.43-.07-.04-.46-.24-1.08-.55-1.5,1.45.11,2.88.13,3.39.13s.73-.02.95-.22c.51-.4.86-1.74,1.17-4.75h-6.89c-1.1,3.01-3.37,5.28-8.76,6.49-.13-.44-.55-1.08-.86-1.41,4.71-.97,6.78-2.73,7.83-5.08h-7.22v-1.5h7.72c.18-.66.31-1.39.4-2.13h-6.36v-8.82h15.18v8.82h-7.13c-.09.73-.22,1.45-.4,2.13h8.25ZM12.59,200.49h5.08v-2.33h-5.08v2.33ZM12.59,204.17h5.08v-2.35h-5.08v2.35ZM24.47,198.16h-5.19v2.33h5.19v-2.33ZM24.47,201.81h-5.19v2.35h5.19v-2.35Z"/>
      <path class="cls-3" d="M30.23,205.38c.59-1.45.99-3.85,1.14-5.63l1.23.18c-.11,1.8-.53,4.29-1.1,5.9l-1.28-.44ZM33.4,195.59h1.63v20.09h-1.63v-20.09ZM36.32,199.11c.66,1.19,1.34,2.75,1.61,3.67l-1.23.59c-.24-.95-.9-2.53-1.52-3.74l1.14-.53ZM50.34,213.37v1.56h-13.42v-1.56h6.29v-5.5h-4.67v-1.52h4.67v-4.55h-3.21c-.44,1.32-.95,2.46-1.54,3.41-.33-.22-1.06-.57-1.45-.75,1.28-1.91,2.16-4.86,2.66-7.85l1.58.26c-.22,1.14-.48,2.29-.79,3.37h2.75v-4.55h1.63v4.55h4.97v1.56h-4.97v4.55h4.49v1.52h-4.49v5.5h5.5Z"/>
      <path class="cls-3" d="M24.97,238.47c-.7,3.41-1.8,6.05-3.56,8.08,2.57,1.23,4.93,2.55,6.51,3.74l-1.23,1.5c-1.56-1.23-3.94-2.64-6.58-3.96-2.38,1.98-5.68,3.21-10.34,3.89-.18-.48-.53-1.14-.86-1.54,4.22-.57,7.24-1.58,9.44-3.21-1.69-.77-3.43-1.5-5.08-2.11-.18.37-.35.75-.51,1.08l-1.61-.59c.88-1.8,1.98-4.29,3.06-6.86h-5.48v-1.65h6.16c.75-1.83,1.45-3.63,2.02-5.21l1.74.31c-.57,1.52-1.23,3.19-1.94,4.91h11.73v1.65h-3.48ZM16.04,238.47c-.73,1.74-1.45,3.45-2.13,4.97,1.85.64,3.85,1.43,5.81,2.31,1.72-1.8,2.77-4.18,3.45-7.28h-7.13Z"/>
      <path class="cls-3" d="M30.23,241.38c.59-1.45.99-3.85,1.14-5.63l1.23.18c-.11,1.8-.53,4.29-1.1,5.9l-1.28-.44ZM33.4,231.59h1.63v20.09h-1.63v-20.09ZM36.32,235.11c.66,1.19,1.34,2.75,1.61,3.67l-1.23.59c-.24-.95-.9-2.53-1.52-3.74l1.14-.53ZM50.34,249.37v1.56h-13.42v-1.56h6.29v-5.5h-4.67v-1.52h4.67v-4.55h-3.21c-.44,1.32-.95,2.46-1.54,3.41-.33-.22-1.06-.57-1.45-.75,1.28-1.91,2.16-4.86,2.66-7.85l1.58.26c-.22,1.14-.48,2.29-.79,3.37h2.75v-4.55h1.63v4.55h4.97v1.56h-4.97v4.55h4.49v1.52h-4.49v5.5h5.5Z"/>
      <path class="cls-3" d="M26.87,284.18s-.02.51-.07.73c-.4,4.16-.81,5.87-1.52,6.53-.48.46-.97.59-1.72.64-.7.02-2.05,0-3.43-.07-.04-.46-.24-1.08-.55-1.5,1.45.11,2.88.13,3.39.13s.73-.02.95-.22c.51-.4.86-1.74,1.17-4.75h-6.89c-1.1,3.01-3.37,5.28-8.76,6.49-.13-.44-.55-1.08-.86-1.41,4.71-.97,6.78-2.73,7.83-5.08h-7.22v-1.5h7.72c.18-.66.31-1.39.4-2.13h-6.36v-8.82h15.18v8.82h-7.13c-.09.73-.22,1.45-.4,2.13h8.25ZM12.59,276.97h5.08v-2.33h-5.08v2.33ZM12.59,280.64h5.08v-2.35h-5.08v2.35ZM24.47,274.63h-5.19v2.33h5.19v-2.33ZM24.47,278.29h-5.19v2.35h5.19v-2.35Z"/>
      <path class="cls-3" d="M30.23,281.85c.59-1.45.99-3.85,1.14-5.63l1.23.18c-.11,1.8-.53,4.29-1.1,5.9l-1.28-.44ZM33.4,272.06h1.63v20.09h-1.63v-20.09ZM36.32,275.58c.66,1.19,1.34,2.75,1.61,3.67l-1.23.59c-.24-.95-.9-2.53-1.52-3.74l1.14-.53ZM50.34,289.84v1.56h-13.42v-1.56h6.29v-5.5h-4.67v-1.52h4.67v-4.55h-3.21c-.44,1.32-.95,2.46-1.54,3.41-.33-.22-1.06-.57-1.45-.75,1.28-1.91,2.16-4.86,2.66-7.85l1.58.26c-.22,1.14-.48,2.29-.79,3.37h2.75v-4.55h1.63v4.55h4.97v1.56h-4.97v4.55h4.49v1.52h-4.49v5.5h5.5Z"/>
      <path class="cls-3" d="M72.8,272.52l-19.85,19.85-.66-.66,19.85-19.85.66.66Z"/>
      <path class="cls-3" d="M24.97,309.42c-.7,3.41-1.8,6.05-3.56,8.08,2.57,1.23,4.93,2.55,6.51,3.74l-1.23,1.5c-1.56-1.23-3.94-2.64-6.58-3.96-2.38,1.98-5.68,3.21-10.34,3.89-.18-.48-.53-1.14-.86-1.54,4.22-.57,7.24-1.58,9.44-3.21-1.69-.77-3.43-1.5-5.08-2.11-.18.37-.35.75-.51,1.08l-1.61-.59c.88-1.8,1.98-4.29,3.06-6.86h-5.48v-1.65h6.16c.75-1.83,1.45-3.63,2.02-5.21l1.74.31c-.57,1.52-1.23,3.19-1.94,4.91h11.73v1.65h-3.48ZM16.04,309.42c-.73,1.74-1.45,3.45-2.13,4.97,1.85.64,3.85,1.43,5.81,2.31,1.72-1.8,2.77-4.18,3.45-7.28h-7.13Z"/>
      <path class="cls-3" d="M30.23,312.32c.59-1.45.99-3.85,1.14-5.63l1.23.18c-.11,1.8-.53,4.29-1.1,5.9l-1.28-.44ZM33.4,302.53h1.63v20.09h-1.63v-20.09ZM36.32,306.05c.66,1.19,1.34,2.75,1.61,3.67l-1.23.59c-.24-.95-.9-2.53-1.52-3.74l1.14-.53ZM50.34,320.31v1.56h-13.42v-1.56h6.29v-5.5h-4.67v-1.52h4.67v-4.55h-3.21c-.44,1.32-.95,2.46-1.54,3.41-.33-.22-1.06-.57-1.45-.75,1.28-1.91,2.16-4.86,2.66-7.85l1.58.26c-.22,1.14-.48,2.29-.79,3.37h2.75v-4.55h1.63v4.55h4.97v1.56h-4.97v4.55h4.49v1.52h-4.49v5.5h5.5Z"/>
      <path class="cls-3" d="M60.22,302.11l1.32.68c-2.53,2.62-4.09,5.88-4.09,9.79s1.56,7.17,4.09,9.79l-1.32.68c-2.64-2.68-4.38-6.18-4.38-10.47s1.74-7.79,4.38-10.47Z"/>
      <path class="cls-3" d="M69.94,303.08c-.62,1.63-1.39,3.23-2.27,4.75v14.74h-1.54v-12.34c-.7,1.01-1.45,1.92-2.22,2.71-.18-.37-.62-1.23-.92-1.58,2.16-2.11,4.18-5.39,5.43-8.74l1.52.46ZM83.69,310.83v1.52h-14.65v-1.52h14.65ZM75.66,305.04v-2.49h1.65v2.49h5.94v1.47h-13.31v-1.47h5.72ZM71.08,314.39h11v8.12h-1.65v-.9h-7.75v1.03h-1.61v-8.25ZM72.89,310.7c-.13-.95-.62-2.46-1.12-3.63l1.41-.35c.57,1.12,1.08,2.62,1.21,3.56l-1.5.42ZM72.69,315.91v4.2h7.75v-4.2h-7.75ZM78.3,310.39c.46-.97,1.03-2.6,1.3-3.7l1.65.35c-.51,1.3-1.06,2.73-1.54,3.67l-1.41-.33Z"/>
      <path class="cls-3" d="M86.88,323.06l-1.32-.68c2.53-2.62,4.09-5.88,4.09-9.79s-1.56-7.17-4.09-9.79l1.32-.68c2.64,2.68,4.38,6.18,4.38,10.47s-1.74,7.79-4.38,10.47Z"/>
    </g>
    <g>
      <path class="cls-3" d="M142.38,176.09l1.01-1.32c.95.99,2.18,1.85,4,1.85s3.28-1.12,3.28-2.88c0-1.87-1.3-3.1-5.02-3.1v-1.54c3.32,0,4.47-1.3,4.47-2.95,0-1.52-1.06-2.49-2.73-2.49-1.3,0-2.44.66-3.34,1.58l-1.08-1.25c1.21-1.14,2.64-1.96,4.51-1.96,2.71,0,4.69,1.43,4.69,3.98,0,1.89-1.17,3.1-2.86,3.72v.09c1.89.46,3.41,1.85,3.41,4,0,2.79-2.31,4.47-5.17,4.47-2.53,0-4.11-1.06-5.17-2.2Z"/>
      <path class="cls-3" d="M154.57,176.16l.99-1.32c.92.92,2.09,1.78,3.96,1.78s3.43-1.39,3.43-3.56-1.32-3.48-3.34-3.48c-1.08,0-1.76.35-2.68.97l-1.08-.68.51-7.55h7.85v1.72h-6.09l-.4,4.69c.73-.4,1.43-.66,2.4-.66,2.68,0,4.86,1.54,4.86,4.93s-2.55,5.3-5.28,5.3c-2.51,0-4.05-1.06-5.13-2.13Z"/>
      <path class="cls-3" d="M167.33,181c1.39-.62,2.2-1.69,2.2-2.99-.09.02-.15.02-.24.02-.77,0-1.47-.48-1.47-1.41,0-.86.7-1.41,1.52-1.41,1.06,0,1.69.9,1.69,2.38,0,2.11-1.23,3.76-3.21,4.6l-.48-1.19Z"/>
      <path class="cls-3" d="M172.91,176.09l1.01-1.32c.95.99,2.18,1.85,4,1.85s3.28-1.12,3.28-2.88c0-1.87-1.3-3.1-5.02-3.1v-1.54c3.32,0,4.47-1.3,4.47-2.95,0-1.52-1.06-2.49-2.73-2.49-1.3,0-2.44.66-3.34,1.58l-1.08-1.25c1.21-1.14,2.64-1.96,4.51-1.96,2.71,0,4.69,1.43,4.69,3.98,0,1.89-1.17,3.1-2.86,3.72v.09c1.89.46,3.41,1.85,3.41,4,0,2.79-2.31,4.47-5.17,4.47-2.53,0-4.11-1.06-5.17-2.2Z"/>
      <path class="cls-3" d="M185.56,170.11c0-5.26,1.91-8.08,5.04-8.08s5.02,2.84,5.02,8.08-1.89,8.19-5.02,8.19-5.04-2.93-5.04-8.19ZM193.66,170.11c0-4.6-1.23-6.47-3.06-6.47s-3.08,1.87-3.08,6.47,1.23,6.58,3.08,6.58,3.06-1.98,3.06-6.58Z"/>
      <path class="cls-3" d="M197.33,176.09l1.01-1.32c.95.99,2.18,1.85,4,1.85s3.28-1.12,3.28-2.88c0-1.87-1.3-3.1-5.02-3.1v-1.54c3.32,0,4.47-1.3,4.47-2.95,0-1.52-1.06-2.49-2.73-2.49-1.3,0-2.44.66-3.34,1.58l-1.08-1.25c1.21-1.14,2.64-1.96,4.51-1.96,2.71,0,4.69,1.43,4.69,3.98,0,1.89-1.17,3.1-2.86,3.72v.09c1.89.46,3.41,1.85,3.41,4,0,2.79-2.31,4.47-5.17,4.47-2.53,0-4.11-1.06-5.17-2.2Z"/>
      <path class="cls-3" d="M143.68,212.33h3.59v-11.57h-2.86v-1.3c1.43-.24,2.46-.62,3.34-1.14h1.54v14.02h3.23v1.67h-8.85v-1.67Z"/>
      <path class="cls-3" d="M154.94,210c0-2.05,1.5-3.45,2.97-4.25v-.09c-1.17-.79-2.18-1.96-2.18-3.63,0-2.4,1.91-4,4.42-4,2.75,0,4.42,1.72,4.42,4.16,0,1.65-1.21,3.06-2.16,3.78v.11c1.39.84,2.73,1.94,2.73,4.03,0,2.35-2.02,4.18-5.06,4.18s-5.15-1.8-5.15-4.29ZM163.24,210.07c0-2.05-1.98-2.77-4.27-3.67-1.28.81-2.2,1.98-2.2,3.43,0,1.72,1.43,2.97,3.37,2.97s3.1-1.12,3.1-2.73ZM162.86,202.3c0-1.54-.99-2.77-2.73-2.77-1.5,0-2.57.99-2.57,2.51,0,1.89,1.74,2.68,3.63,3.43,1.08-.97,1.67-2,1.67-3.17Z"/>
      <path class="cls-3" d="M167.33,217c1.39-.62,2.2-1.69,2.2-2.99-.09.02-.15.02-.24.02-.77,0-1.47-.48-1.47-1.41,0-.86.7-1.41,1.52-1.41,1.06,0,1.69.9,1.69,2.38,0,2.11-1.23,3.76-3.21,4.6l-.48-1.19Z"/>
      <path class="cls-3" d="M174.21,212.33h3.59v-11.57h-2.86v-1.3c1.43-.24,2.46-.62,3.34-1.14h1.54v14.02h3.23v1.67h-8.85v-1.67Z"/>
      <path class="cls-3" d="M191.97,209.67h-7.04v-1.32l6.71-10.03h2.22v9.75h2.13v1.61h-2.13v4.33h-1.89v-4.33ZM191.97,208.06v-4.6c0-.81.07-2.16.11-2.99h-.09c-.4.75-.84,1.43-1.3,2.2l-3.67,5.39h4.95Z"/>
      <path class="cls-3" d="M198.63,212.33h3.59v-11.57h-2.86v-1.3c1.43-.24,2.46-.62,3.34-1.14h1.54v14.02h3.23v1.67h-8.85v-1.67Z"/>
      <path class="cls-3" d="M143.68,248.33h3.59v-11.57h-2.86v-1.3c1.43-.24,2.46-.62,3.34-1.14h1.54v14.02h3.23v1.67h-8.85v-1.67Z"/>
      <path class="cls-3" d="M162.84,236.03h-7.81v-1.72h10.1v1.23c-3.7,4.75-4.49,8.34-4.73,14.46h-2.09c.26-5.92,1.45-9.66,4.53-13.97Z"/>
      <path class="cls-3" d="M167.33,253c1.39-.62,2.2-1.69,2.2-2.99-.09.02-.15.02-.24.02-.77,0-1.47-.48-1.47-1.41,0-.86.7-1.41,1.52-1.41,1.06,0,1.69.9,1.69,2.38,0,2.11-1.23,3.76-3.21,4.6l-.48-1.19Z"/>
      <path class="cls-3" d="M174.21,248.33h3.59v-11.57h-2.86v-1.3c1.43-.24,2.46-.62,3.34-1.14h1.54v14.02h3.23v1.67h-8.85v-1.67Z"/>
      <path class="cls-3" d="M185.67,242.76c0-6.31,2.84-8.74,5.98-8.74,1.67,0,2.88.7,3.76,1.65l-1.12,1.25c-.64-.77-1.61-1.23-2.57-1.23-2.22,0-4.07,1.69-4.16,6.69,1.01-1.21,2.4-1.96,3.67-1.96,2.71,0,4.47,1.63,4.47,4.82,0,3.01-2.11,5.04-4.62,5.04-3.1,0-5.41-2.51-5.41-7.53ZM187.61,244.02c.26,3.06,1.47,4.71,3.45,4.71,1.56,0,2.75-1.39,2.75-3.48s-.97-3.32-2.9-3.32c-1.01,0-2.24.55-3.3,2.09Z"/>
      <path class="cls-3" d="M197.66,248.82c4.73-4.71,7.39-7.52,7.39-10.1,0-1.78-.97-3.06-2.97-3.06-1.32,0-2.46.84-3.34,1.87l-1.17-1.12c1.32-1.43,2.71-2.38,4.75-2.38,2.88,0,4.69,1.83,4.69,4.6,0,2.95-2.68,5.88-6.4,9.79.84-.07,1.8-.15,2.64-.15h4.55v1.74h-10.14v-1.19Z"/>
      <path class="cls-3" d="M168.1,302.76h3.59v-11.57h-2.86v-1.3c1.43-.24,2.46-.62,3.34-1.14h1.54v14.02h3.23v1.67h-8.85v-1.67Z"/>
      <path class="cls-3" d="M179.98,303.2c0-.92.66-1.56,1.45-1.56s1.45.64,1.45,1.56-.66,1.52-1.45,1.52-1.45-.62-1.45-1.52Z"/>
      <path class="cls-3" d="M185.56,296.53c0-5.26,1.91-8.08,5.04-8.08s5.02,2.84,5.02,8.08-1.89,8.19-5.02,8.19-5.04-2.93-5.04-8.19ZM193.66,296.53c0-4.6-1.23-6.47-3.06-6.47s-3.08,1.87-3.08,6.47,1.23,6.58,3.08,6.58,3.06-1.98,3.06-6.58Z"/>
      <path class="cls-3" d="M197.88,297.19c0-6.31,2.84-8.74,5.98-8.74,1.67,0,2.88.7,3.76,1.65l-1.12,1.25c-.64-.77-1.61-1.23-2.57-1.23-2.22,0-4.07,1.69-4.16,6.69,1.01-1.21,2.4-1.96,3.67-1.96,2.71,0,4.47,1.63,4.47,4.82,0,3.01-2.11,5.04-4.62,5.04-3.1,0-5.41-2.51-5.41-7.53ZM199.82,298.45c.26,3.06,1.47,4.71,3.45,4.71,1.56,0,2.75-1.39,2.75-3.48s-.97-3.32-2.9-3.32c-1.01,0-2.24.55-3.3,2.09Z"/>
    </g>
    <g>
      <path class="cls-3" d="M261.64,178.14l1.01-1.32c.95.99,2.18,1.85,4,1.85s3.28-1.12,3.28-2.88c0-1.87-1.3-3.1-5.02-3.1v-1.54c3.32,0,4.47-1.3,4.47-2.95,0-1.52-1.06-2.49-2.73-2.49-1.3,0-2.44.66-3.34,1.58l-1.08-1.25c1.21-1.14,2.64-1.96,4.51-1.96,2.71,0,4.69,1.43,4.69,3.98,0,1.89-1.17,3.1-2.86,3.72v.09c1.89.46,3.41,1.85,3.41,4,0,2.79-2.31,4.47-5.17,4.47-2.53,0-4.11-1.06-5.17-2.2Z"/>
      <path class="cls-3" d="M273.83,178.2l.99-1.32c.92.92,2.09,1.78,3.96,1.78s3.43-1.39,3.43-3.56-1.32-3.48-3.34-3.48c-1.08,0-1.76.35-2.68.97l-1.08-.68.51-7.55h7.85v1.72h-6.09l-.4,4.69c.73-.4,1.43-.66,2.4-.66,2.68,0,4.86,1.54,4.86,4.93s-2.55,5.3-5.28,5.3c-2.51,0-4.05-1.06-5.13-2.13Z"/>
      <path class="cls-3" d="M286.59,183.04c1.39-.62,2.2-1.69,2.2-2.99-.09.02-.15.02-.24.02-.77,0-1.47-.48-1.47-1.41,0-.86.7-1.41,1.52-1.41,1.06,0,1.69.9,1.69,2.38,0,2.11-1.23,3.76-3.21,4.6l-.48-1.19Z"/>
      <path class="cls-3" d="M292.51,178.86c4.73-4.71,7.39-7.53,7.39-10.1,0-1.78-.97-3.06-2.97-3.06-1.32,0-2.46.84-3.34,1.87l-1.17-1.12c1.32-1.43,2.71-2.38,4.75-2.38,2.88,0,4.69,1.83,4.69,4.6,0,2.95-2.68,5.87-6.4,9.79.84-.07,1.8-.15,2.64-.15h4.55v1.74h-10.14v-1.19Z"/>
      <path class="cls-3" d="M304.83,172.15c0-5.26,1.91-8.08,5.04-8.08s5.02,2.84,5.02,8.08-1.89,8.18-5.02,8.18-5.04-2.93-5.04-8.18ZM312.93,172.15c0-4.6-1.23-6.47-3.06-6.47s-3.08,1.87-3.08,6.47,1.23,6.58,3.08,6.58,3.06-1.98,3.06-6.58Z"/>
      <path class="cls-3" d="M317.9,178.38h3.59v-11.57h-2.86v-1.3c1.43-.24,2.46-.62,3.34-1.14h1.54v14.02h3.23v1.67h-8.85v-1.67Z"/>
      <path class="cls-3" d="M262.94,214.38h3.59v-11.57h-2.86v-1.3c1.43-.24,2.46-.62,3.34-1.14h1.54v14.02h3.23v1.67h-8.85v-1.67Z"/>
      <path class="cls-3" d="M274.21,212.04c0-2.05,1.5-3.45,2.97-4.25v-.09c-1.17-.79-2.18-1.96-2.18-3.63,0-2.4,1.91-4,4.42-4,2.75,0,4.42,1.72,4.42,4.16,0,1.65-1.21,3.06-2.16,3.78v.11c1.39.84,2.73,1.94,2.73,4.03,0,2.35-2.02,4.18-5.06,4.18s-5.15-1.8-5.15-4.29ZM282.5,212.11c0-2.05-1.98-2.77-4.27-3.67-1.28.81-2.2,1.98-2.2,3.43,0,1.72,1.43,2.97,3.37,2.97s3.1-1.12,3.1-2.73ZM282.13,204.34c0-1.54-.99-2.77-2.73-2.77-1.5,0-2.57.99-2.57,2.51,0,1.89,1.74,2.68,3.63,3.43,1.08-.97,1.67-2,1.67-3.17Z"/>
      <path class="cls-3" d="M286.59,219.04c1.39-.62,2.2-1.69,2.2-2.99-.09.02-.15.02-.24.02-.77,0-1.47-.48-1.47-1.41,0-.86.7-1.41,1.52-1.41,1.06,0,1.69.9,1.69,2.38,0,2.11-1.23,3.76-3.21,4.6l-.48-1.19Z"/>
      <path class="cls-3" d="M292.18,214.14l1.01-1.32c.95.99,2.18,1.85,4,1.85s3.28-1.12,3.28-2.88c0-1.87-1.3-3.1-5.02-3.1v-1.54c3.32,0,4.47-1.3,4.47-2.95,0-1.52-1.06-2.49-2.73-2.49-1.3,0-2.44.66-3.34,1.58l-1.08-1.25c1.21-1.14,2.64-1.96,4.51-1.96,2.71,0,4.69,1.43,4.69,3.98,0,1.89-1.17,3.1-2.86,3.72v.09c1.89.46,3.41,1.85,3.41,4,0,2.79-2.31,4.47-5.17,4.47-2.53,0-4.11-1.06-5.17-2.2Z"/>
      <path class="cls-3" d="M304.72,214.86c4.73-4.71,7.39-7.52,7.39-10.1,0-1.78-.97-3.06-2.97-3.06-1.32,0-2.46.84-3.34,1.87l-1.17-1.12c1.32-1.43,2.71-2.38,4.75-2.38,2.88,0,4.69,1.83,4.69,4.6,0,2.95-2.68,5.88-6.4,9.79.84-.07,1.8-.15,2.64-.15h4.55v1.74h-10.14v-1.19Z"/>
      <path class="cls-3" d="M324.85,202.08h-7.81v-1.72h10.1v1.23c-3.7,4.75-4.49,8.34-4.73,14.46h-2.09c.26-5.92,1.45-9.66,4.53-13.97Z"/>
      <path class="cls-3" d="M262.94,250.38h3.59v-11.57h-2.86v-1.3c1.43-.24,2.46-.62,3.34-1.14h1.54v14.02h3.23v1.67h-8.85v-1.67Z"/>
      <path class="cls-3" d="M274.4,244.81c0-6.31,2.84-8.74,5.98-8.74,1.67,0,2.88.7,3.76,1.65l-1.12,1.25c-.64-.77-1.61-1.23-2.57-1.23-2.22,0-4.07,1.69-4.16,6.69,1.01-1.21,2.4-1.96,3.67-1.96,2.71,0,4.47,1.63,4.47,4.82,0,3.01-2.11,5.04-4.62,5.04-3.1,0-5.41-2.51-5.41-7.53ZM276.34,246.07c.26,3.06,1.47,4.71,3.45,4.71,1.56,0,2.75-1.39,2.75-3.48s-.97-3.32-2.9-3.32c-1.01,0-2.24.55-3.3,2.09Z"/>
      <path class="cls-3" d="M286.59,255.04c1.39-.62,2.2-1.69,2.2-2.99-.09.02-.15.02-.24.02-.77,0-1.47-.48-1.47-1.41,0-.86.7-1.41,1.52-1.41,1.06,0,1.69.9,1.69,2.38,0,2.11-1.23,3.76-3.21,4.6l-.48-1.19Z"/>
      <path class="cls-3" d="M292.53,248.04c0-2.05,1.5-3.45,2.97-4.25v-.09c-1.17-.79-2.18-1.96-2.18-3.63,0-2.4,1.91-4,4.42-4,2.75,0,4.42,1.72,4.42,4.16,0,1.65-1.21,3.06-2.16,3.78v.11c1.39.84,2.73,1.94,2.73,4.03,0,2.35-2.02,4.18-5.06,4.18s-5.15-1.8-5.15-4.29ZM300.83,248.11c0-2.05-1.98-2.77-4.27-3.67-1.28.81-2.2,1.98-2.2,3.43,0,1.72,1.43,2.97,3.37,2.97s3.1-1.12,3.1-2.73ZM300.45,240.34c0-1.54-.99-2.77-2.73-2.77-1.5,0-2.57.99-2.57,2.51,0,1.89,1.74,2.68,3.63,3.43,1.08-.97,1.67-2,1.67-3.17Z"/>
      <path class="cls-3" d="M312.64,238.08h-7.81v-1.72h10.1v1.23c-3.7,4.75-4.49,8.34-4.73,14.46h-2.09c.26-5.92,1.45-9.66,4.53-13.97Z"/>
      <path class="cls-3" d="M323.44,247.71h-7.04v-1.32l6.71-10.03h2.22v9.75h2.13v1.61h-2.13v4.33h-1.89v-4.33ZM323.44,246.11v-4.6c0-.81.07-2.16.11-2.99h-.09c-.4.75-.84,1.43-1.3,2.2l-3.67,5.39h4.95Z"/>
      <path class="cls-3" d="M287.36,304.8h3.59v-11.57h-2.86v-1.3c1.43-.24,2.46-.62,3.34-1.14h1.54v14.02h3.23v1.67h-8.85v-1.67Z"/>
      <path class="cls-3" d="M299.24,305.24c0-.92.66-1.56,1.45-1.56s1.45.64,1.45,1.56-.66,1.52-1.45,1.52-1.45-.62-1.45-1.52Z"/>
      <path class="cls-3" d="M304.83,298.58c0-5.26,1.91-8.08,5.04-8.08s5.02,2.84,5.02,8.08-1.89,8.19-5.02,8.19-5.04-2.93-5.04-8.19ZM312.93,298.58c0-4.6-1.23-6.47-3.06-6.47s-3.08,1.87-3.08,6.47,1.23,6.58,3.08,6.58,3.06-1.98,3.06-6.58Z"/>
      <path class="cls-3" d="M317.24,305.11l1.12-1.25c.62.77,1.58,1.23,2.57,1.23,2.2,0,4.07-1.72,4.16-6.73-1.01,1.25-2.4,2.02-3.67,2.02-2.73,0-4.49-1.65-4.49-4.86,0-2.99,2.11-5.02,4.62-5.02,3.1,0,5.41,2.51,5.41,7.55,0,6.29-2.84,8.71-5.96,8.71-1.67,0-2.9-.7-3.76-1.65ZM321.75,298.88c1.01,0,2.29-.64,3.3-2.13-.26-3.04-1.5-4.66-3.5-4.66-1.54,0-2.73,1.36-2.73,3.43s.97,3.37,2.93,3.37Z"/>
    </g>
    <g>
      <path class="cls-3" d="M493.32,178.71l1.01-1.32c.95.99,2.18,1.85,4,1.85s3.28-1.12,3.28-2.88c0-1.87-1.3-3.1-5.02-3.1v-1.54c3.32,0,4.47-1.3,4.47-2.95,0-1.52-1.06-2.49-2.73-2.49-1.3,0-2.44.66-3.34,1.58l-1.08-1.25c1.21-1.14,2.64-1.96,4.51-1.96,2.71,0,4.69,1.43,4.69,3.98,0,1.89-1.17,3.1-2.86,3.72v.09c1.89.46,3.41,1.85,3.41,4,0,2.79-2.31,4.47-5.17,4.47-2.53,0-4.11-1.06-5.17-2.2Z"/>
      <path class="cls-3" d="M505.53,178.71l1.01-1.32c.95.99,2.18,1.85,4,1.85s3.28-1.12,3.28-2.88c0-1.87-1.3-3.1-5.02-3.1v-1.54c3.32,0,4.47-1.3,4.47-2.95,0-1.52-1.06-2.49-2.73-2.49-1.3,0-2.44.66-3.34,1.58l-1.08-1.25c1.21-1.14,2.64-1.96,4.51-1.96,2.71,0,4.69,1.43,4.69,3.98,0,1.89-1.17,3.1-2.86,3.72v.09c1.89.46,3.41,1.85,3.41,4,0,2.79-2.31,4.47-5.17,4.47-2.53,0-4.11-1.06-5.17-2.2Z"/>
      <path class="cls-3" d="M518.27,183.62c1.39-.62,2.2-1.69,2.2-2.99-.09.02-.15.02-.24.02-.77,0-1.47-.48-1.47-1.41,0-.86.7-1.41,1.52-1.41,1.06,0,1.69.9,1.69,2.38,0,2.11-1.23,3.76-3.21,4.6l-.48-1.19Z"/>
      <path class="cls-3" d="M532.11,166.65h-7.81v-1.72h10.1v1.23c-3.7,4.75-4.49,8.34-4.73,14.46h-2.09c.26-5.92,1.45-9.66,4.53-13.97Z"/>
      <path class="cls-3" d="M544.31,166.65h-7.81v-1.72h10.1v1.23c-3.7,4.75-4.49,8.34-4.73,14.46h-2.09c.26-5.92,1.45-9.66,4.53-13.97Z"/>
      <path class="cls-3" d="M555.12,176.29h-7.04v-1.32l6.71-10.03h2.22v9.75h2.13v1.61h-2.13v4.33h-1.89v-4.33ZM555.12,174.68v-4.6c0-.81.07-2.16.11-2.99h-.09c-.4.75-.84,1.43-1.3,2.2l-3.67,5.39h4.95Z"/>
      <path class="cls-3" d="M494.62,214.95h3.59v-11.57h-2.86v-1.3c1.43-.24,2.46-.62,3.34-1.14h1.54v14.02h3.23v1.67h-8.85v-1.67Z"/>
      <path class="cls-3" d="M513.78,202.65h-7.81v-1.72h10.1v1.23c-3.7,4.75-4.49,8.34-4.73,14.46h-2.09c.26-5.92,1.45-9.66,4.53-13.97Z"/>
      <path class="cls-3" d="M518.27,219.61c1.39-.62,2.2-1.69,2.2-2.99-.09.02-.15.02-.24.02-.77,0-1.47-.48-1.47-1.41,0-.86.7-1.41,1.52-1.41,1.06,0,1.69.9,1.69,2.38,0,2.11-1.23,3.76-3.21,4.6l-.48-1.19Z"/>
      <path class="cls-3" d="M524.21,212.62c0-2.05,1.5-3.45,2.97-4.25v-.09c-1.17-.79-2.18-1.96-2.18-3.63,0-2.4,1.91-4,4.42-4,2.75,0,4.42,1.72,4.42,4.16,0,1.65-1.21,3.06-2.16,3.78v.11c1.39.84,2.73,1.94,2.73,4.03,0,2.35-2.02,4.18-5.06,4.18s-5.15-1.8-5.15-4.29ZM532.5,212.68c0-2.05-1.98-2.77-4.27-3.67-1.28.81-2.2,1.98-2.2,3.43,0,1.72,1.43,2.97,3.37,2.97s3.1-1.12,3.1-2.73ZM532.13,204.92c0-1.54-.99-2.77-2.73-2.77-1.5,0-2.57.99-2.57,2.51,0,1.89,1.74,2.68,3.63,3.43,1.08-.97,1.67-2,1.67-3.17Z"/>
      <path class="cls-3" d="M536.5,208.72c0-5.26,1.91-8.08,5.04-8.08s5.02,2.84,5.02,8.08-1.89,8.19-5.02,8.19-5.04-2.93-5.04-8.19ZM544.6,208.72c0-4.6-1.23-6.47-3.06-6.47s-3.08,1.87-3.08,6.47,1.23,6.58,3.08,6.58,3.06-1.98,3.06-6.58Z"/>
      <path class="cls-3" d="M555.12,212.29h-7.04v-1.32l6.71-10.03h2.22v9.75h2.13v1.61h-2.13v4.33h-1.89v-4.33ZM555.12,210.68v-4.6c0-.81.07-2.16.11-2.99h-.09c-.4.75-.84,1.43-1.3,2.2l-3.67,5.39h4.95Z"/>
      <path class="cls-3" d="M494.62,250.95h3.59v-11.57h-2.86v-1.3c1.43-.24,2.46-.62,3.34-1.14h1.54v14.02h3.23v1.67h-8.85v-1.67Z"/>
      <path class="cls-3" d="M505.51,250.77l.99-1.32c.92.92,2.09,1.78,3.96,1.78s3.43-1.39,3.43-3.57-1.32-3.48-3.34-3.48c-1.08,0-1.76.35-2.68.97l-1.08-.68.51-7.55h7.85v1.72h-6.09l-.4,4.69c.73-.4,1.43-.66,2.4-.66,2.68,0,4.86,1.54,4.86,4.93s-2.55,5.3-5.28,5.3c-2.51,0-4.05-1.06-5.13-2.13Z"/>
      <path class="cls-3" d="M518.27,255.61c1.39-.62,2.2-1.69,2.2-2.99-.09.02-.15.02-.24.02-.77,0-1.47-.48-1.47-1.41,0-.86.7-1.41,1.52-1.41,1.06,0,1.69.9,1.69,2.38,0,2.11-1.23,3.76-3.21,4.6l-.48-1.19Z"/>
      <path class="cls-3" d="M524.49,251.26l1.12-1.25c.62.77,1.58,1.23,2.57,1.23,2.2,0,4.07-1.72,4.16-6.73-1.01,1.25-2.4,2.02-3.67,2.02-2.73,0-4.49-1.65-4.49-4.86,0-2.99,2.11-5.02,4.62-5.02,3.1,0,5.41,2.51,5.41,7.55,0,6.29-2.84,8.71-5.96,8.71-1.67,0-2.9-.7-3.76-1.65ZM529,245.03c1.01,0,2.29-.64,3.3-2.13-.26-3.04-1.5-4.66-3.5-4.66-1.54,0-2.73,1.36-2.73,3.43s.97,3.37,2.93,3.37Z"/>
      <path class="cls-3" d="M544.31,238.65h-7.81v-1.72h10.1v1.23c-3.7,4.75-4.49,8.34-4.73,14.46h-2.09c.26-5.92,1.45-9.66,4.53-13.97Z"/>
      <path class="cls-3" d="M548.71,244.72c0-5.26,1.91-8.08,5.04-8.08s5.02,2.84,5.02,8.08-1.89,8.19-5.02,8.19-5.04-2.93-5.04-8.19ZM556.81,244.72c0-4.6-1.23-6.47-3.06-6.47s-3.08,1.87-3.08,6.47,1.23,6.58,3.08,6.58,3.06-1.98,3.06-6.58Z"/>
      <path class="cls-3" d="M519.04,305.38h3.59v-11.57h-2.86v-1.3c1.43-.24,2.46-.62,3.34-1.14h1.54v14.02h3.23v1.67h-8.85v-1.67Z"/>
      <path class="cls-3" d="M530.92,305.82c0-.92.66-1.56,1.45-1.56s1.45.64,1.45,1.56-.66,1.52-1.45,1.52-1.45-.62-1.45-1.52Z"/>
      <path class="cls-3" d="M537.36,305.38h3.59v-11.57h-2.86v-1.3c1.43-.24,2.46-.62,3.34-1.14h1.54v14.02h3.23v1.67h-8.85v-1.67Z"/>
      <path class="cls-3" d="M549.57,305.38h3.59v-11.57h-2.86v-1.3c1.43-.24,2.46-.62,3.34-1.14h1.54v14.02h3.23v1.67h-8.85v-1.67Z"/>
    </g>
    <line class="cls-2" y1="114.86" x2="569.02" y2="114.86"/>
    <line class="cls-2" y1="151.37" x2="569.02" y2="151.37"/>
    <line class="cls-2" y1="187.88" x2="569.02" y2="187.88"/>
    <line class="cls-2" y1="224.4" x2="569.02" y2="224.4"/>
    <line class="cls-2" y1="260.91" x2="569.02" y2="260.91"/>
    <line class="cls-2" y1="336.11" x2="569.02" y2="336.11"/>
    <line class="cls-2" x1="454.16" y1="114.86" x2="454.16" y2="336.11"/>
    <line class="cls-2" x1="337.79" y1="114.86" x2="337.79" y2="336.11"/>
    <line class="cls-2" x1="221.41" y1="114.86" x2="221.41" y2="336.11"/>
    <line class="cls-2" x1="105.04" y1="114.86" x2="105.04" y2="336.11"/>
    <g>
      <path class="cls-3" d="M433.23,82.07h3.97v-11.7h-3.35v-2.27c1.85-.35,3.12-.82,4.3-1.55h2.72v15.52h3.47v2.97h-11.12v-2.97Z"/>
      <path class="cls-3" d="M447.01,75.72c0-6.4,2.5-9.52,6.27-9.52s6.25,3.15,6.25,9.52-2.5,9.67-6.25,9.67-6.27-3.3-6.27-9.67ZM456.06,75.72c0-5.17-1.2-6.67-2.77-6.67s-2.8,1.5-2.8,6.67,1.2,6.8,2.8,6.8,2.77-1.6,2.77-6.8Z"/>
      <path class="cls-3" d="M461.43,72.02c0-3.7,1.85-5.82,4.5-5.82s4.52,2.12,4.52,5.82-1.87,5.9-4.52,5.9-4.5-2.17-4.5-5.9ZM467.86,72.02c0-2.72-.85-3.75-1.92-3.75s-1.9,1.03-1.9,3.75.82,3.82,1.9,3.82,1.92-1.1,1.92-3.82ZM476.6,66.2h2.17l-10.07,19.2h-2.15l10.05-19.2ZM474.88,79.5c0-3.72,1.88-5.85,4.5-5.85s4.52,2.12,4.52,5.85-1.9,5.9-4.52,5.9-4.5-2.2-4.5-5.9ZM481.3,79.5c0-2.72-.85-3.77-1.92-3.77s-1.92,1.05-1.92,3.77.85,3.8,1.92,3.8,1.92-1.07,1.92-3.8Z"/>
      <path class="cls-3" d="M504.28,74.07c1.65,2.1,2.4,3.85,2.4,5.95,0,3.72-3.35,6.42-8.77,6.42-3.9,0-6.65-1.7-6.65-5.82,0-.6.08-1.47.17-2.5-1.8-.17-3.42-.45-4.75-.82l.17-3c1.6.55,3.27.83,4.87.98.15-1.1.28-2.25.42-3.38-1.72-.17-3.47-.47-4.92-.87l.17-2.88c1.42.48,3.27.78,5.07.92.1-.75.15-1.42.2-1.97.05-.67.1-1.37.05-2.2l3.47.2c-.2.9-.32,1.55-.42,2.2-.07.42-.15,1.08-.27,1.88,1.77-.03,3.37-.12,4.55-.3l-.1,2.95c-1.47.15-2.83.22-4.82.22-.15,1.1-.3,2.27-.42,3.37h.17c1.52,0,3.35-.12,4.97-.3l-.08,2.95c-1.4.12-2.85.22-4.37.22h-1c-.05.73-.1,1.35-.1,1.8,0,2.02,1.25,3.15,3.7,3.15,3.45,0,5.35-1.57,5.35-3.62,0-1.67-.95-3.27-2.55-4.8l3.47-.75Z"/>
      <path class="cls-3" d="M513.46,75.4c-.82-.8-2.6-1.85-4-2.47l1.62-2.2c1.42.55,3.22,1.47,4.12,2.27l-1.75,2.4ZM515.23,78.47c-.85,2.75-1.92,5.72-2.95,8.22l-2.7-1.47c.95-2,2.3-5.3,3.25-8.3l2.4,1.55ZM514.66,68.8c-.83-.83-2.6-1.95-4.05-2.6l1.67-2.2c1.4.6,3.25,1.6,4.15,2.4l-1.77,2.4ZM532.43,72.25c-.75,3.25-1.82,6.12-3.25,8.57.4,1.75.82,2.8,1.27,2.82.35.03.6-1.25.72-3.55.48.58,1.62,1.3,2.1,1.52-.62,4.55-1.85,5.52-2.87,5.52-1.38-.02-2.42-1.25-3.2-3.47-1.08,1.3-2.3,2.42-3.65,3.37-.4-.5-1.37-1.45-1.95-1.9,1.92-1.17,3.5-2.7,4.77-4.57-.55-2.77-.9-6.32-1.1-10.42h-6.57v4.35c0,3.75-.35,9.2-2.45,12.7-.47-.48-1.6-1.22-2.22-1.5,1.9-3.22,2.07-7.82,2.07-11.2v-6.97h9.05c-.05-1.1-.07-2.22-.1-3.38h2.72c0,1.15.02,2.27.07,3.38h2.82c-.72-.7-1.8-1.53-2.77-2.1l1.6-1.5c1.12.62,2.55,1.62,3.2,2.4l-1.22,1.2h1.02v2.62h-4.52c.12,2.32.3,4.47.53,6.35.57-1.45,1.02-3.02,1.38-4.72l2.55.48ZM521.36,82.12v1.35h-1.95v-8.35h5.65v7h-3.7ZM524.85,73.72h-5.32v-2.17h5.32v2.17ZM521.36,77.27v2.67h1.72v-2.67h-1.72Z"/>
      <path class="cls-3" d="M542.31,67.77c-1.2,3.15-3.02,6.75-5.17,8.95-.7-.55-1.95-1.35-2.7-1.75,2.07-1.97,3.77-5.35,4.55-7.97l3.32.77ZM554.4,75.3c-2.45,7.7-7.42,10.6-16.45,12.02-.3-.95-.95-2.2-1.58-2.97,8.27-.92,12.8-3.3,14.82-9.97l3.2.92ZM547.71,63.88v12.12c0,1.57-.3,2.42-1.38,2.87-1.07.47-2.6.58-4.62.58-.12-.88-.6-2.22-1.05-3.07,1.42.05,2.97.05,3.42.02.45,0,.6-.1.6-.45v-12.07h3.02ZM552.83,66.62c2.02,2.47,4.32,5.82,5.2,8.22l-3.05,1.62c-.75-2.3-2.87-5.8-4.92-8.42l2.77-1.42Z"/>
    </g>
    <g>
      <path class="cls-3" d="M234.67,140.09h3.59v-12.04h-2.86v-1.28c1.43-.26,2.46-.64,3.34-1.17h1.54v14.48h3.23v1.67h-8.85v-1.67Z"/>
      <path class="cls-3" d="M246.02,133.64c0-5.61,1.96-8.32,5.04-8.32s5.02,2.73,5.02,8.32-1.96,8.41-5.02,8.41-5.04-2.79-5.04-8.41ZM254.12,133.64c0-4.71-1.23-6.71-3.06-6.71s-3.08,2-3.08,6.71,1.23,6.8,3.08,6.8,3.06-2.05,3.06-6.8Z"/>
      <path class="cls-3" d="M265.6,124.09c-.64,1.54-1.45,3.01-2.35,4.45v14.87h-1.65v-12.52c-.95,1.23-1.94,2.31-2.95,3.23-.18-.4-.66-1.21-.95-1.58,2.51-2.13,4.93-5.48,6.36-8.93l1.54.48ZM271.41,131.53c.75,5.83,2.18,9.77,4.53,9.99.64.04.99-1.25,1.21-3.78.33.31,1.03.7,1.36.86-.48,3.76-1.36,4.91-2.51,4.84-3.61-.26-5.37-4.82-6.21-11.68l-5.28.66-.22-1.54,5.32-.66c-.18-2.05-.33-4.22-.42-6.51h1.63c.07,2.22.2,4.36.42,6.29l6.58-.84.22,1.54-6.64.84ZM276.36,128.23c-.7-.99-2.24-2.53-3.54-3.61l1.19-.79c1.32,1.03,2.88,2.53,3.63,3.52l-1.28.88Z"/>
      <path class="cls-3" d="M286.54,128.32c-.55.97-1.19,1.94-1.91,2.88v12.3h-1.52v-10.52c-.81.88-1.65,1.69-2.49,2.35-.15-.33-.66-1.1-.92-1.43,2-1.5,4.09-3.78,5.39-6.09l1.45.51ZM286.06,123.92c-1.3,1.87-3.34,3.89-5.19,5.21-.22-.33-.64-.9-.92-1.19,1.72-1.14,3.65-3.04,4.62-4.58l1.5.55ZM298.21,135.14c-.84,1.91-2.16,3.48-3.74,4.71,1.74,1.03,3.81,1.8,6.01,2.24-.33.33-.77.95-.99,1.36-2.35-.53-4.49-1.45-6.31-2.68-2.05,1.3-4.42,2.18-6.82,2.73-.15-.42-.53-1.08-.84-1.39,2.22-.44,4.44-1.21,6.36-2.31-.97-.81-1.83-1.74-2.53-2.77-.86.75-1.76,1.41-2.66,1.96-.22-.31-.75-.95-1.1-1.19,2.09-1.14,4.16-2.88,5.48-4.82-1.89.07-3.65.11-5.08.15l-.13-1.5,3.39-.04c.48-.42,1.01-.84,1.52-1.32-1.03-1.06-2.71-2.42-4.18-3.39l.99-1.03c.42.26.86.55,1.3.88.97-1.01,2.09-2.35,2.77-3.39l1.43.75c-.97,1.17-2.11,2.46-3.1,3.43.75.57,1.45,1.17,1.96,1.69,1.5-1.41,2.93-2.93,3.94-4.2l1.45.81c-1.72,1.83-3.96,4-6.01,5.72,1.87-.04,3.89-.09,5.9-.13-.51-.68-1.08-1.36-1.63-1.96l1.28-.68c1.39,1.45,2.95,3.43,3.63,4.75l-1.36.79c-.22-.46-.57-1.01-.97-1.61l-5.3.2c-.35.62-.77,1.21-1.23,1.78h5.28l.26-.09,1.06.53ZM290.35,136.11c.7,1.08,1.65,2.05,2.79,2.88,1.17-.86,2.16-1.85,2.86-3.01h-5.54l-.11.13Z"/>
      <path class="cls-3" d="M321.94,137.19h-9.02v6.21h-1.67v-6.21h-8.85v-1.61h8.85v-3.54h-7.44v-1.61h7.44v-7.06h1.67v7.06h7.75v1.61h-7.75v3.54h9.02v1.61ZM306.98,129.46c-.44-1.3-1.5-3.39-2.53-4.93l1.47-.59c1.06,1.52,2.18,3.54,2.62,4.86l-1.56.66ZM319.94,124.49c-.88,1.69-2.05,3.7-2.95,4.97l-1.43-.57c.9-1.3,2.07-3.45,2.66-5.02l1.72.62Z"/>
    </g>
    <g>
      <path class="cls-3" d="M120.84,140.33h3.59v-12.04h-2.86v-1.28c1.43-.26,2.46-.64,3.34-1.17h1.54v14.48h3.23v1.67h-8.85v-1.67Z"/>
      <path class="cls-3" d="M132.19,133.88c0-5.61,1.96-8.32,5.04-8.32s5.02,2.73,5.02,8.32-1.96,8.41-5.02,8.41-5.04-2.79-5.04-8.41ZM140.28,133.88c0-4.71-1.23-6.71-3.06-6.71s-3.08,2-3.08,6.71,1.23,6.8,3.08,6.8,3.06-2.05,3.06-6.8Z"/>
      <path class="cls-3" d="M151.77,124.33c-.64,1.54-1.45,3.01-2.35,4.45v14.87h-1.65v-12.52c-.95,1.23-1.94,2.31-2.95,3.23-.18-.4-.66-1.21-.95-1.58,2.51-2.13,4.93-5.48,6.36-8.93l1.54.48ZM157.58,131.77c.75,5.83,2.18,9.77,4.53,9.99.64.04.99-1.25,1.21-3.78.33.31,1.03.7,1.36.86-.48,3.76-1.36,4.91-2.51,4.84-3.61-.26-5.37-4.82-6.21-11.68l-5.28.66-.22-1.54,5.32-.66c-.18-2.05-.33-4.22-.42-6.51h1.63c.07,2.22.2,4.36.42,6.29l6.58-.84.22,1.54-6.65.84ZM162.53,128.47c-.7-.99-2.24-2.53-3.54-3.61l1.19-.79c1.32,1.03,2.88,2.53,3.63,3.52l-1.28.88Z"/>
      <path class="cls-3" d="M186.09,127.06v1.5h-19.52v-1.5h5.39c-.4-.86-1.25-2.05-2-2.93l1.5-.57c.86.92,1.78,2.22,2.2,3.08l-1.08.42h6.56c.75-1.06,1.58-2.51,2.07-3.56l1.72.57c-.59,1.01-1.32,2.09-1.96,2.99h5.13ZM175.95,141.81c0,.84-.2,1.25-.79,1.52-.62.26-1.56.26-3.06.26-.09-.42-.31-1.03-.53-1.43,1.1.04,2.09.04,2.38.02.33-.02.42-.11.42-.4v-2.93h-4.86v4.73h-1.56v-13.07h8.01v11.29ZM169.5,131.93v2.16h4.86v-2.16h-4.86ZM174.36,137.56v-2.2h-4.86v2.2h4.86ZM180.13,139.67h-1.52v-8.93h1.52v8.93ZM183.03,130.08h1.61v11.55c0,.99-.22,1.43-.88,1.69-.7.26-1.8.31-3.48.29-.09-.44-.35-1.12-.59-1.56,1.34.04,2.53.04,2.86.02.37-.02.48-.11.48-.44v-11.55Z"/>
      <path class="cls-3" d="M208.11,137.43h-9.02v6.2h-1.67v-6.2h-8.85v-1.61h8.85v-3.54h-7.44v-1.61h7.44v-7.06h1.67v7.06h7.75v1.61h-7.75v3.54h9.02v1.61ZM193.15,129.7c-.44-1.3-1.5-3.39-2.53-4.93l1.47-.59c1.06,1.52,2.18,3.54,2.62,4.86l-1.56.66ZM206.11,124.73c-.88,1.69-2.05,3.7-2.95,4.97l-1.43-.57c.9-1.3,2.07-3.45,2.66-5.02l1.72.62Z"/>
    </g>
    <g>
      <path class="cls-3" d="M351.02,140.57c5.06-4.42,7.39-7.63,7.39-10.41,0-1.85-.97-3.19-2.97-3.19-1.32,0-2.46.81-3.34,1.87l-1.17-1.14c1.32-1.43,2.71-2.38,4.75-2.38,2.88,0,4.69,1.89,4.69,4.77,0,3.21-2.53,6.49-6.31,10.08.84-.07,1.83-.15,2.64-.15h4.47v1.74h-10.14v-1.19Z"/>
      <path class="cls-3" d="M363.34,133.64c0-5.61,1.96-8.32,5.04-8.32s5.02,2.73,5.02,8.32-1.96,8.41-5.02,8.41-5.04-2.79-5.04-8.41ZM371.44,133.64c0-4.71-1.23-6.71-3.06-6.71s-3.08,2-3.08,6.71,1.23,6.8,3.08,6.8,3.06-2.05,3.06-6.8Z"/>
      <path class="cls-3" d="M382.92,124.09c-.64,1.54-1.45,3.01-2.35,4.45v14.87h-1.65v-12.52c-.95,1.23-1.94,2.31-2.95,3.23-.18-.4-.66-1.21-.95-1.58,2.51-2.13,4.93-5.48,6.36-8.93l1.54.48ZM388.73,131.53c.75,5.83,2.18,9.77,4.53,9.99.64.04.99-1.25,1.21-3.78.33.31,1.03.7,1.36.86-.48,3.76-1.36,4.91-2.51,4.84-3.61-.26-5.37-4.82-6.21-11.68l-5.28.66-.22-1.54,5.32-.66c-.18-2.05-.33-4.22-.42-6.51h1.63c.07,2.22.2,4.36.42,6.29l6.58-.84.22,1.54-6.65.84ZM393.68,128.23c-.7-.99-2.24-2.53-3.54-3.61l1.19-.79c1.32,1.03,2.88,2.53,3.63,3.52l-1.28.88Z"/>
      <path class="cls-3" d="M417.25,126.82v1.5h-19.52v-1.5h5.39c-.4-.86-1.25-2.05-2-2.93l1.5-.57c.86.92,1.78,2.22,2.2,3.08l-1.08.42h6.56c.75-1.06,1.58-2.51,2.07-3.56l1.72.57c-.59,1.01-1.32,2.09-1.96,2.99h5.13ZM407.1,141.56c0,.84-.2,1.25-.79,1.52-.62.26-1.56.26-3.06.26-.09-.42-.31-1.03-.53-1.43,1.1.04,2.09.04,2.38.02.33-.02.42-.11.42-.4v-2.93h-4.86v4.73h-1.56v-13.07h8.01v11.29ZM400.66,131.69v2.16h4.86v-2.16h-4.86ZM405.52,137.32v-2.2h-4.86v2.2h4.86ZM411.28,139.43h-1.52v-8.93h1.52v8.93ZM414.19,129.84h1.61v11.55c0,.99-.22,1.43-.88,1.69-.7.26-1.8.31-3.48.29-.09-.44-.35-1.12-.59-1.56,1.34.04,2.53.04,2.86.02.37-.02.48-.11.48-.44v-11.55Z"/>
      <path class="cls-3" d="M439.27,137.19h-9.02v6.2h-1.67v-6.2h-8.85v-1.61h8.85v-3.54h-7.44v-1.61h7.44v-7.06h1.67v7.06h7.75v1.61h-7.75v3.54h9.02v1.61ZM424.31,129.46c-.44-1.3-1.5-3.39-2.53-4.93l1.47-.59c1.06,1.52,2.18,3.54,2.62,4.86l-1.56.66ZM437.27,124.49c-.88,1.69-2.05,3.7-2.95,4.97l-1.43-.57c.9-1.3,2.07-3.45,2.66-5.02l1.72.62Z"/>
    </g>
    <g>
      <path class="cls-3" d="M467.08,140.57c5.06-4.42,7.39-7.63,7.39-10.41,0-1.85-.97-3.19-2.97-3.19-1.32,0-2.46.81-3.34,1.87l-1.17-1.14c1.32-1.43,2.71-2.38,4.75-2.38,2.88,0,4.69,1.89,4.69,4.77,0,3.21-2.53,6.49-6.31,10.08.84-.07,1.83-.15,2.64-.15h4.47v1.74h-10.14v-1.19Z"/>
      <path class="cls-3" d="M479.4,133.64c0-5.61,1.96-8.32,5.04-8.32s5.02,2.73,5.02,8.32-1.96,8.41-5.02,8.41-5.04-2.79-5.04-8.41ZM487.5,133.64c0-4.71-1.23-6.71-3.06-6.71s-3.08,2-3.08,6.71,1.23,6.8,3.08,6.8,3.06-2.05,3.06-6.8Z"/>
      <path class="cls-3" d="M498.98,124.09c-.64,1.54-1.45,3.01-2.35,4.45v14.87h-1.65v-12.52c-.95,1.23-1.94,2.31-2.95,3.23-.18-.4-.66-1.21-.95-1.58,2.51-2.13,4.93-5.48,6.36-8.93l1.54.48ZM504.79,131.53c.75,5.83,2.18,9.77,4.53,9.99.64.04.99-1.25,1.21-3.78.33.31,1.03.7,1.36.86-.48,3.76-1.36,4.91-2.51,4.84-3.61-.26-5.37-4.82-6.21-11.68l-5.28.66-.22-1.54,5.32-.66c-.18-2.05-.33-4.22-.42-6.51h1.63c.07,2.22.2,4.36.42,6.29l6.58-.84.22,1.54-6.64.84ZM509.74,128.23c-.7-.99-2.24-2.53-3.54-3.61l1.19-.79c1.32,1.03,2.88,2.53,3.63,3.52l-1.28.88Z"/>
      <path class="cls-3" d="M519.93,128.32c-.55.97-1.19,1.94-1.91,2.88v12.3h-1.52v-10.52c-.81.88-1.65,1.69-2.49,2.35-.15-.33-.66-1.1-.92-1.43,2-1.5,4.09-3.78,5.39-6.09l1.45.51ZM519.44,123.92c-1.3,1.87-3.34,3.89-5.19,5.21-.22-.33-.64-.9-.92-1.19,1.72-1.14,3.65-3.04,4.62-4.58l1.5.55ZM531.59,135.14c-.84,1.91-2.16,3.48-3.74,4.71,1.74,1.03,3.81,1.8,6.01,2.24-.33.33-.77.95-.99,1.36-2.35-.53-4.49-1.45-6.31-2.68-2.05,1.3-4.42,2.18-6.82,2.73-.15-.42-.53-1.08-.84-1.39,2.22-.44,4.44-1.21,6.36-2.31-.97-.81-1.83-1.74-2.53-2.77-.86.75-1.76,1.41-2.66,1.96-.22-.31-.75-.95-1.1-1.19,2.09-1.14,4.16-2.88,5.48-4.82-1.89.07-3.65.11-5.08.15l-.13-1.5,3.39-.04c.48-.42,1.01-.84,1.52-1.32-1.03-1.06-2.71-2.42-4.18-3.39l.99-1.03c.42.26.86.55,1.3.88.97-1.01,2.09-2.35,2.77-3.39l1.43.75c-.97,1.17-2.11,2.46-3.1,3.43.75.57,1.45,1.17,1.96,1.69,1.5-1.41,2.93-2.93,3.94-4.2l1.45.81c-1.72,1.83-3.96,4-6.01,5.72,1.87-.04,3.89-.09,5.9-.13-.51-.68-1.08-1.36-1.63-1.96l1.28-.68c1.39,1.45,2.95,3.43,3.63,4.75l-1.36.79c-.22-.46-.57-1.01-.97-1.61l-5.3.2c-.35.62-.77,1.21-1.23,1.78h5.28l.26-.09,1.06.53ZM523.73,136.11c.7,1.08,1.65,2.05,2.79,2.88,1.17-.86,2.16-1.85,2.86-3.01h-5.54l-.11.13Z"/>
      <path class="cls-3" d="M555.33,137.19h-9.02v6.21h-1.67v-6.21h-8.85v-1.61h8.85v-3.54h-7.44v-1.61h7.44v-7.06h1.67v7.06h7.75v1.61h-7.75v3.54h9.02v1.61ZM540.36,129.46c-.44-1.3-1.5-3.39-2.53-4.93l1.47-.59c1.06,1.52,2.18,3.54,2.62,4.86l-1.56.66ZM553.32,124.49c-.88,1.69-2.05,3.7-2.95,4.97l-1.43-.57c.9-1.3,2.07-3.45,2.66-5.02l1.72.62Z"/>
    </g>
    <polygon class="cls-2" points="569.52 56.12 417.84 56.12 417.84 94.73 488.22 94.73 486.7 103.79 494.59 94.73 569.52 94.73 569.52 56.12"/>
    <g>
      <path class="cls-3" d="M374.41,178.42l1.01-1.32c.95.99,2.18,1.85,4,1.85s3.28-1.12,3.28-2.88c0-1.87-1.3-3.1-5.02-3.1v-1.54c3.32,0,4.47-1.3,4.47-2.95,0-1.52-1.06-2.49-2.73-2.49-1.3,0-2.44.66-3.34,1.58l-1.08-1.25c1.21-1.14,2.64-1.96,4.51-1.96,2.71,0,4.69,1.43,4.69,3.98,0,1.89-1.17,3.1-2.86,3.72v.09c1.89.46,3.41,1.85,3.41,4,0,2.79-2.31,4.47-5.17,4.47-2.53,0-4.11-1.06-5.17-2.2Z"/>
      <path class="cls-3" d="M387.92,178.66h3.59v-11.57h-2.86v-1.3c1.43-.24,2.46-.62,3.34-1.14h1.54v14.02h3.23v1.67h-8.85v-1.67Z"/>
      <path class="cls-3" d="M399.36,183.33c1.39-.62,2.2-1.69,2.2-2.99-.09.02-.15.02-.24.02-.77,0-1.47-.48-1.47-1.41,0-.86.7-1.41,1.52-1.41,1.06,0,1.69.9,1.69,2.38,0,2.11-1.23,3.76-3.21,4.6l-.48-1.19Z"/>
      <path class="cls-3" d="M413.2,166.36h-7.81v-1.72h10.1v1.23c-3.7,4.75-4.49,8.34-4.73,14.46h-2.09c.26-5.92,1.45-9.66,4.53-13.97Z"/>
      <path class="cls-3" d="M425.41,166.36h-7.81v-1.72h10.1v1.23c-3.7,4.75-4.49,8.34-4.73,14.46h-2.09c.26-5.92,1.45-9.66,4.53-13.97Z"/>
      <path class="cls-3" d="M429.81,172.44c0-5.26,1.91-8.08,5.04-8.08s5.02,2.84,5.02,8.08-1.89,8.19-5.02,8.19-5.04-2.93-5.04-8.19ZM437.9,172.44c0-4.6-1.23-6.47-3.06-6.47s-3.08,1.87-3.08,6.47,1.23,6.58,3.08,6.58,3.06-1.98,3.06-6.58Z"/>
      <path class="cls-3" d="M375.71,214.66h3.59v-11.57h-2.86v-1.3c1.43-.24,2.46-.62,3.34-1.14h1.54v14.02h3.23v1.67h-8.85v-1.67Z"/>
      <path class="cls-3" d="M387.17,209.1c0-6.31,2.84-8.74,5.98-8.74,1.67,0,2.88.7,3.76,1.65l-1.12,1.25c-.64-.77-1.61-1.23-2.57-1.23-2.22,0-4.07,1.69-4.16,6.69,1.01-1.21,2.4-1.96,3.67-1.96,2.71,0,4.47,1.63,4.47,4.82,0,3.01-2.11,5.04-4.62,5.04-3.1,0-5.41-2.51-5.41-7.53ZM389.11,210.35c.26,3.06,1.47,4.71,3.45,4.71,1.56,0,2.75-1.39,2.75-3.48s-.97-3.32-2.9-3.32c-1.01,0-2.24.55-3.3,2.09Z"/>
      <path class="cls-3" d="M399.36,219.33c1.39-.62,2.2-1.69,2.2-2.99-.09.02-.15.02-.24.02-.77,0-1.47-.48-1.47-1.41,0-.86.7-1.41,1.52-1.41,1.06,0,1.69.9,1.69,2.38,0,2.11-1.23,3.76-3.21,4.6l-.48-1.19Z"/>
      <path class="cls-3" d="M413.2,202.36h-7.81v-1.72h10.1v1.23c-3.7,4.75-4.49,8.34-4.73,14.46h-2.09c.26-5.92,1.45-9.66,4.53-13.97Z"/>
      <path class="cls-3" d="M425.41,202.36h-7.81v-1.72h10.1v1.23c-3.7,4.75-4.49,8.34-4.73,14.46h-2.09c.26-5.92,1.45-9.66,4.53-13.97Z"/>
      <path class="cls-3" d="M429.37,214.42l1.01-1.32c.95.99,2.18,1.85,4,1.85s3.28-1.12,3.28-2.88c0-1.87-1.3-3.1-5.02-3.1v-1.54c3.32,0,4.47-1.3,4.47-2.95,0-1.52-1.06-2.49-2.73-2.49-1.3,0-2.44.66-3.34,1.58l-1.08-1.25c1.21-1.14,2.64-1.96,4.51-1.96,2.71,0,4.69,1.43,4.69,3.98,0,1.89-1.17,3.1-2.86,3.72v.09c1.89.46,3.41,1.85,3.41,4,0,2.79-2.31,4.47-5.17,4.47-2.53,0-4.11-1.06-5.17-2.2Z"/>
      <path class="cls-3" d="M375.71,250.66h3.59v-11.57h-2.86v-1.3c1.43-.24,2.46-.62,3.34-1.14h1.54v14.02h3.23v1.67h-8.85v-1.67Z"/>
      <path class="cls-3" d="M393.46,248h-7.04v-1.32l6.71-10.03h2.22v9.75h2.13v1.61h-2.13v4.33h-1.89v-4.33ZM393.46,246.4v-4.6c0-.81.07-2.16.11-2.99h-.09c-.4.75-.84,1.43-1.3,2.2l-3.67,5.39h4.95Z"/>
      <path class="cls-3" d="M399.36,255.33c1.39-.62,2.2-1.69,2.2-2.99-.09.02-.15.02-.24.02-.77,0-1.47-.48-1.47-1.41,0-.86.7-1.41,1.52-1.41,1.06,0,1.69.9,1.69,2.38,0,2.11-1.23,3.76-3.21,4.6l-.48-1.19Z"/>
      <path class="cls-3" d="M405.59,250.97l1.12-1.25c.62.77,1.58,1.23,2.57,1.23,2.2,0,4.07-1.72,4.16-6.73-1.01,1.25-2.4,2.02-3.67,2.02-2.73,0-4.49-1.65-4.49-4.86,0-2.99,2.11-5.02,4.62-5.02,3.1,0,5.41,2.51,5.41,7.55,0,6.29-2.84,8.71-5.96,8.71-1.67,0-2.9-.7-3.76-1.65ZM410.1,244.75c1.01,0,2.29-.64,3.3-2.13-.26-3.04-1.5-4.66-3.5-4.66-1.54,0-2.73,1.36-2.73,3.43s.97,3.37,2.93,3.37Z"/>
      <path class="cls-3" d="M417.8,250.97l1.12-1.25c.62.77,1.58,1.23,2.57,1.23,2.2,0,4.07-1.72,4.16-6.73-1.01,1.25-2.4,2.02-3.67,2.02-2.73,0-4.49-1.65-4.49-4.86,0-2.99,2.11-5.02,4.62-5.02,3.1,0,5.41,2.51,5.41,7.55,0,6.29-2.84,8.71-5.96,8.71-1.67,0-2.9-.7-3.76-1.65ZM422.31,244.75c1.01,0,2.29-.64,3.3-2.13-.26-3.04-1.5-4.66-3.5-4.66-1.54,0-2.73,1.36-2.73,3.43s.97,3.37,2.93,3.37Z"/>
      <path class="cls-3" d="M437.62,238.36h-7.81v-1.72h10.1v1.23c-3.7,4.75-4.49,8.34-4.73,14.46h-2.09c.26-5.92,1.45-9.66,4.53-13.97Z"/>
      <path class="cls-3" d="M400.13,305.09h3.59v-11.57h-2.86v-1.3c1.43-.24,2.46-.62,3.34-1.14h1.54v14.02h3.23v1.67h-8.85v-1.67Z"/>
      <path class="cls-3" d="M412.01,305.53c0-.92.66-1.56,1.45-1.56s1.45.64,1.45,1.56-.66,1.52-1.45,1.52-1.45-.62-1.45-1.52Z"/>
      <path class="cls-3" d="M418.46,305.09h3.59v-11.57h-2.86v-1.3c1.43-.24,2.46-.62,3.34-1.14h1.54v14.02h3.23v1.67h-8.85v-1.67Z"/>
      <path class="cls-3" d="M429.7,305.57c4.73-4.71,7.39-7.52,7.39-10.1,0-1.78-.97-3.06-2.97-3.06-1.32,0-2.46.84-3.34,1.87l-1.17-1.12c1.32-1.43,2.71-2.38,4.75-2.38,2.88,0,4.69,1.83,4.69,4.6,0,2.95-2.68,5.88-6.4,9.79.84-.07,1.8-.15,2.64-.15h4.55v1.74h-10.14v-1.19Z"/>
    </g>
    <g>
      <path class="cls-3" d="M20.07,78.93v18.99h-1.67v-1.06H3.63v1.06h-1.63v-18.99h18.07ZM18.39,95.3v-14.81H3.63v14.81h14.76ZM15.97,94.11c-1.12-1.03-2.84-2.22-4.75-3.37-1.69,1.61-3.61,2.93-5.72,3.98-.22-.31-.73-.99-1.08-1.28,2-.92,3.81-2.09,5.39-3.5-1.54-.84-3.15-1.61-4.64-2.22l.92-1.1c1.54.62,3.23,1.41,4.84,2.27,1.87-1.94,3.37-4.22,4.42-6.84l1.52.44c-1.14,2.75-2.68,5.13-4.55,7.15,1.87,1.08,3.54,2.2,4.64,3.19l-.99,1.28ZM6.97,86.46c-.29-1.08-1.14-2.68-1.98-3.85l1.21-.55c.9,1.17,1.78,2.73,2.09,3.79l-1.32.62ZM10.74,85.95c-.18-1.1-.84-2.82-1.58-4.11l1.3-.44c.77,1.28,1.5,2.97,1.69,4.07l-1.41.48Z"/>
      <path class="cls-3" d="M41.96,89.45c-1.39,1.12-3.19,2.31-4.67,3.17,1.47,1.8,3.46,3.12,5.92,3.87-.37.31-.84.99-1.06,1.43-4.69-1.58-7.5-5.13-9.04-10.1-.9.9-2.02,1.78-3.26,2.57v4.97c1.74-.42,3.61-.88,5.43-1.34l.18,1.45c-3.45.92-7.2,1.85-9.81,2.51l-.53-1.5c.88-.2,1.94-.44,3.08-.73v-4.38c-1.47.79-3.01,1.47-4.42,1.94-.26-.42-.73-.99-1.06-1.34,2.86-.81,6.18-2.44,8.34-4.27h-7.61v-1.43h8.69v-1.98h-6.89v-1.34h6.89v-1.8h-7.88v-1.43h7.88v-1.83h1.63v1.83h8.01v1.43h-8.01v1.8h7.17v1.34h-7.17v1.98h8.76v1.43h-7.88c.46,1.41,1.06,2.71,1.85,3.85,1.41-.9,3.1-2.13,4.16-3.12l1.3,1.01Z"/>
      <path class="cls-3" d="M44.75,87.95c0-5.66,4.6-10.25,10.25-10.25s10.25,4.6,10.25,10.25-4.64,10.25-10.25,10.25-10.25-4.6-10.25-10.25ZM64.55,87.95c0-5.28-4.27-9.55-9.55-9.55s-9.55,4.31-9.55,9.55,4.27,9.55,9.55,9.55,9.55-4.27,9.55-9.55ZM50.69,92.15l.88-1.17c.77.73,1.76,1.34,3.28,1.34,1.43,0,2.44-.77,2.44-1.94,0-1.28-.97-2.11-3.96-2.11v-1.34c2.62,0,3.54-.81,3.54-1.96,0-1.06-.79-1.7-2.09-1.7-1.01,0-1.94.42-2.68,1.14l-.95-1.12c.97-.88,2.18-1.45,3.67-1.45,2.27,0,3.87,1.08,3.87,3.01,0,1.32-.92,2.16-2.24,2.64v.07c1.5.37,2.68,1.34,2.68,2.9,0,2.05-1.89,3.3-4.25,3.3-1.96,0-3.37-.73-4.2-1.63Z"/>
    </g>
  </g>
</svg>