<?xml version="1.0" encoding="UTF-8"?>
<svg id="_レイヤー_2" data-name="レイヤー_2" xmlns="http://www.w3.org/2000/svg" viewBox="0 0 483.49 548.39">
  <defs>
    <style>
      .cls-1 {
        fill: #fff;
      }

      .cls-2 {
        fill: none;
        stroke: #fff;
        stroke-miterlimit: 10;
      }
    </style>
  </defs>
  <g id="_レイヤー_1-2" data-name="レイヤー_1">
    <g>
      <line class="cls-2" x1="482.95" y1=".5" y2=".5"/>
      <line class="cls-2" x1="0" y1="37.05" x2="482.95" y2="37.05"/>
      <line class="cls-2" x1="0" y1="73.59" x2="482.95" y2="73.59"/>
      <line class="cls-2" x1="0" y1="110.14" x2="482.95" y2="110.14"/>
      <line class="cls-2" x1="0" y1="146.69" x2="482.95" y2="146.69"/>
      <line class="cls-2" x1="0" y1="183.24" x2="482.95" y2="183.24"/>
      <line class="cls-2" x1="0" y1="219.78" x2="482.95" y2="219.78"/>
      <line class="cls-2" x1="0" y1="256.33" x2="482.95" y2="256.33"/>
      <line class="cls-2" x1="0" y1="292.88" x2="482.95" y2="292.88"/>
      <line class="cls-2" x1="0" y1="329.43" x2="482.95" y2="329.43"/>
      <line class="cls-2" x1="0" y1="365.97" x2="482.95" y2="365.97"/>
      <g>
        <path class="cls-1" d="M28.87,54.91c-1.32,1.1-3.08,2.24-4.55,3.1,1.41,2.27,3.28,4.03,5.65,4.95-.37.33-.86.97-1.12,1.41-4.16-1.89-6.71-6.07-8.08-11.29h-.04c-.66.55-1.43,1.08-2.24,1.54,4.2,3.63,4.25,9.29,2.09,10.78-.73.57-1.34.73-2.33.73-.53.02-1.21,0-1.91-.04-.04-.44-.18-1.12-.46-1.56.81.09,1.56.11,2.05.11.59,0,1.08-.04,1.52-.42.79-.59,1.17-2.2.73-4.07-2.4,1.98-6.03,3.92-9.07,4.93-.2-.4-.55-1.01-.86-1.36,3.3-.9,7.28-2.97,9.44-4.99-.2-.48-.46-.95-.77-1.41-1.85,1.36-4.77,2.86-7.02,3.67-.2-.37-.57-.95-.88-1.28,2.35-.66,5.46-2.09,7.15-3.39-.31-.33-.64-.66-1.01-.99-1.72.86-3.63,1.56-5.39,2.09-.18-.31-.64-.99-.9-1.28,2.66-.66,5.57-1.72,7.63-3.06h-4.69v-1.41h12.3v1.41h-3.87c.35,1.3.84,2.53,1.41,3.67,1.36-.86,2.95-2,3.98-2.93l1.25,1.08ZM12.59,52.29h-1.61v-4.33h8.18v-1.94h1.63v1.94h8.36v4.33h-1.67v-2.82h-14.9v2.82Z"/>
        <path class="cls-1" d="M35.38,49.98c-.84.64-1.72,1.21-2.53,1.67-.24-.31-.84-.9-1.19-1.17,2.16-1.06,4.44-2.73,5.81-4.49l1.5.55c-.57.75-1.28,1.47-2.02,2.13v5.11h-1.56v-3.81ZM40.22,63.71c-1.8.99-4.58,1.92-6.78,2.44-.26-.31-.81-.92-1.19-1.21,2.27-.42,4.91-1.12,6.49-1.89l1.47.66ZM35.07,54.6h14.21v8.23h-14.21v-8.23ZM36.66,57.02h11v-1.36h-11v1.36ZM36.66,59.38h11v-1.34h-11v1.34ZM36.66,61.77h11v-1.36h-11v1.36ZM43.96,48.02c-1.47.11-2.97.18-4.36.22-.04-.31-.2-.77-.33-1.06,3.48-.15,7.68-.46,9.99-.92l.97,1.03c-1.3.24-2.95.46-4.71.62v1.58h6.18v1.21h-6.18v1.58h5.19v1.21h-11.6v-1.21h4.84v-1.58h-5.76v-1.21h5.76v-1.47ZM45.15,63.09c2.4.64,5.02,1.54,6.62,2.18l-1.87.81c-1.36-.62-3.72-1.45-6.14-2.18l1.39-.81Z"/>
        <path class="cls-1" d="M28.7,96.18c-1.47,1.06-3.37,2.16-5.02,2.99,1.69.99,3.81,1.65,6.23,2-.35.33-.77.99-.99,1.41-4.73-.81-8.23-2.86-10.1-6.36h-3.43v4.29l5.66-.53.02,1.45c-3.43.37-7.02.73-9.53.95l-.24-1.52c.73-.07,1.56-.13,2.49-.22v-11.64c-.95.59-1.96,1.12-2.95,1.58-.2-.37-.62-.97-.97-1.32,3.72-1.61,7.39-4.36,9.15-6.8h1.61c2.4,2.75,6.2,5.28,9.62,6.56-.37.4-.77.99-1.06,1.43-.95-.42-1.94-.95-2.93-1.52v7.17c.44-.31.86-.62,1.21-.88l1.23.95ZM25.53,88.5c-2.18-1.36-4.27-2.99-5.61-4.55-1.21,1.47-3.15,3.12-5.32,4.55h4.53v-2.18h1.65v2.18h4.75ZM15.38,91.69h9.26v-1.85h-9.26v1.85ZM15.38,94.88h9.26v-1.94h-9.26v1.94ZM20.47,96.22c.53.81,1.19,1.52,2,2.13,1.14-.57,2.49-1.36,3.61-2.13h-5.61Z"/>
        <path class="cls-1" d="M40.22,100.21c-1.8.99-4.58,1.91-6.78,2.44-.26-.31-.81-.92-1.19-1.21,2.27-.42,4.91-1.12,6.49-1.89l1.47.66ZM35.05,92.37c-.59.15-1.23.31-1.96.46-.15-.35-.48-.97-.77-1.25,2.9-.55,4.53-1.28,5.43-2.18h-2.99l-.11.29-1.52-.09c.46-.99.92-2.38,1.3-3.54h4.38v-1.25h-5.37v-1.08h5.37v-1.21h1.5v1.21h3.39v-1.21h1.54v1.21h4.88v3.41h-4.88v1.19h6.29s-.02.33-.04.53c-.15,1.34-.29,1.98-.64,2.33-.26.26-.62.37-1.06.4h-.53v7.75h-14.21v-6.95ZM35.18,88.32h3.3c.18-.37.26-.77.29-1.19h-3.17l-.42,1.19ZM47.64,92.15h-11v1.36h11v-1.36ZM47.64,94.53h-11v1.34h11v-1.34ZM47.64,96.9h-11v1.36h11v-1.36ZM45.24,89.4v1.65h-1.54v-1.65h-4.03c-.33.62-.86,1.19-1.65,1.69h9.77c-.07-.22-.15-.46-.24-.64.68.04,1.3.07,1.52.07.26,0,.4-.02.53-.11.11-.13.2-.44.29-1.01h-4.64ZM43.7,87.14h-3.41c-.02.42-.09.81-.18,1.19h3.59v-1.19ZM40.31,86.06h3.39v-1.25h-3.39v1.25ZM45.09,99.55c2.42.66,5.06,1.56,6.69,2.2l-1.74.86c-1.41-.64-3.81-1.47-6.27-2.2l1.32-.86ZM45.24,84.8v1.25h3.41v-1.25h-3.41Z"/>
        <path class="cls-1" d="M61.67,82.07l1.32.68c-2.53,2.62-4.09,5.88-4.09,9.79s1.56,7.17,4.09,9.79l-1.32.68c-2.64-2.68-4.38-6.18-4.38-10.47s1.74-7.79,4.38-10.47Z"/>
        <path class="cls-1" d="M80.51,92.61c1.56,1.47,3.34,2.68,5.08,3.48-.37.31-.88.95-1.17,1.39-1.32-.68-2.66-1.63-3.92-2.73v7.79h-1.67v-9.4c-1.25-1.34-2.4-2.82-3.28-4.31-1.61,6.93-4.91,11.31-9.09,13.64-.29-.37-.9-.97-1.3-1.21,2.62-1.36,4.86-3.5,6.51-6.47-1.01-.97-2.68-2.2-4.2-3.12-.46.62-.95,1.19-1.45,1.69-.26-.29-.97-.81-1.34-1.06,2.42-2.24,4.25-5.88,5.26-9.81l1.61.33c-.29,1.03-.62,2.07-.99,3.04h4.14l.31-.09,1.06.4c-.09.64-.22,1.25-.33,1.85l.86-.33c.59,1.1,1.36,2.18,2.24,3.21v-8.38h1.67v10.1ZM69.94,87.38c-.51,1.1-1.03,2.13-1.63,3.06,1.43.84,3.06,1.94,4.11,2.88.77-1.74,1.39-3.72,1.8-5.94h-4.29Z"/>
        <path class="cls-1" d="M105.7,96.18c-1.47,1.06-3.37,2.16-5.02,2.99,1.69.99,3.81,1.65,6.23,2-.35.33-.77.99-.99,1.41-4.73-.81-8.23-2.86-10.1-6.36h-3.43v4.29l5.66-.53.02,1.45c-3.43.37-7.02.73-9.53.95l-.24-1.52c.73-.07,1.56-.13,2.49-.22v-11.64c-.95.59-1.96,1.12-2.95,1.58-.2-.37-.62-.97-.97-1.32,3.72-1.61,7.39-4.36,9.15-6.8h1.61c2.4,2.75,6.2,5.28,9.62,6.56-.37.4-.77.99-1.06,1.43-.95-.42-1.94-.95-2.93-1.52v7.17c.44-.31.86-.62,1.21-.88l1.23.95ZM102.53,88.5c-2.18-1.36-4.27-2.99-5.61-4.55-1.21,1.47-3.15,3.12-5.32,4.55h4.53v-2.18h1.65v2.18h4.75ZM92.38,91.69h9.26v-1.85h-9.26v1.85ZM92.38,94.88h9.26v-1.94h-9.26v1.94ZM97.47,96.22c.53.81,1.19,1.52,2,2.13,1.14-.57,2.49-1.36,3.61-2.13h-5.61Z"/>
        <path class="cls-1" d="M119.6,82.47c2.44,2.55,6.25,4.73,9.64,5.83-.35.35-.75.95-.99,1.36-1.58-.59-3.3-1.43-4.91-2.42v1.19h-8.49v-1.25c-1.56,1.01-3.3,1.92-5.06,2.64-.2-.37-.59-.95-.92-1.3,3.72-1.36,7.39-3.81,9.2-6.05h1.54ZM125.56,90.59c-.68,1.36-1.58,2.95-2.44,4.31h2.79v7.7h-1.67v-.86h-10.39v.86h-1.61v-7.7h8.96c.64-.99,1.34-2.2,1.91-3.21h-11.24v-1.43h12.15l.31-.11,1.23.44ZM124.24,96.36h-10.39v3.94h10.39v-3.94ZM123.01,87.05c-1.58-.99-3.04-2.09-4.09-3.21-.95,1.06-2.31,2.18-3.87,3.21h7.96Z"/>
        <path class="cls-1" d="M137.86,85.55v.99c1.39-.15,2.84-.42,4.22-.79v1.69c-1.36.31-2.86.53-4.22.66v3.32c.35.51.55,1.19.55,1.96,0,1.23-.29,2.75-1.17,3.74-.02.46-.04.99-.04,1.39,0,1.21.33,1.69,3.52,1.69,1.23,0,2.95-.18,3.74-.4,1.14-.33,1.83-.99,1.83-2.44,0-.88-.02-1.61-.13-2.49l1.87.57c.02.9.04,1.47,0,2.38-.09,2.07-.86,3.04-2.86,3.56-.95.26-3.1.44-4.55.44-4.42,0-5.06-1.03-5.06-2.68,0-.35,0-.71.02-1.06-.22.04-.46.07-.7.07-1.23,0-2.84-.92-2.84-3.48,0-2.27,1.45-4.33,3.61-4.33.22,0,.42.02.59.04v-2.18c-.29.02-.55.02-.81.02-.95,0-2.22-.07-3.5-.22l-.09-1.63c1.3.2,2.4.31,3.48.31.31,0,.62,0,.92-.02v-1.12c0-.88-.04-1.63-.18-2.09h1.94c-.07.46-.13,1.28-.13,2.09ZM136.82,93.47c0-1.06-.51-1.69-1.28-1.69-1.1,0-2.02,1.17-2.02,2.82,0,1.23.73,1.94,1.52,1.94,1.32,0,1.78-1.58,1.78-3.06ZM150.09,89.73l-1.23,1.25c-1.08-1.39-3.08-3.28-4.29-4.16l1.12-1.14c1.3.88,3.41,2.82,4.4,4.05Z"/>
        <path class="cls-1" d="M153.26,103.02l-1.32-.68c2.53-2.62,4.09-5.88,4.09-9.79s-1.56-7.17-4.09-9.79l1.32-.68c2.64,2.68,4.38,6.18,4.38,10.47s-1.74,7.79-4.38,10.47Z"/>
        <path class="cls-1" d="M18.03,124.95c-1.1,5.76-3.76,9.84-6.98,12.01-.26-.4-.92-1.03-1.3-1.3,2.86-1.78,5.19-5.06,6.25-9.44h-5.72v-1.63h6.42l.24-.07,1.08.42ZM29.42,123.61c-1.74,1.91-4.11,4.22-6.01,5.7,1.69,2.97,3.98,5.37,6.89,6.62-.4.33-.97.99-1.23,1.47-3.81-1.87-6.45-5.57-8.19-10.08v9.44c0,1.17-.31,1.69-1.03,2-.73.29-2,.33-4.03.33-.07-.48-.4-1.3-.66-1.78,1.58.07,2.99.04,3.43.04.44-.02.59-.15.59-.59v-17.71h1.69v3.98c.46,1.74,1.08,3.41,1.85,4.97,1.76-1.54,3.92-3.74,5.21-5.46l1.47,1.06Z"/>
        <path class="cls-1" d="M36.81,134.63c1.03,1.61,2.95,2.35,5.48,2.46,2.4.09,7.28.02,9.86-.15-.18.4-.46,1.17-.53,1.67-2.4.09-6.91.13-9.33.04-2.86-.11-4.82-.9-6.23-2.6-1.06.92-2.16,1.87-3.32,2.82l-.88-1.65c1.01-.66,2.24-1.58,3.34-2.51v-5.57h-3.06v-1.54h4.66v7.02ZM36.13,124.01c-.68-1.06-2.31-2.51-3.74-3.48l1.21-.99c1.41.92,3.06,2.33,3.83,3.39l-1.3,1.08ZM43.39,124.89c.11-.55.24-1.17.33-1.74h-5.83v-1.36h3.72c-.29-.68-.84-1.56-1.39-2.24l1.25-.48c.68.7,1.36,1.74,1.63,2.49l-.57.24h3.59c.53-.79,1.19-2,1.54-2.79l1.63.42c-.46.81-1.01,1.69-1.5,2.38h3.98v1.36h-6.27c-.2.59-.42,1.21-.62,1.74h5.17v10.38h-10.43v-10.38h3.76ZM48.45,126.14h-7.28v1.83h7.28v-1.83ZM48.45,129.15h-7.28v1.83h7.28v-1.83ZM48.45,132.17h-7.28v1.85h7.28v-1.85Z"/>
        <path class="cls-1" d="M71.42,137.52c.86,0,1.01-.55,1.12-3.7.35.31,1.06.59,1.5.73-.2,3.54-.64,4.49-2.49,4.49h-3.17c-1.94,0-2.49-.53-2.49-2.38v-7.77h-4.05c-.42,4.8-1.52,8.38-7,10.19-.18-.4-.66-1.08-1.01-1.39,5.13-1.54,5.94-4.64,6.29-8.8h-5.85v-1.56h8.84v-8.34h1.63v8.34h9.04v1.56h-6.25v7.75c0,.73.18.88,1.01.88h2.86ZM58.7,126.07c-.4-1.43-1.5-3.74-2.6-5.46l1.47-.55c1.12,1.67,2.27,3.92,2.66,5.39l-1.54.62ZM72.12,120.44c-.9,1.89-2.09,4.16-3.06,5.57l-1.36-.55c.95-1.47,2.13-3.87,2.77-5.63l1.65.62Z"/>
        <path class="cls-1" d="M80.31,124.67c-.31,1.85-1.17,2.95-3.52,3.56-.13-.31-.48-.79-.75-1.01,1.98-.44,2.71-1.19,2.95-2.55h-2.55v-1.23h4.03v-1.65h-3.19v-1.21h3.19v-1.47h1.5v1.47h3.26v1.21h-3.26v1.65h3.96v1.23h-2.64v1.41c0,.35.02.4.37.4h.97c.33,0,.4-.11.44-1.1.24.2.73.35,1.08.46-.11,1.36-.46,1.74-1.32,1.74h-1.34c-1.17,0-1.43-.31-1.43-1.5v-1.41h-1.74ZM76.17,138.46c1.08-.86,2.11-2.38,2.71-3.83l1.5.42c-.57,1.47-1.58,3.08-2.68,4.05l-1.52-.64ZM94.61,132.39c.15,0,.29-.02.37-.11.09-.09.13-.31.18-.73.02-.42.04-1.39.04-2.64.29.26.75.48,1.12.59-.02,1.14-.09,2.53-.18,2.97-.09.51-.26.81-.53.99-.24.18-.57.26-.95.26h-.86c-.4,0-.81-.13-1.1-.4-.29-.29-.4-.64-.4-2.11v-7.64h-2.11c-.07,1.34-.2,2.6-.4,3.76.9.64,1.72,1.3,2.24,1.83l-.77,1.34c-.44-.46-1.08-1.03-1.8-1.61-.57,2.18-1.56,3.92-3.24,5.21-.22-.35-.73-.84-1.06-1.08l.22-.15c-3.3.35-6.67.7-9.04.95l-.15-1.41c1.17-.07,2.64-.2,4.25-.35v-2h-3.5v-1.25h3.5v-1.58h1.5v1.58h3.43v1.25h-3.43v1.85c1.28-.11,2.62-.26,3.94-.4l.02.9c1.19-1.17,1.89-2.66,2.29-4.47-.68-.51-1.39-.99-2.05-1.39l.73-1.17c.51.31,1.06.64,1.61,1.01.11-.88.2-1.83.24-2.84h-2.38v-1.47h2.44c.02-.99.04-2.02.04-3.12h1.5c-.02,1.1-.02,2.13-.07,3.12h3.54v9.2c0,.55.02.9.09,1.01.07.07.18.07.29.07h.42ZM84.07,135.05c.29,1.19.48,2.71.51,3.63l-1.58.2c-.02-.95-.18-2.49-.44-3.7l1.52-.13ZM88.58,134.88c.53,1.17,1.1,2.71,1.28,3.65l-1.61.33c-.18-.97-.68-2.51-1.21-3.7l1.54-.29ZM93.09,134.57c1.03,1.21,2.24,2.86,2.82,3.96l-1.63.57c-.51-1.08-1.67-2.77-2.71-4.03l1.52-.51Z"/>
        <path class="cls-1" d="M106.22,136.7c-1.8.99-4.58,1.91-6.78,2.44-.26-.31-.81-.92-1.19-1.21,2.27-.42,4.91-1.12,6.49-1.89l1.47.66ZM101.05,128.87c-.59.15-1.23.31-1.96.46-.15-.35-.48-.97-.77-1.25,2.9-.55,4.53-1.28,5.43-2.18h-2.99l-.11.29-1.52-.09c.46-.99.92-2.38,1.3-3.54h4.38v-1.25h-5.37v-1.08h5.37v-1.21h1.5v1.21h3.39v-1.21h1.54v1.21h4.88v3.41h-4.88v1.19h6.29s-.02.33-.04.53c-.15,1.34-.29,1.98-.64,2.33-.26.26-.62.37-1.06.4h-.53v7.75h-14.21v-6.95ZM101.18,124.82h3.3c.18-.37.26-.77.29-1.19h-3.17l-.42,1.19ZM113.64,128.65h-11v1.36h11v-1.36ZM113.64,131.02h-11v1.34h11v-1.34ZM113.64,133.4h-11v1.36h11v-1.36ZM111.24,125.9v1.65h-1.54v-1.65h-4.03c-.33.62-.86,1.19-1.65,1.69h9.77c-.07-.22-.15-.46-.24-.64.68.04,1.3.07,1.52.07.26,0,.4-.02.53-.11.11-.13.2-.44.29-1.01h-4.64ZM109.7,123.63h-3.41c-.02.42-.09.81-.18,1.19h3.59v-1.19ZM106.31,122.55h3.39v-1.25h-3.39v1.25ZM111.09,136.04c2.42.66,5.06,1.56,6.69,2.2l-1.74.86c-1.41-.64-3.81-1.47-6.27-2.2l1.32-.86ZM111.24,121.3v1.25h3.41v-1.25h-3.41Z"/>
        <path class="cls-1" d="M14.75,171.17c1.06,1.65,2.95,2.38,5.52,2.46,2.4.11,7.42.04,10.03-.13-.18.37-.42,1.12-.51,1.61-2.44.11-7.11.15-9.53.04-2.88-.11-4.86-.88-6.21-2.62-1.12.97-2.29,1.91-3.54,2.84l-.79-1.58c1.06-.66,2.31-1.58,3.43-2.49v-5.65h-3.17v-1.54h4.75v7.06ZM14.02,160.66c-.68-1.08-2.27-2.62-3.65-3.65l1.14-1.01c1.39.99,3.01,2.46,3.72,3.54l-1.21,1.12ZM18.55,172.3h-1.54v-11.31h6.27c-1.3-.64-2.86-1.34-4.18-1.83l1.03-.92c.95.33,2.02.77,3.06,1.21,1.06-.46,2.13-1.1,3.01-1.74h-9.17v-1.3h10.74l.31-.09,1.01.77c-1.17,1.1-2.82,2.2-4.44,3.01.64.31,1.21.62,1.69.88h2.77v9.68c0,.79-.18,1.19-.75,1.43-.57.22-1.5.24-2.97.24-.07-.4-.26-.97-.46-1.34,1.03.04,1.98.02,2.24.02.29,0,.37-.09.37-.37v-2h-3.83v3.56h-1.47v-3.56h-3.7v3.65ZM18.55,162.24v1.94h3.7v-1.94h-3.7ZM22.25,167.39v-2h-3.7v2h3.7ZM27.55,162.24h-3.83v1.94h3.83v-1.94ZM27.55,167.39v-2h-3.83v2h3.83Z"/>
        <path class="cls-1" d="M38.66,156.01c-.62,1.54-1.39,3.1-2.24,4.53v14.96h-1.54v-12.61c-.79,1.1-1.61,2.07-2.44,2.9-.15-.35-.64-1.21-.92-1.58,2.22-2.09,4.36-5.35,5.63-8.67l1.52.46ZM52.08,159.56v1.36h-14.21v-1.36h14.21ZM39.43,168.64h11.18v6.87h-1.63v-.97h-7.96v1.03h-1.58v-6.93ZM50.41,163.93h-10.74v-1.34h10.74v1.34ZM39.67,165.63h10.69v1.32h-10.69v-1.32ZM50.01,157.88h-10.08v-1.34h10.08v1.34ZM41.02,169.96v3.23h7.96v-3.23h-7.96Z"/>
        <path class="cls-1" d="M62.22,173.2c-1.8.99-4.58,1.91-6.78,2.44-.26-.31-.81-.92-1.19-1.21,2.27-.42,4.91-1.12,6.49-1.89l1.47.66ZM57.05,165.36c-.59.15-1.23.31-1.96.46-.15-.35-.48-.97-.77-1.25,2.9-.55,4.53-1.28,5.43-2.18h-2.99l-.11.29-1.52-.09c.46-.99.92-2.38,1.3-3.54h4.38v-1.25h-5.37v-1.08h5.37v-1.21h1.5v1.21h3.39v-1.21h1.54v1.21h4.88v3.41h-4.88v1.19h6.29s-.02.33-.04.53c-.15,1.34-.29,1.98-.64,2.33-.26.26-.62.37-1.06.4h-.53v7.75h-14.21v-6.95ZM57.18,161.32h3.3c.18-.37.26-.77.29-1.19h-3.17l-.42,1.19ZM69.64,165.15h-11v1.36h11v-1.36ZM69.64,167.52h-11v1.34h11v-1.34ZM69.64,169.9h-11v1.36h11v-1.36ZM67.24,162.39v1.65h-1.54v-1.65h-4.03c-.33.62-.86,1.19-1.65,1.69h9.77c-.07-.22-.15-.46-.24-.64.68.04,1.3.07,1.52.07.26,0,.4-.02.53-.11.11-.13.2-.44.29-1.01h-4.64ZM65.7,160.13h-3.41c-.02.42-.09.81-.18,1.19h3.59v-1.19ZM62.31,159.05h3.39v-1.25h-3.39v1.25ZM67.09,172.54c2.42.66,5.06,1.56,6.69,2.2l-1.74.86c-1.41-.64-3.81-1.47-6.27-2.2l1.32-.86ZM67.24,157.8v1.25h3.41v-1.25h-3.41Z"/>
        <path class="cls-1" d="M83.67,155.07l1.32.68c-2.53,2.62-4.09,5.88-4.09,9.79s1.56,7.17,4.09,9.79l-1.32.68c-2.64-2.68-4.38-6.18-4.38-10.47s1.74-7.79,4.38-10.47Z"/>
        <path class="cls-1" d="M101.96,160.15c-.75,1.89-2.13,4.47-3.7,6.45,2.31,1.98,5,4.84,6.43,6.58l-1.54,1.32c-1.47-1.94-3.81-4.53-6.05-6.53-2.35,2.53-5.32,4.95-8.58,6.42l-1.41-1.47c3.54-1.39,6.8-4,9.07-6.54,1.5-1.69,3.1-4.29,3.65-6.12h-8.58c-.77,0-1.98.09-2.22.11v-2c.31.04,1.56.13,2.22.13h8.49c.73,0,1.3-.07,1.65-.18l1.12.86c-.13.18-.42.66-.55.97Z"/>
        <path class="cls-1" d="M123.78,160.63c-1.58,2.57-4.38,6.16-8.01,8.93,1.32,1.32,2.88,2.97,3.76,4.05l-1.61,1.28c-.81-1.12-2.57-3.06-3.96-4.49-1.32-1.32-3.87-3.52-5.04-4.33l1.43-1.17c.81.59,2.62,2.07,4.12,3.41,3.23-2.42,5.76-5.65,6.86-7.63h-12.94c-.86,0-1.8.09-2.24.13v-1.98c.62.09,1.47.18,2.24.18h13.11c.62,0,1.12-.07,1.43-.18l1.39,1.12c-.22.24-.42.48-.55.68Z"/>
        <path class="cls-1" d="M127.69,171.57l-1.52-1.03c1.47-1.34,3.34-3.96,4.2-5.74l1.54.75c-.92,1.87-2.97,4.69-4.22,6.03ZM136.63,158.21v2.27h5.81c.53,0,1.25-.04,1.8-.11v1.83c-.59-.04-1.25-.07-1.78-.07h-5.83v10.67c0,1.14-.55,1.74-1.89,1.74-.92,0-2.22-.04-3.12-.15l-.15-1.74c.97.18,1.96.24,2.53.24s.86-.24.86-.84v-9.92h-6.09c-.68,0-1.3.02-1.89.09v-1.87c.62.09,1.17.13,1.87.13h6.12v-2.27c0-.46-.07-1.23-.15-1.56h2.07c-.04.31-.13,1.1-.13,1.56ZM144.92,170.56l-1.63.9c-.86-1.74-2.51-4.47-3.67-5.85l1.5-.81c1.19,1.41,2.93,4.18,3.81,5.76Z"/>
        <path class="cls-1" d="M147.1,172.71c5.06-4.42,7.39-7.63,7.39-10.41,0-1.85-.97-3.19-2.97-3.19-1.32,0-2.46.81-3.34,1.87l-1.17-1.14c1.32-1.43,2.71-2.38,4.75-2.38,2.88,0,4.69,1.89,4.69,4.77,0,3.21-2.53,6.49-6.31,10.08.84-.07,1.83-.15,2.64-.15h4.47v1.74h-10.14v-1.19Z"/>
        <path class="cls-1" d="M173.3,158.02c2.22,1.76,4.82,4.33,5.94,6.14l-1.41,1.08c-.37-.62-.92-1.34-1.56-2.11-5.99.33-12.32.55-16.35.73l-.11-1.63c.97-.02,2.09-.07,3.3-.11,1.3-1.96,2.79-4.66,3.65-6.69l1.8.62c-1.01,1.96-2.33,4.2-3.56,5.98,3.01-.11,6.47-.26,9.88-.42-.92-.95-1.91-1.87-2.86-2.66l1.28-.92ZM162.39,166.27h13.93v9.26h-1.74v-.92h-10.54v.97h-1.65v-9.31ZM164.04,167.81v5.24h10.54v-5.24h-10.54Z"/>
        <path class="cls-1" d="M181.48,170.23l1.43-1.25c1.58,1.28,3.56,3.28,4.93,4.88l-1.5,1.28c-1.41-1.74-3.3-3.63-4.86-4.91Z"/>
        <path class="cls-1" d="M210.04,158.48v17.03h-1.69v-1.12h-11.73v1.23h-1.63v-17.14h5.52c.33-.97.68-2.16.86-3.01l1.87.24c-.33.95-.73,1.94-1.1,2.77h7.9ZM196.62,160.04v3.28h11.73v-3.28h-11.73ZM196.62,164.86v3.19h11.73v-3.19h-11.73ZM208.35,172.85v-3.26h-11.73v3.26h11.73Z"/>
        <path class="cls-1" d="M230.59,173.88c1.28,0,1.47-.57,1.61-3.32.4.31,1.14.55,1.63.68-.26,3.3-.79,4.22-3.15,4.22h-4.91c-2.55,0-3.28-.57-3.28-2.71v-4.07l-7.72.9-.22-1.58,7.94-.88v-3.26c-1.78.35-3.61.66-5.33.9-.07-.4-.31-1.03-.51-1.39,4.38-.68,9.35-1.72,12.08-2.97l1.34,1.3c-1.61.68-3.65,1.28-5.85,1.78v3.43l9.55-1.08.22,1.52-9.77,1.12v4.27c0,.92.24,1.12,1.65,1.12h4.71ZM216.82,162.46h-1.65v-4.67h8.27v-2.29h1.69v2.29h8.43v4.67h-1.69v-3.15h-15.05v3.15Z"/>
        <path class="cls-1" d="M235.91,157.75h2.09l1.69,8.8c.31,1.74.64,3.48.95,5.21h.09c.37-1.74.77-3.48,1.17-5.21l2.22-8.8h1.87l2.24,8.8c.4,1.72.77,3.45,1.14,5.21h.11c.31-1.76.62-3.5.92-5.21l1.69-8.8h1.96l-3.34,16.15h-2.44l-2.44-9.73c-.29-1.28-.53-2.44-.79-3.67h-.09c-.26,1.23-.55,2.4-.81,3.67l-2.4,9.73h-2.42l-3.41-16.15Z"/>
        <path class="cls-1" d="M256.35,158.15c0-.77.55-1.3,1.34-1.3s1.34.53,1.34,1.3c0,.81-.55,1.34-1.34,1.34s-1.34-.53-1.34-1.34ZM256.68,161.95h2v11.95h-2v-11.95Z"/>
        <path class="cls-1" d="M261.72,166.97h5.63v1.54h-5.63v-1.54Z"/>
        <path class="cls-1" d="M270.54,157.75h9.31v1.74h-7.26v5.46h6.16v1.72h-6.16v7.24h-2.05v-16.15Z"/>
        <path class="cls-1" d="M282.18,158.15c0-.77.55-1.3,1.34-1.3s1.34.53,1.34,1.3c0,.81-.55,1.34-1.34,1.34s-1.34-.53-1.34-1.34ZM282.51,161.95h2v11.95h-2v-11.95Z"/>
        <path class="cls-1" d="M288.86,176.01l-1.32-.68c2.53-2.62,4.09-5.88,4.09-9.79s-1.56-7.17-4.09-9.79l1.32-.68c2.64,2.68,4.38,6.18,4.38,10.47s-1.74,7.79-4.38,10.47Z"/>
        <path class="cls-1" d="M27.24,193.5v18.24h-1.72v-1.34h-10.91v1.43h-1.65v-18.33h14.28ZM14.61,195.11v5.94h10.91v-5.94h-10.91ZM25.53,208.79v-6.14h-10.91v6.14h10.91Z"/>
        <path class="cls-1" d="M50.45,209.87c0,1.06-.29,1.54-.99,1.83-.75.26-2.02.29-4.09.26-.07-.44-.33-1.14-.55-1.58,1.54.07,3.04.04,3.43.04.44-.02.59-.15.59-.57v-4.47h-5.92v6.49h-1.63v-6.49h-5.5c-.33,2.44-1.08,4.95-2.75,6.82-.24-.33-.9-.88-1.25-1.08,2.42-2.73,2.64-6.6,2.64-9.66v-7.92h16.02v16.33ZM41.3,203.82v-3.65h-5.26v1.3c0,.73-.02,1.54-.09,2.35h5.35ZM36.04,195.11v3.52h5.26v-3.52h-5.26ZM48.85,195.11h-5.92v3.52h5.92v-3.52ZM48.85,203.82v-3.65h-5.92v3.65h5.92Z"/>
        <path class="cls-1" d="M54.9,202.52h7.77v9.37h-1.61v-.99h-4.6v1.19h-1.56v-9.57ZM56.46,204.11v5.21h4.6v-5.21h-4.6ZM70.06,200.21h-11.97v-7.28h11.97v7.28ZM68.41,194.49h-8.74v4.16h8.74v-4.16ZM73.25,202.52v9.42h-1.61v-1.03h-5v1.19h-1.58v-9.57h8.19ZM71.64,209.32v-5.21h-5v5.21h5Z"/>
        <path class="cls-1" d="M82.84,202.04c0,1.3-1.03,2.33-2.33,2.33s-2.33-1.03-2.33-2.33,1.03-2.33,2.33-2.33,2.33,1.03,2.33,2.33Z"/>
        <path class="cls-1" d="M92.74,205.32c.88.62,3.21,2.42,3.74,2.9l-.92,1.28c-.53-.62-1.8-1.78-2.82-2.66v5.21h-1.5v-5.41c-1.06,1.67-2.4,3.26-3.65,4.29-.2-.4-.59-.99-.9-1.3,1.52-1.06,3.17-3.06,4.2-5.04h-3.65v-1.39h4v-2.35h1.5v2.35h3.72v1.39h-3.72v.73ZM95.51,200.12c.13,0,.26-.02.33-.04.07-.04.15-.09.2-.24s.09-.53.11-.95c.24.18.64.37.99.48-.04.53-.11,1.1-.22,1.32-.13.24-.31.37-.51.48-.2.09-.55.13-.81.13h-.88c-.37,0-.79-.09-1.03-.31-.26-.26-.35-.59-.35-1.69v-3.45h-1.89c-.31,2.07-1.17,4.27-3.63,6.07-.22-.33-.77-.79-1.1-.99,2.16-1.5,2.97-3.34,3.28-5.08h-2.66v-1.43h2.82c.02-.31.02-.62.02-.9v-1.54h1.41v1.58c0,.29,0,.57-.02.86h3.17v5c0,.35.02.57.09.62.04.07.13.09.24.09h.46ZM107.1,211.01h-8.12v1.01h-1.5v-13.88c-.24.31-.48.59-.73.86-.29-.24-.92-.68-1.3-.9,1.54-1.5,2.84-3.83,3.61-6.18l1.47.37c-.37,1.12-.86,2.24-1.41,3.28h2.97c.51-1.06,1.06-2.49,1.36-3.52l1.61.4c-.42,1.03-.92,2.18-1.39,3.12h3.12v1.45h-3.3v3.04h3.1v1.41h-3.1v3.1h3.17v1.43h-3.17v3.54h3.59v1.47ZM102,197.02h-3.01v3.04h3.01v-3.04ZM102,201.46h-3.01v3.1h3.01v-3.1ZM98.99,209.54h3.01v-3.54h-3.01v3.54Z"/>
        <path class="cls-1" d="M117.22,209.69c-1.8.99-4.58,1.91-6.78,2.44-.26-.31-.81-.92-1.19-1.21,2.27-.42,4.91-1.12,6.49-1.89l1.47.66ZM112.05,201.86c-.59.15-1.23.31-1.96.46-.15-.35-.48-.97-.77-1.25,2.9-.55,4.53-1.28,5.43-2.18h-2.99l-.11.29-1.52-.09c.46-.99.92-2.38,1.3-3.54h4.38v-1.25h-5.37v-1.08h5.37v-1.21h1.5v1.21h3.39v-1.21h1.54v1.21h4.88v3.41h-4.88v1.19h6.29s-.02.33-.04.53c-.15,1.34-.29,1.98-.64,2.33-.26.26-.62.37-1.06.4h-.53v7.75h-14.21v-6.95ZM112.18,197.81h3.3c.18-.37.26-.77.29-1.19h-3.17l-.42,1.19ZM124.64,201.64h-11v1.36h11v-1.36ZM124.64,204.02h-11v1.34h11v-1.34ZM124.64,206.39h-11v1.36h11v-1.36ZM122.24,198.89v1.65h-1.54v-1.65h-4.03c-.33.62-.86,1.19-1.65,1.69h9.77c-.07-.22-.15-.46-.24-.64.68.04,1.3.07,1.52.07.26,0,.4-.02.53-.11.11-.13.2-.44.29-1.01h-4.64ZM120.7,196.62h-3.41c-.02.42-.09.81-.18,1.19h3.59v-1.19ZM117.31,195.55h3.39v-1.25h-3.39v1.25ZM122.09,209.03c2.42.66,5.06,1.56,6.69,2.2l-1.74.86c-1.41-.64-3.81-1.47-6.27-2.2l1.32-.86ZM122.24,194.29v1.25h3.41v-1.25h-3.41Z"/>
        <path class="cls-1" d="M27.71,231.47v17.03h-1.69v-1.12h-11.73v1.23h-1.63v-17.14h5.52c.33-.97.68-2.16.86-3.01l1.87.24c-.33.95-.73,1.94-1.1,2.77h7.9ZM14.28,233.03v3.28h11.73v-3.28h-11.73ZM14.28,237.85v3.19h11.73v-3.19h-11.73ZM26.01,245.84v-3.26h-11.73v3.26h11.73Z"/>
        <path class="cls-1" d="M51.58,233.58s-.02.62-.02.84c-.24,9.22-.44,12.28-1.19,13.2-.37.57-.81.75-1.47.81-.62.09-1.65.07-2.66,0-.04-.44-.22-1.12-.46-1.54,1.06.09,2.02.11,2.44.11.37,0,.57-.07.79-.35.51-.64.77-3.54.99-11.53h-3.15c-.26,5.85-1.28,10.65-5.15,13.55-.24-.35-.81-.9-1.21-1.17.35-.24.66-.51.95-.77-3.32.4-6.73.77-9.2,1.03l-.24-1.43c1.32-.11,2.97-.26,4.77-.44v-1.89h-4.16v-1.25h4.16v-1.34h-4.11v-6.54h4.11v-1.39h-4.75v-1.28h4.75v-1.45c-1.41.11-2.84.2-4.14.24-.07-.35-.22-.88-.4-1.21,3.26-.18,7.22-.57,9.48-1.08l.81,1.25c-1.19.26-2.68.46-4.29.64v1.61h4.66v1.28h-4.66v1.39h4.27v6.54h-4.27v1.34h4.31v1.25h-4.31v1.74c1.43-.13,2.93-.29,4.4-.46v.09c1.89-2.6,2.49-6.14,2.68-10.25h-2.57v-1.54h2.62c.04-1.54.04-3.15.04-4.82h1.54c0,1.65,0,3.28-.04,4.82h4.67ZM34,237.59h2.77v-1.58h-2.77v1.58ZM36.77,240.27v-1.61h-2.77v1.61h2.77ZM38.24,236v1.58h2.88v-1.58h-2.88ZM41.12,238.66h-2.88v1.61h2.88v-1.61Z"/>
        <path class="cls-1" d="M73.86,245.38h-9.09v3.26h-1.65v-3.26h-8.89v-1.47h8.89v-1.8h-6.6v-8.51h6.6v-1.61h-8.23v-1.5h8.23v-1.98h1.65v1.98h8.34v1.5h-8.34v1.61h6.78v8.51h-6.78v1.8h9.09v1.47ZM58.09,237.19h5.04v-2.24h-5.04v2.24ZM63.12,240.76v-2.27h-5.04v2.27h5.04ZM64.78,234.95v2.24h5.15v-2.24h-5.15ZM69.92,238.49h-5.15v2.27h5.15v-2.27Z"/>
        <path class="cls-1" d="M78.63,236.51v12.08h-1.61v-19.17h7.96v7.08h-6.36ZM78.63,230.66v1.69h4.82v-1.69h-4.82ZM83.45,235.3v-1.83h-4.82v1.83h4.82ZM95.09,246.63c0,.88-.18,1.36-.77,1.65-.55.26-1.5.29-2.88.29-.04-.4-.24-1.03-.44-1.45-.09.13-.18.26-.22.37-2.16-.57-3.76-1.72-4.77-3.3-.64,1.23-2.02,2.46-4.95,3.37-.2-.31-.64-.81-.97-1.1,3.1-.86,4.31-2.11,4.75-3.26h-4.55v-1.25h4.8v-1.72h-4.42v-1.23h2.35c-.22-.57-.59-1.28-.99-1.78l1.28-.42c.53.68,1.03,1.58,1.19,2.2h2.86c.37-.68.84-1.58,1.06-2.24l1.47.48c-.37.59-.77,1.23-1.12,1.76h2.6v1.23h-4.82v1.72h5.19v1.25h-4.84c.92,1.56,2.57,2.64,4.82,3.08-.2.18-.44.46-.64.73.92.04,1.78.04,2.05.02.29,0,.37-.11.37-.42v-10.08h-6.56v-7.11h8.16v17.21ZM88.49,230.66v1.69h4.99v-1.69h-4.99ZM93.49,235.34v-1.87h-4.99v1.87h4.99Z"/>
        <path class="cls-1" d="M102.44,244.17c1.03,1.63,2.97,2.38,5.54,2.46,2.42.11,7.48.04,10.12-.13-.2.37-.46,1.12-.53,1.61-2.46.11-7.11.15-9.57.04-2.88-.11-4.86-.88-6.23-2.6-.97.95-1.98,1.87-3.06,2.82l-.86-1.56c.92-.68,2.05-1.61,3.04-2.53v-5.63h-2.79v-1.54h4.33v7.06ZM101.78,233.63c-.66-1.1-2.13-2.62-3.48-3.67l1.25-.92c1.34,1.01,2.86,2.51,3.54,3.59l-1.32,1.01ZM109.61,243.35h-6.25v-1.39h6.25v-1.54h-4.86v-7.11h4.86v-1.5h-5.92v-1.39h5.92v-1.94h1.58v1.94h6.23v1.39h-6.23v1.5h5.08v7.11h-5.08v1.54h6.56v1.39h-6.56v2.51h-1.58v-2.51ZM106.24,236.29h3.37v-1.76h-3.37v1.76ZM109.61,239.19v-1.76h-3.37v1.76h3.37ZM111.2,234.53v1.76h3.52v-1.76h-3.52ZM114.72,237.43h-3.52v1.76h3.52v-1.76Z"/>
        <path class="cls-1" d="M127.67,228.06l1.32.68c-2.53,2.62-4.09,5.88-4.09,9.79s1.56,7.17,4.09,9.79l-1.32.68c-2.64-2.68-4.38-6.18-4.38-10.47s1.74-7.79,4.38-10.47Z"/>
        <path class="cls-1" d="M140.52,231.62c-.02.79-.07,1.54-.11,2.27h5.24c.59,0,1.03-.04,1.41-.11l1.23.62c-.07.37-.11.79-.11,1.08-.09,2.11-.35,8.52-1.34,10.63-.44.95-1.14,1.34-2.35,1.34-1.12,0-2.4-.07-3.54-.15l-.22-1.83c1.19.15,2.35.24,3.28.24.64,0,1.03-.18,1.28-.7.84-1.69,1.12-7.11,1.12-9.46h-6.16c-.79,6.34-3.08,9.66-6.75,12.19l-1.61-1.3c.7-.37,1.61-.99,2.27-1.63,2.18-1.98,3.76-4.73,4.36-9.26h-3.7c-.86,0-1.76,0-2.53.09v-1.85c.77.07,1.67.11,2.51.11h3.87c.04-.7.09-1.45.09-2.22,0-.51-.07-1.32-.15-1.83h2.07c-.07.48-.11,1.25-.13,1.78ZM148.29,232.66l-1.19.53c-.44-.88-1.19-2.2-1.78-3.04l1.17-.51c.55.79,1.34,2.13,1.8,3.01ZM150.73,231.76l-1.17.53c-.48-.95-1.21-2.2-1.83-3.01l1.17-.51c.57.81,1.43,2.18,1.83,2.99Z"/>
        <path class="cls-1" d="M157.72,237.32l-1.76.99c-.95-1.96-2.77-5.08-3.67-6.36l1.74-.88c.97,1.43,2.9,4.82,3.7,6.25ZM163.14,239.79c1.69-2.51,2.4-5.13,2.75-7.17.11-.57.2-1.41.18-1.8l2.2.31c-.18.57-.35,1.34-.44,1.74-.53,2.62-1.41,5.37-3.01,7.86-1.72,2.64-4.2,5.13-7.79,6.78l-1.65-1.39c3.65-1.5,6.14-3.87,7.77-6.32Z"/>
        <path class="cls-1" d="M174.38,231.95v7.35c0,.55.04,1.28.09,1.67h-2.02c.04-.33.11-1.03.11-1.69v-7.33c0-.4-.04-1.17-.09-1.58h2c-.04.42-.09,1.06-.09,1.58ZM184.61,232.11v3.56c0,5.28-.73,7.02-2.31,8.91-1.43,1.72-3.63,2.66-5.24,3.21l-1.43-1.52c2.02-.51,3.89-1.39,5.26-2.93,1.56-1.83,1.83-3.61,1.83-7.77v-3.48c0-.75-.04-1.36-.11-1.91h2.07c-.04.55-.07,1.17-.07,1.91Z"/>
        <path class="cls-1" d="M197.87,242.3c3.39-2.13,6.07-5.39,7.35-8.1l1.06,1.87c-1.5,2.75-4.07,5.74-7.39,7.83-2.2,1.39-4.97,2.73-8.65,3.41l-1.17-1.8c3.85-.57,6.71-1.92,8.8-3.21ZM196.58,235.32l-1.39,1.39c-1.1-1.14-3.85-3.5-5.48-4.6l1.25-1.34c1.56,1.03,4.38,3.32,5.61,4.55Z"/>
        <path class="cls-1" d="M214.57,238.53c0,1.3-1.03,2.33-2.33,2.33s-2.33-1.03-2.33-2.33,1.03-2.33,2.33-2.33,2.33,1.03,2.33,2.33Z"/>
        <path class="cls-1" d="M225.4,229.01c-.64,1.58-1.39,3.15-2.24,4.58v14.94h-1.56v-12.54c-.75,1.06-1.56,2-2.35,2.82-.18-.35-.64-1.21-.92-1.58,2.18-2.09,4.29-5.35,5.54-8.67l1.54.46ZM233.45,240.69c1.45,2.31,3.67,4.53,5.79,5.68-.35.29-.88.88-1.17,1.3-1.96-1.28-4.07-3.56-5.57-5.96v6.89h-1.63v-6.82c-1.54,2.42-3.74,4.62-5.88,5.85-.29-.4-.77-.99-1.14-1.3,2.27-1.12,4.6-3.3,6.07-5.63h-5.43v-1.5h6.38v-2.73h-4.75v-6.95h11.33v6.95h-4.95v2.73h6.16v1.5h-5.21ZM227.66,235.01h8.16v-4.03h-8.16v4.03Z"/>
        <path class="cls-1" d="M248.03,230.02c-.68,1.83-1.56,4.16-2.35,6.01,1.69,1.72,2.16,3.21,2.18,4.55,0,1.19-.29,2.07-.92,2.49-.33.24-.75.37-1.19.42-.48.04-1.06.07-1.63.02-.02-.42-.18-1.03-.4-1.45.53.04,1.06.04,1.39.02.29,0,.57-.07.77-.2.35-.22.48-.81.48-1.47-.02-1.17-.51-2.55-2.18-4.18.68-1.65,1.39-3.76,1.89-5.3h-3.04v17.65h-1.45v-19.14h5.13l.24-.07,1.08.66ZM255.41,242.63c1.25,2.71,3.04,3.78,5.63,4.67-.37.35-.77.92-.95,1.39-2.62-.99-4.49-2.29-5.83-5.08-.77,2-2.55,3.85-6.43,5.08-.15-.35-.62-.97-.88-1.23,3.98-1.23,5.52-2.95,6.07-4.82h-4.44v-5.59h4.75v-1.91h-3.45v-1.19c-.62.42-1.28.81-1.94,1.14-.18-.4-.53-.97-.81-1.32,2.51-1.17,4.95-3.3,6.14-5.26h1.5c1.58,2.11,4.09,4.05,6.4,5.02-.29.35-.64.95-.86,1.41-.59-.29-1.21-.64-1.8-1.03v1.23h-3.7v1.91h5v5.59h-4.4ZM253.29,241.31c.02-.35.04-.73.04-1.08v-1.87h-3.3v2.95h3.26ZM258.29,233.74c-1.63-1.1-3.17-2.46-4.2-3.81-.88,1.28-2.29,2.66-3.92,3.81h8.12ZM254.81,238.36v1.91c0,.35-.02.68-.04,1.03h3.54v-2.95h-3.5Z"/>
        <path class="cls-1" d="M270.85,232.83c1.14-.18,2.33-.44,3.45-.81l.04,1.65c-1.17.33-2.55.62-4,.81-1.08,3.1-3.04,6.91-4.8,9.29l-1.69-.88c1.83-2.13,3.7-5.65,4.71-8.23-.66.04-1.32.07-1.96.07-.81,0-1.74-.02-2.57-.07l-.11-1.65c.81.11,1.76.15,2.68.15.79,0,1.63-.04,2.49-.11.33-1.23.64-2.62.68-3.81l1.94.18c-.2.79-.51,2.13-.86,3.41ZM276.88,238.6c.02.81.11,2.24.15,3.61,1.89.68,3.43,1.76,4.58,2.73l-.95,1.5c-.95-.84-2.13-1.83-3.56-2.53.02.35.02.66.02.92,0,1.76-1.12,3.19-3.85,3.19-2.42,0-4.4-.99-4.4-3.17,0-2.02,1.91-3.3,4.4-3.3.75,0,1.47.07,2.16.22-.09-1.8-.2-3.98-.24-5.54h1.72c-.04.9-.04,1.58-.02,2.38ZM273.05,246.43c1.83,0,2.44-.97,2.44-2.18,0-.29,0-.62-.02-.99-.7-.22-1.47-.33-2.27-.33-1.61,0-2.71.75-2.71,1.76s.84,1.74,2.55,1.74ZM276.26,233.78l.9-1.34c1.58.7,4.09,2.13,5.13,2.93l-.99,1.45c-1.19-1.01-3.56-2.38-5.04-3.04Z"/>
        <path class="cls-1" d="M292.21,236.6c1.94-1.17,3.94-2.13,5.15-2.82.62-.37,1.1-.66,1.56-1.03l.88,1.61c-.48.29-1.03.57-1.67.9-1.5.79-3.96,1.94-6.09,3.37-2.05,1.32-3.28,2.77-3.28,4.45,0,1.83,1.74,2.97,5.21,2.97,2.4,0,5.33-.31,7.04-.75l-.02,1.96c-1.65.31-4.2.55-6.95.55-4.14,0-7.11-1.23-7.11-4.53,0-2.29,1.43-4.07,3.81-5.7-1.01-1.83-2.18-4.4-3.21-6.78l1.74-.73c.88,2.42,2,4.8,2.95,6.53ZM301.98,232.88l-1.19.53c-.44-.9-1.19-2.22-1.8-3.06l1.19-.51c.55.79,1.34,2.13,1.8,3.04ZM304.45,231.95l-1.17.53c-.48-.95-1.21-2.2-1.85-3.04l1.17-.48c.59.79,1.43,2.18,1.85,2.99Z"/>
        <path class="cls-1" d="M306.07,249.01l-1.32-.68c2.53-2.62,4.09-5.88,4.09-9.79s-1.56-7.17-4.09-9.79l1.32-.68c2.64,2.68,4.38,6.18,4.38,10.47s-1.74,7.79-4.38,10.47Z"/>
        <path class="cls-1" d="M29.8,282.8v1.58H10.3v-1.58h8.91v-5.59h-6.54v-1.58h6.54v-4.8h-5.17c-.7,1.39-1.47,2.6-2.29,3.59-.33-.26-1.06-.75-1.5-.97,1.8-1.94,3.21-4.97,4.07-8.1l1.65.35c-.35,1.21-.75,2.4-1.23,3.52h4.47v-4.22h1.67v4.22h7.88v1.61h-7.88v4.8h7.06v1.58h-7.06v5.59h8.91Z"/>
        <path class="cls-1" d="M42.64,264.93c2.46,2.93,6.4,5.68,9.95,7.08-.4.4-.79.97-1.08,1.45-3.43-1.58-7.46-4.44-9.59-6.97-1.89,2.4-5.61,5.28-9.42,7.13-.2-.4-.64-.99-.99-1.34,3.87-1.78,7.68-4.75,9.48-7.35h1.65ZM40.84,281.54h-5.3v1.85h-1.5v-9.33h6.8v7.48ZM35.54,275.49v4.6h3.79v-4.6h-3.79ZM46.58,272.06h-8.96v-1.45h8.96v1.45ZM50.23,280.88c0,.81-.15,1.28-.77,1.54-.62.26-1.65.26-3.3.26-.04-.44-.29-1.08-.46-1.47,1.21.04,2.27.04,2.57,0,.33-.02.42-.09.42-.37v-5.37h-4.42v9.64h-1.56v-11.07h7.52v6.84Z"/>
        <path class="cls-1" d="M60.66,265.5c-.64,1.58-1.39,3.15-2.24,4.58v14.94h-1.56v-12.54c-.75,1.06-1.56,2-2.35,2.82-.18-.35-.64-1.21-.92-1.58,2.18-2.09,4.29-5.35,5.54-8.67l1.54.46ZM68.71,277.19c1.45,2.31,3.67,4.53,5.79,5.68-.35.29-.88.88-1.17,1.3-1.96-1.28-4.07-3.56-5.57-5.96v6.89h-1.63v-6.82c-1.54,2.42-3.74,4.62-5.88,5.85-.29-.4-.77-.99-1.14-1.3,2.27-1.12,4.6-3.3,6.07-5.63h-5.43v-1.5h6.38v-2.73h-4.75v-6.95h11.33v6.95h-4.95v2.73h6.16v1.5h-5.21ZM62.93,271.51h8.16v-4.03h-8.16v4.03Z"/>
        <path class="cls-1" d="M83.3,266.51c-.68,1.83-1.56,4.16-2.35,6.01,1.69,1.72,2.16,3.21,2.18,4.55,0,1.19-.29,2.07-.92,2.49-.33.24-.75.37-1.19.42-.48.04-1.06.07-1.63.02-.02-.42-.18-1.03-.4-1.45.53.04,1.06.04,1.39.02.29,0,.57-.07.77-.2.35-.22.48-.81.48-1.47-.02-1.17-.51-2.55-2.18-4.18.68-1.65,1.39-3.76,1.89-5.3h-3.04v17.65h-1.45v-19.14h5.13l.24-.07,1.08.66ZM90.67,279.12c1.25,2.71,3.04,3.78,5.63,4.67-.37.35-.77.92-.95,1.39-2.62-.99-4.49-2.29-5.83-5.08-.77,2-2.55,3.85-6.43,5.08-.15-.35-.62-.97-.88-1.23,3.98-1.23,5.52-2.95,6.07-4.82h-4.44v-5.59h4.75v-1.91h-3.45v-1.19c-.62.42-1.28.81-1.94,1.14-.18-.4-.53-.97-.81-1.32,2.51-1.17,4.95-3.3,6.14-5.26h1.5c1.58,2.11,4.09,4.05,6.4,5.02-.29.35-.64.95-.86,1.41-.59-.29-1.21-.64-1.8-1.03v1.23h-3.7v1.91h5v5.59h-4.4ZM88.56,277.8c.02-.35.04-.73.04-1.08v-1.87h-3.3v2.95h3.26ZM93.55,270.23c-1.63-1.1-3.17-2.46-4.2-3.81-.88,1.28-2.29,2.66-3.92,3.81h8.12ZM90.08,274.85v1.91c0,.35-.02.68-.04,1.03h3.54v-2.95h-3.5Z"/>
        <path class="cls-1" d="M15.65,318.5c1.41.73,3.26.92,5.68.92,1.01,0,7.5,0,8.82-.04-.26.4-.57,1.12-.68,1.61h-8.14c-4.8,0-7.48-.75-9.13-3.98-.26,1.61-.73,3.17-1.5,4.51-.24-.33-.77-.79-1.08-.95,1.47-2.66,1.61-6.38,1.54-9.31l1.36.07c.02.92.02,1.89-.04,2.86.44,1.43.99,2.49,1.72,3.26v-7.9h-4v-1.45h3.7v-2.57h-3.15v-1.43h3.15v-2.62h1.45v2.62h2.6v1.43h-2.6v2.57h3.01v1.45h-2.71v2.79h2.53v1.45h-2.53v4.71ZM18.86,303.78h-1.23v-1.43h10.41v1.43h-3.98v2.07h4.69l.26-.04.84.26c-.33,3.54-.97,6.43-1.91,8.65.66,1.23,1.45,2.22,2.4,2.9-.31.24-.75.73-.97,1.1-.81-.66-1.52-1.54-2.13-2.57-.55.97-1.14,1.76-1.83,2.38-.2-.33-.66-.9-.97-1.14.77-.7,1.43-1.63,2-2.75-.84-1.89-1.45-4.16-1.85-6.56l1.14-.24c.31,1.85.77,3.61,1.39,5.17.59-1.63,1.01-3.56,1.25-5.81h-4.31v11.79h-1.34v-3.08c-1.87.46-3.74.92-5.24,1.25l-.31-1.34c.51-.11,1.08-.22,1.69-.35v-11.68ZM22.71,303.78h-2.53v2.6h2.53v-2.6ZM22.71,307.67h-2.53v2.73h2.53v-2.73ZM22.71,314.61v-2.93h-2.53v3.5l2.53-.57Z"/>
        <path class="cls-1" d="M34.17,316.21v1.69h-1.5v-14.43h5.77v12.74h-4.27ZM34.17,305.06v9.57h2.75v-9.57h-2.75ZM46.78,311.92c1.23,2.79,3.28,5.59,5.32,7-.37.31-.92.92-1.19,1.34-1.78-1.43-3.52-3.92-4.78-6.56v7.85h-1.61v-7.83c-1.43,2.77-3.46,5.19-5.59,6.58-.26-.4-.75-.97-1.14-1.28,2.44-1.36,4.75-4.18,6.09-7.11h-4.66v-1.56h5.3v-3.7h-4.47v-1.56h4.47v-3.5h1.61v3.5h4.82v1.56h-4.82v3.7h5.72v1.56h-5.08Z"/>
        <path class="cls-1" d="M60.84,311.52c0,1.3-1.03,2.33-2.33,2.33s-2.33-1.03-2.33-2.33,1.03-2.33,2.33-2.33,2.33,1.03,2.33,2.33Z"/>
        <path class="cls-1" d="M72.43,303.82c-.02.53-.07,1.39-.09,2.38,1.61-.2,3.28-.51,4.53-.88l.04,1.72c-1.3.31-3.01.59-4.62.77-.02,1.03-.04,2.09-.04,2.97v.77c1.67-.53,3.39-.81,4.84-.81,3.21,0,5.52,1.74,5.52,4.38s-1.67,4.36-4.69,5.08c-.99.22-1.96.26-2.73.31l-.62-1.78c.81.02,1.76.02,2.57-.15,1.94-.37,3.7-1.41,3.7-3.43,0-1.87-1.69-2.88-3.78-2.88-1.65,0-3.21.31-4.8.86.04,1.87.09,3.83.09,4.78,0,2.05-.75,2.71-1.94,2.71-1.72,0-4.58-1.69-4.58-3.65,0-1.83,2.29-3.74,4.82-4.82v-1.25c0-.88,0-1.91.02-2.88-.62.04-1.17.07-1.63.07-1.25,0-2.07-.02-2.82-.11l-.04-1.67c1.21.15,2,.18,2.82.18.51,0,1.08-.02,1.69-.07,0-1.14.02-2.11.02-2.51,0-.44-.04-1.19-.11-1.56h1.96c-.07.4-.13,1.01-.15,1.52ZM69.97,318.72c.51,0,.81-.35.81-1.08,0-.79-.04-2.29-.07-3.89-1.8.84-3.15,2.11-3.15,3.1s1.54,1.87,2.4,1.87ZM84.45,307.96l-.9,1.41c-1.08-1.03-3.52-2.55-4.93-3.3l.79-1.32c1.56.84,3.96,2.33,5.04,3.21Z"/>
        <path class="cls-1" d="M91.4,307.23c-.7,3.19-1.98,7.13-3.96,9.57-.4-.29-1.1-.68-1.54-.86,1.96-2.31,3.17-6.09,3.7-9.04l1.8.33ZM97.07,301.8v17.49c0,1.21-.33,1.69-1.1,1.98-.79.26-2.16.31-4.2.29-.11-.46-.42-1.23-.68-1.69,1.61.07,3.19.04,3.61.02.46,0,.64-.15.64-.59v-17.49h1.74ZM102.13,306.75c1.94,3.08,3.79,7.08,4.33,9.7l-1.72.73c-.53-2.6-2.29-6.69-4.16-9.84l1.54-.59Z"/>
        <path class="cls-1" d="M112.54,317.18c1.03,1.65,2.97,2.4,5.54,2.51,2.42.11,7.48.04,10.12-.15-.2.37-.44,1.1-.53,1.56-2.44.11-7.11.15-9.57.04-2.86-.11-4.86-.9-6.21-2.6-.97.92-1.96,1.87-3.04,2.84l-.86-1.52c.92-.68,2-1.61,2.99-2.53v-5.7h-2.79v-1.54h4.33v7.08ZM111.88,306.62c-.66-1.1-2.13-2.62-3.48-3.67l1.25-.92c1.34,1.01,2.86,2.51,3.54,3.59l-1.32,1.01ZM127.92,308.49h-14.68v-1.17h6.38v-1.06h-4.69v-3.48h4.69v-1.3h1.54v1.3h4.95v3.48h-4.95v1.06h6.76v1.17ZM116.92,313.15v1.19h9.37v3.85h-10.89v-8.67h10.06v3.63h-8.54ZM119.62,305.23v-1.43h-3.17v1.43h3.17ZM116.92,310.62v1.45h7v-1.45h-7ZM116.92,315.46v1.61h7.83v-1.61h-7.83ZM121.16,303.8v1.43h3.34v-1.43h-3.34Z"/>
        <path class="cls-1" d="M133.46,306.66c-.02,1.39,0,3.39.15,5.21.35,3.67,1.43,6.12,2.99,6.12,1.12,0,2.16-2.29,2.73-4.49l1.39,1.56c-1.32,3.74-2.66,5.02-4.14,5.02-2.09,0-4.09-2.07-4.69-7.77-.2-1.91-.24-4.6-.24-5.88,0-.51-.02-1.43-.15-1.96l2.13.04c-.09.53-.18,1.56-.18,2.13ZM148.97,316.08l-1.76.73c-.4-3.98-1.72-8.49-3.83-11.07l1.72-.59c1.96,2.55,3.54,7.22,3.87,10.94Z"/>
        <path class="cls-1" d="M158.54,301.05l1.32.68c-2.53,2.62-4.09,5.88-4.09,9.79s1.56,7.17,4.09,9.79l-1.32.68c-2.64-2.68-4.38-6.18-4.38-10.47s1.74-7.79,4.38-10.47Z"/>
        <path class="cls-1" d="M161.84,318.7c5.06-4.42,7.39-7.63,7.39-10.41,0-1.85-.97-3.19-2.97-3.19-1.32,0-2.46.81-3.34,1.87l-1.17-1.14c1.32-1.43,2.71-2.38,4.75-2.38,2.88,0,4.69,1.89,4.69,4.77,0,3.21-2.53,6.49-6.31,10.08.84-.07,1.83-.15,2.64-.15h4.47v1.74h-10.14v-1.19Z"/>
        <path class="cls-1" d="M184.76,302.15c-.02.29-.02.64-.04,1.01.2,2.9,1.39,13.07,9.66,16.85-.46.35-.97.9-1.21,1.34-5.68-2.68-8.1-8.32-9.15-12.72-.97,4.4-3.23,9.7-8.8,12.72-.29-.4-.81-.92-1.32-1.25,8.91-4.55,8.91-15.05,9.07-17.95h1.8Z"/>
        <path class="cls-1" d="M203.97,302.42c-1.58,3.7-4.14,6.98-6.91,9.04-.29-.35-.99-.97-1.39-1.25,2.77-1.87,5.21-4.91,6.58-8.27l1.72.48ZM212.9,309.74s-.02.57-.04.79c-.31,6.75-.64,9.29-1.39,10.12-.46.55-.92.68-1.69.77-.73.07-2.09.02-3.46-.04-.04-.48-.24-1.14-.55-1.63,1.43.13,2.79.15,3.3.15.46,0,.73-.04.92-.29.57-.55.88-2.75,1.14-8.3h-5.68c-.57,4.33-1.98,8.32-7.57,10.34-.22-.42-.68-1.08-1.06-1.43,5.17-1.72,6.38-5.19,6.89-8.91h-4.49v-1.58h13.66ZM209.84,301.89c1.43,2.95,4.25,6.25,6.62,7.92-.42.35-1.03.99-1.34,1.45-2.42-1.96-5.19-5.5-6.82-8.76l1.54-.62Z"/>
        <path class="cls-1" d="M219.41,322l-1.32-.68c2.53-2.62,4.09-5.88,4.09-9.79s-1.56-7.17-4.09-9.79l1.32-.68c2.64,2.68,4.38,6.18,4.38,10.47s-1.74,7.79-4.38,10.47Z"/>
        <path class="cls-1" d="M20.69,338.03c2.33,3.23,6.21,6.29,9.66,7.86-.4.37-.79.95-1.08,1.41-3.41-1.78-7.26-4.86-9.31-7.68-1.8,2.68-5.37,5.81-9.13,7.81-.2-.37-.64-.95-1.01-1.3,3.83-1.94,7.5-5.28,9.22-8.1h1.65ZM13.36,349.32h13.38v8.76h-1.67v-.9h-10.1v.9h-1.61v-8.76ZM25.53,345.12v1.45h-11.02v-1.45h11.02ZM14.97,350.79v4.91h10.1v-4.91h-10.1Z"/>
        <path class="cls-1" d="M40.6,342.96h-8.67v-1.34h8.67v1.34ZM39.72,356.8h-5.32v1.01h-1.45v-7.37h6.78v6.36ZM32.96,344.59h6.82v1.3h-6.82v-1.3ZM32.96,347.49h6.82v1.32h-6.82v-1.32ZM39.78,340.06h-6.71v-1.32h6.71v1.32ZM34.39,351.78v3.7h3.85v-3.7h-3.85ZM52.28,347.05h-4.93v11h-1.63v-11h-5.15v-1.61h5.15v-7.42h1.63v7.42h4.93v1.61Z"/>
      </g>
      <g>
        <path class="cls-1" d="M396.81,25.82h8.6v1.45h-18.66v-1.45h8.36v-5.43h-7.37v-1.43h7.37v-2.95h-4.53v-1.25c-1.14.84-2.38,1.63-3.63,2.29-.18-.37-.64-.95-.99-1.28,3.78-1.92,7.39-5.15,9.11-7.9h1.63c2.33,3.15,6.14,6.09,9.55,7.61-.4.42-.79.97-1.06,1.45-1.21-.62-2.46-1.41-3.67-2.29v1.36h-4.71v2.95h7.55v1.43h-7.55v5.43ZM390.89,20.98c.9,1.21,1.78,2.84,2.09,3.94l-1.41.62c-.29-1.1-1.14-2.79-2-4.05l1.32-.51ZM401.39,14.55c-2.16-1.56-4.14-3.39-5.41-5.1-1.14,1.65-2.99,3.48-5.15,5.1h10.56ZM398.64,24.98c.79-1.08,1.8-2.82,2.35-4.05l1.54.59c-.81,1.39-1.85,2.97-2.68,4l-1.21-.55Z"/>
        <path class="cls-1" d="M411,26.57v1.03h-1.41v-6.07c-.35.2-.68.35-1.03.51-.2-.35-.59-.88-.88-1.17,1.63-.62,3.28-1.67,4.64-3.01-.7-.51-1.41-1.01-2.05-1.47-.46.46-.92.88-1.39,1.25-.24-.26-.79-.75-1.1-.97,1.65-1.17,3.17-2.97,3.98-4.91l1.39.35c-.2.44-.42.86-.66,1.28h2.84l.24-.07.95.42c-.51,1.47-1.25,2.77-2.18,3.92,1.3.97,2.51,1.91,3.28,2.66l-.97,1.14c-.15-.15-.35-.33-.55-.53v5.63h-5.1ZM409.75,13.03h-1.36v-3.15h3.74v-1.96h1.52v1.96h3.74v3.15h-1.41v-1.83h-6.23v1.83ZM415.97,20.82c-.7-.64-1.61-1.36-2.55-2.11-.79.81-1.69,1.52-2.6,2.11h5.15ZM414.65,22.12h-3.65v3.12h3.65v-3.12ZM411.75,14.57c-.2.26-.4.55-.62.79.68.46,1.39.97,2.11,1.47.57-.7,1.06-1.45,1.43-2.27h-2.93ZM421.72,25.07c-1.1,1.12-2.97,2.24-4.55,2.86-.26-.29-.73-.77-1.08-1.08,1.58-.57,3.39-1.65,4.22-2.6l1.41.81ZM421.34,12.44c.18-.66.35-1.41.46-2.09h-4.16v-1.43h10.17v1.43h-4.25c-.22.7-.44,1.45-.66,2.09h4.33v11.38h-8.76v-11.38h2.86ZM425.7,13.74h-5.74v2.11h5.74v-2.11ZM425.7,17.04h-5.74v2.11h5.74v-2.11ZM425.7,20.38h-5.74v2.13h5.74v-2.13ZM424.73,24.34c1.28.79,2.9,2,3.72,2.82l-1.25.86c-.79-.79-2.4-2.05-3.7-2.88l1.23-.79Z"/>
        <path class="cls-1" d="M437.73,7.47l1.32.68c-2.53,2.62-4.09,5.88-4.09,9.79s1.56,7.17,4.09,9.79l-1.32.68c-2.64-2.68-4.38-6.18-4.38-10.47s1.74-7.79,4.38-10.47Z"/>
        <path class="cls-1" d="M460.15,25.8c0,1.06-.26,1.58-1.01,1.87-.73.26-1.96.29-3.92.29-.09-.44-.37-1.19-.62-1.63,1.5.07,2.93.04,3.34.02.4,0,.55-.13.55-.55v-6.73h-14.74v8.93h-1.63V9.4h18.02v16.39ZM443.76,17.44h6.45v-6.45h-6.45v6.45ZM458.5,17.44v-6.45h-6.69v6.45h6.69Z"/>
        <path class="cls-1" d="M464.39,28.41l-1.32-.68c2.53-2.62,4.09-5.88,4.09-9.79s-1.56-7.17-4.09-9.79l1.32-.68c2.64,2.68,4.38,6.18,4.38,10.47s-1.74,7.79-4.38,10.47Z"/>
      </g>
      <g>
        <path class="cls-1" d="M420,50.44h-7.81v-1.72h10.1v1.23c-3.7,4.75-4.49,8.34-4.73,14.46h-2.09c.26-5.92,1.45-9.66,4.53-13.97Z"/>
        <path class="cls-1" d="M423.94,62.57l.99-1.32c.92.92,2.09,1.78,3.96,1.78s3.43-1.39,3.43-3.56-1.32-3.48-3.34-3.48c-1.08,0-1.76.35-2.68.97l-1.08-.68.51-7.55h7.85v1.72h-6.09l-.4,4.69c.73-.4,1.43-.66,2.4-.66,2.68,0,4.86,1.54,4.86,4.93s-2.55,5.3-5.28,5.3c-2.51,0-4.05-1.06-5.13-2.13Z"/>
        <path class="cls-1" d="M436.61,56.51c0-5.26,1.91-8.08,5.04-8.08s5.02,2.84,5.02,8.08-1.89,8.19-5.02,8.19-5.04-2.93-5.04-8.19ZM444.71,56.51c0-4.6-1.23-6.47-3.06-6.47s-3.08,1.87-3.08,6.47,1.23,6.58,3.08,6.58,3.06-1.98,3.06-6.58Z"/>
        <path class="cls-1" d="M448.82,56.51c0-5.26,1.91-8.08,5.04-8.08s5.02,2.84,5.02,8.08-1.89,8.19-5.02,8.19-5.04-2.93-5.04-8.19ZM456.92,56.51c0-4.6-1.23-6.47-3.06-6.47s-3.08,1.87-3.08,6.47,1.23,6.58,3.08,6.58,3.06-1.98,3.06-6.58Z"/>
        <path class="cls-1" d="M461.03,56.51c0-5.26,1.91-8.08,5.04-8.08s5.02,2.84,5.02,8.08-1.89,8.19-5.02,8.19-5.04-2.93-5.04-8.19ZM469.13,56.51c0-4.6-1.23-6.47-3.06-6.47s-3.08,1.87-3.08,6.47,1.23,6.58,3.08,6.58,3.06-1.98,3.06-6.58Z"/>
        <path class="cls-1" d="M412.3,93.67c0-6.31,2.84-8.74,5.98-8.74,1.67,0,2.88.7,3.76,1.65l-1.12,1.25c-.64-.77-1.61-1.23-2.57-1.23-2.22,0-4.07,1.69-4.16,6.69,1.01-1.21,2.4-1.96,3.67-1.96,2.71,0,4.47,1.63,4.47,4.82,0,3.01-2.11,5.04-4.62,5.04-3.1,0-5.41-2.51-5.41-7.53ZM414.24,94.92c.26,3.06,1.47,4.71,3.45,4.71,1.56,0,2.75-1.39,2.75-3.48s-.97-3.32-2.9-3.32c-1.01,0-2.24.55-3.3,2.09Z"/>
        <path class="cls-1" d="M424.4,93.01c0-5.26,1.91-8.08,5.04-8.08s5.02,2.84,5.02,8.08-1.89,8.19-5.02,8.19-5.04-2.93-5.04-8.19ZM432.5,93.01c0-4.6-1.23-6.47-3.06-6.47s-3.08,1.87-3.08,6.47,1.23,6.58,3.08,6.58,3.06-1.98,3.06-6.58Z"/>
        <path class="cls-1" d="M436.61,93.01c0-5.26,1.91-8.08,5.04-8.08s5.02,2.84,5.02,8.08-1.89,8.19-5.02,8.19-5.04-2.93-5.04-8.19ZM444.71,93.01c0-4.6-1.23-6.47-3.06-6.47s-3.08,1.87-3.08,6.47,1.23,6.58,3.08,6.58,3.06-1.98,3.06-6.58Z"/>
        <path class="cls-1" d="M448.82,93.01c0-5.26,1.91-8.08,5.04-8.08s5.02,2.84,5.02,8.08-1.89,8.19-5.02,8.19-5.04-2.93-5.04-8.19ZM456.92,93.01c0-4.6-1.23-6.47-3.06-6.47s-3.08,1.87-3.08,6.47,1.23,6.58,3.08,6.58,3.06-1.98,3.06-6.58Z"/>
        <path class="cls-1" d="M461.03,93.01c0-5.26,1.91-8.08,5.04-8.08s5.02,2.84,5.02,8.08-1.89,8.19-5.02,8.19-5.04-2.93-5.04-8.19ZM469.13,93.01c0-4.6-1.23-6.47-3.06-6.47s-3.08,1.87-3.08,6.47,1.23,6.58,3.08,6.58,3.06-1.98,3.06-6.58Z"/>
        <path class="cls-1" d="M413.05,135.73h3.59v-11.57h-2.86v-1.3c1.43-.24,2.46-.62,3.34-1.14h1.54v14.02h3.23v1.67h-8.85v-1.67Z"/>
        <path class="cls-1" d="M423.94,135.56l.99-1.32c.92.92,2.09,1.78,3.96,1.78s3.43-1.39,3.43-3.57-1.32-3.48-3.34-3.48c-1.08,0-1.76.35-2.68.97l-1.08-.68.51-7.55h7.85v1.72h-6.09l-.4,4.69c.73-.4,1.43-.66,2.4-.66,2.68,0,4.86,1.54,4.86,4.93s-2.55,5.3-5.28,5.3c-2.51,0-4.05-1.06-5.13-2.13Z"/>
        <path class="cls-1" d="M436.61,129.51c0-5.26,1.91-8.08,5.04-8.08s5.02,2.84,5.02,8.08-1.89,8.19-5.02,8.19-5.04-2.93-5.04-8.19ZM444.71,129.51c0-4.6-1.23-6.47-3.06-6.47s-3.08,1.87-3.08,6.47,1.23,6.58,3.08,6.58,3.06-1.98,3.06-6.58Z"/>
        <path class="cls-1" d="M448.82,129.51c0-5.26,1.91-8.08,5.04-8.08s5.02,2.84,5.02,8.08-1.89,8.19-5.02,8.19-5.04-2.93-5.04-8.19ZM456.92,129.51c0-4.6-1.23-6.47-3.06-6.47s-3.08,1.87-3.08,6.47,1.23,6.58,3.08,6.58,3.06-1.98,3.06-6.58Z"/>
        <path class="cls-1" d="M461.03,129.51c0-5.26,1.91-8.08,5.04-8.08s5.02,2.84,5.02,8.08-1.89,8.19-5.02,8.19-5.04-2.93-5.04-8.19ZM469.13,129.51c0-4.6-1.23-6.47-3.06-6.47s-3.08,1.87-3.08,6.47,1.23,6.58,3.08,6.58,3.06-1.98,3.06-6.58Z"/>
        <path class="cls-1" d="M412.08,172.71c4.73-4.71,7.39-7.52,7.39-10.1,0-1.78-.97-3.06-2.97-3.06-1.32,0-2.46.84-3.34,1.87l-1.17-1.12c1.32-1.43,2.71-2.38,4.75-2.38,2.88,0,4.69,1.83,4.69,4.6,0,2.95-2.68,5.88-6.4,9.79.84-.07,1.8-.15,2.64-.15h4.55v1.74h-10.14v-1.19Z"/>
        <path class="cls-1" d="M424.4,166c0-5.26,1.91-8.08,5.04-8.08s5.02,2.84,5.02,8.08-1.89,8.19-5.02,8.19-5.04-2.93-5.04-8.19ZM432.5,166c0-4.6-1.23-6.47-3.06-6.47s-3.08,1.87-3.08,6.47,1.23,6.58,3.08,6.58,3.06-1.98,3.06-6.58Z"/>
        <path class="cls-1" d="M436.61,166c0-5.26,1.91-8.08,5.04-8.08s5.02,2.84,5.02,8.08-1.89,8.19-5.02,8.19-5.04-2.93-5.04-8.19ZM444.71,166c0-4.6-1.23-6.47-3.06-6.47s-3.08,1.87-3.08,6.47,1.23,6.58,3.08,6.58,3.06-1.98,3.06-6.58Z"/>
        <path class="cls-1" d="M448.82,166c0-5.26,1.91-8.08,5.04-8.08s5.02,2.84,5.02,8.08-1.89,8.19-5.02,8.19-5.04-2.93-5.04-8.19ZM456.92,166c0-4.6-1.23-6.47-3.06-6.47s-3.08,1.87-3.08,6.47,1.23,6.58,3.08,6.58,3.06-1.98,3.06-6.58Z"/>
        <path class="cls-1" d="M461.03,166c0-5.26,1.91-8.08,5.04-8.08s5.02,2.84,5.02,8.08-1.89,8.19-5.02,8.19-5.04-2.93-5.04-8.19ZM469.13,166c0-4.6-1.23-6.47-3.06-6.47s-3.08,1.87-3.08,6.47,1.23,6.58,3.08,6.58,3.06-1.98,3.06-6.58Z"/>
        <path class="cls-1" d="M413.05,208.73h3.59v-11.57h-2.86v-1.3c1.43-.24,2.46-.62,3.34-1.14h1.54v14.02h3.23v1.67h-8.85v-1.67Z"/>
        <path class="cls-1" d="M424.4,202.5c0-5.26,1.91-8.08,5.04-8.08s5.02,2.84,5.02,8.08-1.89,8.19-5.02,8.19-5.04-2.93-5.04-8.19ZM432.5,202.5c0-4.6-1.23-6.47-3.06-6.47s-3.08,1.87-3.08,6.47,1.23,6.58,3.08,6.58,3.06-1.98,3.06-6.58Z"/>
        <path class="cls-1" d="M436.61,202.5c0-5.26,1.91-8.08,5.04-8.08s5.02,2.84,5.02,8.08-1.89,8.19-5.02,8.19-5.04-2.93-5.04-8.19ZM444.71,202.5c0-4.6-1.23-6.47-3.06-6.47s-3.08,1.87-3.08,6.47,1.23,6.58,3.08,6.58,3.06-1.98,3.06-6.58Z"/>
        <path class="cls-1" d="M448.82,202.5c0-5.26,1.91-8.08,5.04-8.08s5.02,2.84,5.02,8.08-1.89,8.19-5.02,8.19-5.04-2.93-5.04-8.19ZM456.92,202.5c0-4.6-1.23-6.47-3.06-6.47s-3.08,1.87-3.08,6.47,1.23,6.58,3.08,6.58,3.06-1.98,3.06-6.58Z"/>
        <path class="cls-1" d="M461.03,202.5c0-5.26,1.91-8.08,5.04-8.08s5.02,2.84,5.02,8.08-1.89,8.19-5.02,8.19-5.04-2.93-5.04-8.19ZM469.13,202.5c0-4.6-1.23-6.47-3.06-6.47s-3.08,1.87-3.08,6.47,1.23,6.58,3.08,6.58,3.06-1.98,3.06-6.58Z"/>
        <path class="cls-1" d="M418.59,242.56h-7.04v-1.32l6.71-10.03h2.22v9.75h2.13v1.61h-2.13v4.33h-1.89v-4.33ZM418.59,240.95v-4.6c0-.81.07-2.16.11-2.99h-.09c-.4.75-.84,1.43-1.3,2.2l-3.67,5.39h4.95Z"/>
        <path class="cls-1" d="M424.4,238.99c0-5.26,1.91-8.08,5.04-8.08s5.02,2.84,5.02,8.08-1.89,8.19-5.02,8.19-5.04-2.93-5.04-8.19ZM432.5,238.99c0-4.6-1.23-6.47-3.06-6.47s-3.08,1.87-3.08,6.47,1.23,6.58,3.08,6.58,3.06-1.98,3.06-6.58Z"/>
        <path class="cls-1" d="M436.61,238.99c0-5.26,1.91-8.08,5.04-8.08s5.02,2.84,5.02,8.08-1.89,8.19-5.02,8.19-5.04-2.93-5.04-8.19ZM444.71,238.99c0-4.6-1.23-6.47-3.06-6.47s-3.08,1.87-3.08,6.47,1.23,6.58,3.08,6.58,3.06-1.98,3.06-6.58Z"/>
        <path class="cls-1" d="M448.82,238.99c0-5.26,1.91-8.08,5.04-8.08s5.02,2.84,5.02,8.08-1.89,8.19-5.02,8.19-5.04-2.93-5.04-8.19ZM456.92,238.99c0-4.6-1.23-6.47-3.06-6.47s-3.08,1.87-3.08,6.47,1.23,6.58,3.08,6.58,3.06-1.98,3.06-6.58Z"/>
        <path class="cls-1" d="M461.03,238.99c0-5.26,1.91-8.08,5.04-8.08s5.02,2.84,5.02,8.08-1.89,8.19-5.02,8.19-5.04-2.93-5.04-8.19ZM469.13,238.99c0-4.6-1.23-6.47-3.06-6.47s-3.08,1.87-3.08,6.47,1.23,6.58,3.08,6.58,3.06-1.98,3.06-6.58Z"/>
        <path class="cls-1" d="M412.08,282.2c4.73-4.71,7.39-7.52,7.39-10.1,0-1.78-.97-3.06-2.97-3.06-1.32,0-2.46.84-3.34,1.87l-1.17-1.12c1.32-1.43,2.71-2.38,4.75-2.38,2.88,0,4.69,1.83,4.69,4.6,0,2.95-2.68,5.88-6.4,9.79.84-.07,1.8-.15,2.64-.15h4.55v1.74h-10.14v-1.19Z"/>
        <path class="cls-1" d="M424.4,275.49c0-5.26,1.91-8.08,5.04-8.08s5.02,2.84,5.02,8.08-1.89,8.19-5.02,8.19-5.04-2.93-5.04-8.19ZM432.5,275.49c0-4.6-1.23-6.47-3.06-6.47s-3.08,1.87-3.08,6.47,1.23,6.58,3.08,6.58,3.06-1.98,3.06-6.58Z"/>
        <path class="cls-1" d="M436.61,275.49c0-5.26,1.91-8.08,5.04-8.08s5.02,2.84,5.02,8.08-1.89,8.19-5.02,8.19-5.04-2.93-5.04-8.19ZM444.71,275.49c0-4.6-1.23-6.47-3.06-6.47s-3.08,1.87-3.08,6.47,1.23,6.58,3.08,6.58,3.06-1.98,3.06-6.58Z"/>
        <path class="cls-1" d="M448.82,275.49c0-5.26,1.91-8.08,5.04-8.08s5.02,2.84,5.02,8.08-1.89,8.19-5.02,8.19-5.04-2.93-5.04-8.19ZM456.92,275.49c0-4.6-1.23-6.47-3.06-6.47s-3.08,1.87-3.08,6.47,1.23,6.58,3.08,6.58,3.06-1.98,3.06-6.58Z"/>
        <path class="cls-1" d="M461.03,275.49c0-5.26,1.91-8.08,5.04-8.08s5.02,2.84,5.02,8.08-1.89,8.19-5.02,8.19-5.04-2.93-5.04-8.19ZM469.13,275.49c0-4.6-1.23-6.47-3.06-6.47s-3.08,1.87-3.08,6.47,1.23,6.58,3.08,6.58,3.06-1.98,3.06-6.58Z"/>
        <path class="cls-1" d="M412.3,312.65c0-6.31,2.84-8.74,5.98-8.74,1.67,0,2.88.7,3.76,1.65l-1.12,1.25c-.64-.77-1.61-1.23-2.57-1.23-2.22,0-4.07,1.69-4.16,6.69,1.01-1.21,2.4-1.96,3.67-1.96,2.71,0,4.47,1.63,4.47,4.82,0,3.01-2.11,5.04-4.62,5.04-3.1,0-5.41-2.51-5.41-7.53ZM414.24,313.9c.26,3.06,1.47,4.71,3.45,4.71,1.56,0,2.75-1.39,2.75-3.48s-.97-3.32-2.9-3.32c-1.01,0-2.24.55-3.3,2.09Z"/>
        <path class="cls-1" d="M424.4,311.99c0-5.26,1.91-8.08,5.04-8.08s5.02,2.84,5.02,8.08-1.89,8.19-5.02,8.19-5.04-2.93-5.04-8.19ZM432.5,311.99c0-4.6-1.23-6.47-3.06-6.47s-3.08,1.87-3.08,6.47,1.23,6.58,3.08,6.58,3.06-1.98,3.06-6.58Z"/>
        <path class="cls-1" d="M436.61,311.99c0-5.26,1.91-8.08,5.04-8.08s5.02,2.84,5.02,8.08-1.89,8.19-5.02,8.19-5.04-2.93-5.04-8.19ZM444.71,311.99c0-4.6-1.23-6.47-3.06-6.47s-3.08,1.87-3.08,6.47,1.23,6.58,3.08,6.58,3.06-1.98,3.06-6.58Z"/>
        <path class="cls-1" d="M448.82,311.99c0-5.26,1.91-8.08,5.04-8.08s5.02,2.84,5.02,8.08-1.89,8.19-5.02,8.19-5.04-2.93-5.04-8.19ZM456.92,311.99c0-4.6-1.23-6.47-3.06-6.47s-3.08,1.87-3.08,6.47,1.23,6.58,3.08,6.58,3.06-1.98,3.06-6.58Z"/>
        <path class="cls-1" d="M461.03,311.99c0-5.26,1.91-8.08,5.04-8.08s5.02,2.84,5.02,8.08-1.89,8.19-5.02,8.19-5.04-2.93-5.04-8.19ZM469.13,311.99c0-4.6-1.23-6.47-3.06-6.47s-3.08,1.87-3.08,6.47,1.23,6.58,3.08,6.58,3.06-1.98,3.06-6.58Z"/>
        <path class="cls-1" d="M399.54,354.47l1.01-1.32c.95.99,2.18,1.85,4,1.85s3.28-1.12,3.28-2.88c0-1.87-1.3-3.1-5.02-3.1v-1.54c3.32,0,4.47-1.3,4.47-2.95,0-1.52-1.06-2.49-2.73-2.49-1.3,0-2.44.66-3.34,1.58l-1.08-1.25c1.21-1.14,2.64-1.96,4.51-1.96,2.71,0,4.69,1.43,4.69,3.98,0,1.89-1.17,3.1-2.86,3.72v.09c1.89.46,3.41,1.85,3.41,4,0,2.79-2.31,4.47-5.17,4.47-2.53,0-4.11-1.06-5.17-2.2Z"/>
        <path class="cls-1" d="M412.19,348.48c0-5.26,1.91-8.08,5.04-8.08s5.02,2.84,5.02,8.08-1.89,8.19-5.02,8.19-5.04-2.93-5.04-8.19ZM420.29,348.48c0-4.6-1.23-6.47-3.06-6.47s-3.08,1.87-3.08,6.47,1.23,6.58,3.08,6.58,3.06-1.98,3.06-6.58Z"/>
        <path class="cls-1" d="M424.4,348.48c0-5.26,1.91-8.08,5.04-8.08s5.02,2.84,5.02,8.08-1.89,8.19-5.02,8.19-5.04-2.93-5.04-8.19ZM432.5,348.48c0-4.6-1.23-6.47-3.06-6.47s-3.08,1.87-3.08,6.47,1.23,6.58,3.08,6.58,3.06-1.98,3.06-6.58Z"/>
        <path class="cls-1" d="M436.61,348.48c0-5.26,1.91-8.08,5.04-8.08s5.02,2.84,5.02,8.08-1.89,8.19-5.02,8.19-5.04-2.93-5.04-8.19ZM444.71,348.48c0-4.6-1.23-6.47-3.06-6.47s-3.08,1.87-3.08,6.47,1.23,6.58,3.08,6.58,3.06-1.98,3.06-6.58Z"/>
        <path class="cls-1" d="M448.82,348.48c0-5.26,1.91-8.08,5.04-8.08s5.02,2.84,5.02,8.08-1.89,8.19-5.02,8.19-5.04-2.93-5.04-8.19ZM456.92,348.48c0-4.6-1.23-6.47-3.06-6.47s-3.08,1.87-3.08,6.47,1.23,6.58,3.08,6.58,3.06-1.98,3.06-6.58Z"/>
        <path class="cls-1" d="M461.03,348.48c0-5.26,1.91-8.08,5.04-8.08s5.02,2.84,5.02,8.08-1.89,8.19-5.02,8.19-5.04-2.93-5.04-8.19ZM469.13,348.48c0-4.6-1.23-6.47-3.06-6.47s-3.08,1.87-3.08,6.47,1.23,6.58,3.08,6.58,3.06-1.98,3.06-6.58Z"/>
      </g>
      <line class="cls-2" x1="366.51" y1=".5" x2="366.51" y2="365.97"/>
      <g>
        <path class="cls-1" d="M183.07,25.68c-1.8.99-4.58,1.91-6.78,2.44-.26-.31-.81-.92-1.19-1.21,2.27-.42,4.91-1.12,6.49-1.89l1.47.66ZM177.9,17.84c-.59.15-1.23.31-1.96.46-.15-.35-.48-.97-.77-1.25,2.9-.55,4.53-1.28,5.43-2.18h-2.99l-.11.29-1.52-.09c.46-.99.92-2.38,1.3-3.54h4.38v-1.25h-5.37v-1.08h5.37v-1.21h1.5v1.21h3.39v-1.21h1.54v1.21h4.88v3.41h-4.88v1.19h6.29s-.02.33-.04.53c-.15,1.34-.29,1.98-.64,2.33-.26.26-.62.37-1.06.4h-.53v7.75h-14.21v-6.95ZM178.03,13.79h3.3c.18-.37.26-.77.29-1.19h-3.17l-.42,1.19ZM190.49,17.62h-11v1.36h11v-1.36ZM190.49,20h-11v1.34h11v-1.34ZM190.49,22.37h-11v1.36h11v-1.36ZM188.09,14.87v1.65h-1.54v-1.65h-4.03c-.33.62-.86,1.19-1.65,1.69h9.77c-.07-.22-.15-.46-.24-.64.68.04,1.3.07,1.52.07.26,0,.4-.02.53-.11.11-.13.2-.44.29-1.01h-4.64ZM186.55,12.61h-3.41c-.02.42-.09.81-.18,1.19h3.59v-1.19ZM183.16,11.53h3.39v-1.25h-3.39v1.25ZM187.93,25.02c2.42.66,5.06,1.56,6.69,2.2l-1.74.86c-1.41-.64-3.81-1.47-6.27-2.2l1.32-.86ZM188.09,10.27v1.25h3.41v-1.25h-3.41Z"/>
        <path class="cls-1" d="M214.2,9.35v18.59h-1.69v-1.5h-11.51v1.5h-1.61V9.35h14.81ZM201,10.93v3.56h11.51v-3.56h-11.51ZM201,16.06v3.61h11.51v-3.61h-11.51ZM212.51,24.84v-3.61h-11.51v3.61h11.51Z"/>
      </g>
    </g>
    <g>
      <line class="cls-2" x1="482.95" y1="401.7" y2="401.7"/>
      <line class="cls-2" x1="0" y1="438.24" x2="482.95" y2="438.24"/>
      <line class="cls-2" x1="0" y1="474.79" x2="482.95" y2="474.79"/>
      <line class="cls-2" x1="0" y1="511.34" x2="482.95" y2="511.34"/>
      <line class="cls-2" x1="0" y1="547.89" x2="482.95" y2="547.89"/>
      <g>
        <path class="cls-1" d="M16.99,463.83c-1.5,1.21-3.76,2.4-5.63,3.17-.26-.29-.84-.86-1.21-1.1,1.94-.66,4.07-1.63,5.37-2.64l1.47.57ZM24.49,459.23c1.89.92,4.18,2.42,5.35,3.52l-1.19.92c-.33-.35-.79-.73-1.3-1.12-2.18.07-4.42.11-6.6.15v4.58h-1.61v-4.53l-8.56.18-.07-1.36c1.5,0,3.37-.02,5.41-.07.24-.11.46-.22.7-.35-1.12-.81-2.79-1.74-4.16-2.35l1.08-.92c.48.22,1.03.46,1.56.73.84-.53,1.74-1.23,2.4-1.85h-6.58v-8.74h8.98v1.19h-3.54v1.3h3.15v3.67h-3.15v1.39h3.56v1.19h-1.34l.75.37c-.95.75-2.07,1.52-3.04,2.11.66.37,1.28.75,1.76,1.08,1.74-1.03,3.5-2.22,4.71-3.21l1.43.79c-1.65,1.19-3.74,2.51-5.68,3.59,2.27-.04,4.71-.09,7.13-.13-.77-.48-1.56-.95-2.29-1.32l1.12-.79ZM12.46,449.2v1.3h2.58v-1.3h-2.58ZM18.03,451.57h-5.57v1.54h5.57v-1.54ZM12.46,455.56h2.58v-1.39h-2.58v1.39ZM29.2,448.58c-.64,2.42-1.83,4.31-3.32,5.76,1.19.97,2.62,1.72,4.22,2.18-.35.31-.81.88-1.01,1.3-1.65-.55-3.12-1.41-4.36-2.51-1.17.88-2.49,1.54-3.85,2.02-.18-.37-.53-.95-.86-1.23,1.3-.4,2.53-1.01,3.65-1.83-1.08-1.19-1.94-2.57-2.55-4.14l1.34-.37c.53,1.34,1.32,2.55,2.31,3.59,1.06-1.01,1.91-2.24,2.49-3.67h-6.73v-1.39h7.44l.26-.07.97.35ZM24.14,463.19c1.8.68,4.16,1.85,5.39,2.77l-1.28.99c-1.12-.92-3.43-2.11-5.3-2.88l1.19-.88Z"/>
        <path class="cls-1" d="M34.92,453.38c-.53.46-1.1.88-1.72,1.3-.26-.37-.77-.9-1.17-1.17,2.9-1.78,4.88-4.29,5.92-6.38l1.74.33c-.24.46-.53.92-.84,1.39h5.98l.26-.07,1.1.73c-.48.9-1.17,1.94-1.85,2.82h4.8v7.75h-8.16c1.23.55,2.53,1.3,3.23,1.96l-1.08,1.17c-.79-.79-2.51-1.8-3.94-2.42l.68-.7h-5.44v-1.39h13.11v-1.87h-12.43v-1.28h12.43v-1.83h-12.65v-.33ZM32.04,465.59c1.54-.9,2.55-2.51,3.04-4.11l1.47.53c-.57,1.78-1.5,3.52-3.17,4.55l-1.34-.97ZM37.93,450.19c-.55.73-1.17,1.45-1.87,2.13h6.42c.51-.62,1.03-1.41,1.45-2.13h-6.01ZM44.29,465.59c.9,0,1.06-.33,1.17-2.46.31.24.99.48,1.41.57-.18,2.66-.66,3.3-2.42,3.3h-4c-2.2,0-2.73-.46-2.73-2.07v-3.21h1.58v3.19c0,.57.2.68,1.28.68h3.72ZM48.01,461.23c1.54,1.25,3.28,3.08,4.07,4.42l-1.45.86c-.7-1.3-2.42-3.19-3.94-4.51l1.32-.77Z"/>
        <path class="cls-1" d="M73.91,455.86c-1.17,1.92-2.6,4-3.94,5.35l-1.32-.84c.81-.88,1.78-2.16,2.57-3.43h-6.25v8.3c0,1.01-.26,1.47-1.03,1.72s-2.05.26-3.96.26c-.11-.46-.4-1.12-.62-1.58,1.52.07,2.99.04,3.43.02.4-.02.53-.11.53-.44v-8.27h-9.07v-1.56h11.4c-1.87-.95-4.38-2.09-6.34-2.93l.84-1.21c1.21.48,2.64,1.08,3.98,1.67,1.39-.79,2.99-1.94,4.18-3.01h-11.99v-1.52h13.58l.37-.09,1.19.9c-1.56,1.56-3.74,3.21-5.72,4.47.9.4,1.76.81,2.38,1.14l-.37.57h4.53l.33-.13,1.3.62Z"/>
        <path class="cls-1" d="M81.69,447.74c-.48,1.45-1.06,2.9-1.72,4.29v15.25h-1.56v-12.32c-.66,1.1-1.34,2.09-2.07,2.95-.15-.4-.59-1.25-.86-1.65,1.89-2.2,3.63-5.54,4.69-8.93l1.52.42ZM96.08,454.7h-12.39v3.28c0,2.73-.29,6.67-2.02,9.31-.24-.29-.84-.81-1.19-1.01,1.56-2.44,1.74-5.83,1.74-8.32v-4.71h13.86v1.45ZM85.39,450.69h-3.56v-1.43h3.56v-1.87h1.5v1.87h4.11v-1.87h1.54v1.87h3.46v1.43h-3.46v1.8h-1.54v-1.8h-4.11v1.8h-1.5v-1.8ZM95.53,465.7c0,.73-.13,1.12-.64,1.34-.53.24-1.36.26-2.66.24-.07-.35-.24-.9-.42-1.28.95.02,1.72.02,1.98,0,.26-.02.31-.07.31-.31v-2.02h-3.23v3.48h-1.32v-3.48h-3.1v3.61h-1.41v-10.98h10.5v9.4ZM86.45,457.56v1.92h3.1v-1.92h-3.1ZM89.55,462.51v-1.89h-3.1v1.89h3.1ZM90.87,457.56v1.92h3.23v-1.92h-3.23ZM94.1,462.51v-1.89h-3.23v1.89h3.23Z"/>
        <path class="cls-1" d="M106.22,464.91c-1.8.99-4.58,1.91-6.78,2.44-.26-.31-.81-.92-1.19-1.21,2.27-.42,4.91-1.12,6.49-1.89l1.47.66ZM101.05,457.07c-.59.15-1.23.31-1.96.46-.15-.35-.48-.97-.77-1.25,2.9-.55,4.53-1.28,5.43-2.18h-2.99l-.11.29-1.52-.09c.46-.99.92-2.38,1.3-3.54h4.38v-1.25h-5.37v-1.08h5.37v-1.21h1.5v1.21h3.39v-1.21h1.54v1.21h4.88v3.41h-4.88v1.19h6.29s-.02.33-.04.53c-.15,1.34-.29,1.98-.64,2.33-.26.26-.62.37-1.06.4h-.53v7.75h-14.21v-6.95ZM101.18,453.02h3.3c.18-.37.26-.77.29-1.19h-3.17l-.42,1.19ZM113.64,456.85h-11v1.36h11v-1.36ZM113.64,459.23h-11v1.34h11v-1.34ZM113.64,461.61h-11v1.36h11v-1.36ZM111.24,454.1v1.65h-1.54v-1.65h-4.03c-.33.62-.86,1.19-1.65,1.69h9.77c-.07-.22-.15-.46-.24-.64.68.04,1.3.07,1.52.07.26,0,.4-.02.53-.11.11-.13.2-.44.29-1.01h-4.64ZM109.7,451.84h-3.41c-.02.42-.09.81-.18,1.19h3.59v-1.19ZM106.31,450.76h3.39v-1.25h-3.39v1.25ZM111.09,464.25c2.42.66,5.06,1.56,6.69,2.2l-1.74.86c-1.41-.64-3.81-1.47-6.27-2.2l1.32-.86ZM111.24,449.5v1.25h3.41v-1.25h-3.41Z"/>
        <path class="cls-1" d="M28.87,492.6c-1.32,1.1-3.08,2.25-4.55,3.1,1.41,2.27,3.28,4.03,5.65,4.95-.37.33-.86.97-1.12,1.41-4.16-1.89-6.71-6.07-8.08-11.29h-.04c-.66.55-1.43,1.08-2.24,1.54,4.2,3.63,4.25,9.29,2.09,10.78-.73.57-1.34.73-2.33.73-.53.02-1.21,0-1.91-.04-.04-.44-.18-1.12-.46-1.56.81.09,1.56.11,2.05.11.59,0,1.08-.04,1.52-.42.79-.59,1.17-2.2.73-4.07-2.4,1.98-6.03,3.92-9.07,4.93-.2-.4-.55-1.01-.86-1.36,3.3-.9,7.28-2.97,9.44-5-.2-.48-.46-.95-.77-1.41-1.85,1.36-4.77,2.86-7.02,3.67-.2-.37-.57-.95-.88-1.28,2.35-.66,5.46-2.09,7.15-3.39-.31-.33-.64-.66-1.01-.99-1.72.86-3.63,1.56-5.39,2.09-.18-.31-.64-.99-.9-1.28,2.66-.66,5.57-1.72,7.63-3.06h-4.69v-1.41h12.3v1.41h-3.87c.35,1.3.84,2.53,1.41,3.67,1.36-.86,2.95-2,3.98-2.93l1.25,1.08ZM12.59,489.98h-1.61v-4.33h8.18v-1.94h1.63v1.94h8.36v4.33h-1.67v-2.82h-14.9v2.82Z"/>
        <path class="cls-1" d="M40.27,500.63c-1.87,1.19-4.69,2.4-6.93,3.12-.26-.33-.75-.9-1.12-1.25,2.24-.68,5.08-1.89,6.56-2.93l1.5,1.06ZM51.71,497.46v1.52h-19.38v-1.52h19.38ZM48.76,484.61v11.35h-13.29v-11.35h13.29ZM37.08,487.98h10.01v-2.07h-10.01v2.07ZM37.08,491.3h10.01v-2.07h-10.01v2.07ZM37.08,494.67h10.01v-2.11h-10.01v2.11ZM45,499.69c2.53.9,5.26,2.07,6.95,2.97l-1.56,1.12c-1.52-.9-4.07-2.09-6.56-2.99l1.17-1.1Z"/>
        <path class="cls-1" d="M60.84,493.74c0,1.3-1.03,2.33-2.33,2.33s-2.33-1.03-2.33-2.33,1.03-2.33,2.33-2.33,2.33,1.03,2.33,2.33Z"/>
        <path class="cls-1" d="M73.24,492.36c-.18,7.37-.31,9.86-.88,10.61-.33.48-.7.64-1.25.68-.53.07-1.43.07-2.35.02-.02-.44-.18-1.08-.42-1.47.9.09,1.72.11,2.05.11s.51-.07.68-.31c.35-.53.51-2.68.66-8.89h-2.68c-.09,3.43-.66,7.35-3.12,10.74-.26-.31-.81-.73-1.21-.99,2.62-3.56,2.9-7.86,2.9-11.09v-3.01h-2.53v-1.5h3.83v-3.52h1.56v3.52h3.52v1.5h-4.93v2.88h4.18v.73ZM76.46,488.11c-.64,1.28-1.41,2.4-2.22,3.3-.29-.29-.95-.79-1.34-1.03,1.61-1.61,2.86-4.07,3.56-6.69l1.58.33c-.24.88-.55,1.76-.88,2.6h7.57v1.5h-8.27ZM85.19,493.55c-1.12,1.08-2.64,2.25-3.87,3.12.9,2.51,2.18,4.55,3.98,5.72-.37.26-.88.9-1.12,1.32-2.99-2.13-4.55-6.27-5.37-11.29-.48.22-.99.42-1.47.59v10.76h-1.56v-10.21c-.42.13-.81.24-1.19.35-.2-.4-.62-1.01-.99-1.34,3.08-.68,7.24-2.31,9.2-3.83l1.17.86c-.97.75-2.33,1.52-3.83,2.22.2,1.21.46,2.38.77,3.48,1.1-.86,2.33-1.91,3.12-2.77l1.17,1.01Z"/>
        <path class="cls-1" d="M94.32,488.95c-.68,1.12-1.52,2.24-2.42,3.32v11.57h-1.63v-9.77c-.84.86-1.67,1.65-2.49,2.29-.24-.33-.81-1.03-1.14-1.36,2.27-1.61,4.64-4.14,6.16-6.62l1.52.57ZM93.46,484.31c-1.43,1.94-3.67,4.07-5.63,5.46-.24-.35-.68-.99-.97-1.3,1.83-1.23,3.94-3.21,5.04-4.78l1.56.62ZM106.95,492.6h-3.32v9.09c0,1.01-.24,1.52-.97,1.78-.75.24-1.98.24-4.14.24-.07-.44-.29-1.12-.53-1.58,1.56.04,3.01.04,3.43.02.42-.02.55-.11.55-.48v-9.07h-7.35v-1.56h12.32v1.56ZM106.31,486.57h-10.74v-1.54h10.74v1.54Z"/>
        <path class="cls-1" d="M116.08,496.94c-.35-.62-1.21-1.76-1.94-2.66v9.46h-1.58v-9.62c-.88,2.2-2,4.33-3.1,5.66-.18-.46-.57-1.1-.84-1.5,1.41-1.56,2.95-4.45,3.81-6.98h-3.23v-1.54h3.37v-3.32c-1.01.18-2.05.35-2.99.46-.07-.35-.31-.9-.51-1.25,2.38-.37,5.17-.95,6.71-1.63l1.14,1.23c-.79.33-1.76.59-2.77.84v3.67h2.38v-.35h5.35v-1.19h-4.18v-1.06h4.18v-1.14h-4.67v-1.1h4.67v-1.21h1.63v1.21h5v1.1h-5v1.14h4.44v1.06h-4.44v1.19h5.54v1.12h-12.41v.77h-2.49v1.34c.68.66,2.49,2.51,2.9,2.99l-.97,1.3ZM121.82,501.2c-1.3,1.06-3.41,2.11-5.21,2.66-.24-.31-.73-.79-1.06-1.08,1.8-.51,3.87-1.5,4.91-2.4l1.36.81ZM117.99,500.28v-8.62h9.79v8.62h-9.79ZM119.49,494.14h6.75v-1.39h-6.75v1.39ZM119.49,496.65h6.75v-1.43h-6.75v1.43ZM119.49,499.18h6.75v-1.47h-6.75v1.47ZM125.01,500.46c1.47.84,3.17,1.85,4.2,2.55l-1.43.79c-.88-.66-2.46-1.69-3.87-2.53l1.1-.81Z"/>
        <path class="cls-1" d="M150.82,501.23v1.61h-19.58v-1.61h11.11c1.1-2.82,2.33-7.37,2.97-10.61l1.85.35c-.84,3.34-2.07,7.48-3.12,10.25h6.78ZM150.18,489.59h-18.22v-1.58h8.16v-4.29h1.67v4.29h8.38v1.58ZM136.93,500.13c-.11-2.42-.95-6.14-2.02-8.98l1.52-.4c1.17,2.88,1.98,6.51,2.16,8.98l-1.65.4Z"/>
        <path class="cls-1" d="M28.67,525.8c-.55,3.52-1.36,6.42-2.71,8.78,1.08,1.89,2.49,3.41,4.27,4.33-.4.31-.92.95-1.14,1.39-1.69-.99-3.04-2.42-4.11-4.2-1.3,1.74-2.97,3.12-5.13,4.25-.18-.37-.64-1.12-.97-1.45,2.29-1.08,3.96-2.53,5.21-4.42-.84-1.78-1.5-3.85-1.98-6.09-.44.97-.95,1.83-1.5,2.57-.24-.26-.79-.75-1.17-1.01-.9,1.1-2.13,2.22-3.28,3.04v.9c1.47-.15,2.99-.31,4.49-.46v1.41l-4.49.51v3.21c0,.84-.18,1.25-.77,1.5-.62.22-1.54.24-2.95.24-.07-.42-.29-1.03-.53-1.43,1.1.02,2.05.02,2.33.02.29-.02.37-.09.37-.33v-3.06c-1.69.2-3.26.35-4.55.48l-.2-1.47c1.3-.11,2.95-.29,4.75-.46v-1.96h.73c.64-.46,1.28-1.06,1.8-1.63h-2.53c-1.21,1.08-2.53,2.02-3.92,2.82-.24-.33-.84-.92-1.17-1.23.9-.46,1.76-.99,2.57-1.58h-.35v-1.3h1.96c.59-.51,1.12-1.06,1.65-1.63h-5.39v-1.45h3.78v-2.18h-2.9v-1.39h2.9v-2.31h1.5v2.31h2.75v1.36c.57-.99,1.08-2.05,1.52-3.17l1.54.44c-.73,1.78-1.61,3.43-2.62,4.93h2.11v1.45h-3.19c-.46.57-.92,1.1-1.41,1.63h2.4l.29-.09.79.57c1.67-2.29,2.79-5.81,3.41-9.44l1.65.26c-.24,1.3-.53,2.6-.88,3.81h6.42v1.54h-1.39ZM16.57,526.06c.53-.68,1.01-1.41,1.45-2.18h-2.75v2.18h1.3ZM23.15,525.82c.42,2.51,1.03,4.88,1.91,6.93.92-1.94,1.52-4.25,1.91-6.95h-3.83v.02Z"/>
        <path class="cls-1" d="M51.62,523.79h-5.74c1.96,1.23,4.33,3.08,5.54,4.38l-1.36.97c-.37-.44-.9-.95-1.5-1.47-5.52.22-11.38.37-15.23.44l-.07-1.52,3.04-.04c.64-.84,1.34-1.87,1.85-2.75h-5.74v-1.47h8.74v-2.13h1.65v2.13h8.82v1.47ZM48.61,538.54c0,.88-.22,1.3-.9,1.5-.7.22-1.83.24-3.59.24-.09-.4-.33-.97-.53-1.34,1.28.02,2.55.02,2.93.02.33-.02.44-.11.44-.42v-1.89h-9.79v3.63h-1.63v-10.83h13.07v9.09ZM37.16,530.81v1.69h9.79v-1.69h-9.79ZM46.96,535.41v-1.72h-9.79v1.72h9.79ZM40.24,523.79c-.66.9-1.43,1.87-2.16,2.73,2.71-.04,5.81-.11,8.89-.18-.79-.62-1.63-1.23-2.4-1.74l1.23-.81h-5.57Z"/>
        <path class="cls-1" d="M62.22,537.9c-1.8.99-4.58,1.91-6.78,2.44-.26-.31-.81-.92-1.19-1.21,2.27-.42,4.91-1.12,6.49-1.89l1.47.66ZM57.05,530.07c-.59.15-1.23.31-1.96.46-.15-.35-.48-.97-.77-1.25,2.9-.55,4.53-1.28,5.43-2.18h-2.99l-.11.29-1.52-.09c.46-.99.92-2.38,1.3-3.54h4.38v-1.25h-5.37v-1.08h5.37v-1.21h1.5v1.21h3.39v-1.21h1.54v1.21h4.88v3.41h-4.88v1.19h6.29s-.02.33-.04.53c-.15,1.34-.29,1.98-.64,2.33-.26.26-.62.37-1.06.4h-.53v7.75h-14.21v-6.95ZM57.18,526.02h3.3c.18-.37.26-.77.29-1.19h-3.17l-.42,1.19ZM69.64,529.85h-11v1.36h11v-1.36ZM69.64,532.22h-11v1.34h11v-1.34ZM69.64,534.6h-11v1.36h11v-1.36ZM67.24,527.09v1.65h-1.54v-1.65h-4.03c-.33.62-.86,1.19-1.65,1.69h9.77c-.07-.22-.15-.46-.24-.64.68.04,1.3.07,1.52.07.26,0,.4-.02.53-.11.11-.13.2-.44.29-1.01h-4.64ZM65.7,524.83h-3.41c-.02.42-.09.81-.18,1.19h3.59v-1.19ZM62.31,523.75h3.39v-1.25h-3.39v1.25ZM67.09,537.24c2.42.66,5.06,1.56,6.69,2.2l-1.74.86c-1.41-.64-3.81-1.47-6.27-2.2l1.32-.86ZM67.24,522.5v1.25h3.41v-1.25h-3.41Z"/>
        <path class="cls-1" d="M82.84,530.24c0,1.3-1.03,2.33-2.33,2.33s-2.33-1.03-2.33-2.33,1.03-2.33,2.33-2.33,2.33,1.03,2.33,2.33Z"/>
        <path class="cls-1" d="M93.66,520.71c-.62,1.54-1.39,3.1-2.24,4.53v14.96h-1.54v-12.61c-.79,1.1-1.61,2.07-2.44,2.9-.15-.35-.64-1.21-.92-1.58,2.22-2.09,4.36-5.35,5.63-8.67l1.52.46ZM107.1,537.96v1.56h-14.17v-1.56h6.36v-5.5h-5.06v-1.56h5.06v-4.82h-5.79v-1.54h7.5c-1.08-.99-3.01-2.33-4.55-3.24l1.08-1.17c1.63.92,3.79,2.33,4.84,3.32l-.95,1.08h5.35v1.54h-5.85v4.82h5.21v1.56h-5.21v5.5h6.18Z"/>
        <path class="cls-1" d="M125.25,538.58c1.28,0,1.47-.57,1.61-3.32.4.31,1.14.55,1.63.68-.26,3.3-.79,4.22-3.15,4.22h-4.91c-2.55,0-3.28-.57-3.28-2.71v-4.07l-7.72.9-.22-1.58,7.94-.88v-3.26c-1.78.35-3.61.66-5.33.9-.07-.4-.31-1.03-.51-1.39,4.38-.68,9.35-1.72,12.08-2.97l1.34,1.3c-1.61.68-3.65,1.28-5.85,1.78v3.43l9.55-1.08.22,1.52-9.77,1.12v4.27c0,.92.24,1.12,1.65,1.12h4.71ZM111.48,527.16h-1.65v-4.67h8.27v-2.29h1.69v2.29h8.43v4.67h-1.69v-3.15h-15.05v3.15Z"/>
        <path class="cls-1" d="M137.44,526.04c-1.98.64-4.05,1.28-5.7,1.8l-.64-1.43c1.58-.37,3.89-1.03,6.14-1.65l.2,1.28ZM139.18,537.7c-1.78,1.03-4.53,2.05-6.71,2.64-.29-.31-.84-.95-1.21-1.23,2.24-.46,4.88-1.23,6.45-2.11l1.47.7ZM136.78,523.64c-1.01-.59-3.04-1.36-4.6-1.85l.73-1.12c1.52.42,3.54,1.14,4.6,1.69l-.73,1.28ZM134.03,527.95h14.24v8.82h-14.24v-8.82ZM135.61,530.53h11.02v-1.47h-11.02v1.47ZM135.61,533.1h11.02v-1.52h-11.02v1.52ZM135.61,535.7h11.02v-1.54h-11.02v1.54ZM140.7,523.02c-.55.68-1.19,1.32-1.96,1.91-.31-.31-.84-.66-1.23-.81,1.65-1.14,2.75-2.62,3.32-3.94l1.47.24c-.22.46-.46.9-.75,1.36h7.53l.26-.07,1.1.33c-.62,1.12-1.43,2.35-2.22,3.12l-1.3-.46c.46-.44.95-1.06,1.34-1.69h-3.52c.48,1.69,1.72,3.3,6.23,3.96-.31.31-.68.92-.84,1.32-3.74-.66-5.35-2.07-6.16-3.65-.86,1.63-2.49,2.66-5.61,3.28-.13-.35-.51-.88-.77-1.17,3.59-.64,4.91-1.74,5.44-3.74h-2.33ZM144.17,537.06c2.38.77,5,1.72,6.6,2.44l-1.8.81c-1.36-.7-3.74-1.63-6.14-2.42l1.34-.84Z"/>
        <path class="cls-1" d="M163.75,538.12h8.6v1.45h-18.66v-1.45h8.36v-5.43h-7.37v-1.43h7.37v-2.95h-4.53v-1.25c-1.14.84-2.38,1.63-3.63,2.29-.18-.37-.64-.95-.99-1.28,3.78-1.92,7.39-5.15,9.11-7.9h1.63c2.33,3.15,6.14,6.09,9.55,7.61-.4.42-.79.97-1.06,1.45-1.21-.62-2.46-1.41-3.67-2.29v1.36h-4.71v2.95h7.55v1.43h-7.55v5.43ZM157.83,533.28c.9,1.21,1.78,2.84,2.09,3.94l-1.41.62c-.29-1.1-1.14-2.79-2-4.05l1.32-.51ZM168.33,526.85c-2.16-1.56-4.14-3.39-5.41-5.1-1.14,1.65-2.99,3.48-5.15,5.1h10.56ZM165.58,537.28c.79-1.08,1.8-2.82,2.35-4.05l1.54.59c-.81,1.39-1.85,2.97-2.68,4l-1.21-.55Z"/>
      </g>
      <g>
        <path class="cls-1" d="M311.1,449.7v1.45h-15.03v5.06c0,3.39-.46,8.08-3.45,11.07-.24-.29-.86-.88-1.19-1.1,1.78-1.8,2.53-4.09,2.86-6.34-.99.57-1.98,1.14-2.9,1.65l-.57-1.5c.99-.42,2.27-1.1,3.63-1.8.04-.7.07-1.36.07-2v-6.49h6.8v-2.49h1.69v2.49h8.1ZM292.84,456.15c-.22-1.08-.95-2.82-1.67-4.11l1.21-.57c.77,1.25,1.54,2.93,1.76,4l-1.3.68ZM297.09,453.18h13.82v1.43h-6.34v2.27h5.66v8.62c0,.81-.15,1.25-.79,1.52-.62.24-1.58.26-3.12.24-.09-.4-.33-1.03-.55-1.43,1.19.04,2.22.04,2.51.02.33,0,.42-.09.42-.37v-7.17h-4.16c-.04.4-.11.79-.2,1.19,1.39,1.21,3.06,2.84,3.89,3.87l-1.06.92c-.7-.92-2.02-2.31-3.28-3.48-.59,1.3-1.67,2.55-3.59,3.54-.18-.33-.64-.81-.95-1.1,2.82-1.28,3.52-3.23,3.7-4.95h-3.81v9h-1.5v-10.43h5.35v-2.27h-6.01v-1.43Z"/>
        <path class="cls-1" d="M318.03,450.91c-.99,1.98-2.22,3.7-3.56,4.95-.33-.29-1.06-.79-1.5-1.06,2.13-1.76,3.83-4.58,4.73-7.66l1.69.4c-.22.68-.46,1.34-.73,1.98h13.71v1.39h-14.35ZM325.11,458.09c-.79,1.39-1.74,2.66-2.79,3.83,1.58,1.14,2.99,2.33,3.94,3.34l-1.3,1.23c-.88-1.01-2.24-2.2-3.83-3.39-1.89,1.78-4.07,3.26-6.36,4.36-.24-.33-.86-.97-1.21-1.25,2.31-.99,4.47-2.35,6.29-4.03-1.36-.97-2.82-1.89-4.18-2.66l1.17-1.08c1.34.75,2.79,1.63,4.2,2.57.99-1.06,1.85-2.22,2.53-3.46l1.54.53ZM329.36,455.77c.02,5.68.33,9.92,1.98,9.92.44,0,.55-1.25.59-3.1.31.33.79.73,1.14.95-.15,2.75-.51,3.74-1.85,3.76-2.9-.02-3.37-4.11-3.5-10.12h-12.59v-1.41h14.21ZM317.66,454.02v-1.36h12.63v1.36h-12.63Z"/>
        <path class="cls-1" d="M339.39,451.22c.4.73.84,1.61,1.28,2.53,2.66-1.17,5.63-2.35,7.92-2.35,3.04,0,4.91,1.74,4.91,4.14,0,2.53-1.63,4.45-5.06,4.45-1.23,0-2.46-.31-3.3-.62l.07-1.72c.86.37,1.96.7,3.12.7,2.4,0,3.41-1.32,3.41-2.9,0-1.3-1.03-2.49-3.19-2.49-1.94,0-4.64,1.03-7.19,2.22.29.62.57,1.23.84,1.83,1.21,2.73,2.6,6.82,3.34,9.24l-1.89.51c-.68-2.6-1.74-6.14-2.99-9.02-.29-.64-.55-1.25-.84-1.83-1.69.81-3.23,1.61-4.25,2.07l-.84-1.8c.64-.15,1.41-.44,1.8-.59.75-.29,1.65-.68,2.62-1.12-.46-.97-.88-1.8-1.25-2.42-.29-.44-.73-1.12-1.08-1.56l1.8-.73c.15.35.53,1.08.77,1.47ZM342.38,448.76l1.25-.9c.73.55,2.4,1.94,3.23,2.79l-1.25.99c-.86-.84-2.29-2.18-3.23-2.88Z"/>
        <path class="cls-1" d="M367.14,458.66c1.52,3.7,4.4,6.14,8.87,7.13-.37.35-.84,1.03-1.1,1.5-4.55-1.19-7.44-3.85-9.13-7.94-1.01,3.15-3.43,6.03-9.04,7.96-.15-.4-.66-1.08-1.01-1.41,5.3-1.78,7.55-4.4,8.47-7.24h-8.21v-1.63h8.58c.18-1.01.22-2.02.22-3.04v-1.32h-4.93c-.66,1.32-1.39,2.51-2.16,3.46-.35-.26-1.14-.68-1.58-.86,1.69-1.87,3.06-4.77,3.85-7.75l1.72.37c-.31,1.08-.66,2.13-1.1,3.15h4.2v-3.83h1.67v3.83h7.17v1.63h-7.17v1.32c0,1.01-.04,2.02-.18,3.04h9.22v1.63h-8.36Z"/>
        <path class="cls-1" d="M390.01,462.07c2,1.58,5.04,2.88,7.86,3.48-.38.35-.88.99-1.1,1.45-2.95-.84-6.16-2.49-8.27-4.51v4.8h-1.61v-4.69c-2.11,1.91-5.32,3.5-8.21,4.33-.22-.42-.7-1.03-1.06-1.39,2.73-.62,5.79-1.94,7.77-3.48h-7.19v-1.39h8.69v-1.63h-6.62v-1.25h6.62v-1.61h-7.72v-1.34h4.8c-.2-.66-.64-1.54-1.08-2.2l.77-.15h-5.37v-1.41h3.5c-.31-.88-1.08-2.2-1.74-3.19l1.39-.46c.75.99,1.54,2.35,1.87,3.23l-1.12.42h2.71v-3.89h1.52v3.89h2.62v-3.89h1.54v3.89h2.66l-.81-.26c.57-.92,1.28-2.35,1.67-3.34l1.67.44c-.62,1.12-1.32,2.33-1.94,3.17h3.41v1.41h-4.4c-.44.84-.92,1.69-1.36,2.35h5v1.34h-7.97v1.61h6.89v1.25h-6.89v1.63h8.82v1.39h-7.3ZM384.54,452.5c.46.68.92,1.61,1.1,2.2l-.7.15h5.17l-.22-.07c.37-.64.81-1.54,1.12-2.29h-6.47Z"/>
        <path class="cls-1" d="M401.63,458.13c1.17-1.19,3.01-3.7,4.31-5.26,1.3-1.5,2.42-1.72,3.87-.24,1.34,1.34,3.01,3.52,4.42,5.04,1.34,1.47,3.52,3.76,5.5,5.52l-1.41,1.61c-1.65-1.56-3.65-3.81-5.17-5.52-1.43-1.63-3.1-3.74-4.11-4.88-.95-1.01-1.36-.86-2.13.07-1.03,1.3-2.82,3.72-3.94,5.08-.46.57-.97,1.23-1.3,1.69l-1.63-1.65c.55-.42.99-.86,1.58-1.45Z"/>
        <path class="cls-1" d="M432.43,466.29l-1.03-1.63c.7-.07,1.39-.18,1.89-.29,2.82-.64,5.59-2.73,5.59-6.54,0-3.32-2.13-6.07-5.88-6.38-.29,2.05-.7,4.29-1.32,6.34-1.34,4.53-3.08,6.84-5.13,6.84s-3.92-2.24-3.92-5.87c0-4.78,4.25-8.96,9.62-8.96s8.43,3.63,8.43,8.1-3.04,7.7-8.25,8.38ZM426.62,462.62c1.03,0,2.2-1.47,3.32-5.19.55-1.83.99-3.92,1.23-5.94-4.22.53-6.82,4.14-6.82,7.13,0,2.77,1.28,4,2.27,4Z"/>
        <path class="cls-1" d="M448.95,447.74c-.48,1.45-1.06,2.9-1.72,4.29v15.25h-1.56v-12.32c-.66,1.1-1.34,2.09-2.07,2.95-.15-.4-.59-1.25-.86-1.65,1.89-2.2,3.63-5.54,4.69-8.93l1.52.42ZM463.34,454.7h-12.39v3.28c0,2.73-.29,6.67-2.02,9.31-.24-.29-.84-.81-1.19-1.01,1.56-2.44,1.74-5.83,1.74-8.32v-4.71h13.86v1.45ZM452.65,450.69h-3.56v-1.43h3.56v-1.87h1.5v1.87h4.11v-1.87h1.54v1.87h3.46v1.43h-3.46v1.8h-1.54v-1.8h-4.11v1.8h-1.5v-1.8ZM462.79,465.7c0,.73-.13,1.12-.64,1.34-.53.24-1.36.26-2.66.24-.07-.35-.24-.9-.42-1.28.95.02,1.72.02,1.98,0,.26-.02.31-.07.31-.31v-2.02h-3.23v3.48h-1.32v-3.48h-3.1v3.61h-1.41v-10.98h10.5v9.4ZM453.7,457.56v1.92h3.1v-1.92h-3.1ZM456.81,462.51v-1.89h-3.1v1.89h3.1ZM458.13,457.56v1.92h3.23v-1.92h-3.23ZM461.36,462.51v-1.89h-3.23v1.89h3.23Z"/>
        <path class="cls-1" d="M478.3,455.53c-.84.77-3.32,3.08-4.14,3.92.22-.02.62,0,.86.04.86.09,1.36.68,1.67,1.58.2.64.51,1.74.73,2.46.26.84.79,1.19,1.91,1.19,1.45,0,3.12-.18,4.16-.44l-.11,1.85c-.92.15-2.95.33-4.14.33-1.76,0-2.86-.42-3.32-1.87-.22-.66-.55-1.96-.75-2.6-.26-.77-.75-1.17-1.34-1.17s-1.12.31-1.63.79c-.84.79-3.23,3.32-4.47,4.91l-1.67-1.17c.26-.24.66-.57,1.1-.99.88-.9,6.87-6.89,9.04-9.07-1.74.11-5.44.42-6.78.53-.73.07-1.3.13-1.78.22l-.15-1.94c.51.04,1.17.07,1.87.04,1.25-.02,6.38-.37,8.03-.57.37-.04.86-.15,1.06-.24l1.06,1.19c-.42.29-.95.75-1.21.99ZM479.07,449.42l-.24,1.63c-2.2-.2-6.05-.7-8.74-1.19l.29-1.61c2.4.53,6.6,1.03,8.69,1.17Z"/>
        <path class="cls-1" d="M306,496.03c1.36,1.14,3.39,2.11,5.28,2.58-.31.31-.75.88-.97,1.25-.97-.31-1.94-.73-2.86-1.28v5.21h-1.67v-.64h-9.22v.64h-1.61v-5.26c-.9.59-1.96,1.12-3.12,1.61-.2-.35-.62-.92-.95-1.17,2.11-.77,3.78-1.8,5.02-2.95h-4.6v-1.3h5.81c.26-.4.53-.75.73-1.14h-3.7v-5.79h14.06v5.79h-8.6c-.18.4-.42.77-.66,1.14h11.97v1.3h-4.91ZM296.6,486.48h-5.21v-1.34h5.21v-1.43h1.58v1.43h5.66v-1.43h1.61v1.43h5.39v1.34h-5.39v1.08h-1.61v-1.08h-5.66v1.08h-1.58v-1.08ZM295.68,490.16h10.91v-1.3h-10.91v1.3ZM295.68,492.53h10.91v-1.36h-10.91v1.36ZM305.64,497.38c-.55-.44-1.01-.86-1.43-1.34h-6.29c-.4.46-.86.9-1.36,1.34h9.09ZM305.78,498.48h-9.22v1.25h9.22v-1.25ZM305.78,502.04v-1.32h-9.22v1.32h9.22Z"/>
        <path class="cls-1" d="M316.34,495.04c2.11-1.85,4.53-2.68,7.17-2.68,3.37,0,5.61,2.02,5.61,4.6,0,3.94-3.48,6.6-11.66,5.92l-.53-1.8c6.95.86,10.34-1.14,10.34-4.16,0-1.76-1.63-3.01-3.87-3.01-2.9,0-5.28,1.1-6.82,2.95-.33.37-.53.75-.66,1.1l-1.63-.4c.44-2,.99-6.62,1.12-8.93l1.85.24c-.31,1.5-.68,4.77-.92,6.18ZM326.26,486.55l-.42,1.69c-2.09-.29-6.86-1.25-8.54-1.72l.44-1.67c1.89.59,6.58,1.52,8.52,1.69Z"/>
        <path class="cls-1" d="M336.71,487.19c-.11,2.49-.26,7.68-.26,10.96,0,2.42,1.52,3.28,3.61,3.28,4.03,0,6.29-2.27,7.88-4.55l1.25,1.5c-1.52,2.09-4.36,4.86-9.2,4.86-3.17,0-5.35-1.32-5.35-4.91,0-3.26.22-8.82.22-11.13,0-.81-.04-1.61-.18-2.24l2.22.02c-.11.73-.18,1.5-.2,2.22Z"/>
        <path class="cls-1" d="M361.11,502.79l-1.03-1.63c.7-.07,1.39-.18,1.89-.29,2.82-.64,5.59-2.73,5.59-6.54,0-3.32-2.13-6.07-5.88-6.38-.29,2.05-.7,4.29-1.32,6.34-1.34,4.53-3.08,6.84-5.13,6.84s-3.92-2.25-3.92-5.88c0-4.77,4.25-8.96,9.62-8.96s8.43,3.63,8.43,8.1-3.04,7.7-8.25,8.38ZM355.3,499.11c1.03,0,2.2-1.47,3.32-5.19.55-1.83.99-3.92,1.23-5.94-4.22.53-6.82,4.14-6.82,7.13,0,2.77,1.28,4,2.27,4Z"/>
        <path class="cls-1" d="M384.23,497.57c1.89,1.91,4.95,3.52,7.83,4.31-.37.33-.86.95-1.08,1.39-3.01-.99-6.21-2.9-8.27-5.19v5.65h-1.63v-5.74c-2.02,2.35-5.26,4.38-8.16,5.43-.24-.42-.73-1.03-1.1-1.36,2.77-.86,5.79-2.55,7.7-4.49h-7.26v-1.47h8.82v-1.85h-3.17v-8.34h2.75c.24-.73.46-1.58.57-2.22l1.76.26c-.24.68-.51,1.36-.75,1.96h3.78v8.34h-3.32v1.85h8.93v1.47h-7.42ZM377.54,491.7c-1.65,1.01-3.48,2.09-4.88,2.93l-.84-1.34c1.32-.68,3.32-1.8,5.26-2.9l.46,1.32ZM376.07,489.39c-.66-1.03-2.18-2.46-3.52-3.43l1.1-.95c1.36.92,2.93,2.29,3.63,3.32l-1.21,1.06ZM379.41,489.45h5.06v-2.22h-5.06v2.22ZM379.41,492.93h5.06v-2.27h-5.06v2.27ZM391.03,494.58c-1.06-.99-3.21-2.4-4.95-3.32l.97-1.08c1.69.86,3.89,2.2,4.97,3.15l-.99,1.25ZM391.29,485.63c-1.14,1.28-2.62,2.66-3.81,3.59l-1.21-.81c1.17-.95,2.73-2.46,3.63-3.59l1.39.81Z"/>
        <path class="cls-1" d="M398.51,487.19c-.11,2.49-.26,7.68-.26,10.96,0,2.42,1.52,3.28,3.61,3.28,4.03,0,6.29-2.27,7.88-4.55l1.25,1.5c-1.52,2.09-4.36,4.86-9.2,4.86-3.17,0-5.35-1.32-5.35-4.91,0-3.26.22-8.82.22-11.13,0-.81-.04-1.61-.18-2.24l2.22.02c-.11.73-.18,1.5-.2,2.22Z"/>
        <path class="cls-1" d="M418,486.04c1.17,0,4.05-.15,4.97-.22.42-.04.81-.13,1.1-.24l1.1.9c-.2.24-.4.46-.57.73-.62.99-1.58,3.23-2.51,5.28,2.22.24,4.27.95,6.05,1.76.09-.55.13-1.1.18-1.63.02-.66.04-1.41,0-2.02l1.78.2c-.07,1.56-.22,2.97-.46,4.25,1.06.59,1.96,1.19,2.66,1.69l-.81,1.89c-.66-.57-1.43-1.17-2.29-1.74-.9,2.86-2.6,4.95-5.79,6.54l-1.45-1.21c3.48-1.47,5.06-3.83,5.76-6.21-1.85-1.03-4-1.83-6.29-2.02-.86,1.94-1.94,4.53-2.77,5.76-.79,1.12-1.63,1.52-2.77,1.52-1.63,0-2.86-1.17-2.86-3.01,0-3.23,2.99-5.72,7.33-5.83.77-1.74,1.61-3.65,2.29-5.02-.88.04-3.56.15-4.58.22-.48.02-1.1.09-1.63.13l-.09-1.78c.57.04,1.21.07,1.65.07ZM415.95,499.53c.51,0,.86-.2,1.32-.77.79-1.03,1.63-3.08,2.4-4.8-3.21.24-5.04,2.18-5.04,4.07,0,.97.62,1.5,1.32,1.5Z"/>
        <path class="cls-1" d="M452.5,501.58c0,1.06-.29,1.54-.99,1.83-.75.26-2.02.29-4.09.26-.07-.44-.33-1.14-.55-1.58,1.54.07,3.04.04,3.43.04.44-.02.59-.15.59-.57v-4.47h-5.92v6.49h-1.63v-6.49h-5.5c-.33,2.44-1.08,4.95-2.75,6.82-.24-.33-.9-.88-1.25-1.08,2.42-2.73,2.64-6.6,2.64-9.66v-7.92h16.02v16.33ZM443.34,495.53v-3.65h-5.26v1.3c0,.73-.02,1.54-.09,2.35h5.35ZM438.08,486.81v3.52h5.26v-3.52h-5.26ZM450.89,486.81h-5.92v3.52h5.92v-3.52ZM450.89,495.53v-3.65h-5.92v3.65h5.92Z"/>
        <path class="cls-1" d="M292.27,522.45h2.11l5.88,10.19,1.72,3.32h.11c-.11-1.63-.26-3.43-.26-5.1v-8.41h1.94v16.15h-2.09l-5.88-10.19-1.74-3.32h-.09c.09,1.63.24,3.34.24,5.04v8.47h-1.94v-16.15Z"/>
        <path class="cls-1" d="M308.15,522.45h2.05v16.15h-2.05v-16.15Z"/>
        <path class="cls-1" d="M313.43,536.49l1.23-1.39c1.14,1.21,2.77,2,4.44,2,2.11,0,3.39-1.06,3.39-2.64s-1.17-2.18-2.68-2.86l-2.33-1.01c-1.5-.64-3.28-1.78-3.28-4.14,0-2.49,2.16-4.29,5.08-4.29,1.92,0,3.61.81,4.75,2l-1.08,1.3c-.99-.92-2.18-1.52-3.67-1.52-1.83,0-3.01.92-3.01,2.38,0,1.56,1.41,2.16,2.66,2.68l2.31.99c1.87.81,3.32,1.91,3.32,4.31,0,2.55-2.11,4.58-5.48,4.58-2.29,0-4.25-.92-5.65-2.4Z"/>
        <path class="cls-1" d="M331.08,522.45h2.27l5.48,16.15h-2.16l-1.54-4.93h-5.9l-1.56,4.93h-2.07l5.48-16.15ZM329.73,532.05h4.88l-.77-2.46c-.59-1.83-1.1-3.59-1.63-5.46h-.09c-.51,1.89-1.03,3.63-1.61,5.46l-.79,2.46Z"/>
        <path class="cls-1" d="M344.21,524.21c.4.73.84,1.61,1.28,2.53,2.66-1.17,5.63-2.35,7.92-2.35,3.04,0,4.91,1.74,4.91,4.14,0,2.53-1.63,4.44-5.06,4.44-1.23,0-2.46-.31-3.3-.62l.07-1.72c.86.37,1.96.7,3.12.7,2.4,0,3.41-1.32,3.41-2.9,0-1.3-1.03-2.49-3.19-2.49-1.94,0-4.64,1.03-7.2,2.22.29.62.57,1.23.84,1.83,1.21,2.73,2.6,6.82,3.34,9.24l-1.89.51c-.68-2.6-1.74-6.14-2.99-9.02-.29-.64-.55-1.25-.84-1.83-1.69.81-3.24,1.61-4.25,2.07l-.84-1.8c.64-.15,1.41-.44,1.8-.59.75-.29,1.65-.68,2.62-1.12-.46-.97-.88-1.8-1.25-2.42-.29-.44-.73-1.12-1.08-1.56l1.8-.73c.15.35.53,1.08.77,1.47ZM347.2,521.75l1.25-.9c.73.55,2.4,1.94,3.23,2.79l-1.25.99c-.86-.84-2.29-2.18-3.23-2.88Z"/>
        <path class="cls-1" d="M361.24,522.85c0-.77.55-1.3,1.34-1.3s1.34.53,1.34,1.3c0,.81-.55,1.34-1.34,1.34s-1.34-.53-1.34-1.34ZM361.57,526.65h2v11.95h-2v-11.95Z"/>
        <path class="cls-1" d="M367.79,522.45h4.05c4.95,0,7.61,2.9,7.61,8.03s-2.66,8.12-7.53,8.12h-4.14v-16.15ZM371.67,536.93c3.81,0,5.68-2.38,5.68-6.45s-1.87-6.36-5.68-6.36h-1.83v12.81h1.83Z"/>
        <path class="cls-1" d="M381.83,532.64c0-3.87,2.62-6.29,5.39-6.29,3.04,0,4.75,2.2,4.75,5.61,0,.44-.04.86-.09,1.14h-8.05c.13,2.55,1.69,4.18,3.96,4.18,1.17,0,2.11-.35,2.99-.95l.73,1.32c-1.06.68-2.33,1.23-3.96,1.23-3.17,0-5.72-2.31-5.72-6.25ZM390.21,531.65c0-2.4-1.1-3.7-2.97-3.7-1.69,0-3.19,1.36-3.43,3.7h6.4Z"/>
        <path class="cls-1" d="M394.17,530.55c0-5.21,3.06-8.38,7.15-8.38,1.96,0,3.5.97,4.42,2l-1.1,1.32c-.84-.9-1.92-1.54-3.3-1.54-3.06,0-5.08,2.51-5.08,6.54s1.94,6.62,5.02,6.62c1.54,0,2.71-.68,3.74-1.8l1.12,1.28c-1.28,1.47-2.86,2.31-4.95,2.31-4,0-7.02-3.1-7.02-8.34Z"/>
        <path class="cls-1" d="M408.05,532.64c0-3.98,2.62-6.29,5.54-6.29s5.54,2.31,5.54,6.29-2.62,6.25-5.54,6.25-5.54-2.29-5.54-6.25ZM417.07,532.64c0-2.75-1.41-4.62-3.48-4.62s-3.45,1.87-3.45,4.62,1.39,4.58,3.45,4.58,3.48-1.83,3.48-4.58Z"/>
        <path class="cls-1" d="M429.37,524.54c1.14-.18,2.33-.44,3.45-.81l.04,1.65c-1.17.33-2.55.62-4,.81-1.08,3.1-3.04,6.91-4.8,9.29l-1.69-.88c1.83-2.13,3.7-5.65,4.71-8.23-.66.04-1.32.07-1.96.07-.81,0-1.74-.02-2.57-.07l-.11-1.65c.81.11,1.76.15,2.68.15.79,0,1.63-.04,2.49-.11.33-1.23.64-2.62.68-3.81l1.94.18c-.2.79-.51,2.13-.86,3.41ZM435.4,530.31c.02.81.11,2.24.15,3.61,1.89.68,3.43,1.76,4.58,2.73l-.95,1.5c-.95-.84-2.13-1.83-3.56-2.53.02.35.02.66.02.92,0,1.76-1.12,3.19-3.85,3.19-2.42,0-4.4-.99-4.4-3.17,0-2.02,1.91-3.3,4.4-3.3.75,0,1.47.07,2.16.22-.09-1.8-.2-3.98-.24-5.54h1.72c-.04.9-.04,1.58-.02,2.38ZM431.57,538.14c1.83,0,2.44-.97,2.44-2.18,0-.29,0-.62-.02-.99-.7-.22-1.47-.33-2.27-.33-1.61,0-2.71.75-2.71,1.76s.84,1.74,2.55,1.74ZM434.78,525.49l.9-1.34c1.58.7,4.09,2.13,5.13,2.93l-.99,1.45c-1.19-1.01-3.56-2.38-5.04-3.04Z"/>
        <path class="cls-1" d="M450.73,528.3c1.94-1.17,3.94-2.13,5.15-2.82.62-.37,1.1-.66,1.56-1.03l.88,1.61c-.48.29-1.03.57-1.67.9-1.5.79-3.96,1.94-6.09,3.37-2.05,1.32-3.28,2.77-3.28,4.45,0,1.83,1.74,2.97,5.21,2.97,2.4,0,5.33-.31,7.04-.75l-.02,1.96c-1.65.31-4.2.55-6.95.55-4.14,0-7.11-1.23-7.11-4.53,0-2.29,1.43-4.07,3.81-5.7-1.01-1.83-2.18-4.4-3.21-6.78l1.74-.73c.88,2.42,2,4.8,2.95,6.53ZM460.5,524.59l-1.19.53c-.44-.9-1.19-2.22-1.8-3.06l1.19-.51c.55.79,1.34,2.13,1.8,3.04ZM462.97,523.66l-1.17.53c-.48-.95-1.21-2.2-1.85-3.04l1.17-.48c.59.79,1.43,2.18,1.85,2.99Z"/>
      </g>
      <g>
        <path class="cls-1" d="M372.46,409.63c-.48,1.45-1.06,2.9-1.72,4.29v15.25h-1.56v-12.32c-.66,1.1-1.34,2.09-2.07,2.95-.15-.4-.59-1.25-.86-1.65,1.89-2.2,3.63-5.54,4.69-8.93l1.52.42ZM386.85,416.59h-12.39v3.28c0,2.73-.29,6.67-2.02,9.31-.24-.29-.84-.81-1.19-1.01,1.56-2.44,1.74-5.83,1.74-8.32v-4.71h13.86v1.45ZM376.15,412.58h-3.56v-1.43h3.56v-1.87h1.5v1.87h4.11v-1.87h1.54v1.87h3.45v1.43h-3.45v1.8h-1.54v-1.8h-4.11v1.8h-1.5v-1.8ZM386.3,427.59c0,.73-.13,1.12-.64,1.34-.53.24-1.36.26-2.66.24-.07-.35-.24-.9-.42-1.28.95.02,1.72.02,1.98,0,.26-.02.31-.07.31-.31v-2.02h-3.23v3.48h-1.32v-3.48h-3.1v3.61h-1.41v-10.98h10.5v9.4ZM377.21,419.45v1.91h3.1v-1.91h-3.1ZM380.31,424.4v-1.89h-3.1v1.89h3.1ZM381.63,419.45v1.91h3.23v-1.91h-3.23ZM384.87,424.4v-1.89h-3.23v1.89h3.23Z"/>
        <path class="cls-1" d="M400.44,416.98c-1.39.99-2.86,1.91-4.38,2.77,3.15-.33,6.62-.81,8.63-1.39l1.08,1.12c-2.64.73-6.65,1.21-10.12,1.47-.13.57-.26,1.12-.42,1.65h10.52s-.04.48-.09.75c-.53,3.23-.99,4.67-1.72,5.3-.46.4-.92.51-1.69.55-.66.02-1.96.02-3.32-.07-.02-.44-.24-1.08-.51-1.5,1.36.13,2.79.15,3.3.15s.75-.02.95-.2c.48-.37.86-1.43,1.25-3.63h-9.04c-.11.4-.22.77-.31,1.1l-1.65-.26c.35-1.03.75-2.53,1.12-4-1.52.75-3.08,1.43-4.62,2.02-.22-.35-.73-.99-1.06-1.3,2.07-.7,4.14-1.58,6.09-2.6l.11-.51.7.09c.88-.48,1.76-1.01,2.6-1.54h-8.6v-1.41h7.24v-2.53h-5.57v-1.34h5.57v-2.62h1.63v2.62h5.24v1.06c.9-.86,1.72-1.74,2.46-2.64l1.34.73c-1.41,1.72-3.06,3.28-4.86,4.73h5.74v1.41h-7.61ZM399.96,415.57c1.08-.79,2.13-1.65,3.1-2.53h-4.93v2.53h1.83Z"/>
      </g>
      <g>
        <path class="cls-1" d="M207.87,426.8c0,1.14-.33,1.72-1.14,1.98-.84.29-2.29.31-4.64.31-.11-.46-.42-1.23-.68-1.69,1.83.07,3.59.04,4.09.04.51-.02.68-.18.68-.66v-4.4h-10.56c-.55,2.49-1.65,4.97-3.78,6.84-.22-.35-.88-.95-1.21-1.19,3.5-3.08,3.85-7.55,3.85-11.05v-6.73h13.4v16.55ZM206.18,420.77v-3.7h-10.06c0,1.14-.07,2.4-.24,3.7h10.3ZM196.12,411.86v3.65h10.06v-3.65h-10.06Z"/>
        <path class="cls-1" d="M215.81,427.76v1.03h-1.41v-6.07c-.35.2-.68.35-1.03.51-.2-.35-.59-.88-.88-1.17,1.63-.62,3.28-1.67,4.64-3.01-.7-.51-1.41-1.01-2.05-1.47-.46.46-.92.88-1.39,1.25-.24-.26-.79-.75-1.1-.97,1.65-1.17,3.17-2.97,3.98-4.91l1.39.35c-.2.44-.42.86-.66,1.28h2.84l.24-.07.95.42c-.51,1.47-1.25,2.77-2.18,3.92,1.3.97,2.51,1.91,3.28,2.66l-.97,1.14c-.15-.15-.35-.33-.55-.53v5.63h-5.1ZM214.56,414.23h-1.36v-3.15h3.74v-1.96h1.52v1.96h3.74v3.15h-1.41v-1.83h-6.23v1.83ZM220.78,422.02c-.7-.64-1.61-1.36-2.55-2.11-.79.81-1.69,1.52-2.6,2.11h5.15ZM219.46,423.32h-3.65v3.12h3.65v-3.12ZM216.56,415.77c-.2.26-.4.55-.62.79.68.46,1.39.97,2.11,1.47.57-.7,1.06-1.45,1.43-2.27h-2.93ZM226.53,426.27c-1.1,1.12-2.97,2.24-4.55,2.86-.26-.29-.73-.77-1.08-1.08,1.58-.57,3.39-1.65,4.22-2.6l1.41.81ZM226.15,413.64c.18-.66.35-1.41.46-2.09h-4.16v-1.43h10.17v1.43h-4.25c-.22.7-.44,1.45-.66,2.09h4.33v11.38h-8.76v-11.38h2.86ZM230.51,414.94h-5.74v2.11h5.74v-2.11ZM230.51,418.24h-5.74v2.11h5.74v-2.11ZM230.51,421.58h-5.74v2.13h5.74v-2.13ZM229.54,425.54c1.28.79,2.9,2,3.72,2.82l-1.25.86c-.79-.79-2.4-2.05-3.7-2.88l1.23-.79Z"/>
        <path class="cls-1" d="M242.54,408.66l1.32.68c-2.53,2.62-4.09,5.88-4.09,9.79s1.56,7.17,4.09,9.79l-1.32.68c-2.64-2.68-4.38-6.18-4.38-10.47s1.74-7.79,4.38-10.47Z"/>
        <path class="cls-1" d="M264.96,426.99c0,1.06-.26,1.58-1.01,1.87-.73.26-1.96.29-3.92.29-.09-.44-.37-1.19-.62-1.63,1.5.07,2.93.04,3.34.02.4,0,.55-.13.55-.55v-6.73h-14.74v8.93h-1.63v-18.59h18.02v16.39ZM248.57,418.63h6.45v-6.45h-6.45v6.45ZM263.31,418.63v-6.45h-6.69v6.45h6.69Z"/>
        <path class="cls-1" d="M269.2,429.61l-1.32-.68c2.53-2.62,4.09-5.88,4.09-9.79s-1.56-7.17-4.09-9.79l1.32-.68c2.64,2.68,4.38,6.18,4.38,10.47s-1.74,7.79-4.38,10.47Z"/>
      </g>
      <g>
        <path class="cls-1" d="M196.49,463.7l1.01-1.32c.95.99,2.18,1.85,4,1.85s3.28-1.12,3.28-2.88c0-1.87-1.3-3.1-5.02-3.1v-1.54c3.32,0,4.47-1.3,4.47-2.95,0-1.52-1.06-2.49-2.73-2.49-1.3,0-2.44.66-3.34,1.58l-1.08-1.25c1.21-1.14,2.64-1.96,4.51-1.96,2.71,0,4.69,1.43,4.69,3.98,0,1.89-1.17,3.1-2.86,3.72v.09c1.89.46,3.41,1.85,3.41,4,0,2.79-2.31,4.47-5.17,4.47-2.53,0-4.11-1.06-5.17-2.2Z"/>
        <path class="cls-1" d="M209.15,457.71c0-5.26,1.91-8.08,5.04-8.08s5.02,2.84,5.02,8.08-1.89,8.18-5.02,8.18-5.04-2.93-5.04-8.18ZM217.24,457.71c0-4.6-1.23-6.47-3.06-6.47s-3.08,1.87-3.08,6.47,1.23,6.58,3.08,6.58,3.06-1.98,3.06-6.58Z"/>
        <path class="cls-1" d="M221.36,457.71c0-5.26,1.91-8.08,5.04-8.08s5.02,2.84,5.02,8.08-1.89,8.18-5.02,8.18-5.04-2.93-5.04-8.18ZM229.45,457.71c0-4.6-1.23-6.47-3.06-6.47s-3.08,1.87-3.08,6.47,1.23,6.58,3.08,6.58,3.06-1.98,3.06-6.58Z"/>
        <path class="cls-1" d="M233.57,457.71c0-5.26,1.91-8.08,5.04-8.08s5.02,2.84,5.02,8.08-1.89,8.18-5.02,8.18-5.04-2.93-5.04-8.18ZM241.66,457.71c0-4.6-1.23-6.47-3.06-6.47s-3.08,1.87-3.08,6.47,1.23,6.58,3.08,6.58,3.06-1.98,3.06-6.58Z"/>
        <path class="cls-1" d="M245.78,457.71c0-5.26,1.91-8.08,5.04-8.08s5.02,2.84,5.02,8.08-1.89,8.18-5.02,8.18-5.04-2.93-5.04-8.18ZM253.87,457.71c0-4.6-1.23-6.47-3.06-6.47s-3.08,1.87-3.08,6.47,1.23,6.58,3.08,6.58,3.06-1.98,3.06-6.58Z"/>
        <path class="cls-1" d="M196.82,500.92c4.73-4.71,7.39-7.52,7.39-10.1,0-1.78-.97-3.06-2.97-3.06-1.32,0-2.46.84-3.34,1.87l-1.17-1.12c1.32-1.43,2.71-2.38,4.75-2.38,2.88,0,4.69,1.83,4.69,4.6,0,2.95-2.68,5.88-6.4,9.79.84-.07,1.8-.15,2.64-.15h4.55v1.74h-10.14v-1.19Z"/>
        <path class="cls-1" d="M209.15,494.21c0-5.26,1.91-8.08,5.04-8.08s5.02,2.84,5.02,8.08-1.89,8.19-5.02,8.19-5.04-2.93-5.04-8.19ZM217.24,494.21c0-4.6-1.23-6.47-3.06-6.47s-3.08,1.87-3.08,6.47,1.23,6.58,3.08,6.58,3.06-1.98,3.06-6.58Z"/>
        <path class="cls-1" d="M221.36,494.21c0-5.26,1.91-8.08,5.04-8.08s5.02,2.84,5.02,8.08-1.89,8.19-5.02,8.19-5.04-2.93-5.04-8.19ZM229.45,494.21c0-4.6-1.23-6.47-3.06-6.47s-3.08,1.87-3.08,6.47,1.23,6.58,3.08,6.58,3.06-1.98,3.06-6.58Z"/>
        <path class="cls-1" d="M233.57,494.21c0-5.26,1.91-8.08,5.04-8.08s5.02,2.84,5.02,8.08-1.89,8.19-5.02,8.19-5.04-2.93-5.04-8.19ZM241.66,494.21c0-4.6-1.23-6.47-3.06-6.47s-3.08,1.87-3.08,6.47,1.23,6.58,3.08,6.58,3.06-1.98,3.06-6.58Z"/>
        <path class="cls-1" d="M245.78,494.21c0-5.26,1.91-8.08,5.04-8.08s5.02,2.84,5.02,8.08-1.89,8.19-5.02,8.19-5.04-2.93-5.04-8.19ZM253.87,494.21c0-4.6-1.23-6.47-3.06-6.47s-3.08,1.87-3.08,6.47,1.23,6.58,3.08,6.58,3.06-1.98,3.06-6.58Z"/>
        <path class="cls-1" d="M196.49,536.69l1.01-1.32c.95.99,2.18,1.85,4,1.85s3.28-1.12,3.28-2.88c0-1.87-1.3-3.1-5.02-3.1v-1.54c3.32,0,4.47-1.3,4.47-2.95,0-1.52-1.06-2.49-2.73-2.49-1.3,0-2.44.66-3.34,1.58l-1.08-1.25c1.21-1.14,2.64-1.96,4.51-1.96,2.71,0,4.69,1.43,4.69,3.98,0,1.89-1.17,3.1-2.86,3.72v.09c1.89.46,3.41,1.85,3.41,4,0,2.79-2.31,4.47-5.17,4.47-2.53,0-4.11-1.06-5.17-2.2Z"/>
        <path class="cls-1" d="M209.15,530.7c0-5.26,1.91-8.08,5.04-8.08s5.02,2.84,5.02,8.08-1.89,8.19-5.02,8.19-5.04-2.93-5.04-8.19ZM217.24,530.7c0-4.6-1.23-6.47-3.06-6.47s-3.08,1.87-3.08,6.47,1.23,6.58,3.08,6.58,3.06-1.98,3.06-6.58Z"/>
        <path class="cls-1" d="M221.36,530.7c0-5.26,1.91-8.08,5.04-8.08s5.02,2.84,5.02,8.08-1.89,8.19-5.02,8.19-5.04-2.93-5.04-8.19ZM229.45,530.7c0-4.6-1.23-6.47-3.06-6.47s-3.08,1.87-3.08,6.47,1.23,6.58,3.08,6.58,3.06-1.98,3.06-6.58Z"/>
        <path class="cls-1" d="M233.57,530.7c0-5.26,1.91-8.08,5.04-8.08s5.02,2.84,5.02,8.08-1.89,8.19-5.02,8.19-5.04-2.93-5.04-8.19ZM241.66,530.7c0-4.6-1.23-6.47-3.06-6.47s-3.08,1.87-3.08,6.47,1.23,6.58,3.08,6.58,3.06-1.98,3.06-6.58Z"/>
        <path class="cls-1" d="M245.78,530.7c0-5.26,1.91-8.08,5.04-8.08s5.02,2.84,5.02,8.08-1.89,8.19-5.02,8.19-5.04-2.93-5.04-8.19ZM253.87,530.7c0-4.6-1.23-6.47-3.06-6.47s-3.08,1.87-3.08,6.47,1.23,6.58,3.08,6.58,3.06-1.98,3.06-6.58Z"/>
      </g>
      <line class="cls-2" x1="181.61" y1="401.7" x2="181.61" y2="547.89"/>
      <g>
        <path class="cls-1" d="M89.37,410.44v18.59h-1.69v-1.5h-11.51v1.5h-1.61v-18.59h14.81ZM76.16,412.02v3.56h11.51v-3.56h-11.51ZM76.16,417.15v3.61h11.51v-3.61h-11.51ZM87.67,425.93v-3.61h-11.51v3.61h11.51Z"/>
        <path class="cls-1" d="M100.1,409.33c-.37,1.08-.77,2.29-1.14,3.23h3.65v14.28h-6.12v1.74h-1.5v-16.02h2.46c.33-1.06.73-2.53.88-3.56l1.76.33ZM101.11,414.04h-4.62v4.6h4.62v-4.6ZM101.11,425.38v-5.28h-4.62v5.28h4.62ZM113.37,413.34c-.35,10.03-.64,13.42-1.52,14.5-.48.62-.99.81-1.74.88-.77.09-2.02.04-3.26-.02-.04-.48-.24-1.14-.55-1.61,1.43.13,2.75.13,3.26.13.44,0,.68-.04.9-.33.73-.77,1.06-4.11,1.34-12.87h-5.59c-.62,1.47-1.3,2.82-2.07,3.85-.29-.26-.99-.7-1.34-.92,1.47-1.94,2.66-4.97,3.37-7.99l1.56.37c-.26,1.08-.57,2.13-.95,3.17h6.58v.84ZM108.51,423.26c-.66-1.32-2.13-3.5-3.34-5.08l1.28-.75c1.23,1.56,2.75,3.67,3.45,4.97l-1.39.86Z"/>
      </g>
      <line class="cls-2" x1="281.74" y1="401.7" x2="281.74" y2="547.89"/>
    </g>
  </g>
</svg>