<?xml version="1.0" encoding="UTF-8"?>
<svg id="_レイヤー_2" data-name="レイヤー_2" xmlns="http://www.w3.org/2000/svg" viewBox="0 0 739.69 85.76">
  <defs>
    <style>
      .cls-1 {
        fill: #fff;
        stroke: #edbccb;
        stroke-miterlimit: 10;
      }

      .cls-2 {
        fill: none;
        stroke: #000;
        stroke-linecap: round;
        stroke-linejoin: round;
        stroke-width: 2px;
      }
    </style>
  </defs>
  <g id="_レイヤー_1-2" data-name="レイヤー_1">
    <rect class="cls-1" x="243.29" y="21.71" width="189.3" height="43.88"/>
    <rect class="cls-1" x=".5" y="21.7" width="227.57" height="43.88"/>
    <rect class="cls-1" x="449.87" y="20.81" width="267.77" height="43.88"/>
    <path class="cls-2" d="M324.94,18.88c10.18-1.73,20.2-4.47,29.85-8.17-15.44,23.84-32.14,46.88-49.99,68.98"/>
    <path class="cls-2" d="M401.47,46.21c1.67,4.14,16.96,21.5,21.19,22.96"/>
    <path class="cls-2" d="M281.15,13.71c6.9-1.03,18.58-4.63,25.48-5.67-6.36,12.11-12.5,19-20.83,29.85-12.03,15.66-24.12,31.28-36.25,46.86,3.32-2.39,4.46-3.21,7.78-5.59"/>
    <path class="cls-2" d="M284.12,45.5c4.46,3.28,9.35,5.96,14.52,7.94"/>
    <path class="cls-2" d="M400.33,16.21c-6.57,8.07-12.65,16.55-18.18,25.36-5.25,8.37-9.49,13.6-16.12,24.99,11.59-5,23.18-10.01,34.77-15.01"/>
    <path class="cls-2" d="M339.91,39.76c3.7,9.69,11.83,16.89,19.66,23.69"/>
    <path class="cls-2" d="M188.9,15.33c11.69-1.05,13.48-2.11,25.17-3.16-18.83,19.65-37.32,39.62-55.45,59.91"/>
    <path class="cls-2" d="M195.25,38.88c2.97,2.75,10.56,8.25,13.52,11"/>
    <path class="cls-2" d="M19.93,11.7c16.98-1.99,34.04-3.39,51.12-4.18-3.04.16-4.76,4.13-6.44,6.16-2.86,3.46-6.27,6.52-9.36,9.78C37.67,42,21.51,61.89,6.97,82.89l8.94-4.5"/>
    <path class="cls-2" d="M80,16.84c6.85,5.16,15.61,7.15,23.42,10.31"/>
    <path class="cls-2" d="M73.36,35.18c7.97,4.61,16.64,7.99,25.62,9.99"/>
    <path class="cls-2" d="M68.8,57.85c7.86,4.53,16.14,8.32,24.7,11.31"/>
    <path class="cls-2" d="M135.67,10.98c-4.41,8.14-14.5,18.37-19.31,23.18"/>
    <path class="cls-2" d="M141.94,13.65c6.49.53,12.98,1.06,19.47,1.6-2.45-.2-6.18,7.38-7.24,8.94-3,4.42-6.04,8.82-9.11,13.19-9.95,14.16-20.3,28.04-30.83,41.78l5.86-3.25"/>
    <path class="cls-2" d="M130.38,29.14c3.57,1.91,7.11,3.87,10.57,5.98"/>
    <path class="cls-2" d="M164.38,1c-.31,4.27.68,8.62,2.8,12.34.71-1.09,1.23-2.29,1.54-3.55.56-2.28,4.16-6,3.99-8.34l3.7,10.73"/>
    <path class="cls-2" d="M437.88,39.2c17.84-5.52,58.72-16.01,75.65-23.25-3.95,3.51-13.86,20.58-16.93,24.88"/>
    <path class="cls-2" d="M473.1,7.15c3.6,21.41,10.62,49.81,15.28,76.71"/>
    <path class="cls-2" d="M515,39.16c.17,2.75,1.13,5.44,2.73,7.68"/>
    <path class="cls-2" d="M521.89,37.99c.63,3.13,2.23,6.05,4.51,8.28"/>
    <path class="cls-2" d="M541.77,39.57c-7.62,11.3-15.24,22.6-22.86,33.9-.15.22-.3.48-.22.73s.55.28.56.01"/>
    <path class="cls-2" d="M556.62,15.51c10.24-.17,19.46-1.78,29.45-3.96"/>
    <path class="cls-2" d="M550.43,33.68c13.74-2.4,36.59-6.27,50.34-8.67"/>
    <path class="cls-2" d="M575.01,35.64c-4.79,13.86-8.93,28.18-15.8,41.19"/>
    <path class="cls-2" d="M611.14,18.91c8.01,2.6,16.27,4.28,24.58,5.12"/>
    <path class="cls-2" d="M611.14,37.99c4.89,2.06,15.64,4.93,20.84,5.49"/>
    <path class="cls-2" d="M607.38,58.83c5.46,4.67,15.09,7.01,21.96,6.44"/>
    <path class="cls-2" d="M659.52,23.19c-4.95,14.45-8.61,29.34-10.9,44.44.7-.26,1.39-.53,2.09-.79"/>
    <path class="cls-2" d="M676.91,14.74c-3.55,11.55-5.87,23.47-6.91,35.5,20.05-16.34,43.85-27.31,67.45-37.91.76-.34,1.62.81,1.07,1.44s-1.81-.06-1.58-.86"/>
  </g>
</svg>