<?xml version="1.0" encoding="UTF-8"?>
<svg id="_レイヤー_2" data-name="レイヤー_2" xmlns="http://www.w3.org/2000/svg" xmlns:xlink="http://www.w3.org/1999/xlink" viewBox="0 0 1500.5 372.24">
  <defs>
    <style>
      .cls-1 {
        fill: none;
      }

      .cls-2 {
        fill: #fff;
        stroke: #231815;
        stroke-miterlimit: 10;
        stroke-width: .62px;
      }

      .cls-3 {
        clip-path: url(#clippath);
      }
    </style>
    <clipPath id="clippath">
      <rect class="cls-1" width="1500.5" height="372.24"/>
    </clipPath>
  </defs>
  <g id="_レイヤー_1-2" data-name="レイヤー_1">
    <g class="cls-3">
      <path class="cls-2" d="M1518.53,243.17V-39.76H-18.53V243.17c-10.43,10.19-16.91,24.4-16.91,40.12,0,30.98,25.12,56.1,56.1,56.1,27.62,0,50.56-19.97,55.22-46.25h1.76c4.66,26.28,27.6,46.25,55.22,46.25s50.56-19.97,55.22-46.25h1.76c4.66,26.28,27.6,46.25,55.22,46.25s50.56-19.97,55.22-46.25h1.76c4.66,26.28,27.6,46.25,55.22,46.25s50.56-19.97,55.22-46.25h1.76c4.66,26.28,27.6,46.25,55.22,46.25s50.56-19.97,55.22-46.25h1.76c4.66,26.28,27.6,46.25,55.22,46.25s50.56-19.97,55.22-46.25h1.76c4.66,26.28,27.6,46.25,55.22,46.25s50.56-19.97,55.22-46.25h1.76c4.66,26.28,27.6,46.25,55.22,46.25s50.56-19.97,55.22-46.25h1.76c4.66,26.28,27.6,46.25,55.22,46.25s50.56-19.97,55.22-46.25h1.76c4.66,26.28,27.6,46.25,55.22,46.25s50.56-19.97,55.22-46.25h1.76c4.66,26.28,27.6,46.25,55.22,46.25s50.56-19.97,55.22-46.25h1.76c4.66,26.28,27.6,46.25,55.22,46.25s50.56-19.97,55.22-46.25h1.76c4.66,26.28,27.6,46.25,55.22,46.25s50.56-19.97,55.22-46.25h1.76c4.66,26.28,27.6,46.25,55.22,46.25,30.98,0,56.1-25.12,56.1-56.1,0-15.73-6.48-29.94-16.91-40.12Z"/>
    </g>
  </g>
</svg>