<?xml version="1.0" encoding="UTF-8"?>
<svg id="_レイヤー_2" data-name="レイヤー_2" xmlns="http://www.w3.org/2000/svg" viewBox="0 0 954.51 7.58">
  <defs>
    <style>
      .cls-1 {
        fill: none;
        stroke: #000;
        stroke-miterlimit: 10;
        stroke-width: 1.58px;
      }
    </style>
  </defs>
  <g id="_レイヤー_1-2" data-name="レイヤー_1">
    <path class="cls-1" d="M0,.79c11.64,0,11.64,6,23.28,6S34.92.79,46.56.79s11.64,6,23.28,6S81.48.79,93.12.79s11.64,6,23.28,6,11.64-6,23.28-6,11.64,6,23.28,6,11.64-6,23.28-6,11.64,6,23.27,6,11.64-6,23.28-6,11.64,6,23.28,6,11.64-6,23.28-6,11.64,6,23.28,6,11.64-6,23.28-6,11.64,6,23.28,6,11.64-6,23.28-6,11.64,6,23.28,6,11.64-6,23.28-6,11.64,6,23.28,6,11.64-6,23.28-6,11.64,6,23.28,6,11.64-6,23.28-6,11.64,6,23.28,6,11.64-6,23.28-6,11.64,6,23.28,6,11.64-6,23.28-6,11.64,6,23.28,6,11.64-6,23.28-6,11.64,6,23.28,6,11.64-6,23.28-6,11.64,6,23.28,6,11.64-6,23.28-6,11.64,6,23.28,6,11.64-6,23.28-6,11.64,6,23.28,6,11.64-6,23.29-6,11.64,6,23.29,6,11.64-6,23.29-6,11.64,6,23.29,6,11.64-6,23.29-6,11.64,6,23.29,6"/>
  </g>
</svg>